<svg width="25" height="24" viewBox="0 0 25 24" fill="none" xmlns="http://www.w3.org/2000/svg">
<g id="vuesax/bold/briefcase">
<g id="vuesax/bold/briefcase_2">
<path id="Vector" d="M21.1525 6.98002C20.3025 6.04002 18.8825 5.57002 16.8225 5.57002H16.5825V5.53002C16.5825 3.85002 16.5825 1.77002 12.8225 1.77002H11.3025C7.54254 1.77002 7.54254 3.86002 7.54254 5.53002V5.58002H7.30254C5.23254 5.58002 3.82254 6.05002 2.97254 6.99002C1.98254 8.09002 2.01254 9.57002 2.11254 10.58L2.12254 10.65L2.19999 11.4633C2.21426 11.6131 2.29492 11.7484 2.42081 11.8307C2.66062 11.9877 3.06196 12.2464 3.30254 12.38C3.44254 12.47 3.59254 12.55 3.74254 12.63C5.45254 13.57 7.33254 14.2 9.24254 14.51C9.33254 15.45 9.74254 16.55 11.9325 16.55C14.1225 16.55 14.5525 15.46 14.6225 14.49C16.6625 14.16 18.6325 13.45 20.4125 12.41C20.4725 12.38 20.5125 12.35 20.5625 12.32C20.9593 12.0958 21.3708 11.8195 21.746 11.5489C21.859 11.4673 21.9313 11.3413 21.9467 11.2028L21.9625 11.06L22.0125 10.59C22.0225 10.53 22.0225 10.48 22.0325 10.41C22.1125 9.40002 22.0925 8.02002 21.1525 6.98002ZM13.1525 13.83C13.1525 14.89 13.1525 15.05 11.9225 15.05C10.6925 15.05 10.6925 14.86 10.6925 13.84V12.58H13.1525V13.83ZM8.97254 5.57002V5.53002C8.97254 3.83002 8.97254 3.20002 11.3025 3.20002H12.8225C15.1525 3.20002 15.1525 3.84002 15.1525 5.53002V5.58002H8.97254V5.57002Z" fill="#2563EB"/>
<path id="Vector_2" d="M20.9361 13.7342C21.2897 13.5659 21.6969 13.8462 21.6615 14.2362L21.3026 18.19C21.0926 20.19 20.2726 22.23 15.8726 22.23H8.25259C3.85259 22.23 3.03259 20.19 2.82259 18.2L2.48188 14.4522C2.44683 14.0667 2.84479 13.7868 3.19743 13.9463C4.33684 14.4618 6.43998 15.3764 7.73916 15.7167C7.90347 15.7597 8.03636 15.8773 8.1083 16.0312C8.71527 17.3293 10.0317 18.02 11.9326 18.02C13.8147 18.02 15.1477 17.3027 15.7567 16.0014C15.8288 15.8474 15.9618 15.7299 16.1262 15.6866C17.5058 15.3236 19.7444 14.3013 20.9361 13.7342Z" fill="#2563EB"/>
</g>
</g>
</svg>
