<svg width="25" height="25" viewBox="0 0 25 25" fill="none" xmlns="http://www.w3.org/2000/svg">
<g id="vuesax/bold/box">
<g id="vuesax/bold/box_2">
<path id="Vector" d="M20.835 8.07L13.135 12.53C12.825 12.71 12.435 12.71 12.115 12.53L4.41497 8.07C3.86497 7.75 3.72497 7 4.14497 6.53C4.43497 6.2 4.76497 5.93 5.11497 5.74L10.535 2.74C11.695 2.09 13.575 2.09 14.735 2.74L20.155 5.74C20.505 5.93 20.835 6.21 21.125 6.53C21.525 7 21.385 7.75 20.835 8.07Z" fill="#2563EB"/>
<path id="Vector_2" d="M12.055 14.39V21.21C12.055 21.97 11.285 22.47 10.605 22.14C8.54498 21.13 5.07498 19.24 5.07498 19.24C3.85498 18.55 2.85498 16.81 2.85498 15.38V10.22C2.85498 9.43 3.68498 8.93 4.36498 9.32L11.555 13.49C11.855 13.68 12.055 14.02 12.055 14.39Z" fill="#2563EB"/>
<path id="Vector_3" d="M13.1951 14.39V21.21C13.1951 21.97 13.9651 22.47 14.6451 22.14C16.7051 21.13 20.1751 19.24 20.1751 19.24C21.3951 18.55 22.3951 16.81 22.3951 15.38V10.22C22.3951 9.43 21.5651 8.93 20.8851 9.32L13.6951 13.49C13.3951 13.68 13.1951 14.02 13.1951 14.39Z" fill="#2563EB"/>
</g>
</g>
</svg>
