<svg width="25" height="25" viewBox="0 0 25 25" fill="none" xmlns="http://www.w3.org/2000/svg">
<g id="vuesax/bold/voice-cricle">
<g id="vuesax/bold/voice-cricle_2">
<g id="voice-cricle">
<path id="Vector" d="M12.0625 2.5C6.5425 2.5 2.0625 6.98 2.0625 12.5C2.0625 18.02 6.5425 22.5 12.0625 22.5C17.5825 22.5 22.0625 18.02 22.0625 12.5C22.0625 6.98 17.5825 2.5 12.0625 2.5ZM6.8125 14.64C6.8125 15.05 6.4725 15.39 6.0625 15.39C5.6525 15.39 5.3125 15.05 5.3125 14.64V10.36C5.3125 9.95 5.6525 9.61 6.0625 9.61C6.4725 9.61 6.8125 9.95 6.8125 10.36V14.64ZM9.8125 16.07C9.8125 16.48 9.4725 16.82 9.0625 16.82C8.6525 16.82 8.3125 16.48 8.3125 16.07V8.93C8.3125 8.52 8.6525 8.18 9.0625 8.18C9.4725 8.18 9.8125 8.52 9.8125 8.93V16.07ZM12.8125 17.5C12.8125 17.91 12.4725 18.25 12.0625 18.25C11.6525 18.25 11.3125 17.91 11.3125 17.5V7.5C11.3125 7.09 11.6525 6.75 12.0625 6.75C12.4725 6.75 12.8125 7.09 12.8125 7.5V17.5ZM15.8125 16.07C15.8125 16.48 15.4725 16.82 15.0625 16.82C14.6525 16.82 14.3125 16.48 14.3125 16.07V8.93C14.3125 8.52 14.6525 8.18 15.0625 8.18C15.4725 8.18 15.8125 8.52 15.8125 8.93V16.07ZM18.8125 14.64C18.8125 15.05 18.4725 15.39 18.0625 15.39C17.6525 15.39 17.3125 15.05 17.3125 14.64V10.36C17.3125 9.95 17.6525 9.61 18.0625 9.61C18.4725 9.61 18.8125 9.95 18.8125 10.36V14.64Z" fill="#2563EB"/>
</g>
</g>
</g>
</svg>
