<svg width="25" height="25" viewBox="0 0 25 25" fill="none" xmlns="http://www.w3.org/2000/svg">
<g id="home">
<path id="Vector" fill-rule="evenodd" clip-rule="evenodd" d="M6.62258 5.3893C4.08028 7.27703 2.80912 8.2209 2.30987 9.61512C2.26982 9.72696 2.2338 9.84027 2.20187 9.95481C1.80392 11.3827 2.28945 12.9099 3.26053 15.9643C4.2316 19.0187 4.71714 20.5459 5.8603 21.462C5.952 21.5355 6.04631 21.6055 6.14304 21.672C7.34881 22.5 8.92004 22.5 12.0625 22.5C15.205 22.5 16.7762 22.5 17.982 21.672C18.0787 21.6055 18.173 21.5355 18.2647 21.462C19.4079 20.5459 19.8934 19.0187 20.8645 15.9643C21.8355 12.9099 22.3211 11.3827 21.9231 9.95481C21.8912 9.84027 21.8552 9.72696 21.8151 9.61512C21.3159 8.2209 20.0447 7.27704 17.5024 5.38931C14.9601 3.50158 13.689 2.5577 12.2372 2.50327C12.1208 2.49891 12.0042 2.49891 11.8878 2.50327C10.436 2.5577 9.16488 3.50157 6.62258 5.3893ZM10.1559 17.1821C9.761 17.1821 9.44089 17.5093 9.44089 17.9129C9.44089 18.3164 9.761 18.6436 10.1559 18.6436H13.9691C14.364 18.6436 14.6841 18.3164 14.6841 17.9129C14.6841 17.5093 14.364 17.1821 13.9691 17.1821H10.1559Z" fill="#2563EB"/>
</g>
</svg>
