<svg width="25" height="24" viewBox="0 0 25 24" fill="none" xmlns="http://www.w3.org/2000/svg">
<g id="vuesax/linear/briefcase">
<g id="vuesax/linear/briefcase_2">
<g id="briefcase">
<path id="Vector" d="M8.31245 22H16.3124C20.3324 22 21.0524 20.39 21.2624 18.43L22.0124 10.43C22.2824 7.99 21.5824 6 17.3124 6H7.31245C3.04245 6 2.34245 7.99 2.61245 10.43L3.36245 18.43C3.57245 20.39 4.29245 22 8.31245 22Z" stroke="#5E5E5E" stroke-width="1.5" stroke-miterlimit="10" stroke-linecap="round" stroke-linejoin="round"/>
<path id="Vector_2" d="M8.3125 6V5.2C8.3125 3.43 8.3125 2 11.5125 2H13.1125C16.3125 2 16.3125 3.43 16.3125 5.2V6" stroke="#5E5E5E" stroke-width="1.5" stroke-miterlimit="10" stroke-linecap="round" stroke-linejoin="round"/>
<path id="Vector_3" d="M14.3125 13V14C14.3125 14.01 14.3125 14.01 14.3125 14.02C14.3125 15.11 14.3025 16 12.3125 16C10.3325 16 10.3125 15.12 10.3125 14.03V13C10.3125 12 10.3125 12 11.3125 12H13.3125C14.3125 12 14.3125 12 14.3125 13Z" stroke="#5E5E5E" stroke-width="1.5" stroke-miterlimit="10" stroke-linecap="round" stroke-linejoin="round"/>
<path id="Vector_4" d="M21.9625 11C19.6525 12.68 17.0125 13.68 14.3125 14.02" stroke="#5E5E5E" stroke-width="1.5" stroke-miterlimit="10" stroke-linecap="round" stroke-linejoin="round"/>
<path id="Vector_5" d="M2.9325 11.27C5.1825 12.81 7.7225 13.74 10.3125 14.03" stroke="#5E5E5E" stroke-width="1.5" stroke-miterlimit="10" stroke-linecap="round" stroke-linejoin="round"/>
</g>
</g>
</g>
</svg>
