<svg width="25" height="25" viewBox="0 0 25 25" fill="none" xmlns="http://www.w3.org/2000/svg">
<g id="home">
<path id="Vector" d="M3.51053 15.9643L4.2069 15.7429L3.51053 15.9643ZM2.45187 9.95481L3.15576 10.151L2.45187 9.95481ZM6.87258 5.3893L6.43696 4.80263H6.43696L6.87258 5.3893ZM2.55987 9.61512L3.24781 9.86146L2.55987 9.61512ZM6.39304 21.672L5.97938 22.2743H5.97938L6.39304 21.672ZM6.1103 21.462L5.65335 22.0322L6.1103 21.462ZM21.1145 15.9643L20.4181 15.7429L21.1145 15.9643ZM18.5147 21.462L18.9717 22.0322L18.5147 21.462ZM18.232 21.672L18.6456 22.2743L18.232 21.672ZM17.7524 5.3893L18.188 4.80263L17.7524 5.3893ZM22.0651 9.61512L21.3772 9.86146L22.0651 9.61512ZM22.1731 9.95481L21.4692 10.151L22.1731 9.95481ZM12.4872 2.50327L12.4599 3.23348L12.4872 2.50327ZM12.1378 2.50327L12.1651 3.23348L12.1378 2.50327ZM10.4059 17.1822C10.0023 17.1822 9.67516 17.5093 9.67516 17.9129C9.67516 18.3164 10.0023 18.6436 10.4059 18.6436V17.1822ZM14.2191 18.6436C14.6227 18.6436 14.9498 18.3164 14.9498 17.9129C14.9498 17.5093 14.6227 17.1822 14.2191 17.1822V18.6436ZM4.2069 15.7429C3.71665 14.2009 3.36711 13.0983 3.18366 12.2029C3.00355 11.3239 2.99931 10.7123 3.15576 10.151L1.74798 9.75863C1.50647 10.6252 1.54602 11.4911 1.75197 12.4963C1.95457 13.4851 2.33333 14.6733 2.81416 16.1857L4.2069 15.7429ZM6.43696 4.80263C5.17857 5.73703 4.18745 6.47171 3.45366 7.15108C2.70682 7.84252 2.17536 8.52142 1.87193 9.36878L3.24781 9.86146C3.44363 9.3146 3.79737 8.82446 4.4465 8.22347C5.10868 7.61042 6.02429 6.92931 7.3082 5.97597L6.43696 4.80263ZM3.15576 10.151C3.18297 10.0533 3.21368 9.95677 3.24781 9.86146L1.87193 9.36878C1.82596 9.49716 1.78462 9.6272 1.74798 9.75863L3.15576 10.151ZM12.3125 21.7693C10.725 21.7693 9.59376 21.7683 8.70679 21.6702C7.83775 21.5741 7.27451 21.3909 6.8067 21.0696L5.97938 22.2743C6.71733 22.7811 7.54259 23.0118 8.54622 23.1228C9.53193 23.2317 10.7575 23.2307 12.3125 23.2307V21.7693ZM2.81416 16.1857C3.29495 17.698 3.67195 18.8869 4.07685 19.8089C4.48827 20.7456 4.95545 21.473 5.65335 22.0322L6.56725 20.8918C6.12198 20.535 5.77482 20.0407 5.41491 19.2212C5.04849 18.3869 4.69718 17.285 4.2069 15.7429L2.81416 16.1857ZM6.8067 21.0696C6.72481 21.0134 6.64494 20.9541 6.56725 20.8918L5.65335 22.0322C5.75906 22.1169 5.86781 22.1977 5.97938 22.2743L6.8067 21.0696ZM20.4181 15.7429C19.9278 17.285 19.5765 18.3869 19.2101 19.2212C18.8502 20.0407 18.503 20.535 18.0577 20.8918L18.9717 22.0322C19.6695 21.473 20.1367 20.7456 20.5482 19.8089C20.9531 18.8869 21.33 17.698 21.8108 16.1857L20.4181 15.7429ZM12.3125 23.2307C13.8675 23.2307 15.0931 23.2317 16.0788 23.1228C17.0824 23.0118 17.9077 22.7811 18.6456 22.2743L17.8183 21.0696C17.3505 21.3909 16.7873 21.5741 15.9182 21.6702C15.0312 21.7683 13.9 21.7693 12.3125 21.7693V23.2307ZM18.0577 20.8918C17.9801 20.9541 17.9002 21.0134 17.8183 21.0696L18.6456 22.2743C18.7572 22.1977 18.8659 22.1169 18.9717 22.0322L18.0577 20.8918ZM17.3168 5.97597C18.6007 6.92931 19.5163 7.61042 20.1785 8.22347C20.8276 8.82446 21.1814 9.3146 21.3772 9.86146L22.7531 9.36878C22.4496 8.52142 21.9182 7.84252 21.1713 7.15108C20.4375 6.47171 19.4464 5.73703 18.188 4.80263L17.3168 5.97597ZM21.8108 16.1857C22.2917 14.6733 22.6704 13.4851 22.873 12.4963C23.079 11.4911 23.1185 10.6252 22.877 9.75863L21.4692 10.151C21.6257 10.7123 21.6214 11.3239 21.4413 12.2029C21.2579 13.0983 20.9084 14.2009 20.4181 15.7429L21.8108 16.1857ZM21.3772 9.86146C21.4113 9.95676 21.442 10.0533 21.4692 10.151L22.877 9.75863C22.8404 9.6272 22.799 9.49716 22.7531 9.36878L21.3772 9.86146ZM18.188 4.80263C16.9298 3.86835 15.9396 3.13187 15.0803 2.62834C14.2062 2.1162 13.4057 1.80648 12.5146 1.77307L12.4599 3.23348C13.0205 3.2545 13.5814 3.44392 14.3414 3.88926C15.1162 4.3432 16.0327 5.02252 17.3168 5.97597L18.188 4.80263ZM7.3082 5.97597C8.59226 5.02252 9.50883 4.3432 10.2836 3.88926C11.0436 3.44392 11.6045 3.2545 12.1651 3.23348L12.1104 1.77307C11.2193 1.80648 10.4188 2.1162 9.54473 2.62834C8.68537 3.13187 7.69521 3.86835 6.43696 4.80263L7.3082 5.97597ZM12.5146 1.77307C12.3799 1.76802 12.2451 1.76802 12.1104 1.77307L12.1651 3.23348C12.2633 3.22979 12.3617 3.22979 12.4599 3.23348L12.5146 1.77307ZM10.4059 18.6436H14.2191V17.1822H10.4059V18.6436Z" fill="#5E5E5E"/>
</g>
</svg>
