<svg width="25" height="24" viewBox="0 0 25 24" fill="none" xmlns="http://www.w3.org/2000/svg">
<g id="vuesax/linear/profile">
<g id="vuesax/linear/profile_2">
<g id="profile">
<path id="Vector" d="M13.0351 10.87C12.9351 10.86 12.8151 10.86 12.7051 10.87C10.3251 10.79 8.43506 8.84 8.43506 6.44C8.43506 3.99 10.4151 2 12.8751 2C15.3251 2 17.3151 3.99 17.3151 6.44C17.3051 8.84 15.4151 10.79 13.0351 10.87Z" stroke="#5E5E5E" stroke-width="1.5" stroke-linecap="round" stroke-linejoin="round"/>
<path id="Vector_2" d="M8.03497 14.56C5.61497 16.18 5.61497 18.82 8.03497 20.43C10.785 22.27 15.295 22.27 18.045 20.43C20.465 18.81 20.465 16.17 18.045 14.56C15.305 12.73 10.795 12.73 8.03497 14.56Z" stroke="#5E5E5E" stroke-width="1.5" stroke-linecap="round" stroke-linejoin="round"/>
</g>
</g>
</g>
</svg>
