<svg width="25" height="25" viewBox="0 0 25 25" fill="none" xmlns="http://www.w3.org/2000/svg">
<g id="vuesax/linear/box">
<g id="vuesax/linear/box_2">
<g id="box">
<g id="Group">
<g id="Group_2">
<path id="Vector" d="M4.04504 7.69L12.875 12.8L21.645 7.71997" stroke="#5E5E5E" stroke-width="1.5" stroke-linecap="round" stroke-linejoin="round"/>
<path id="Vector_2" d="M12.875 21.86V12.79" stroke="#5E5E5E" stroke-width="1.5" stroke-linecap="round" stroke-linejoin="round"/>
</g>
<path id="Vector_3" d="M10.805 2.73L5.465 5.70003C4.255 6.37003 3.26501 8.05001 3.26501 9.43001V15.08C3.26501 16.46 4.255 18.14 5.465 18.81L10.805 21.78C11.945 22.41 13.815 22.41 14.955 21.78L20.295 18.81C21.505 18.14 22.495 16.46 22.495 15.08V9.43001C22.495 8.05001 21.505 6.37003 20.295 5.70003L14.955 2.73C13.805 2.09 11.945 2.09 10.805 2.73Z" stroke="#5E5E5E" stroke-width="1.5" stroke-linecap="round" stroke-linejoin="round"/>
</g>
<path id="Vector_4" d="M17.875 13.49V9.83002L8.38501 4.34998" stroke="#5E5E5E" stroke-width="1.5" stroke-linecap="round" stroke-linejoin="round"/>
</g>
</g>
</g>
</svg>
