<svg width="117" height="141" viewBox="0 0 117 141" fill="none" xmlns="http://www.w3.org/2000/svg">
<g id="Frame 1000003849">
<path id="Vector" d="M84.6729 136.056C83.5129 136.176 82.3449 136.064 81.2169 135.744L20.9929 118.472C16.2969 117.12 13.4649 112.336 14.5369 107.568L35.5129 17.3121C36.3929 13.4321 39.6409 10.5601 43.5929 10.1601C44.4729 10.0721 45.3529 10.1121 46.2249 10.2801L105.137 21.4321C107.569 21.8881 109.673 23.2721 111.057 25.3201C112.449 27.3681 112.945 29.8401 112.473 32.2641L92.8089 128.64C92.0249 132.664 88.7529 135.648 84.6729 136.056Z" fill="url(#paint0_linear_1028_13904)"/>
<path id="Vector_2" d="M83.7686 134.504C82.6086 134.624 81.4406 134.512 80.3126 134.192L20.0886 116.912C15.3926 115.56 12.5606 110.776 13.6326 106.008L34.6086 15.7521C35.4886 11.8721 38.7366 9.00006 42.6886 8.60006C43.5686 8.51206 44.4486 8.55206 45.3206 8.72006L104.233 19.8721C106.665 20.3281 108.769 21.7121 110.153 23.7601C111.545 25.8081 112.041 28.2801 111.569 30.7041L91.9126 127.088C91.1206 131.112 87.8486 134.096 83.7686 134.504Z" fill="url(#paint1_linear_1028_13904)"/>
<path id="Vector_3" d="M107.713 26.12C106.889 25.232 105.777 24.568 104.481 24.328L45.569 13.176C42.441 12.584 39.401 14.584 38.705 17.688L17.729 107.944C17.401 109.4 17.649 110.872 18.329 112.08C17.017 110.704 16.417 108.712 16.873 106.736L37.849 16.48C38.545 13.376 41.585 11.392 44.713 11.984L103.625 23.136C105.441 23.48 106.897 24.608 107.713 26.12Z" fill="url(#paint2_linear_1028_13904)"/>
<path id="Vector_4" d="M108.328 30.0802L88.6645 126.448C88.0005 129.856 84.5525 131.96 81.2165 131L21.0085 113.72C19.9365 113.408 19.0245 112.848 18.3285 112.072C17.6565 110.864 17.4085 109.392 17.7285 107.936L38.7045 17.6802C39.4005 14.5762 42.4405 12.5762 45.5685 13.1682L104.48 24.3202C105.776 24.5602 106.888 25.2242 107.712 26.1122C108.352 27.2802 108.592 28.6802 108.328 30.0802Z" fill="url(#paint3_linear_1028_13904)"/>
<path id="Vector_5" d="M43.3933 18.88L103.745 29.992C105.625 30.336 106.833 32.184 106.385 34.04C103.041 47.944 90.3613 100.136 85.6093 112.688C82.8413 119.992 80.1293 124.24 78.1133 126.664C76.4813 128.624 73.8173 129.384 71.3613 128.704L6.26528 110.528C4.72128 110.096 4.26528 108.144 5.46528 107.08C10.3293 102.776 19.9693 92.512 25.2973 75.04C31.4013 55.032 38.0733 29.088 40.1373 20.952C40.5133 19.512 41.9293 18.616 43.3933 18.88Z" fill="url(#paint4_linear_1028_13904)"/>
<path id="Vector_6" d="M43.0085 18.2721L103.36 29.3841C105.24 29.7281 106.448 31.5761 106 33.4321C102.656 47.3361 89.9765 99.5281 85.2245 112.08C82.4565 119.384 79.7445 123.632 77.7285 126.056C76.0965 128.016 73.4325 128.776 70.9765 128.096L5.88051 109.928C4.33651 109.496 3.88051 107.544 5.08051 106.48C9.94451 102.176 19.5845 91.9121 24.9125 74.4401C31.0165 54.4321 37.6885 28.4881 39.7525 20.3521C40.1285 18.9041 41.5445 18.0081 43.0085 18.2721Z" fill="url(#paint5_linear_1028_13904)"/>
<g id="Group">
<path id="Vector_7" d="M59.7291 23.0961L84.7691 27.4881C85.3131 27.5841 85.8331 27.2401 85.9531 26.7041L87.1931 21.2641C87.3211 20.6881 86.9451 20.1201 86.3611 20.0161L61.3211 15.6241C60.7771 15.5281 60.2571 15.8721 60.1371 16.4081L58.8971 21.8481C58.7691 22.4321 59.1451 23.0001 59.7291 23.0961Z" fill="url(#paint6_linear_1028_13904)"/>
<path id="Vector_8" d="M59.513 22.7041L84.553 27.0961C85.097 27.1921 85.617 26.8481 85.737 26.3121L86.977 20.8721C87.105 20.2961 86.729 19.7281 86.145 19.6241L61.105 15.2321C60.561 15.1361 60.041 15.4801 59.921 16.0161L58.681 21.4561C58.553 22.0321 58.929 22.6001 59.513 22.7041Z" fill="url(#paint7_linear_1028_13904)"/>
<path id="Vector_9" d="M79.6726 8.77606L83.0886 9.23206C83.7446 9.32006 84.1206 10.0241 83.8246 10.6161L79.4326 19.5121L79.6726 8.77606Z" fill="url(#paint8_linear_1028_13904)"/>
<path id="Vector_10" d="M79.3211 8.56009L82.7371 9.01609C83.3931 9.10409 83.7691 9.80809 83.4731 10.4001L79.0811 19.2961L79.3211 8.56009Z" fill="url(#paint9_linear_1028_13904)"/>
<path id="Vector_11" d="M69.3691 17.2001L66.8331 5.84009C66.6011 4.79209 67.4891 3.84009 68.5451 4.00009L78.2891 5.45609C79.1291 5.58409 79.7451 6.31209 79.7211 7.16009L79.4651 18.9761L69.3691 17.2001Z" fill="url(#paint10_linear_1028_13904)"/>
<path id="Vector_12" d="M68.9931 17.5121L66.4571 6.15208C66.2251 5.10408 67.1131 4.15208 68.1691 4.31208L77.9131 5.76808C78.7531 5.89608 79.3691 6.62408 79.3451 7.47208L79.0891 19.2881L68.9931 17.5121Z" fill="url(#paint11_linear_1028_13904)"/>
<path id="Vector_13" d="M59.729 23.0961L58.513 27.3681C58.313 28.0721 58.769 28.8001 59.489 28.9201L81.497 32.7361C82.257 32.8641 82.977 32.3681 83.121 31.6161L83.937 27.3441" stroke="#BBBDBF" stroke-width="5.18" stroke-miterlimit="10"/>
<path id="Vector_14" d="M82.5212 23.6801C83.0425 23.6801 83.4651 23.2789 83.4651 22.7841C83.4651 22.2892 83.0425 21.8881 82.5212 21.8881C81.9998 21.8881 81.5771 22.2892 81.5771 22.7841C81.5771 23.2789 81.9998 23.6801 82.5212 23.6801Z" fill="#BC5B0C"/>
<path id="Vector_15" d="M82.4567 23.5761C82.978 23.5761 83.4007 23.1749 83.4007 22.6801C83.4007 22.1852 82.978 21.7841 82.4567 21.7841C81.9353 21.7841 81.5127 22.1852 81.5127 22.6801C81.5127 23.1749 81.9353 23.5761 82.4567 23.5761Z" fill="#DB6E0B"/>
<path id="Vector_16" d="M61.9206 20.4481C62.4419 20.4481 62.8646 20.0469 62.8646 19.5521C62.8646 19.0572 62.4419 18.6561 61.9206 18.6561C61.3992 18.6561 60.9766 19.0572 60.9766 19.5521C60.9766 20.0469 61.3992 20.4481 61.9206 20.4481Z" fill="#BC5B0C"/>
<path id="Vector_17" d="M61.849 20.3441C62.3704 20.3441 62.793 19.9429 62.793 19.4481C62.793 18.9532 62.3704 18.5521 61.849 18.5521C61.3277 18.5521 60.905 18.9532 60.905 19.4481C60.905 19.9429 61.3277 20.3441 61.849 20.3441Z" fill="#DB6E0B"/>
<path id="Vector_18" d="M77.625 17.2001C77.489 17.4961 77.161 17.6961 76.793 17.6161L70.729 16.3921C70.329 16.3121 70.017 15.9921 69.969 15.6001L69.177 10.3761C69.129 10.0241 69.409 9.72809 69.761 9.72809C69.729 9.79209 69.713 9.88009 69.729 9.96009L70.521 15.1841C70.569 15.5841 70.889 15.8961 71.281 15.9761L77.361 17.2001C77.441 17.2161 77.537 17.2161 77.625 17.2001Z" fill="url(#paint12_linear_1028_13904)"/>
<path id="Vector_19" d="M77.7049 11.7761V16.8801C77.7049 17.0001 77.6889 17.0961 77.6249 17.1921C77.5449 17.2081 77.4409 17.2081 77.3609 17.1921L71.2809 15.9681C70.8809 15.8881 70.5689 15.5681 70.5209 15.1761L69.7289 9.95209C69.7129 9.87209 69.7289 9.78409 69.7609 9.72009H69.8409L76.8889 10.8161C77.3609 10.8801 77.7049 11.2961 77.7049 11.7761Z" fill="url(#paint13_linear_1028_13904)"/>
<path id="Vector_20" opacity="0.57" d="M77.913 5.76809L68.169 4.31209C67.745 4.24809 67.353 4.36809 67.041 4.60009C67.329 4.43209 67.665 4.35209 68.025 4.40809L77.769 5.8641C78.609 5.9921 79.225 6.72009 79.201 7.56809L78.945 19.2721L79.081 19.2961L79.337 7.48009C79.369 6.62409 78.753 5.89609 77.913 5.76809Z" fill="url(#paint14_linear_1028_13904)"/>
</g>
<g id="Group_2">
<path id="Vector_21" d="M98.3449 45.928C82.4889 43.448 66.7209 40.304 50.9529 37.304C50.7209 37.264 50.5769 37.056 50.6329 36.84C50.6409 36.824 50.6409 36.816 50.6409 36.8C50.6969 36.584 50.9289 36.448 51.1609 36.488C66.9209 39.488 82.6889 42.64 98.5449 45.104C98.7769 45.136 98.9209 45.344 98.8649 45.56C98.8649 45.576 98.8569 45.584 98.8569 45.6C98.8009 45.816 98.5769 45.96 98.3449 45.928Z" fill="#D5D5D5"/>
<path id="Vector_22" d="M94.433 39.76C78.585 37.12 62.833 33.912 47.025 31.04C46.793 31 46.649 30.792 46.697 30.584C46.697 30.568 46.705 30.56 46.705 30.544C46.753 30.336 46.985 30.192 47.217 30.232C63.025 33.104 78.769 36.32 94.625 38.96C94.857 39 95.001 39.2 94.953 39.408C94.953 39.424 94.945 39.432 94.945 39.448C94.889 39.656 94.657 39.792 94.433 39.76Z" fill="url(#paint15_linear_1028_13904)"/>
<path id="Vector_23" d="M97.705 48.496C78.345 45.392 59.153 41.36 39.841 37.976C39.601 37.936 39.449 37.72 39.505 37.496C39.561 37.272 39.809 37.12 40.049 37.16C59.353 40.536 78.545 44.568 97.897 47.664C98.137 47.704 98.289 47.92 98.233 48.144C98.185 48.376 97.945 48.536 97.705 48.496Z" fill="#D5D5D5"/>
<path id="Vector_24" d="M97.0807 51.096C77.7126 47.952 58.4967 43.928 39.1767 40.512C38.9367 40.472 38.7847 40.256 38.8487 40.032C38.9047 39.808 39.1527 39.656 39.3927 39.696C58.7127 43.104 77.9126 47.128 97.2806 50.256C97.5206 50.296 97.6727 50.512 97.6167 50.744C97.5607 50.976 97.3206 51.136 97.0807 51.096Z" fill="#D5D5D5"/>
<path id="Vector_25" d="M96.449 53.72C77.065 50.528 57.833 46.504 38.497 43.056C38.257 43.016 38.105 42.792 38.169 42.568C38.233 42.344 38.473 42.192 38.721 42.232C58.057 45.672 77.273 49.688 96.657 52.872C96.897 52.912 97.049 53.128 96.993 53.36C96.937 53.6 96.689 53.76 96.449 53.72Z" fill="#D5D5D5"/>
<path id="Vector_26" d="M95.8165 56.36C76.4165 53.112 57.1685 49.096 37.8085 45.608C37.5685 45.568 37.4165 45.344 37.4805 45.12C37.5445 44.896 37.7925 44.744 38.0325 44.784C57.3845 48.256 76.6245 52.28 96.0165 55.512C96.2565 55.552 96.4085 55.776 96.3525 56.008C96.2965 56.24 96.0565 56.4 95.8165 56.36Z" fill="#D5D5D5"/>
<path id="Vector_27" d="M87.729 57.736C70.833 54.664 54.001 51.232 37.105 48.152C36.865 48.112 36.721 47.896 36.785 47.672C36.785 47.664 36.785 47.664 36.793 47.656C36.857 47.432 37.097 47.288 37.337 47.328C54.233 50.392 71.049 53.824 87.945 56.88C88.185 56.92 88.329 57.144 88.273 57.376C88.273 57.384 88.273 57.384 88.273 57.392C88.209 57.624 87.969 57.784 87.729 57.736Z" fill="#D5D5D5"/>
<g id="Group_3">
<path id="Vector_28" d="M93.8257 64.728C77.8817 61.936 62.0098 58.72 46.1378 55.592C45.9058 55.544 45.7618 55.336 45.8178 55.112C45.8258 55.096 45.8257 55.088 45.8257 55.072C45.8817 54.856 46.1218 54.712 46.3538 54.76C62.2258 57.88 78.0897 61.088 94.0257 63.864C94.2577 63.904 94.4017 64.12 94.3457 64.352C94.3457 64.368 94.3378 64.376 94.3378 64.392C94.2898 64.616 94.0577 64.768 93.8257 64.728Z" fill="#D5D5D5"/>
<path id="Vector_29" d="M93.1532 67.424C73.6892 63.92 54.3292 59.856 34.9052 56.16C34.6652 56.112 34.5132 55.896 34.5772 55.664C34.6412 55.44 34.8892 55.288 35.1292 55.336C54.5532 59.008 73.8972 63.072 93.3612 66.552C93.6012 66.592 93.7532 66.824 93.6972 67.064C93.6412 67.312 93.4012 67.472 93.1532 67.424Z" fill="#D5D5D5"/>
<path id="Vector_30" d="M92.5053 70.136C73.0253 66.56 53.6413 62.48 34.2013 58.728C33.9613 58.68 33.8093 58.456 33.8733 58.232C33.9373 58.008 34.1853 57.856 34.4253 57.904C53.8653 61.632 73.2413 65.712 92.7133 69.264C92.9533 69.304 93.1053 69.536 93.0493 69.776C92.9933 70.016 92.7453 70.184 92.5053 70.136Z" fill="#D5D5D5"/>
<path id="Vector_31" d="M91.857 72.856C72.361 69.208 52.961 65.104 33.497 61.288C33.257 61.24 33.105 61.016 33.169 60.792C33.233 60.568 33.481 60.416 33.721 60.464C53.177 64.256 72.577 68.352 92.065 71.976C92.305 72.024 92.457 72.256 92.401 72.496C92.345 72.736 92.097 72.896 91.857 72.856Z" fill="#D5D5D5"/>
<path id="Vector_32" d="M91.2009 75.5761C71.6969 71.8561 52.2649 67.7201 32.7929 63.8481C32.5529 63.8001 32.4009 63.5761 32.4649 63.3521C32.5289 63.1281 32.7769 62.9841 33.0169 63.0241C52.4889 66.8801 71.9049 71.0001 91.4089 74.6961C91.6489 74.7441 91.8009 74.9761 91.7449 75.2161C91.6889 75.4641 91.4409 75.6161 91.2009 75.5761Z" fill="#D5D5D5"/>
<path id="Vector_33" d="M83.0413 76.8321C66.0413 73.4241 49.0813 69.84 32.0813 66.4C31.8413 66.352 31.6973 66.1281 31.7533 65.9121C31.7533 65.9041 31.7533 65.904 31.7613 65.896C31.8253 65.672 32.0653 65.536 32.3053 65.576C49.2973 68.992 66.2573 72.576 83.2493 75.96C83.4893 76.008 83.6413 76.2401 83.5853 76.4721C83.5853 76.4801 83.5853 76.48 83.5853 76.488C83.5293 76.728 83.2813 76.8801 83.0413 76.8321Z" fill="#D5D5D5"/>
</g>
<g id="Group_4">
<path id="Vector_34" d="M89.1769 84.096C73.1689 80.856 57.1929 77.432 41.2249 74.032C40.9929 73.984 40.8489 73.768 40.9049 73.552C40.9129 73.536 40.9129 73.528 40.9129 73.512C40.9689 73.296 41.2089 73.16 41.4409 73.208C57.4169 76.592 73.3849 80 89.3929 83.224C89.6249 83.272 89.7689 83.496 89.7129 83.728C89.7129 83.744 89.7049 83.752 89.7049 83.768C89.6409 83.992 89.4089 84.144 89.1769 84.096Z" fill="#D5D5D5"/>
<path id="Vector_35" d="M88.5046 86.808C68.9766 82.76 49.4886 78.504 29.9846 74.352C29.7446 74.304 29.5926 74.072 29.6486 73.848C29.7046 73.624 29.9526 73.48 30.2006 73.536C49.7046 77.664 69.1926 81.912 88.7206 85.936C88.9606 85.984 89.1126 86.224 89.0566 86.464C88.9926 86.704 88.7446 86.856 88.5046 86.808Z" fill="#D5D5D5"/>
<path id="Vector_36" d="M87.8491 89.52C68.3211 85.384 48.8331 81.096 29.3291 76.872C29.0891 76.816 28.9291 76.592 28.9851 76.368C29.0411 76.144 29.2891 76.008 29.5291 76.056C49.0331 80.256 68.5211 84.536 88.0491 88.64C88.2891 88.688 88.4411 88.928 88.3851 89.168C88.3451 89.416 88.0971 89.576 87.8491 89.52Z" fill="#D5D5D5"/>
<path id="Vector_37" d="M87.2007 92.224C67.6887 88.008 48.1927 83.688 28.6967 79.392C28.4487 79.336 28.2967 79.112 28.3527 78.888C28.4087 78.664 28.6567 78.528 28.8967 78.584C48.4007 82.856 67.8887 87.168 87.4087 91.36C87.6487 91.416 87.8007 91.648 87.7447 91.888C87.6887 92.128 87.4487 92.28 87.2007 92.224Z" fill="#D5D5D5"/>
<path id="Vector_38" d="M86.5609 94.92C67.0649 90.616 47.5769 86.264 28.0889 81.896C27.8489 81.84 27.6888 81.616 27.7448 81.392C27.8008 81.168 28.0409 81.032 28.2889 81.088C47.7769 85.432 67.2649 89.776 86.7768 94.048C87.0168 94.104 87.1689 94.336 87.1129 94.576C87.0489 94.824 86.8009 94.968 86.5609 94.92Z" fill="#D5D5D5"/>
<path id="Vector_39" d="M78.313 95.984C61.321 92.16 44.353 88.256 27.369 84.416C27.129 84.36 27.001 84.136 27.073 83.912C27.073 83.904 27.073 83.904 27.081 83.896C27.153 83.672 27.401 83.536 27.641 83.592C44.625 87.424 61.601 91.28 78.593 95.088C78.833 95.144 78.977 95.384 78.905 95.624C78.905 95.632 78.905 95.632 78.897 95.64C78.809 95.88 78.553 96.032 78.313 95.984Z" fill="#D5D5D5"/>
</g>
<g id="Group_5">
<path id="Vector_40" d="M81.1295 105.72C71.2975 103.44 66.2895 102.184 56.2895 99.696C56.1215 99.656 56.0575 99.48 56.1535 99.312C56.2175 99.2 56.2495 99.144 56.3055 99.032C56.4015 98.864 56.6095 98.76 56.7855 98.8C66.7775 101.264 71.7855 102.504 81.6175 104.768C81.7855 104.808 81.8495 104.984 81.7535 105.168C81.6895 105.288 81.6655 105.344 81.6015 105.464C81.5135 105.648 81.2975 105.76 81.1295 105.72Z" fill="#D5D5D5"/>
<path id="Vector_41" d="M71.2734 114.096C64.5214 112.392 61.0894 111.464 54.2254 109.584C54.0814 109.544 54.0414 109.424 54.1294 109.312C54.2334 109.192 54.2814 109.128 54.3854 109C54.4734 108.888 54.6654 108.824 54.8094 108.864C61.6654 110.72 65.0894 111.648 71.8334 113.344C71.9694 113.376 72.0174 113.504 71.9294 113.624C71.8334 113.752 71.7854 113.816 71.6894 113.944C71.6014 114.072 71.4094 114.136 71.2734 114.096Z" fill="#D5D5D5"/>
</g>
<g id="Group_6">
<path id="Vector_42" d="M48.289 97.704C38.289 95.216 33.281 93.96 23.457 91.68C23.289 91.64 23.233 91.48 23.329 91.328C23.393 91.224 23.425 91.176 23.489 91.072C23.585 90.92 23.801 90.824 23.969 90.864C33.785 93.136 38.793 94.376 48.785 96.84C48.953 96.88 49.017 97.048 48.921 97.216C48.857 97.328 48.825 97.376 48.761 97.488C48.681 97.648 48.465 97.752 48.289 97.704Z" fill="#D5D5D5"/>
<path id="Vector_43" d="M38.0249 105.144C31.1689 103.272 27.7369 102.352 21.0009 100.664C20.8649 100.632 20.8249 100.52 20.9289 100.416C21.0329 100.304 21.0889 100.248 21.2009 100.136C21.2969 100.032 21.4889 99.976 21.6329 100.016C28.3689 101.696 31.7849 102.616 38.6409 104.464C38.7849 104.504 38.8249 104.624 38.7289 104.728C38.6249 104.848 38.5689 104.904 38.4649 105.024C38.3609 105.128 38.1689 105.184 38.0249 105.144Z" fill="#D5D5D5"/>
</g>
</g>
</g>
<defs>
<linearGradient id="paint0_linear_1028_13904" x1="83.2768" y1="38.3515" x2="37.592" y2="121.339" gradientUnits="userSpaceOnUse">
<stop stop-color="#505FAA"/>
<stop offset="1" stop-color="#8F92C7"/>
</linearGradient>
<linearGradient id="paint1_linear_1028_13904" x1="10.2521" y1="76.8426" x2="115.534" y2="66.3396" gradientUnits="userSpaceOnUse">
<stop stop-color="#505FAA"/>
<stop offset="1" stop-color="#8F92C7"/>
</linearGradient>
<linearGradient id="paint2_linear_1028_13904" x1="12.2828" y1="63.831" x2="110.509" y2="54.0319" gradientUnits="userSpaceOnUse">
<stop stop-color="#505FAA"/>
<stop offset="1" stop-color="#2C3C91"/>
</linearGradient>
<linearGradient id="paint3_linear_1028_13904" x1="14.3555" y1="77.0757" x2="112.298" y2="67.3049" gradientUnits="userSpaceOnUse">
<stop stop-color="#B0B3D7"/>
<stop offset="1" stop-color="#F5F5FA"/>
</linearGradient>
<linearGradient id="paint4_linear_1028_13904" x1="70.5954" y1="25.885" x2="43.6328" y2="116.083" gradientUnits="userSpaceOnUse">
<stop stop-color="#E7EDF7"/>
<stop offset="1" stop-color="#8F92C7"/>
</linearGradient>
<linearGradient id="paint5_linear_1028_13904" x1="70.2083" y1="25.2782" x2="43.2459" y2="115.477" gradientUnits="userSpaceOnUse">
<stop stop-color="#F9FCFF"/>
<stop offset="1" stop-color="#E7EDF7"/>
</linearGradient>
<linearGradient id="paint6_linear_1028_13904" x1="75.6173" y1="20.228" x2="84.9698" y2="15.3689" gradientUnits="userSpaceOnUse">
<stop stop-color="#F58B21"/>
<stop offset="1" stop-color="#F5B419"/>
</linearGradient>
<linearGradient id="paint7_linear_1028_13904" x1="73.3523" y1="18.4925" x2="72.2282" y2="24.3453" gradientUnits="userSpaceOnUse">
<stop stop-color="#F58B21"/>
<stop offset="1" stop-color="#F5B419"/>
</linearGradient>
<linearGradient id="paint8_linear_1028_13904" x1="83.4796" y1="10.4742" x2="77.6139" y2="15.9624" gradientUnits="userSpaceOnUse">
<stop stop-color="#F58B21"/>
<stop offset="1" stop-color="#F5B419"/>
</linearGradient>
<linearGradient id="paint9_linear_1028_13904" x1="78.2983" y1="14.3699" x2="82.4949" y2="12.323" gradientUnits="userSpaceOnUse">
<stop stop-color="#F58B21"/>
<stop offset="1" stop-color="#F5B419"/>
</linearGradient>
<linearGradient id="paint10_linear_1028_13904" x1="75.0754" y1="14.0239" x2="73.3072" y2="7.2906" gradientUnits="userSpaceOnUse">
<stop stop-color="#F58B21"/>
<stop offset="1" stop-color="#F5B419"/>
</linearGradient>
<linearGradient id="paint11_linear_1028_13904" x1="74.1604" y1="6.11243" x2="71.7331" y2="17.1273" gradientUnits="userSpaceOnUse">
<stop stop-color="#F58B21"/>
<stop offset="1" stop-color="#F5B419"/>
</linearGradient>
<linearGradient id="paint12_linear_1028_13904" x1="74.3334" y1="17.2792" x2="70.399" y2="11.4386" gradientUnits="userSpaceOnUse">
<stop stop-color="#BC5B0C"/>
<stop offset="1" stop-color="#DB6E0B"/>
</linearGradient>
<linearGradient id="paint13_linear_1028_13904" x1="69.7092" y1="13.4647" x2="77.7055" y2="13.4647" gradientUnits="userSpaceOnUse">
<stop stop-color="#F58B21"/>
<stop offset="1" stop-color="#DB6E0B"/>
</linearGradient>
<linearGradient id="paint14_linear_1028_13904" x1="76.2099" y1="5.16305" x2="73.1219" y2="11.8202" gradientUnits="userSpaceOnUse">
<stop stop-color="#F9F9F9"/>
<stop offset="1" stop-color="#F5961F"/>
</linearGradient>
<linearGradient id="paint15_linear_1028_13904" x1="46.6902" y1="34.9944" x2="94.9591" y2="34.9944" gradientUnits="userSpaceOnUse">
<stop stop-color="#6773B5"/>
<stop offset="1" stop-color="#50D5D8"/>
</linearGradient>
</defs>
</svg>
