<svg width="25" height="24" viewBox="0 0 25 24" fill="none" xmlns="http://www.w3.org/2000/svg">
<path d="M12.2129 18.75C12.0148 18.7474 11.8255 18.6676 11.6854 18.5275C11.5453 18.3874 11.4655 18.1981 11.4629 18V11C11.4629 10.8011 11.5419 10.6103 11.6826 10.4697C11.8232 10.329 12.014 10.25 12.2129 10.25C12.4118 10.25 12.6026 10.329 12.7432 10.4697C12.8839 10.6103 12.9629 10.8011 12.9629 11V18C12.9603 18.1981 12.8805 18.3874 12.7404 18.5275C12.6003 18.6676 12.411 18.7474 12.2129 18.75ZM13.4629 7C13.4629 6.75278 13.3896 6.5111 13.2522 6.30554C13.1149 6.09998 12.9197 5.93976 12.6912 5.84516C12.4628 5.75055 12.2115 5.72579 11.969 5.77402C11.7266 5.82225 11.5038 5.94131 11.329 6.11612C11.1542 6.29094 11.0351 6.51367 10.9869 6.75614C10.9387 6.99862 10.9634 7.24995 11.058 7.47836C11.1527 7.70677 11.3129 7.90199 11.5184 8.03934C11.724 8.17669 11.9657 8.25 12.2129 8.25C12.5444 8.25 12.8624 8.11831 13.0968 7.88389C13.3312 7.64947 13.4629 7.33153 13.4629 7ZM22.9629 12C22.9629 9.87386 22.3324 7.79545 21.1512 6.02762C19.97 4.2598 18.291 2.88194 16.3267 2.0683C14.3624 1.25466 12.201 1.04177 10.1157 1.45656C8.03038 1.87135 6.11491 2.89519 4.6115 4.39861C3.10808 5.90202 2.08424 7.81749 1.66945 9.90278C1.25466 11.9881 1.46755 14.1495 2.28119 16.1139C3.09483 18.0782 4.47269 19.7571 6.24052 20.9383C8.00834 22.1195 10.0867 22.75 12.2129 22.75C15.0632 22.7474 17.7959 21.6139 19.8114 19.5985C21.8268 17.583 22.9602 14.8503 22.9629 12ZM21.4629 12C21.4629 13.8295 20.9204 15.6179 19.904 17.139C18.8876 18.6602 17.4429 19.8458 15.7527 20.5459C14.0625 21.246 12.2026 21.4292 10.4083 21.0723C8.61399 20.7154 6.96579 19.8344 5.67216 18.5407C4.37852 17.2471 3.49754 15.5989 3.14063 13.8046C2.78372 12.0103 2.9669 10.1504 3.66701 8.46018C4.36712 6.76997 5.55272 5.32531 7.07387 4.30891C8.59503 3.29251 10.3834 2.75 12.2129 2.75C14.6653 2.75265 17.0166 3.72805 18.7507 5.46219C20.4848 7.19633 21.4602 9.54756 21.4629 12Z" fill="#272727"/>
</svg>
