<svg width="151" height="150" viewBox="0 0 151 150" fill="none" xmlns="http://www.w3.org/2000/svg">
<g id="Frame">
<path id="Vector" d="M62.8104 113.613C47.124 113.577 30.8509 113.572 30.6467 113.71C30.2539 113.97 30.4733 82.3424 30.4733 82.3424L56.9421 81.9443C57.0033 82.4851 57.0697 83.021 57.141 83.5619C58.7026 95.768 61.5092 108.183 62.8104 113.613Z" fill="#E5DFDF"/>
<path id="Vector_2" d="M57.141 83.5616H31.7643C31.402 83.5616 30.9172 83.4596 30.6466 83.7556C30.3405 84.0821 30.4681 84.6282 30.5039 85.0313C30.7636 87.9777 30.1964 81.4921 31.1978 93.1244C31.2233 93.4511 31.3713 93.941 31.0804 94.1961C30.7028 94.5226 29.9834 94.3237 29.5342 94.3237C23.6557 94.3339 17.7772 94.3389 11.8987 94.3491C10.7811 94.3491 9.13793 94.6706 8.07151 94.3695C7.50503 94.2063 7.39278 93.9154 7.33659 93.3235C7.21923 92.1039 7.69377 90.8588 7.93372 89.68C9.17751 83.6671 12.015 77.7998 16.2411 72.9373C23.2031 64.9133 34.9969 60.858 45.5625 59.4044C45.1083 60.42 44.843 61.5731 45.3584 62.6295C46.1264 64.2238 51.3073 67.0435 54.9365 64.6349C55.7837 64.0787 56.3398 63.2878 56.7634 62.3845C56.993 61.9049 56.9572 61.3486 56.9266 60.823C56.8808 59.9811 56.5593 59.3586 57.3655 58.9605C58.1105 58.588 59.4526 58.6747 60.2741 58.6238C62.8971 58.4707 65.6833 58.6594 68.296 58.9554C71.2965 59.2973 74.0112 60.2413 76.8535 61.1955C79.3794 62.0478 81.8952 62.9306 84.3702 63.9307L56.1612 64.4819C55.7735 69.9267 56.2582 76.7135 57.141 83.5616ZM139.269 82.0897C139.269 87.3218 136.008 91.7942 131.413 93.5737C131.245 93.1223 130.557 93.339 130.691 93.8127C130.691 93.818 130.696 93.8287 130.696 93.834C129.517 94.2111 128.258 94.413 126.951 94.413C120.147 94.413 114.628 88.8994 114.628 82.0897C114.628 79.195 115.663 76.4832 117.231 74.5205C120.039 78.9858 120.22 80.3091 121.294 81.3355C121.889 81.9092 122.771 82.2597 123.562 82.0154C124.386 81.7498 124.901 80.8841 125.002 80.0182C125.241 77.8607 122.722 72.8796 121.608 70.9936C123.068 70.2627 125.009 69.7718 126.951 69.7718C133.75 69.7718 139.269 75.2908 139.269 82.0897Z" fill="#E5DFDF"/>
<path id="Vector_3" d="M131.413 93.5741C131.179 93.675 130.94 93.7547 130.696 93.8343C130.696 93.829 130.691 93.8184 130.691 93.8131C130.557 93.3397 131.245 93.1232 131.413 93.5741Z" fill="#E5DFDF"/>
<path id="Vector_4" d="M72.1761 92.6878C72.1374 92.7339 72.158 92.8118 72.1614 92.8657C72.6732 100.995 79.7995 106.862 87.5775 106.2C95.9446 105.488 101.797 97.8552 100.491 89.7172C99.3348 82.5081 92.9528 77.3936 85.7404 77.7462C85.2379 77.7707 85.3931 77.9434 85.4253 78.1446C85.4991 78.6059 85.5609 78.9919 85.6347 79.4528C85.8834 81.0067 87.4179 90.5948 87.6772 92.2146C87.7598 92.7294 87.8066 92.6569 87.4381 92.6566C86.5761 92.6561 73.2809 92.6477 72.426 92.6472C72.3542 92.6471 72.2406 92.6237 72.1761 92.6878Z" fill="#0200F6"/>
<path id="Vector_5" d="M64.7262 87.5398L81.8624 88.0793C82.2536 88.0916 82.5543 87.7362 82.4774 87.3524L78.8705 69.3501C78.7213 69.3553 78.5567 69.3817 78.4109 69.4051C69.7742 70.7904 63.7223 78.4398 64.1358 86.9682C64.1511 87.282 64.4122 87.5299 64.7262 87.5398Z" fill="#FAEC39"/>
<path id="Vector_6" d="M102.845 109.69L105.378 109.431C105.879 109.38 106.244 108.933 106.193 108.432L105.935 105.899C105.884 105.398 105.436 105.033 104.935 105.084L102.402 105.342C101.901 105.393 101.536 105.841 101.587 106.342L101.845 108.875C101.896 109.376 102.344 109.741 102.845 109.69ZM103.607 117.165L106.14 116.907C106.641 116.856 107.006 116.408 106.955 115.907L106.697 113.374C106.646 112.873 106.198 112.508 105.697 112.56L103.164 112.818C102.663 112.869 102.298 113.316 102.349 113.818L102.607 116.351C102.658 116.852 103.106 117.216 103.607 117.165ZM104.369 124.641L106.902 124.383C107.403 124.332 107.768 123.884 107.717 123.383L107.459 120.85C107.408 120.349 106.96 119.984 106.459 120.035L103.926 120.293C103.425 120.345 103.06 120.792 103.111 121.293L103.369 123.826C103.421 124.327 103.868 124.692 104.369 124.641Z" fill="#0200F6"/>
<path id="Vector_7" d="M43.9431 113.327C43.8184 113.324 37.9658 113.187 30.8562 113.07V101.364C35.0341 94.5465 35.2129 94.6933 35.0355 94.3306C34.9775 94.2123 34.8628 94.1319 34.7316 94.1179C30.6466 93.6915 30.3551 93.953 30.2311 94.0645C30.0492 94.229 30.0886 94.5222 30.0906 94.7701V112.98C17.7113 112.904 12.3321 112.872 8.6962 112.97C10.4924 93.2908 10.4029 94.5909 10.3836 94.424H10.2579C9.96581 94.4607 9.86148 94.4722 9.62536 94.4766L7.89438 113.328C7.87572 113.54 8.00567 113.755 8.34386 113.745C17.0803 113.81 20.8159 113.55 43.9337 114.092C44.1412 114.092 44.3114 113.927 44.3165 113.719C44.3212 113.507 44.1542 113.332 43.9431 113.327ZM143.609 126.99C140.634 122.783 136.523 111.522 131.413 93.5738L130.696 93.8341C135.609 111.087 139.609 122.183 142.594 126.852L84.043 128.658L81.8387 114.799C81.8068 114.603 81.6262 114.46 81.4243 114.481L63.8 116.037C61.3051 106.057 58.8263 93.7256 57.5216 83.5134C57.5162 83.4602 57.5056 83.4072 57.5003 83.354C57.4366 82.8707 57.3781 82.3873 57.3198 81.8986C56.7547 77.0746 56.1265 68.0306 56.523 64.8586L60.3793 64.7843C60.7622 66.1102 61.8772 69.5413 62.812 70.5635C63.2582 71.0468 63.832 71.323 64.395 71.323C65.7023 71.323 66.5272 69.8627 66.3019 68.6087C66.1001 67.472 65.298 66.5849 64.65 65.8679C64.3037 65.4959 63.7502 66.0007 64.0816 66.3831C64.6658 67.0258 65.3883 67.8226 65.5476 68.7415C65.6326 69.2088 65.4945 69.7506 65.2023 70.1279C64.6874 70.7766 63.9091 70.6312 63.3751 70.0428C62.583 69.1991 61.4981 65.8794 61.1708 64.7683L91.1448 64.1788C91.1996 64.1783 104.039 64.0724 104.095 64.0724C104.159 65.119 104.228 66.16 104.291 67.2011C104.578 71.6417 108.381 74.5154 111.213 76.2894C111.818 76.672 112.62 77.0968 113.465 76.9534C114.665 76.741 115.345 75.4501 115.287 74.3826C115.205 72.8076 114.034 71.6999 112.997 70.7174C111.575 69.4081 111.507 69.1167 111.149 68.4227C110.931 67.9022 110.931 67.7376 110.968 67.6844C111.148 67.4692 111.85 67.9625 112.1 68.1732C113.288 69.1527 117.04 74.4973 119.6 79.45C119.63 79.5047 119.65 79.5272 119.669 79.5828C118.833 80.3671 119.237 82.0793 120.588 82.0793H121.671C122.501 82.5653 123.461 82.6548 124.253 82.0793H125.761V86.3074C125.761 87.051 126.367 87.6513 127.111 87.6513H127.753C128.497 87.6513 129.102 87.051 129.102 86.3074V82.0793H133.878C134.621 82.0793 135.227 81.479 135.227 80.7407V80.5654C135.227 79.8218 134.621 79.2215 133.878 79.2215H129.102V74.4409C129.102 73.6974 128.497 73.0971 127.753 73.0971H127.111C126.367 73.0971 125.761 73.6974 125.761 74.4409V79.2215H125.384C125.379 79.2055 125.384 79.195 125.379 79.1844C125.161 76.7434 122.418 71.4411 120.986 69.2939C122.574 69.1366 123.266 67.5099 122.909 65.9475C122.776 65.3527 122.527 64.8108 122.24 64.2903C122.473 64.2584 122.696 64.1733 122.909 64.0566C123.175 65.172 123.69 67.2914 124.375 70.0481C124.619 69.9898 124.869 69.9472 125.124 69.91C125.124 69.8566 124.332 66.7606 123.562 63.4987C123.6 63.4457 123.647 63.4032 123.679 63.3501C124.078 62.7181 124.168 61.8894 123.939 61.0235C123.195 58.11 120.225 54.0139 114.325 52.4079C111.6 51.6643 108.748 51.728 106.066 51.8608C104.074 51.9564 101.519 52.1902 99.4152 53.1676C93.7606 55.786 92.828 58.2925 89.3389 63.4297C88.6333 63.4432 88.5762 63.414 88.4571 63.467L65.3883 63.9184C65.0429 62.3834 64.2568 61.0342 63.0405 59.9028C61.3915 58.3666 59.8523 59.0905 59.6145 60.5934C59.5347 61.1085 59.6197 61.6079 59.7207 62.1071C59.8482 62.7498 59.9968 63.3872 60.1615 64.0194L56.1564 64.099C55.9958 64.099 55.8006 64.2998 55.8006 64.354C54.9772 66.6646 54.8657 72.9538 55.466 83.5824C56.7195 105.568 60.6873 138.33 60.7245 138.66C60.7511 138.851 60.9105 138.994 61.107 138.994H137.522C137.789 138.994 137.97 138.731 137.883 138.49L136.958 135.765C138.096 135.765 138.302 135.765 139.285 135.765C139.563 135.765 139.724 135.46 139.646 135.266L138.595 132.079L141.16 132.047C141.417 132.035 141.589 131.807 141.521 131.558C140.926 129.433 140.523 128.302 140.236 127.691L143.311 127.595C143.615 127.584 143.789 127.238 143.609 126.99ZM99.7392 53.8633C101.72 52.9391 104.18 52.716 106.103 52.6258C108.727 52.4982 111.505 52.4345 114.123 53.1463C119.516 54.6156 122.468 58.3546 123.201 61.2148C123.603 62.7587 122.66 63.7366 121.772 63.5148C120.986 62.7126 120.104 62.0009 119.159 61.3953C118.733 61.1199 118.318 61.7668 118.745 62.038C119.637 62.6117 120.471 63.2863 121.22 64.0405C121.602 64.7045 122.001 65.3846 122.16 66.1122C122.335 66.8664 122.208 67.5942 121.82 68.0616C121.48 68.4706 120.869 68.6459 120.423 68.4812C119.467 67.1214 118.421 65.8253 117.278 64.6143C116.913 64.2486 116.377 64.7889 116.721 65.1454C120.184 68.7983 122.734 73.1556 124.21 77.5961C124.38 78.0955 124.566 78.6797 124.619 79.2534C124.782 80.907 123.819 81.7942 122.898 81.702C121.574 81.5957 120.88 80.267 120.285 79.0993C117.771 74.2293 113.859 68.6288 112.588 67.5782C111.902 67.0121 110.914 66.5112 110.373 67.2064C110.001 67.6738 110.278 68.3325 110.448 68.7255C110.477 68.7817 110.652 69.332 111.292 70.0854C112.449 71.4597 114.43 72.6133 114.522 74.4197C114.564 75.1687 114.091 76.061 113.332 76.1992C112.753 76.3001 112.142 75.9761 111.616 75.6467C108.928 73.9576 105.322 71.2433 105.056 67.1533C104.913 64.8692 104.764 62.5853 104.615 60.3012C104.605 60.094 104.424 59.9346 104.212 59.9452C103.999 59.9612 103.84 60.1418 103.856 60.3542C103.914 61.2891 103.973 62.224 104.036 63.1642C101.208 63.2176 111.245 63.028 90.2578 63.4244C93.5385 58.5049 94.5459 56.2724 99.7392 53.8633ZM60.374 60.7101C60.5079 59.7711 61.3695 59.3919 62.5198 60.4606C63.5822 61.4485 64.2781 62.617 64.6074 63.9343L60.9529 64.0035C60.7633 63.2949 60.2573 61.4291 60.374 60.7101ZM81.1375 115.278L83.2091 128.281L64.6818 116.728L81.1375 115.278ZM140.65 131.287C58.8475 132.378 68.4975 132.249 67.7254 132.259L64.0922 117.264L83.5118 129.375C83.5951 129.417 83.6776 129.433 83.719 129.433C83.719 129.433 83.7243 129.433 83.7297 129.433C84.7082 129.403 75.2074 129.696 139.402 127.718C139.657 128.132 140.204 129.752 140.65 131.287Z" fill="black"/>
<path id="Vector_8" d="M80.7055 70.3293C72.4882 71.1102 65.2074 78.7933 65.5822 88.1988C65.606 88.7912 66.0957 89.27 66.6969 89.2886L83.4823 89.8172C84.2119 89.8476 84.7962 89.1734 84.6478 88.4395L81.0806 70.6369C81.0448 70.4574 80.8876 70.3293 80.7055 70.3293ZM83.5061 89.0526L66.7208 88.524C66.519 88.5173 66.3545 88.3612 66.3468 88.1682C66.0163 79.871 71.9254 72.4681 80.399 71.1302L83.8978 88.5899C83.9448 88.8242 83.7698 89.0549 83.5061 89.0526ZM122.254 105.568C121.749 105.074 120.198 102.897 118.493 103.793C117.266 104.437 117.313 106.328 116.383 106.671C115.816 106.875 115.185 106.39 115.006 106.236C114.548 105.844 114.139 105.289 113.559 104.906C112.609 104.277 111.311 104.242 110.327 104.817C109.345 105.392 108.739 106.541 108.821 107.677C108.858 108.186 109.621 108.13 109.585 107.622C109.448 105.734 111.559 104.5 113.137 105.544C113.611 105.858 114.019 106.398 114.507 106.817C115.213 107.422 115.994 107.629 116.647 107.388C118.004 106.889 117.925 104.956 118.849 104.47C119.959 103.89 121.119 105.526 121.717 106.115C123.747 108.104 125.609 106.554 125.287 105.284C125.162 104.791 124.422 104.983 124.545 105.472C124.675 105.984 123.733 107.02 122.254 105.568ZM125.96 113.108C124.989 113.623 123.581 111.514 122.053 112.09C121.579 112.268 120.976 112.771 120.794 114.154C120.7 114.918 120.647 115.542 120.267 115.93C119.796 116.412 118.932 116.322 118.37 115.955C117.024 115.075 116.713 113.03 115.263 111.923C114.269 111.165 112.843 111.022 111.718 111.567C110.593 112.113 109.823 113.32 109.802 114.57C109.795 115.079 110.559 115.092 110.568 114.583C110.602 112.436 113.092 111.229 114.799 112.532C116.081 113.51 116.398 115.581 117.951 116.596C118.812 117.158 120.072 117.225 120.815 116.465C121.384 115.883 121.454 115.06 121.553 114.253C121.626 113.698 121.819 112.996 122.323 112.806C123.413 112.402 124.823 114.573 126.318 113.785C126.765 113.548 126.408 112.872 125.96 113.108ZM123.907 120.343C120.638 119.068 120.971 122.564 119.565 123.09C119.023 123.294 118.372 122.947 117.946 122.555C117.4 122.055 117.004 121.435 116.362 120.957C114.137 119.3 110.932 120.76 110.73 123.532C110.693 124.041 111.457 124.095 111.493 123.588C111.564 122.611 112.211 121.681 113.102 121.274C113.994 120.866 115.119 120.986 115.904 121.571C116.447 121.976 116.872 122.608 117.428 123.12C118.197 123.824 119.095 124.08 119.833 123.807C121.261 123.273 121.341 121.139 122.408 120.847C123.211 120.625 124.167 121.553 125.279 121.384C126.001 121.273 126.62 120.576 126.423 119.865C126.287 119.377 125.55 119.582 125.685 120.07C125.707 120.15 125.689 120.237 125.63 120.327C125.271 120.886 124.48 120.567 123.907 120.343ZM61.284 38.7676C60.9256 39.1235 61.4688 39.6649 61.8245 39.3091C63.0869 38.0518 63.7009 37.45 63.8185 36.6927C63.9197 36.0401 63.6146 35.3217 63.0031 34.7713C62.5223 34.3391 61.9718 34.0733 61.4697 33.737C60.3202 32.9641 59.441 31.7249 59.0582 30.3362C58.9242 29.8465 58.1855 30.0528 58.3206 30.5396C58.7511 32.102 59.7434 33.4989 61.0428 34.3719C61.8336 34.9047 63.2256 35.5173 63.0622 36.5754C63.0046 36.9448 62.7167 37.2778 62.4008 37.615C62.0346 38.005 61.6627 38.3894 61.284 38.7676ZM54.2257 27.0149C54.7252 27.1135 54.8739 26.3662 54.3803 26.2648C51.8038 25.7367 48.9991 26.9023 47.5596 29.1048C47.2797 29.5342 47.9259 29.9421 48.2008 29.5239C49.4716 27.5777 51.9491 26.5428 54.2257 27.0149ZM65.2611 25.5884C63.1042 24.0815 60.0671 24.0436 57.8729 25.4976C57.4532 25.7761 57.8695 26.4138 58.2962 26.1356C60.2025 24.8715 62.947 24.9052 64.8222 26.216C65.2378 26.506 65.6756 25.8788 65.2611 25.5884ZM52.4812 30.4382C50.9443 30.4589 51.511 33.2302 52.3607 34.1067C52.7299 34.4873 53.4761 34.7252 53.9615 34.4218C55.0712 33.7284 53.7872 30.4205 52.4812 30.4382ZM65.1266 31.1907C64.9302 30.3253 64.1916 28.9145 63.3143 28.9261C61.7774 28.947 62.3441 31.7184 63.194 32.5948C63.9215 33.3451 65.6254 33.3896 65.1266 31.1907ZM56.5948 40.8705C56.1497 41.6688 56.033 42.6025 56.2757 43.4319C56.8734 45.4794 59.2809 46.1139 60.6263 44.8071C60.9896 44.4537 60.4548 43.9052 60.093 44.2583C59.1487 45.1732 57.4442 44.7038 57.0103 43.2172C56.8277 42.5926 56.9221 41.8545 57.2629 41.2429C57.5087 40.8032 56.8436 40.4266 56.5948 40.8705ZM39.7674 39.3444C39.4773 38.9286 38.8504 39.3687 39.1408 39.7832C39.6873 40.5639 40.6452 41.0079 41.2826 41.0079C41.7653 41.0079 41.8004 40.2891 41.3173 40.2439C40.7016 40.1873 40.1222 39.8507 39.7674 39.3444Z" fill="black"/>
<path id="Vector_9" d="M57.1015 60.0959C57.1234 60.6057 57.8884 60.5666 57.8661 60.0627L57.5916 53.6723C59.9361 53.7758 63.4008 53.3624 65.2138 51.8669C69.2913 48.4995 69.917 41.0499 69.9561 35.7306C70.5547 34.0271 70.7731 30.0192 70.5043 27.1291C70.0144 21.9191 68.2639 15.4639 63.3397 12.7645C58.8192 10.2974 52.1247 10.2579 46.8012 13.7188C43.2752 16.005 40.0347 19.8626 37.9221 23.4652C30.4955 19.0415 26.497 26.129 29.431 29.8082C26.0603 28.4038 22.1893 30.3374 21.2969 33.8956C20.577 36.8125 22.3644 39.4568 24.2669 39.866C22.6085 40.8101 21.3224 42.4889 21.0928 44.3872C20.5004 49.2704 26.5661 51.3858 28.492 47.6684C28.6502 49.9646 31.0027 51.715 33.299 51.6589C35.6004 51.5977 37.6721 50.0566 38.8712 48.0919C39.9311 50.6357 43.1077 51.5773 44.9228 50.6981C45.1186 53.8565 44.994 56.6231 44.3866 60.0119C44.2978 60.5063 45.0488 60.6539 45.1398 60.1468C46.1731 54.3843 45.7861 50.2812 45.1268 45.1131C45.105 44.9452 44.9497 44.7877 44.7495 44.7853C44.5237 44.7836 42.5382 45.5374 40.3468 44.6603C37.3551 43.4471 35.8766 40.2506 36.7022 37.8526C37.1654 36.5059 38.3912 35.5162 39.6849 35.4462C41.4994 35.3529 42.8803 36.7209 43.9882 38.1513C44.1218 38.3244 44.4781 38.5419 44.6682 38.4117C44.8428 38.2915 44.7966 38.0514 44.7345 37.8554C44.1233 35.8986 43.7753 34.7241 44.1324 31.3747C44.1988 30.7829 45.6276 24.3276 46.0614 24.5114C49.9885 26.1883 54.5809 24.3134 56.2365 20.6893C58.5737 22.2763 61.1966 23.1744 64.0184 23.307C66.8599 26.7106 68.4929 30.7121 69.1896 35.001C69.2029 40.2144 68.7254 47.9727 64.7268 51.2766C62.1289 53.4182 54.4343 53.9985 48.7776 49.8081C48.3697 49.5069 47.9156 50.1221 48.3221 50.4233C50.768 52.2347 53.7491 53.3439 56.8234 53.6201L57.1015 60.0959ZM52.8227 16.5815C51.685 18.2789 49.5729 19.1738 47.6278 18.8625C47.4186 18.832 47.2759 18.6328 47.3065 18.4235C47.342 18.2195 47.536 18.0766 47.7452 18.1072C49.4139 18.3675 51.2459 17.5611 52.1848 16.1529C52.4642 15.7396 53.1031 16.1545 52.8227 16.5815ZM64.1154 19.4034C63.6567 19.4034 61.3498 18.3249 60.3036 16.0201C60.2168 15.8313 60.3036 15.6018 60.4975 15.515C60.6863 15.4281 60.9158 15.515 61.0026 15.7038C61.6201 17.0663 62.8294 18.1736 64.2429 18.6634C64.6486 18.7987 64.5468 19.4034 64.1154 19.4034Z" fill="black"/>
</g>
</svg>
