<svg width="151" height="150" viewBox="0 0 151 150" fill="none" xmlns="http://www.w3.org/2000/svg">
<g id="Frame">
<path id="Vector" d="M101.993 121.016C102.646 123.863 103.182 126.673 103.591 129.647C103.708 130.566 104.038 135.941 103.963 139.213H34.2218C36.5674 128.064 39.2396 121.506 38.6832 112.534H111.001C108.587 114.732 105.008 118.08 101.993 121.016ZM78.018 75.186C68.7175 81.175 57.0133 81.0721 47.93 74.7718C49.8421 74.2353 51.7753 73.7626 53.6927 73.2847C54.7018 73.0402 55.7534 72.796 56.7732 73.0085C59.0658 73.5023 58.3222 75.2789 63.2634 75.2338C64.6072 75.2179 65.9509 74.894 67.1619 74.3256C68.1197 73.8619 68.6077 73.5183 69.451 73.5183C70.2747 73.5183 74.843 74.2295 78.018 75.186Z" fill="#0200F6"/>
<path id="Vector_2" d="M129.122 64.1648V35.3994V24.2246C127.157 24.2246 129.122 26.1897 129.122 24.2246H32.0549C28.9584 24.2246 26.4409 26.7421 26.4409 29.8439V106.915C26.4409 110.022 28.9584 112.534 32.0549 112.534H123.498C126.605 112.534 129.122 110.022 129.122 106.915V86.8119C126.397 86.4224 126.008 83.24 127.89 82.3557C128.294 82.1645 128.703 82.0052 129.122 81.8565V81.7981C127.885 82.1074 126.594 82.4225 125.67 82.3344C124.895 82.2601 124.093 81.8937 123.71 81.2032C122.892 79.7532 124.241 78.0058 125.489 77.3207C126.441 76.7971 127.33 76.7509 129.122 76.3329V76.2584C127.614 76.5187 126.1 76.7312 124.576 76.9011C123.684 77.0074 122.696 77.0764 121.952 76.5612C120.98 75.8867 120.848 74.4101 121.389 73.3639C122.106 71.9724 123.599 71.3298 125.128 70.9208C123.99 71.1048 122.908 71.2651 122.287 70.3578C121.804 69.6566 121.634 68.8281 121.989 68.0261C122.984 65.7655 126.92 64.7521 129.122 64.1648ZM95.2634 42.4846C95.2634 41.9535 95.6936 41.5285 96.2195 41.5285H99.539C100.07 41.5285 100.5 41.9535 100.5 42.4846V45.8094C100.5 46.3405 100.07 46.7655 99.539 46.7655H96.2195C95.6936 46.7655 95.2634 46.3405 95.2634 45.8094V42.4846ZM95.2634 51.4871C95.2634 50.9613 95.6936 50.531 96.2195 50.531H99.539C100.07 50.531 100.5 50.9613 100.5 51.4871V54.8066C100.5 55.3377 100.07 55.7679 99.539 55.7679H96.2195C95.6936 55.7679 95.2634 55.3377 95.2634 54.8066V51.4871ZM95.2634 60.4948C95.2634 59.9637 95.6936 59.5335 96.2195 59.5335H99.539C100.07 59.5335 100.5 59.9637 100.5 60.4948V63.8143C100.5 64.3455 100.07 64.7757 99.539 64.7757H96.2195C95.6936 64.7757 95.2634 64.3455 95.2634 63.8143V60.4948ZM40.8927 27.7354C42.1621 27.7354 43.1871 28.7657 43.1871 30.0352C43.1871 31.3045 42.1621 32.3348 40.8927 32.3348C39.6233 32.3348 38.5929 31.3045 38.5929 30.0352C38.5929 28.7657 39.6233 27.7354 40.8927 27.7354ZM63.4122 28.1124C78.4429 28.1124 90.6215 39.3191 90.6215 53.1494C90.6215 67.106 78.136 79.5886 63.221 79.5886C48.361 79.5886 36.2135 67.1404 36.2135 53.1494C36.2135 39.3191 48.3868 28.1124 63.4122 28.1124ZM30.0313 30.1625C30.0313 28.8932 31.0616 27.8575 32.331 27.8575C33.6004 27.8575 34.6361 28.8932 34.6361 30.1625C34.6361 31.4319 33.6004 32.4623 32.331 32.4623C31.0616 32.4623 30.0313 31.4319 30.0313 30.1625ZM100.389 103.627C100.389 104.567 99.6186 105.337 98.6785 105.337H48.0734C47.1333 105.337 46.3685 104.567 46.3685 103.627V102.262C46.3685 101.311 47.1333 100.547 48.0734 100.547H98.6785C99.6186 100.547 100.389 101.311 100.389 102.262V103.627ZM112.073 91.6026C112.073 92.5533 111.314 93.3181 110.363 93.3181H35.624C34.6786 93.3181 33.9085 92.5533 33.9085 91.6026V90.2376C33.9085 89.2975 34.6786 88.5274 35.624 88.5274H110.363C111.314 88.5274 112.073 89.2975 112.073 90.2376V91.6026Z" fill="#E5DFDF"/>
<path id="Vector_3" d="M129.17 139.632H7.71364C7.18341 139.632 7.18915 138.83 7.71364 138.83H20.0834C19.9347 128.532 20.5136 121.123 22.346 109.698C23.0258 105.486 24.2793 101.354 26.0745 97.4187C26.1435 97.2699 26.2869 97.1797 26.4409 97.1797V98.5765C24.8688 102.199 23.7588 105.975 23.1427 109.826C21.3156 121.202 20.742 128.579 20.8854 138.83H129.17C129.694 138.83 129.701 139.632 129.17 139.632Z" fill="black"/>
<path id="Vector_4" d="M45.5559 112.534C41.4291 118.95 38.0937 125.881 35.6665 133.11L35.6559 132.993C37.3395 126.115 39.1294 119.104 38.8585 112.534H45.5559ZM77.2001 45.9956C77.285 46.0965 77.37 46.1975 77.455 46.2984C77.4603 46.3143 77.4656 46.3196 77.4709 46.325C79.1971 44.0464 79.5104 40.8065 77.6462 38.4803C75.8988 36.308 72.5581 35.6123 70.0937 36.9029C70.816 36.0903 70.7788 34.7995 70.2477 33.8543C69.2307 32.0719 65.8565 30.5023 63.4972 31.1827C62.3765 31.5013 61.447 32.2715 60.4698 32.9035C58.2975 34.2897 56.1305 34.6244 53.6608 35.028C51.6479 35.3626 49.6403 36.6797 48.2009 38.1032C47.2502 39.0433 44.993 41.8475 45.1363 43.2444C45.0567 42.4265 44.8549 41.4546 44.09 41.1625C43.4261 40.9129 42.672 41.3642 42.2949 41.9697C41.8275 42.7239 41.8806 43.8871 42.6613 44.312C42.0293 43.972 41.1476 44.2111 40.7865 44.8272C39.8039 46.5055 41.8753 46.8986 42.9747 46.8295C44.5999 46.7233 44.9133 46.7233 45.9277 48.1786C47.707 50.7067 48.7002 53.2295 49.8049 56.0285C45.9915 59.1408 49.6509 66.396 57.3627 63.9688C57.3787 66.3801 57.5221 70.9848 57.4743 73.2315C57.7664 73.3642 58.0001 73.5236 58.2178 73.6883C58.4036 73.3783 58.1708 66.5618 58.1647 63.6819C58.3081 63.6234 58.4568 63.5704 58.6003 63.5066C59.0889 63.2995 58.7702 62.556 58.2869 62.7684C54.1707 64.5318 51.0955 63.411 49.7677 61.4353C47.5636 58.153 51.3398 53.4206 54.7124 58.0786C55.3179 58.9178 56.2474 59.64 57.1928 60.0119C57.9151 60.2988 58.733 59.9004 58.9136 59.1568C59.4925 56.8252 58.5631 54.1961 56.6563 52.7567C56.4333 52.5921 56.3377 52.3213 56.4014 52.0664C57.1875 49.1133 56.1358 45.7673 53.7193 43.5472C53.593 43.4293 53.6493 43.2466 53.7989 43.2072C57.4802 42.2748 60.6069 39.4467 64.2938 39.1655C68.2188 38.8627 72.3403 40.7853 75.0384 44.1739C80.1478 50.5845 78.8253 59.4117 76.8123 65.6896C76.1892 67.642 75.6479 68.0151 73.8009 68.2707C69.8328 68.801 67.8687 67.9098 63.9539 67.3148C63.7362 67.2776 63.529 67.4317 63.4972 67.6494C63.4653 67.8672 63.614 68.0743 63.8318 68.1062C65.3608 68.3419 66.0727 68.5241 68.2772 68.9295C68.2135 69.0038 68.1816 69.11 68.1923 69.2162C68.1975 69.2694 68.6331 73.5819 68.6597 73.6351C68.904 73.5608 69.1483 73.5183 69.451 73.5183C69.451 73.4699 68.9917 69.129 68.9624 69.041C70.6128 69.2814 72.0161 69.3138 73.9071 69.0674C76.0533 68.767 76.8486 68.1978 77.5772 65.9392C80.1425 57.9405 79.9938 51.1157 77.2001 45.9956ZM64.7665 34.6137C61.1476 34.0809 58.1427 38.1987 54.3832 37.7685C54.2075 37.7434 54.2436 37.4713 54.415 37.4977C58.0808 37.9322 61.0136 33.8036 64.8037 34.3482C64.9778 34.3731 64.9362 34.6399 64.7665 34.6137ZM76.3715 40.8119C76.1007 39.9834 75.3093 39.3406 74.4436 39.2504C74.269 39.2254 74.2953 38.972 74.4754 38.9848C75.4368 39.091 76.3184 39.8028 76.6265 40.7216C76.6744 40.8894 76.4394 40.9817 76.3715 40.8119Z" fill="black"/>
<path id="Vector_5" d="M52.6712 59.3249C52.3513 58.8986 51.7098 59.3819 52.028 59.8068C52.5527 60.5075 53.3081 61.0155 54.1548 61.237C54.6783 61.3729 54.8653 60.5924 54.3582 60.4595C53.6867 60.2837 53.0874 59.8809 52.6712 59.3249ZM70.9274 46.4676C70.9035 46.2471 70.7077 46.0908 70.4845 46.1118C70.2638 46.1359 70.1045 46.334 70.1286 46.5547C70.3469 48.5541 71.3706 50.5373 73.4015 52.0303C74.9237 53.1509 75.2816 53.8567 73.5724 55.5407C73.1937 55.9144 73.7579 56.4858 74.1367 56.1133C74.9414 55.32 75.6613 54.4385 75.4798 53.3698C75.2993 52.3092 74.3244 51.7336 73.5563 51.1431C72.1084 50.0306 71.1255 48.2827 70.9274 46.4676ZM65.1271 44.0908C63.0949 44.2243 61.1338 45.1564 59.7466 46.6476C59.3835 47.0375 59.9781 47.5783 60.3348 47.1948C61.584 45.8522 63.3501 45.013 65.18 44.8926C65.707 44.8581 65.6608 44.0592 65.1271 44.0908ZM63.6719 49.3501C63.1919 49.5736 63.1159 50.4269 63.5021 51.2558C63.8883 52.0847 64.5904 52.5755 65.0702 52.3519C65.5502 52.1284 65.6262 51.2751 65.24 50.4462C64.8538 49.6173 64.1517 49.1265 63.6719 49.3501ZM75.044 50.0047C75.5238 49.7811 75.5999 48.9279 75.2137 48.0991C74.8275 47.2701 74.1255 46.7794 73.6455 47.003C73.1656 47.2265 73.0897 48.0797 73.4759 48.9086C73.862 49.7375 74.5641 50.2282 75.044 50.0047ZM69.0781 58.5295C68.9909 58.3252 68.7542 58.2303 68.5508 58.3177C68.3467 58.4048 68.2518 58.6408 68.339 58.8449C69.4621 61.4779 71.7815 62.2177 74.5215 60.341C74.7046 60.2157 74.7513 59.9655 74.6258 59.7824C74.5005 59.5996 74.2503 59.5524 74.0672 59.6781C71.9543 61.1257 70.0918 60.9046 69.0781 58.5295ZM138.236 79.5945C139.309 77.8153 138.56 75.4359 136.351 74.6444C136.319 74.5808 136.261 74.5329 136.192 74.5116C138.077 72.2863 136.723 69.3598 134.136 68.9243C134.922 67.9843 135.23 66.6299 134.885 65.4402C134.487 64.1124 133.122 62.8961 131.597 63.2519C130.328 63.5441 129.175 63.8628 127.8 64.2558C127.635 64.3354 122.887 65.3392 121.745 67.9205C121.373 68.7544 121.49 69.6785 122.069 70.5071C122.398 70.9957 122.839 71.2081 123.307 71.2878C122.441 71.7021 121.639 72.2969 121.15 73.237C120.587 74.3311 120.672 75.9988 121.798 76.7795C122.807 77.4807 124.162 77.2204 125.394 77.0717C124.475 77.5656 123.588 78.5323 123.296 79.5466C122.802 81.2782 124.13 83.068 127.216 82.4997C125.776 83.8062 126.398 86.701 129.085 87.0727C130.939 87.333 133.175 86.5363 135.002 86.0371C133.982 94.9704 131.81 104.6 128.857 113.198C126.626 119.678 124.082 128.272 117.241 129.679C111.038 130.954 107.495 125.86 102.683 122.838C102.593 122.78 102.487 122.764 102.386 122.785C102.455 123.098 102.519 123.412 102.582 123.725C107.15 126.721 110.947 131.793 117.406 130.465C124.698 128.967 127.343 120.076 129.616 113.459C132.622 104.706 134.832 94.8801 135.841 85.7979C137.418 85.3253 139.049 84.6189 139.426 82.8716C139.686 81.6606 139.198 80.354 138.236 79.5945ZM122.51 70.2043C121.458 68.6853 122.393 67.3947 123.923 66.3856C125.335 65.4508 126.828 65.1162 127.949 64.771C128.469 64.6223 131.587 63.73 132.123 63.73C133.154 63.73 134.083 64.6223 134.37 65.5942C134.715 66.768 134.311 68.133 133.382 68.9243C130.296 69.5936 127.811 70.2893 124.502 70.7408C123.551 70.8576 122.924 70.8098 122.51 70.2043ZM124.544 76.6361C123.673 76.7371 122.765 76.7955 122.106 76.3388C121.219 75.7226 121.166 74.3789 121.628 73.4866C122.34 72.111 123.891 71.5321 125.171 71.187C132.139 69.875 129.388 70.3318 133.648 69.413C134.816 69.4342 135.953 70.2203 136.377 71.3091C136.781 72.3765 136.393 73.6991 135.427 74.5329C135.39 74.5648 135.363 74.6073 135.352 74.6499C131.996 75.3615 129.956 76.0307 124.544 76.6361ZM125.697 82.0695C124.364 81.9421 123.439 80.9914 123.811 79.6955C124.082 78.7554 124.911 77.9428 125.617 77.555C126.52 77.0611 126.987 77.1089 130.849 76.222C131.799 76.036 135.443 75.2659 135.671 75.1331C135.761 75.1119 135.857 75.0959 135.947 75.0747C136.802 75.3031 137.604 75.9616 137.944 76.7371C138.332 77.5922 138.22 78.6757 137.684 79.4511C131.422 80.8799 127.194 82.2129 125.697 82.0695ZM138.906 82.7546C138.576 84.2737 137.015 84.9004 135.533 85.3306C135.379 85.2987 135.262 85.3413 135.172 85.4315C132.346 86.2175 128.172 87.7738 127.141 85.0385C126.764 84.0347 127.125 83.0096 128.002 82.6006C130.45 81.4428 133.493 81.2728 136.096 80.3752C136.128 80.3699 136.293 80.3169 137.827 79.9663C138.672 80.5824 139.123 81.7296 138.906 82.7546Z" fill="black"/>
<path id="Vector_6" d="M114.967 89.3078V87.9382C114.967 86.7738 114.019 85.8265 112.855 85.8265H38.1131C36.9487 85.8265 36.0016 86.7738 36.0016 87.9382V89.3078C36.0016 90.4722 36.9487 91.4193 38.1131 91.4193H112.855C114.019 91.4193 114.967 90.4722 114.967 89.3078ZM36.805 89.3078V87.9382C36.805 87.2168 37.3919 86.6299 38.1131 86.6299H112.855C113.576 86.6299 114.163 87.2168 114.163 87.9382V89.3078C114.163 90.029 113.576 90.6159 112.855 90.6159H38.1131C37.3919 90.6159 36.805 90.029 36.805 89.3078ZM101.748 100.215C101.748 99.0503 100.801 98.1032 99.6364 98.1032H49.0327C47.8683 98.1032 46.9212 99.0503 46.9212 100.215V101.584C46.9212 102.749 47.8683 103.696 49.0327 103.696H99.6364C100.801 103.696 101.748 102.749 101.748 101.584V100.215ZM100.944 101.584C100.944 102.305 100.358 102.892 99.6364 102.892H49.0327C48.3115 102.892 47.7246 102.305 47.7246 101.584V100.215C47.7246 99.4935 48.3115 98.9066 49.0327 98.9066H99.6364C100.358 98.9066 100.944 99.4935 100.944 100.215V101.584ZM80.5918 74.0008C85.9624 70.6061 89.8387 64.8462 90.9606 58.5928C91.0544 58.069 90.2635 57.9277 90.1696 58.4507C89.0869 64.4862 85.3457 70.0454 80.1623 73.3213C79.7131 73.6053 80.1418 74.2844 80.5918 74.0008ZM113.941 44.23C117.009 45.7593 121.048 45.09 123.377 42.5277C123.735 42.1337 123.138 41.594 122.782 41.9873C120.76 44.2124 117.151 44.8345 114.433 43.5721C115.112 42.2652 114.184 40.8653 112.933 41.2308C111.983 41.508 111.606 42.7626 113.211 43.8117C110.919 45.8006 106.741 45.963 104.06 43.6719C103.655 43.3261 103.135 43.9382 103.538 44.2829C106.639 46.9333 111.579 46.6058 113.941 44.23ZM113.317 41.9795C113.857 41.9795 113.979 42.7005 113.727 43.1877C112.579 42.4604 112.853 41.9795 113.317 41.9795ZM103.483 52.8633C105.129 53.809 107.321 53.7773 108.94 52.7814C109.716 52.3033 110.377 51.6382 111.147 51.5944C111.921 51.5548 112.652 52.1395 113.438 52.5513C115.954 53.8714 118.872 53.3628 121.891 52.6748C122.41 52.5562 122.23 51.7725 121.713 51.8911C118.846 52.5451 116.085 53.0329 113.811 51.8397C112.975 51.4006 112.154 50.7324 111.101 50.792C110.052 50.8518 109.3 51.6166 108.519 52.0967C107.145 52.9422 105.282 52.9704 103.884 52.1667C103.423 51.9013 103.022 52.5985 103.483 52.8633ZM102.791 63.7578C106.784 63.9426 110.846 63.7541 114.866 63.1787C115.386 63.1044 115.287 62.3137 114.752 62.383C110.814 62.9466 106.801 63.1387 102.828 62.9549C102.287 62.9423 102.269 63.7333 102.791 63.7578ZM105.994 117.181C104.373 115.253 102.355 113.655 100.096 112.544C100.681 115.381 101.229 118.314 101.739 121.263C103.037 119.995 104.485 118.607 105.994 117.181ZM43.7622 72.0456C44.1513 72.4073 44.6988 71.8176 44.3084 71.4564C38.7926 66.3431 35.8423 58.5187 36.6089 51.0363C37.3761 43.5539 41.8522 36.4907 48.291 32.6027C48.7472 32.3272 48.3285 31.6396 47.8755 31.9149C41.2251 35.9305 36.6019 43.2261 35.8097 50.9543C35.0177 58.6828 38.0649 66.7645 43.7622 72.0456Z" fill="black"/>
</g>
</svg>
