<svg width="30" height="34" viewBox="0 0 30 34" fill="none" xmlns="http://www.w3.org/2000/svg">
<path d="M29.7817 30.7051C29.7817 32.4942 28.3314 33.9446 26.5423 33.9446C24.7532 33.9446 23.3029 32.4942 23.3029 30.7051L23.3029 3.29458C23.3029 1.50549 24.7532 0.0551448 26.5423 0.055145C28.3314 0.0551451 29.7817 1.50549 29.7817 3.29458L29.7817 30.7051Z" fill="#28B16D"/>
<path d="M18.5677 30.7051C18.5677 32.4942 17.1174 33.9446 15.3283 33.9446C13.5392 33.9446 12.0889 32.4942 12.0889 30.7051L12.0889 19.2425C12.0889 17.4535 13.5392 16.0031 15.3283 16.0031C17.1174 16.0031 18.5678 17.4535 18.5678 19.2425L18.5677 30.7051Z" fill="#28B16D"/>
<path d="M7.35437 30.7051C7.35437 32.4942 5.90403 33.9446 4.11494 33.9446C2.32585 33.9446 0.875503 32.4942 0.875503 30.7051C0.875503 28.9161 2.32585 27.4657 4.11494 27.4657C5.90403 27.4657 7.35437 28.9161 7.35437 30.7051Z" fill="#28B16D"/>
</svg>
