<svg width="25" height="25" viewBox="0 0 25 25" fill="none" xmlns="http://www.w3.org/2000/svg">
<g id="vuesax/bold/book">
<g id="vuesax/bold/book_2">
<path id="Vector" d="M22.375 5.34999V17.24C22.375 18.21 21.585 19.1 20.615 19.22L20.305 19.26C18.665 19.48 16.355 20.16 14.495 20.94C13.845 21.21 13.125 20.72 13.125 20.01V6.09999C13.125 5.72999 13.335 5.38999 13.665 5.20999C15.495 4.21999 18.265 3.33999 20.145 3.17999H20.205C21.405 3.17999 22.375 4.14999 22.375 5.34999Z" fill="#2563EB"/>
<path id="Vector_2" d="M11.085 5.20999C9.25499 4.21999 6.48499 3.33999 4.60499 3.17999H4.53499C3.33499 3.17999 2.36499 4.14999 2.36499 5.34999V17.24C2.36499 18.21 3.15499 19.1 4.12499 19.22L4.43499 19.26C6.07499 19.48 8.38499 20.16 10.245 20.94C10.895 21.21 11.615 20.72 11.615 20.01V6.09999C11.615 5.71999 11.415 5.38999 11.085 5.20999ZM5.37499 8.23999H7.62499C8.03499 8.23999 8.37499 8.57999 8.37499 8.98999C8.37499 9.40999 8.03499 9.73999 7.62499 9.73999H5.37499C4.96499 9.73999 4.62499 9.40999 4.62499 8.98999C4.62499 8.57999 4.96499 8.23999 5.37499 8.23999ZM8.37499 12.74H5.37499C4.96499 12.74 4.62499 12.41 4.62499 11.99C4.62499 11.58 4.96499 11.24 5.37499 11.24H8.37499C8.78499 11.24 9.12499 11.58 9.12499 11.99C9.12499 12.41 8.78499 12.74 8.37499 12.74Z" fill="#2563EB"/>
</g>
</g>
</svg>
