<svg width="25" height="24" viewBox="0 0 25 24" fill="none" xmlns="http://www.w3.org/2000/svg">
<g id="vuesax/bold/briefcase">
<path id="Vector" d="M21.9234 6.98002C21.0734 6.04002 19.6534 5.57002 17.5934 5.57002H17.3534V5.53002C17.3534 3.85002 17.3534 1.77002 13.5934 1.77002H12.0733C8.31335 1.77002 8.31335 3.86002 8.31335 5.53002V5.58002H8.07335C6.00335 5.58002 4.59335 6.05002 3.74335 6.99002C2.75335 8.09002 2.78335 9.57002 2.88335 10.58L2.89335 10.65L2.97081 11.4633C2.98507 11.6131 3.06573 11.7484 3.19163 11.8307C3.43143 11.9877 3.83277 12.2464 4.07335 12.38C4.21335 12.47 4.36335 12.55 4.51335 12.63C6.22335 13.57 8.10335 14.2 10.0134 14.51C10.1034 15.45 10.5134 16.55 12.7034 16.55C14.8934 16.55 15.3234 15.46 15.3934 14.49C17.4334 14.16 19.4034 13.45 21.1834 12.41C21.2434 12.38 21.2834 12.35 21.3334 12.32C21.7301 12.0958 22.1417 11.8195 22.5168 11.5489C22.6298 11.4673 22.7021 11.3413 22.7175 11.2028L22.7334 11.06L22.7834 10.59C22.7934 10.53 22.7934 10.48 22.8034 10.41C22.8834 9.40002 22.8634 8.02002 21.9234 6.98002ZM13.9234 13.83C13.9234 14.89 13.9233 15.05 12.6933 15.05C11.4634 15.05 11.4634 14.86 11.4634 13.84V12.58H13.9234V13.83ZM9.74335 5.57002V5.53002C9.74335 3.83002 9.74335 3.20002 12.0733 3.20002H13.5934C15.9234 3.20002 15.9234 3.84002 15.9234 5.53002V5.58002H9.74335V5.57002Z" fill="#2563EB"/>
<path id="Vector_2" d="M21.7068 13.7341C22.0604 13.5659 22.4677 13.8462 22.4323 14.2361L22.0733 18.19C21.8633 20.19 21.0433 22.23 16.6433 22.23H9.02334C4.62334 22.23 3.80334 20.19 3.59334 18.2L3.25263 14.4521C3.21759 14.0667 3.61554 13.7867 3.96818 13.9463C5.10759 14.4618 7.21074 15.3764 8.50991 15.7166C8.67422 15.7597 8.80711 15.8773 8.87905 16.0311C9.48602 17.3292 10.8025 18.02 12.7033 18.02C14.5854 18.02 15.9185 17.3026 16.5275 16.0013C16.5995 15.8474 16.7326 15.7298 16.897 15.6865C18.2765 15.3235 20.5151 14.3012 21.7068 13.7341Z" fill="#2563EB"/>
</g>
</svg>
