<svg width="21" height="20" viewBox="0 0 21 20" fill="none" xmlns="http://www.w3.org/2000/svg">
<g id="Frame">
<g id="Group">
<path id="Vector" d="M12.1563 17.0499H8.84692C8.2438 17.0499 7.75317 16.5593 7.75317 15.9562V14.0874C7.75317 13.828 7.96255 13.6187 8.22192 13.6187C8.4813 13.6187 8.69067 13.828 8.69067 14.0874V15.9562C8.69067 16.0437 8.75942 16.1124 8.84692 16.1124H12.1563C12.2438 16.1124 12.3125 16.0437 12.3125 15.9562V15.6593C12.3125 15.3999 12.5219 15.1905 12.7813 15.1905C13.0407 15.1905 13.25 15.3999 13.25 15.6593V15.9562C13.25 16.5593 12.7594 17.0499 12.1563 17.0499Z" fill="#272727"/>
<path id="Vector_2" d="M15.4031 8.15312C15.1406 5.9625 13.5062 4.24063 11.3375 3.86875C9.8687 3.61563 8.38433 4.01562 7.25933 4.9625C6.13433 5.90938 5.49058 7.29688 5.49058 8.76875C5.49058 10.1094 6.01558 11.3656 6.9687 12.3031C7.47495 12.8062 7.75308 13.4406 7.75308 14.0875C7.75308 14.3469 7.96245 14.5563 8.22183 14.5563H12.7812C13.0406 14.5563 13.25 14.3469 13.25 14.0875V13.9937C13.25 13.3625 13.5031 12.7531 13.9468 12.325C15.0625 11.2281 15.5937 9.70938 15.4031 8.15312ZM10.9593 11.4C10.9531 11.4281 10.9437 11.4594 10.9312 11.4875C10.9218 11.5156 10.9062 11.5437 10.8906 11.5688C10.8718 11.5938 10.8531 11.6188 10.8312 11.6375C10.7437 11.725 10.6218 11.775 10.5 11.775C10.3781 11.775 10.2562 11.725 10.1687 11.6375C10.1468 11.6188 10.1281 11.5938 10.1093 11.5688C10.0937 11.5437 10.0781 11.5156 10.0656 11.4875C10.0562 11.4594 10.0468 11.4281 10.0406 11.4C10.0256 11.3241 10.0294 11.2457 10.0518 11.1716C10.0741 11.0975 10.1143 11.03 10.1687 10.975C10.3437 10.8 10.6562 10.8 10.8312 10.975C10.8856 11.03 10.9258 11.0975 10.9481 11.1716C10.9705 11.2457 10.9743 11.3241 10.9593 11.4ZM10.9687 9.62813C10.9687 9.8875 10.7593 10.0969 10.5 10.0969C10.2406 10.0969 10.0312 9.8875 10.0312 9.62813V6.65937C10.0312 6.40312 10.2406 6.19062 10.5 6.19062C10.7593 6.19062 10.9687 6.40312 10.9687 6.65937V9.62813ZM10.5 18.9062C9.17495 18.9062 8.0812 17.8281 8.06245 16.5031C8.05933 16.2438 8.26558 16.0312 8.52495 16.0281H8.5312C8.78745 16.0281 8.99683 16.2344 8.99995 16.4906C9.01245 17.3062 9.68433 17.9688 10.5 17.9688C11.3156 17.9688 11.9875 17.3062 12 16.4906C12.0031 16.2344 12.2281 16.0312 12.4718 16.0281C12.7281 16.0281 12.9375 16.2375 12.9375 16.4937C12.9187 17.8281 11.825 18.9062 10.5 18.9062ZM10.5 3.15313C10.2406 3.15313 10.0312 2.94375 10.0312 2.68438V1.5625C10.0312 1.30313 10.2406 1.09375 10.5 1.09375C10.7593 1.09375 10.9687 1.30313 10.9687 1.5625V2.68438C10.9687 2.94375 10.7593 3.15313 10.5 3.15313ZM5.59058 5.19063C5.47183 5.19063 5.34995 5.14375 5.25933 5.05312L4.46558 4.25938C4.42174 4.21607 4.38693 4.16449 4.36317 4.10762C4.33941 4.05076 4.32718 3.98975 4.32718 3.92812C4.32718 3.8665 4.33941 3.80549 4.36317 3.74863C4.38693 3.69176 4.42174 3.64018 4.46558 3.59688C4.50888 3.55303 4.56047 3.51823 4.61733 3.49447C4.67419 3.47071 4.7352 3.45848 4.79683 3.45848C4.85845 3.45848 4.91946 3.47071 4.97633 3.49447C5.03319 3.51823 5.08477 3.55303 5.12808 3.59688L5.92183 4.39062C6.1062 4.575 6.1062 4.87188 5.92183 5.05312C5.8312 5.14375 5.70933 5.19063 5.59058 5.19063ZM3.5562 10.1H2.43433C2.17495 10.1 1.96558 9.89062 1.96558 9.63125C1.96558 9.37187 2.17495 9.1625 2.43433 9.1625H3.5562C3.81558 9.1625 4.02495 9.37187 4.02495 9.63125C4.02495 9.89062 3.81558 10.1 3.5562 10.1ZM4.79683 15.8031C4.67808 15.8031 4.5562 15.7563 4.46558 15.6656C4.42174 15.6223 4.38693 15.5707 4.36317 15.5139C4.33941 15.457 4.32718 15.396 4.32718 15.3344C4.32718 15.2727 4.33941 15.2117 4.36317 15.1549C4.38693 15.098 4.42174 15.0464 4.46558 15.0031L5.25933 14.2094C5.30263 14.1655 5.35422 14.1307 5.41108 14.107C5.46794 14.0832 5.52895 14.071 5.59058 14.071C5.6522 14.071 5.71321 14.0832 5.77008 14.107C5.82694 14.1307 5.87852 14.1655 5.92183 14.2094C6.1062 14.3938 6.1062 14.6906 5.92183 14.8719L5.12808 15.6656C5.03745 15.7563 4.91558 15.8031 4.79683 15.8031ZM16.2031 15.8C16.0843 15.8 15.9625 15.7531 15.8718 15.6625L15.0781 14.8688C15.0342 14.8254 14.9994 14.7739 14.9757 14.717C14.9519 14.6601 14.9397 14.5991 14.9397 14.5375C14.9397 14.4759 14.9519 14.4149 14.9757 14.358C14.9994 14.3011 15.0342 14.2496 15.0781 14.2062C15.1214 14.1624 15.173 14.1276 15.2298 14.1038C15.2867 14.0801 15.3477 14.0679 15.4093 14.0679C15.471 14.0679 15.532 14.0801 15.5888 14.1038C15.6457 14.1276 15.6973 14.1624 15.7406 14.2062L16.5343 15C16.7187 15.1844 16.7187 15.4812 16.5343 15.6625C16.4437 15.7531 16.3218 15.8 16.2031 15.8ZM18.5656 10.0969H17.4437C17.1843 10.0969 16.975 9.8875 16.975 9.62813C16.975 9.36875 17.1843 9.15938 17.4437 9.15938H18.5656C18.825 9.15938 19.0343 9.36875 19.0343 9.62813C19.0343 9.8875 18.825 10.0969 18.5656 10.0969ZM15.4093 5.1875C15.2906 5.1875 15.1687 5.14062 15.0781 5.05C15.0342 5.00669 14.9994 4.95511 14.9757 4.89825C14.9519 4.84139 14.9397 4.78038 14.9397 4.71875C14.9397 4.65712 14.9519 4.59611 14.9757 4.53925C14.9994 4.48239 15.0342 4.43081 15.0781 4.3875L15.8718 3.59375C15.9151 3.54991 15.9667 3.5151 16.0236 3.49135C16.0804 3.46759 16.1415 3.45536 16.2031 3.45536C16.2647 3.45536 16.3257 3.46759 16.3826 3.49135C16.4394 3.5151 16.491 3.54991 16.5343 3.59375C16.7187 3.77813 16.7187 4.075 16.5343 4.25625L15.7406 5.05C15.65 5.14062 15.5281 5.1875 15.4093 5.1875Z" fill="#272727"/>
</g>
</g>
</svg>
