<svg width="21" height="20" viewBox="0 0 21 20" fill="none" xmlns="http://www.w3.org/2000/svg">
<g id="vuesax/bold/moneys">
<g id="moneys">
<path id="Vector" d="M16.475 5.53335C16.1167 3.72502 14.775 2.93335 12.9083 2.93335H5.59167C3.39167 2.93335 1.925 4.03335 1.925 6.60002V10.8917C1.925 12.7417 2.68334 13.825 3.93334 14.2917C4.11667 14.3583 4.31667 14.4167 4.525 14.45C4.85834 14.525 5.21667 14.5583 5.59167 14.5583H12.9167C15.1167 14.5583 16.5833 13.4583 16.5833 10.8917V6.60002C16.5833 6.20835 16.55 5.85835 16.475 5.53335ZM5.10834 10C5.10834 10.3417 4.825 10.625 4.48334 10.625C4.14167 10.625 3.85834 10.3417 3.85834 10V7.50002C3.85834 7.15835 4.14167 6.87502 4.48334 6.87502C4.825 6.87502 5.10834 7.15835 5.10834 7.50002V10ZM9.25 10.95C8.03334 10.95 7.05 9.96668 7.05 8.75002C7.05 7.53335 8.03334 6.55002 9.25 6.55002C10.4667 6.55002 11.45 7.53335 11.45 8.75002C11.45 9.96668 10.4667 10.95 9.25 10.95ZM14.6333 10C14.6333 10.3417 14.35 10.625 14.0083 10.625C13.6667 10.625 13.3833 10.3417 13.3833 10V7.50002C13.3833 7.15835 13.6667 6.87502 14.0083 6.87502C14.35 6.87502 14.6333 7.15835 14.6333 7.50002V10Z" fill="#2563EB"/>
<path id="Vector_2" d="M19.0833 9.10003V13.3917C19.0833 15.9584 17.6167 17.0667 15.4083 17.0667H8.09166C7.46666 17.0667 6.90832 16.975 6.42499 16.7917C6.03332 16.65 5.69166 16.4417 5.41666 16.175C5.26666 16.0334 5.38332 15.8084 5.59166 15.8084H12.9083C15.9917 15.8084 17.825 13.975 17.825 10.9V6.60003C17.825 6.40003 18.05 6.27503 18.1917 6.42503C18.7583 7.02503 19.0833 7.90003 19.0833 9.10003Z" fill="#2563EB"/>
</g>
</g>
</svg>
