<svg width="25" height="24" viewBox="0 0 25 24" fill="none" xmlns="http://www.w3.org/2000/svg">
<g id="Frame">
<g id="Group">
<g id="Group_2">
<path id="Vector" fill-rule="evenodd" clip-rule="evenodd" d="M14.5195 15.8891L3.18115 21.0273L8.3194 9.68896L14.5195 15.8891Z" fill="#FFCA3E"/>
<path id="Vector_2" fill-rule="evenodd" clip-rule="evenodd" d="M11.9739 3.04486C11.8295 3.53768 11.8295 4.06155 11.9739 4.55437C11.481 4.41003 10.9572 4.41003 10.4644 4.55437C10.6087 4.06155 10.6087 3.53768 10.4644 3.04486C10.9572 3.1892 11.481 3.1892 11.9739 3.04486ZM21.1634 13.7439C20.6706 13.5995 20.1467 13.5995 19.6539 13.7439C19.7982 13.2511 19.7982 12.7272 19.6539 12.2344C20.1467 12.3787 20.6706 12.3787 21.1634 12.2344C21.019 12.7272 21.019 13.2511 21.1634 13.7439Z" fill="#FDB117"/>
<g id="Group_3">
<path id="Vector_3" fill-rule="evenodd" clip-rule="evenodd" d="M7.42086 19.106L3.18115 21.0273L4.35266 18.4422C5.36037 18.4942 6.44086 18.6769 7.42086 19.106ZM12.2661 16.9101L10.4201 17.7467C7.72608 17.2655 6.37535 16.3432 5.74813 15.3628L7.08164 12.4206C7.36593 13.3068 8.14115 14.1222 10.0641 15.1279C11.0372 15.6368 11.748 16.2581 12.2661 16.9101Z" fill="#FF823D"/>
</g>
<path id="Vector_4" d="M14.5166 15.8888C14.871 15.5344 13.7703 13.8592 12.0582 12.1471C10.3461 10.435 8.67092 9.33439 8.31651 9.6888C7.96211 10.0432 9.06273 11.7184 10.7748 13.4305C12.4869 15.1426 14.1622 16.2433 14.5166 15.8888Z" fill="#F2732E"/>
</g>
<path id="Vector_5" fill-rule="evenodd" clip-rule="evenodd" d="M12.1159 9.83303C12.0881 9.80526 12.0662 9.77212 12.0516 9.73563C12.037 9.69914 12.0299 9.66007 12.0308 9.62077C12.0318 9.58147 12.0407 9.54277 12.057 9.50702C12.0734 9.47127 12.0968 9.43921 12.1259 9.41279C13.3734 8.28064 13.8748 7.23898 14.0757 6.5645C14.2825 5.87015 14.2179 5.42796 14.2172 5.42367C14.206 5.34836 14.2248 5.27164 14.2696 5.21005C14.3143 5.14847 14.3815 5.10695 14.4567 5.09445C14.5318 5.08195 14.6088 5.09947 14.6711 5.14324C14.7334 5.187 14.776 5.2535 14.7898 5.3284C14.7936 5.35123 14.88 5.89737 14.632 6.73015C14.4897 7.20776 14.2656 7.68815 13.966 8.15806C13.5957 8.73874 13.1078 9.30547 12.516 9.84259C12.4608 9.89265 12.3885 9.91958 12.3141 9.9178C12.2396 9.91602 12.1686 9.88567 12.1159 9.83303ZM14.3757 12.0928C14.4035 12.1206 14.4366 12.1425 14.4731 12.1571C14.5096 12.1717 14.5486 12.1788 14.5879 12.1779C14.6272 12.1769 14.6659 12.168 14.7017 12.1517C14.7374 12.1353 14.7695 12.1119 14.7959 12.0828C15.9281 10.8353 16.9697 10.334 17.6442 10.133C18.3386 9.9262 18.7808 9.99079 18.785 9.99147C18.8602 10.0024 18.9366 9.98338 18.9979 9.93859C19.0592 9.8938 19.1005 9.82677 19.113 9.75187C19.1255 9.67698 19.1081 9.60018 19.0646 9.53795C19.0211 9.47572 18.9549 9.43301 18.8803 9.41898C18.8575 9.41518 18.3113 9.32874 17.4785 9.57679C17.0009 9.71908 16.5205 9.94313 16.0507 10.2428C15.47 10.6131 14.9032 11.1009 14.3661 11.6927C14.3161 11.7479 14.2892 11.8202 14.2909 11.8947C14.2927 11.9691 14.3231 12.0401 14.3757 12.0928Z" fill="#F43761"/>
<path id="Vector_6" fill-rule="evenodd" clip-rule="evenodd" d="M10.1648 9.44659C10.1368 9.41871 10.1149 9.38544 10.1003 9.34879C10.0856 9.31214 10.0786 9.2729 10.0797 9.23346C10.0807 9.19401 10.0898 9.1552 10.1064 9.11939C10.123 9.08358 10.1467 9.05152 10.176 9.02518C10.7924 8.4723 11.0217 7.94961 11.1055 7.60849C11.1882 7.27196 11.147 7.05342 11.1466 7.05137C11.1314 6.97676 11.1462 6.89918 11.1877 6.83536C11.2292 6.77154 11.2941 6.72658 11.3685 6.71018C11.4428 6.69378 11.5206 6.70725 11.5852 6.74769C11.6497 6.78812 11.6957 6.85229 11.7133 6.92635C11.7246 6.97747 11.9733 8.19259 10.5636 9.45718C10.5084 9.50675 10.4363 9.53328 10.3621 9.53131C10.2879 9.52934 10.2173 9.49902 10.1648 9.44659ZM14.7619 14.0437C14.7898 14.0716 14.823 14.0936 14.8597 14.1082C14.8963 14.1228 14.9356 14.1298 14.975 14.1288C15.0145 14.1277 15.0533 14.1186 15.0891 14.1021C15.1249 14.0855 15.157 14.0618 15.1833 14.0324C15.7362 13.4161 16.2589 13.1868 16.5999 13.103C16.9365 13.0203 17.155 13.0614 17.1571 13.0619C17.2317 13.0771 17.3092 13.0623 17.3731 13.0208C17.4369 12.9793 17.4818 12.9143 17.4982 12.84C17.5146 12.7656 17.5012 12.6878 17.4607 12.6233C17.4203 12.5588 17.3561 12.5128 17.2821 12.4951C17.231 12.4839 16.0158 12.2352 14.7513 13.6449C14.7017 13.7001 14.6752 13.7722 14.6772 13.8464C14.6792 13.9206 14.7095 13.9912 14.7619 14.0437Z" fill="#01997A"/>
<path id="Vector_7" fill-rule="evenodd" clip-rule="evenodd" d="M16.6388 6.78772C16.6007 6.78776 16.563 6.78027 16.5278 6.76569C16.4925 6.75111 16.4605 6.72972 16.4336 6.70274L16.0204 6.28957C15.9677 6.2348 15.9386 6.16154 15.9394 6.08554C15.9401 6.00953 15.9706 5.93685 16.0244 5.88311C16.0781 5.82936 16.1508 5.79884 16.2268 5.79811C16.3028 5.79737 16.3761 5.82648 16.4308 5.87918L16.844 6.29235C16.8846 6.33294 16.9122 6.38464 16.9233 6.44092C16.9345 6.4972 16.9288 6.55553 16.9068 6.60854C16.8849 6.66155 16.8477 6.70686 16.8 6.73875C16.7523 6.77064 16.6962 6.78768 16.6388 6.78772ZM18.1263 8.27518C18.0881 8.27522 18.0504 8.26774 18.0152 8.25315C17.98 8.23857 17.948 8.21718 17.921 8.1902L17.5079 7.77703C17.4552 7.72226 17.4261 7.649 17.4268 7.573C17.4275 7.497 17.458 7.42431 17.5118 7.37057C17.5655 7.31682 17.6382 7.28631 17.7142 7.28557C17.7902 7.28484 17.8635 7.31395 17.9183 7.36664L18.3314 7.77981C18.372 7.82041 18.3996 7.87211 18.4108 7.92838C18.4219 7.98466 18.4162 8.04299 18.3942 8.096C18.3723 8.14901 18.3351 8.19432 18.2874 8.22621C18.2397 8.25811 18.1836 8.27514 18.1263 8.27518ZM16.2257 8.27518C16.1683 8.27515 16.1122 8.25812 16.0645 8.22623C16.0168 8.19435 15.9796 8.14903 15.9576 8.09602C15.9357 8.04301 15.9299 7.98468 15.9411 7.9284C15.9523 7.87212 15.9799 7.82041 16.0204 7.77981L16.4336 7.36664C16.4884 7.31395 16.5616 7.28484 16.6377 7.28557C16.7137 7.28631 16.7863 7.31682 16.8401 7.37057C16.8938 7.42431 16.9243 7.497 16.9251 7.573C16.9258 7.649 16.8967 7.72226 16.844 7.77703L16.4308 8.1902C16.4039 8.21718 16.3719 8.23858 16.3367 8.25316C16.3015 8.26774 16.2638 8.27523 16.2257 8.27518ZM17.7131 6.78772C17.6557 6.78769 17.5996 6.77066 17.5519 6.73877C17.5042 6.70688 17.467 6.66157 17.4451 6.60856C17.4231 6.55555 17.4173 6.49721 17.4285 6.44093C17.4397 6.38465 17.4673 6.33295 17.5079 6.29235L17.921 5.87918C17.9758 5.82648 18.0491 5.79737 18.1251 5.79811C18.2011 5.79884 18.2738 5.82936 18.3275 5.88311C18.3812 5.93685 18.4118 6.00953 18.4125 6.08554C18.4132 6.16154 18.3841 6.2348 18.3314 6.28957L17.9183 6.70274C17.8913 6.72972 17.8594 6.75112 17.8241 6.7657C17.7889 6.78028 17.7512 6.78777 17.7131 6.78772Z" fill="#B65D48"/>
<path id="Vector_8" fill-rule="evenodd" clip-rule="evenodd" d="M17.4792 16.5616C17.4537 16.5361 17.4335 16.5059 17.4197 16.4726C17.4059 16.4393 17.3988 16.4036 17.3988 16.3675V15.815C17.4002 15.7431 17.4297 15.6746 17.481 15.6243C17.5323 15.5739 17.6013 15.5457 17.6732 15.5457C17.7451 15.5457 17.8141 15.5739 17.8654 15.6243C17.9168 15.6746 17.9463 15.7431 17.9476 15.815V16.3675C17.9476 16.4218 17.9315 16.4748 17.9014 16.52C17.8712 16.5651 17.8284 16.6003 17.7782 16.621C17.7281 16.6418 17.6729 16.6472 17.6197 16.6367C17.5665 16.6261 17.5176 16.5999 17.4792 16.5616ZM17.4792 18.5506C17.4537 18.5252 17.4335 18.495 17.4197 18.4617C17.4059 18.4284 17.3988 18.3927 17.3988 18.3567V17.8041C17.4002 17.7322 17.4297 17.6638 17.481 17.6134C17.5323 17.5631 17.6013 17.5348 17.6732 17.5348C17.7451 17.5348 17.8141 17.5631 17.8654 17.6134C17.9168 17.6638 17.9463 17.7322 17.9476 17.8041V18.3567C17.9476 18.4109 17.9315 18.4639 17.9013 18.509C17.8712 18.5541 17.8283 18.5893 17.7782 18.61C17.7281 18.6308 17.6729 18.6362 17.6197 18.6257C17.5665 18.6151 17.5176 18.589 17.4792 18.5506ZM16.2084 17.2799C16.17 17.2415 16.1439 17.1926 16.1333 17.1394C16.1227 17.0861 16.1281 17.0309 16.1489 16.9808C16.1696 16.9306 16.2048 16.8878 16.25 16.8576C16.2951 16.8275 16.3482 16.8114 16.4025 16.8114H16.955C17.0278 16.8114 17.0976 16.8403 17.1491 16.8918C17.2005 16.9433 17.2294 17.013 17.2294 17.0858C17.2294 17.1586 17.2005 17.2284 17.1491 17.2798C17.0976 17.3313 17.0278 17.3602 16.955 17.3602H16.4025C16.3665 17.3603 16.3308 17.3532 16.2975 17.3394C16.2642 17.3256 16.2339 17.3054 16.2084 17.2799ZM18.1975 17.2799C18.1592 17.2415 18.133 17.1926 18.1225 17.1394C18.1119 17.0861 18.1173 17.031 18.1381 16.9808C18.1589 16.9307 18.194 16.8879 18.2391 16.8577C18.2843 16.8275 18.3373 16.8114 18.3916 16.8114H18.9441C19.0169 16.8114 19.0867 16.8403 19.1381 16.8918C19.1896 16.9433 19.2185 17.013 19.2185 17.0858C19.2185 17.1586 19.1896 17.2284 19.1381 17.2798C19.0867 17.3313 19.0169 17.3602 18.9441 17.3602H18.3916C18.3555 17.3603 18.3198 17.3532 18.2865 17.3394C18.2532 17.3256 18.223 17.3054 18.1975 17.2799ZM6.92874 6.01109C6.90322 5.98563 6.88299 5.95539 6.8692 5.92208C6.85541 5.88878 6.84835 5.85308 6.8484 5.81704V5.2645C6.84976 5.19263 6.87926 5.12415 6.93057 5.0738C6.98188 5.02345 7.0509 4.99524 7.12279 4.99524C7.19468 4.99524 7.2637 5.02345 7.31501 5.0738C7.36632 5.12415 7.39582 5.19263 7.39718 5.2645V5.81704C7.39717 5.87131 7.38107 5.92435 7.35091 5.96947C7.32076 6.01459 7.27791 6.04975 7.22777 6.07052C7.17764 6.09129 7.12247 6.09673 7.06924 6.08615C7.01602 6.07557 6.96712 6.04945 6.92874 6.01109ZM6.92874 8.00016C6.90323 7.9747 6.88299 7.94445 6.86919 7.91115C6.8554 7.87785 6.84832 7.84216 6.84835 7.80611V7.25363C6.84971 7.18175 6.87921 7.11327 6.93052 7.06292C6.98183 7.01257 7.05085 6.98436 7.12274 6.98436C7.19463 6.98436 7.26365 7.01257 7.31496 7.06292C7.36627 7.11327 7.39578 7.18175 7.39713 7.25363V7.80616C7.39712 7.86042 7.38102 7.91347 7.35087 7.95858C7.32072 8.0037 7.27787 8.03886 7.22774 8.05962C7.17761 8.08039 7.12244 8.08582 7.06922 8.07524C7.016 8.06465 6.96711 8.03853 6.92874 8.00016ZM5.65796 6.72938C5.6196 6.691 5.59348 6.64211 5.5829 6.58889C5.57232 6.53567 5.57776 6.48051 5.59852 6.43037C5.61928 6.38024 5.65444 6.33739 5.69955 6.30723C5.74466 6.27707 5.7977 6.26097 5.85196 6.26094H6.4045C6.47727 6.26094 6.54706 6.28985 6.59852 6.34131C6.64998 6.39277 6.67889 6.46256 6.67889 6.53533C6.67889 6.60811 6.64998 6.6779 6.59852 6.72936C6.54706 6.78081 6.47727 6.80972 6.4045 6.80972H5.85196C5.81592 6.80979 5.78023 6.80272 5.74694 6.78893C5.71364 6.77514 5.6834 6.7549 5.65796 6.72938ZM7.64703 6.72938C7.60865 6.69101 7.58251 6.64212 7.57192 6.58889C7.56133 6.53566 7.56676 6.48049 7.58752 6.43034C7.60829 6.3802 7.64346 6.33734 7.68858 6.30719C7.73371 6.27704 7.78676 6.26094 7.84103 6.26094H8.39357C8.46634 6.26094 8.53614 6.28985 8.58759 6.34131C8.63905 6.39277 8.66796 6.46256 8.66796 6.53533C8.66796 6.60811 8.63905 6.6779 8.58759 6.72936C8.53614 6.78081 8.46634 6.80972 8.39357 6.80972H7.84103C7.805 6.80977 7.76931 6.8027 7.73602 6.78892C7.70272 6.77513 7.67248 6.7549 7.64703 6.72938Z" fill="#00A9E8"/>
</g>
</g>
</svg>
