<svg width="25" height="24" viewBox="0 0 25 24" fill="none" xmlns="http://www.w3.org/2000/svg">
<g id="vuesax/linear/messages">
<g id="vuesax/linear/messages_2">
<g id="messages">
<g id="Group">
<path id="Vector" d="M18.48 10.79V14.79C18.48 15.05 18.47 15.3 18.44 15.54C18.21 18.24 16.62 19.58 13.69 19.58H13.29C13.04 19.58 12.8 19.7 12.65 19.9L11.45 21.5C10.92 22.21 10.06 22.21 9.53 21.5L8.32999 19.9C8.19999 19.73 7.91 19.58 7.69 19.58H7.29001C4.10001 19.58 2.5 18.79 2.5 14.79V10.79C2.5 7.86001 3.85001 6.27001 6.54001 6.04001C6.78001 6.01001 7.03001 6 7.29001 6H13.69C16.88 6 18.48 7.60001 18.48 10.79Z" stroke="#272727" stroke-width="1.5" stroke-miterlimit="10" stroke-linecap="round" stroke-linejoin="round"/>
</g>
<path id="Vector_2" d="M22.48 6.78999V10.79C22.48 13.73 21.13 15.31 18.44 15.54C18.47 15.3 18.48 15.05 18.48 14.79V10.79C18.48 7.59999 16.88 5.99998 13.69 5.99998H7.29004C7.03004 5.99998 6.78004 6.00999 6.54004 6.03999C6.77004 3.34999 8.36004 1.99998 11.29 1.99998H17.69C20.88 1.99998 22.48 3.59999 22.48 6.78999Z" stroke="#272727" stroke-width="1.5" stroke-miterlimit="10" stroke-linecap="round" stroke-linejoin="round"/>
<path id="Vector_3" d="M13.9955 13.25H14.0045" stroke="#272727" stroke-width="2" stroke-linecap="round" stroke-linejoin="round"/>
<path id="Vector_4" d="M10.4955 13.25H10.5045" stroke="#272727" stroke-width="2" stroke-linecap="round" stroke-linejoin="round"/>
<path id="Vector_5" d="M6.9955 13.25H7.0045" stroke="#272727" stroke-width="2" stroke-linecap="round" stroke-linejoin="round"/>
</g>
</g>
</g>
</svg>
