<svg width="20" height="20" viewBox="0 0 20 20" fill="none" xmlns="http://www.w3.org/2000/svg">
<g id="Frame">
<g id="Group">
<path id="Vector" d="M6.48057 13.3654C8.82157 9.48199 15.1162 4.99139 18.5928 2.52839C18.6874 2.4614 18.8001 2.42463 18.916 2.42291C19.0319 2.4212 19.1456 2.45463 19.2422 2.51879C19.3167 2.56808 19.3787 2.63404 19.4233 2.71146C19.4679 2.78887 19.4938 2.87561 19.499 2.96479C19.5043 3.05397 19.4887 3.14314 19.4535 3.22524C19.4182 3.30735 19.3644 3.38012 19.2962 3.43779C15.1256 6.96099 10.1622 11.176 8.66337 15.8192C8.63693 15.9021 8.59228 15.9781 8.53269 16.0415C8.4731 16.1049 8.40008 16.1542 8.31897 16.1858C7.55857 16.4818 6.39837 17.0782 5.71197 17.4934C5.64398 17.5347 5.56818 17.5615 5.48933 17.5721C5.41049 17.5827 5.3303 17.5769 5.25382 17.555C5.17733 17.5331 5.1062 17.4956 5.04489 17.4449C4.98358 17.3942 4.93342 17.3314 4.89757 17.2604C3.83417 15.171 2.12457 12.5932 0.706371 11.4254C0.644588 11.3741 0.59431 11.3104 0.55882 11.2384C0.523329 11.1664 0.503424 11.0878 0.500404 11.0075C0.497384 10.9273 0.511317 10.8474 0.541294 10.7729C0.571271 10.6984 0.616616 10.6311 0.674371 10.5754C3.50837 7.86619 5.59837 11.5764 6.48037 13.3652L6.48057 13.3654Z" fill="#2563EB"/>
</g>
</g>
</svg>
