<svg width="51" height="50" viewBox="0 0 51 50" fill="none" xmlns="http://www.w3.org/2000/svg">
<g id="Frame" clip-path="url(#clip0_1759_15558)">
<g id="Group">
<path id="Vector" d="M25.5 50C39.3071 50 50.5 38.8071 50.5 25C50.5 11.1929 39.3071 0 25.5 0C11.6929 0 0.5 11.1929 0.5 25C0.5 38.8071 11.6929 50 25.5 50Z" fill="#EAB14D"/>
<path id="Vector_2" d="M25.5 0C25.0537 0 24.6102 0.012207 24.1697 0.0352539C37.3583 0.726855 47.8395 11.6392 47.8395 25C47.8395 38.3608 37.3583 49.2731 24.1697 49.9647C24.6102 49.9878 25.0537 50 25.5 50C39.3071 50 50.5 38.8071 50.5 25C50.5 11.1929 39.3071 0 25.5 0Z" fill="#E49542"/>
<path id="Vector_3" d="M25.5 44.4811C36.2591 44.4811 44.9811 35.7591 44.9811 25C44.9811 14.2408 36.2591 5.5188 25.5 5.5188C14.7408 5.5188 6.0188 14.2408 6.0188 25C6.0188 35.7591 14.7408 44.4811 25.5 44.4811Z" fill="#F4FBFF"/>
<path id="Vector_4" d="M25.5 5.5188C24.9604 5.5188 24.4264 5.54175 23.8979 5.58472C33.9076 6.39956 41.7771 14.7803 41.7771 25C41.7771 35.2196 33.9076 43.6002 23.8979 44.4152C24.4264 44.4583 24.9604 44.4812 25.5 44.4812C36.2592 44.4812 44.9812 35.7591 44.9812 25C44.9812 14.241 36.2592 5.5188 25.5 5.5188Z" fill="#DAF1F4"/>
<path id="Vector_5" d="M25.5 11.5148C25.2999 11.5148 25.108 11.4353 24.9665 11.2938C24.825 11.1523 24.7456 10.9604 24.7456 10.7603V9.65287C24.7478 9.45424 24.8283 9.26451 24.9696 9.12485C25.1108 8.98519 25.3015 8.90686 25.5001 8.90686C25.6987 8.90686 25.8894 8.98519 26.0306 9.12485C26.1719 9.26451 26.2524 9.45424 26.2546 9.65287V10.7603C26.2546 10.9604 26.1751 11.1523 26.0336 11.2938C25.8921 11.4353 25.7002 11.5148 25.5 11.5148ZM35.5281 15.7026C35.3788 15.7026 35.2329 15.6583 35.1088 15.5754C34.9848 15.4925 34.888 15.3747 34.8309 15.2368C34.7738 15.0989 34.7589 14.9472 34.788 14.8008C34.8172 14.6544 34.889 14.52 34.9946 14.4145L35.7777 13.6315C35.9192 13.49 36.1111 13.4105 36.3112 13.4105C36.5113 13.4105 36.7032 13.49 36.8447 13.6315C36.9862 13.773 37.0657 13.9649 37.0657 14.1651C37.0657 14.3652 36.9862 14.5571 36.8447 14.6986L36.0616 15.4817C35.9916 15.5518 35.9084 15.6074 35.8168 15.6453C35.7253 15.6832 35.6272 15.7027 35.5281 15.7026ZM40.7652 25.7546H39.6578C39.4577 25.7546 39.2658 25.6751 39.1243 25.5336C38.9828 25.3921 38.9033 25.2002 38.9033 25.0001C38.9033 24.8 38.9828 24.6081 39.1243 24.4666C39.2658 24.3251 39.4577 24.2456 39.6578 24.2456H40.7652C40.9653 24.2456 41.1572 24.3251 41.2987 24.4666C41.4402 24.6081 41.5197 24.8 41.5197 25.0001C41.5197 25.2002 41.4402 25.3921 41.2987 25.5336C41.1572 25.6751 40.9653 25.7546 40.7652 25.7546ZM36.253 36.5658C36.1539 36.5659 36.0557 36.5464 35.9641 36.5085C35.8726 36.4705 35.7894 36.4149 35.7194 36.3448L34.9364 35.5618C34.7949 35.4202 34.7154 35.2283 34.7154 35.0282C34.7154 34.828 34.7949 34.6361 34.9364 34.4946C35.0779 34.3531 35.2699 34.2737 35.47 34.2737C35.6701 34.2737 35.862 34.3531 36.0036 34.4946L36.7866 35.2776C36.892 35.3831 36.9638 35.5176 36.9929 35.6639C37.0219 35.8103 37.007 35.962 36.9499 36.0998C36.8928 36.2377 36.7961 36.3555 36.6721 36.4384C36.548 36.5214 36.4022 36.5657 36.253 36.5658ZM25.4178 41.0199C25.2177 41.0199 25.0258 40.9404 24.8843 40.7989C24.7428 40.6574 24.6633 40.4655 24.6633 40.2654V39.1579C24.6633 38.9578 24.7428 38.7659 24.8843 38.6244C25.0258 38.4829 25.2177 38.4035 25.4178 38.4035C25.6179 38.4035 25.8098 38.4829 25.9513 38.6244C26.0928 38.7659 26.1723 38.9578 26.1723 39.1579V40.2654C26.1723 40.4655 26.0928 40.6574 25.9513 40.7989C25.8098 40.9404 25.6179 41.0199 25.4178 41.0199ZM14.6067 36.5076C14.5076 36.5077 14.4094 36.4882 14.3179 36.4503C14.2263 36.4123 14.1432 36.3567 14.0732 36.2865C14.0031 36.2164 13.9475 36.1332 13.9096 36.0417C13.8717 35.9501 13.8522 35.852 13.8522 35.7529C13.8522 35.6538 13.8717 35.5557 13.9096 35.4642C13.9475 35.3726 14.0031 35.2894 14.0732 35.2194L14.8563 34.4364C14.9983 34.2974 15.1895 34.22 15.3882 34.2211C15.5869 34.2222 15.7772 34.3016 15.9177 34.4421C16.0582 34.5827 16.1376 34.773 16.1387 34.9717C16.1397 35.1704 16.0623 35.3615 15.9233 35.5035L15.1402 36.2866C15.0702 36.3567 14.9871 36.4124 14.8955 36.4503C14.8039 36.4882 14.7058 36.5077 14.6067 36.5076ZM11.2601 25.6725H10.1527C9.95258 25.6725 9.76067 25.593 9.61918 25.4515C9.47768 25.31 9.39819 25.1181 9.39819 24.918C9.39819 24.7179 9.47768 24.526 9.61918 24.3845C9.76067 24.243 9.95258 24.1635 10.1527 24.1635H11.2601C11.4602 24.1635 11.6521 24.243 11.7936 24.3845C11.9351 24.526 12.0146 24.7179 12.0146 24.918C12.0146 25.1181 11.9351 25.31 11.7936 25.4515C11.6521 25.593 11.4602 25.6725 11.2601 25.6725ZM15.448 15.6445C15.3489 15.6446 15.2507 15.6251 15.1592 15.5872C15.0676 15.5493 14.9845 15.4936 14.9145 15.4235L14.1314 14.6405C13.9924 14.4985 13.915 14.3073 13.916 14.1086C13.9171 13.9099 13.9965 13.7196 14.137 13.5791C14.2775 13.4385 14.4678 13.3591 14.6665 13.358C14.8652 13.3569 15.0564 13.4343 15.1984 13.5733L15.9815 14.3564C16.087 14.4619 16.1588 14.5964 16.1879 14.7427C16.217 14.8891 16.2021 15.0408 16.145 15.1786C16.0879 15.3165 15.9912 15.4343 15.8671 15.5172C15.7431 15.6002 15.5972 15.6444 15.448 15.6445ZM25.5 25.7546H19.0918C18.8932 25.7524 18.7035 25.6719 18.5638 25.5306C18.4242 25.3894 18.3458 25.1987 18.3458 25.0001C18.3458 24.8014 18.4242 24.6108 18.5638 24.4696C18.7035 24.3283 18.8932 24.2478 19.0918 24.2455H24.7455V14.6462C24.7455 14.4461 24.8249 14.2542 24.9664 14.1127C25.1079 13.9712 25.2998 13.8917 25.5 13.8917C25.7001 13.8917 25.892 13.9712 26.0335 14.1127C26.175 14.2542 26.2544 14.4461 26.2544 14.6462V25C26.2545 25.0991 26.235 25.1972 26.1971 25.2888C26.1592 25.3803 26.1036 25.4635 26.0336 25.5336C25.9635 25.6037 25.8803 25.6593 25.7888 25.6972C25.6972 25.7351 25.5991 25.7546 25.5 25.7546Z" fill="#2B4D66"/>
<path id="Vector_6" d="M33.2408 29.7355C33.121 29.7354 33.0029 29.7067 32.8964 29.6518L25.155 25.6709C24.7844 25.4804 24.6385 25.0255 24.829 24.6549C25.0195 24.2843 25.4744 24.1383 25.8451 24.3289L33.5865 28.3097C33.6747 28.355 33.753 28.4172 33.8171 28.4928C33.8811 28.5684 33.9297 28.6559 33.96 28.7502C33.9902 28.8445 34.0016 28.9439 33.9935 29.0427C33.9853 29.1414 33.9578 29.2376 33.9125 29.3257C33.8491 29.4492 33.7528 29.5528 33.6343 29.6251C33.5158 29.6974 33.3797 29.7356 33.2408 29.7355Z" fill="#DA4A54"/>
<path id="Vector_7" d="M25.5 27.0138C26.6122 27.0138 27.5138 26.1122 27.5138 25C27.5138 23.8877 26.6122 22.9861 25.5 22.9861C24.3877 22.9861 23.4861 23.8877 23.4861 25C23.4861 26.1122 24.3877 27.0138 25.5 27.0138Z" fill="#365E7D"/>
</g>
</g>
<defs>
<clipPath id="clip0_1759_15558">
<rect width="50" height="50" fill="white" transform="translate(0.5)"/>
</clipPath>
</defs>
</svg>
