<svg width="16" height="16" viewBox="0 0 16 16" fill="none" xmlns="http://www.w3.org/2000/svg">
<g id="Frame">
<g id="Group">
<path id="Vector" d="M2.06378 7.54907V8.45068C2.06378 8.72689 2.13528 9.00309 2.27808 9.25069L3.3622 11.1284L4.44631 13.0061C4.58674 13.2494 4.78873 13.4514 5.03198 13.5918C5.27523 13.7322 5.55116 13.8062 5.83203 13.8062H10.1685C10.4494 13.8061 10.7253 13.7322 10.9685 13.5918C11.2118 13.4514 11.4138 13.2494 11.5542 13.0061L13.7224 9.25069C13.8652 9.00328 13.9367 8.72707 13.9367 8.45068V7.54907H2.06378Z" fill="#F39E09"/>
<path id="Vector_2" d="M11.7606 4.22811C11.9339 4.22811 12.1059 4.23395 12.2764 4.24467L11.5541 2.99386C11.4136 2.75061 11.2116 2.54862 10.9684 2.40819C10.7251 2.26775 10.4492 2.19383 10.1683 2.19385H5.83207C5.55121 2.19386 5.27529 2.26779 5.03205 2.40822C4.7888 2.54865 4.58681 2.75063 4.44636 2.99386L2.27813 6.74931C2.13771 6.99255 2.06378 7.26846 2.06378 7.54932C2.06378 7.83018 2.13771 8.10609 2.27813 8.34933L3.36224 10.2271L3.66272 10.7475C4.47383 7.01987 7.79014 4.22811 11.7606 4.22811Z" fill="#F6D555"/>
<path id="Vector_3" d="M5.8314 12.9045H10.1679C10.4487 12.9045 10.7246 12.8306 10.9679 12.6901C11.2111 12.5497 11.4131 12.3477 11.5536 12.1045L13.7218 8.34905C13.8622 8.10582 13.9361 7.82991 13.9361 7.54905C13.9361 7.26818 13.8622 6.99227 13.7218 6.74904L12.6377 4.87131L12.2759 4.24458C12.1054 4.23386 11.9334 4.22803 11.7602 4.22803C7.78965 4.22803 4.47334 7.01997 3.66241 10.7472L4.44606 12.1045C4.73148 12.5995 5.2598 12.9045 5.8314 12.9045Z" fill="#EFB217"/>
<path id="Vector_4" d="M5.83158 11.838C5.64174 11.838 5.46469 11.7359 5.36968 11.5714L3.20145 7.81596C3.10643 7.65152 3.10643 7.44719 3.20145 7.28256L5.36968 3.52711C5.46469 3.36266 5.64155 3.2605 5.83158 3.2605H10.168C10.3579 3.2605 10.5349 3.36266 10.6299 3.52711L12.7982 7.28256C12.8932 7.447 12.8932 7.65133 12.7982 7.81596L10.6299 11.5714C10.5349 11.7359 10.3581 11.838 10.168 11.838H5.83158Z" fill="#F39E09"/>
<path id="Vector_5" d="M7.21573 6.78395L5.46124 7.03889L6.73087 8.27654L6.43115 10.0241L8.0005 9.19884V5.19409L7.21573 6.78395Z" fill="#F6D555"/>
<path id="Vector_6" d="M10.5396 7.03889L8.78489 6.78395L8.00031 5.19409V9.19884L9.56966 10.0241L9.26993 8.27654L10.5396 7.03889Z" fill="#FDD835"/>
<path id="Vector_7" d="M10.2449 4.40208C10.3377 4.49483 10.6391 4.63802 10.7796 4.70199C10.8079 4.71478 10.8079 4.75467 10.7796 4.76746C10.6391 4.83143 10.3379 4.97443 10.2449 5.06737C10.1522 5.16013 10.009 5.46154 9.94501 5.60209C9.93222 5.63031 9.89233 5.63031 9.87954 5.60209C9.81557 5.46154 9.67257 5.16032 9.57963 5.06737C9.48687 4.97461 9.18546 4.83143 9.04491 4.76746C9.01669 4.75467 9.01669 4.71478 9.04491 4.70199C9.18546 4.63802 9.48668 4.49502 9.57963 4.40208C9.67239 4.30932 9.81557 4.00791 9.87954 3.86736C9.89233 3.83914 9.93222 3.83914 9.94501 3.86736C10.009 4.00791 10.152 4.30932 10.2449 4.40208Z" fill="white"/>
</g>
</g>
</svg>
