<svg width="25" height="24" viewBox="0 0 25 24" fill="none" xmlns="http://www.w3.org/2000/svg">
<path d="M20.2129 7.04V16.96C20.2129 18.48 20.0729 19.56 19.7129 20.33C19.7129 20.34 19.7029 20.36 19.6929 20.37C19.4729 20.65 19.1829 20.79 18.8429 20.79C18.3129 20.79 17.6729 20.44 16.9829 19.7C16.1629 18.82 14.9029 18.89 14.1829 19.85L13.1729 21.19C12.7729 21.73 12.2429 22 11.7129 22C11.1829 22 10.6529 21.73 10.2529 21.19L9.23291 19.84C8.52291 18.89 7.27288 18.82 6.45288 19.69L6.44287 19.7C5.31287 20.91 4.31291 21.09 3.73291 20.37C3.72291 20.36 3.71289 20.34 3.71289 20.33C3.35289 19.56 3.21289 18.48 3.21289 16.96V7.04C3.21289 5.52 3.35289 4.44 3.71289 3.67C3.71289 3.66 3.71291 3.65 3.73291 3.64C4.30291 2.91 5.31287 3.09 6.44287 4.3L6.45288 4.31C7.27288 5.18 8.52291 5.11 9.23291 4.16L10.2529 2.81C10.6529 2.27 11.1829 2 11.7129 2C12.2429 2 12.7729 2.27 13.1729 2.81L14.1829 4.15C14.9029 5.11 16.1629 5.18 16.9829 4.3C17.6729 3.56 18.3129 3.21 18.8429 3.21C19.1829 3.21 19.4729 3.36 19.6929 3.64C19.7129 3.65 19.7129 3.66 19.7129 3.67C20.0729 4.44 20.2129 5.52 20.2129 7.04Z" stroke="#272727" stroke-width="1.5" stroke-linecap="round" stroke-linejoin="round"/>
<path d="M8.21289 10.25H16.2129" stroke="#272727" stroke-width="1.5" stroke-linecap="round" stroke-linejoin="round"/>
<path d="M8.21289 13.75H14.2129" stroke="#272727" stroke-width="1.5" stroke-linecap="round" stroke-linejoin="round"/>
</svg>
