<svg width="17" height="16" viewBox="0 0 17 16" fill="none" xmlns="http://www.w3.org/2000/svg">
<g id="Frame">
<g id="Group">
<path id="Vector" d="M13.4629 2H10.7129V1.5C10.7129 0.671562 10.0413 0 9.21289 0H7.21289C6.38445 0 5.71289 0.671562 5.71289 1.5V2H2.96289C2.27255 2 1.71289 2.55966 1.71289 3.25V4.25C1.71289 4.52616 1.93673 4.75 2.21289 4.75H14.2129C14.489 4.75 14.7129 4.52616 14.7129 4.25V3.25C14.7129 2.55966 14.1532 2 13.4629 2ZM6.71289 1.5C6.71289 1.22438 6.93727 1 7.21289 1H9.21289C9.48852 1 9.71289 1.22438 9.71289 1.5V2H6.71289V1.5ZM2.66177 5.75C2.64062 5.75 2.6197 5.75429 2.60026 5.76262C2.58082 5.77094 2.56328 5.78313 2.54869 5.79843C2.5341 5.81373 2.52276 5.83184 2.51538 5.85165C2.50799 5.87146 2.5047 5.89257 2.5057 5.91369L2.9182 14.5712C2.95633 15.3725 3.61445 16 4.41633 16H12.0095C12.8113 16 13.4695 15.3725 13.5076 14.5712L13.9201 5.91369C13.9211 5.89257 13.9178 5.87146 13.9104 5.85165C13.903 5.83184 13.8917 5.81373 13.8771 5.79843C13.8625 5.78313 13.845 5.77094 13.8255 5.76262C13.8061 5.75429 13.7852 5.75 13.764 5.75H2.66177ZM10.2129 7C10.2129 6.72375 10.4366 6.5 10.7129 6.5C10.9891 6.5 11.2129 6.72375 11.2129 7V13.5C11.2129 13.7762 10.9891 14 10.7129 14C10.4366 14 10.2129 13.7762 10.2129 13.5V7ZM7.71289 7C7.71289 6.72375 7.93664 6.5 8.21289 6.5C8.48914 6.5 8.71289 6.72375 8.71289 7V13.5C8.71289 13.7762 8.48914 14 8.21289 14C7.93664 14 7.71289 13.7762 7.71289 13.5V7ZM5.21289 7C5.21289 6.72375 5.43664 6.5 5.71289 6.5C5.98914 6.5 6.21289 6.72375 6.21289 7V13.5C6.21289 13.7762 5.98914 14 5.71289 14C5.43664 14 5.21289 13.7762 5.21289 13.5V7Z" fill="#DC2626"/>
</g>
</g>
</svg>
