<svg width="25" height="24" viewBox="0 0 25 24" fill="none" xmlns="http://www.w3.org/2000/svg">
<g id="vuesax/linear/empty-wallet-change">
<g id="Group">
<path id="Vector" d="M3 13.24V11.51C3 9.44001 4.68999 7.75 6.75999 7.75H18.24C20.31 7.75 22 9.44001 22 11.51V12.95H19.98C19.42 12.95 18.91 13.17 18.54 13.55C18.12 13.96 17.88 14.55 17.94 15.18C18.03 16.26 19.02 17.05 20.1 17.05H22V18.24C22 20.31 20.31 22 18.24 22H12.76" stroke="#272727" stroke-width="1.5" stroke-linecap="round" stroke-linejoin="round"/>
<path id="Vector_2" d="M3 12.4098V7.83986C3 6.64986 3.73 5.58982 4.84 5.16982L12.78 2.16982C14.02 1.69982 15.35 2.61985 15.35 3.94985V7.74983" stroke="#272727" stroke-width="1.5" stroke-linecap="round" stroke-linejoin="round"/>
</g>
<path id="Vector_3" d="M23.0588 13.9702V16.0302C23.0588 16.5802 22.6188 17.0302 22.0588 17.0502H20.0988C19.0188 17.0502 18.0288 16.2602 17.9388 15.1802C17.8788 14.5502 18.1188 13.9602 18.5388 13.5502C18.9088 13.1702 19.4188 12.9502 19.9788 12.9502H22.0588C22.6188 12.9702 23.0588 13.4202 23.0588 13.9702Z" stroke="#272727" stroke-width="1.5" stroke-linecap="round" stroke-linejoin="round"/>
<path id="Vector_4" d="M7.5 12H14.5" stroke="#272727" stroke-width="1.5" stroke-linecap="round" stroke-linejoin="round"/>
<g id="Group_2">
<path id="Vector_5" d="M3.5 16.5H8.84C9.48 16.5 10 17.02 10 17.66V18.94" stroke="#272727" stroke-width="1.5" stroke-miterlimit="10" stroke-linecap="round" stroke-linejoin="round"/>
<path id="Vector_6" d="M4.72 15.2803L3.5 16.5002L4.72 17.7202" stroke="#272727" stroke-width="1.5" stroke-miterlimit="10" stroke-linecap="round" stroke-linejoin="round"/>
<path id="Vector_7" d="M10 21.7803H4.66C4.02 21.7803 3.5 21.2603 3.5 20.6203V19.3403" stroke="#272727" stroke-width="1.5" stroke-miterlimit="10" stroke-linecap="round" stroke-linejoin="round"/>
<path id="Vector_8" d="M8.78125 23.0005L10.0013 21.7806L8.78125 20.5605" stroke="#272727" stroke-width="1.5" stroke-miterlimit="10" stroke-linecap="round" stroke-linejoin="round"/>
</g>
</g>
</svg>
