<svg width="32" height="33" viewBox="0 0 32 33" fill="none" xmlns="http://www.w3.org/2000/svg">
<g id="Frame">
<g id="Group">
<path id="Vector" d="M30.2983 19.1503L30.289 19.1549C29.1921 19.9961 28.7274 21.4275 29.1178 22.7522L29.1224 22.7615C29.7452 24.8668 28.2023 26.9907 26.0085 27.0465H25.9993C24.6143 27.0837 23.3966 27.9667 22.9364 29.2727V29.2773C22.2021 31.3502 19.7018 32.1635 17.8938 30.9132C16.7712 30.1467 15.2871 30.1067 14.106 30.9132H14.1014C12.2935 32.1588 9.79307 31.3501 9.06338 29.2727C8.83815 28.6352 8.42479 28.0811 7.87793 27.6836C7.33107 27.2861 6.67646 27.064 6.00063 27.0465H5.99132C3.79769 26.9907 2.25463 24.8668 2.87744 22.7614L2.88207 22.7521C3.27238 21.4275 2.80763 19.996 1.71088 19.1548L1.70157 19.1502C-0.0413096 17.8117 -0.0413096 15.1905 1.70157 13.852L1.71088 13.8473C2.80763 13.0062 3.27238 11.5747 2.87744 10.2501V10.2408C2.24994 8.13547 3.79763 6.01147 5.99132 5.95572H6.00063C7.38094 5.91853 8.60325 5.03547 9.06338 3.72953V3.72491C9.793 1.65209 12.2935 0.83878 14.1014 2.08903H14.106C15.2446 2.87447 16.7504 2.87447 17.8938 2.08903C19.7199 0.827968 22.2064 1.66453 22.9364 3.72491V3.72953C23.3966 5.03084 24.6142 5.91859 25.9993 5.95572H26.0085C28.2022 6.01147 29.7452 8.13547 29.1224 10.2408L29.1178 10.2501C28.7274 11.5747 29.1921 13.0062 30.289 13.8473L30.2983 13.852C32.0412 15.1905 32.0412 17.8117 30.2983 19.1503Z" fill="#3EB655"/>
<path id="Vector_2" d="M16 25.1574C20.7813 25.1574 24.6573 21.2814 24.6573 16.5001C24.6573 11.7188 20.7813 7.84277 16 7.84277C11.2187 7.84277 7.3427 11.7188 7.3427 16.5001C7.3427 21.2814 11.2187 25.1574 16 25.1574Z" fill="#8BD399"/>
<path id="Vector_3" d="M22.6472 10.9584C21.1497 9.7265 19.2339 8.98606 17.1454 8.98606C12.3642 8.98606 8.48606 12.8642 8.48606 17.6454C8.48606 19.7339 9.2265 21.6497 10.4583 23.1472C8.55575 21.5601 7.34387 19.1728 7.34387 16.4999C7.34387 11.7186 11.2187 7.84387 15.9999 7.84387C18.6728 7.84387 21.0601 9.05575 22.6472 10.9584Z" fill="black" fill-opacity="0.063"/>
<path id="Vector_4" d="M13.9403 19.8892L12.0259 17.8525C11.5245 17.319 11.5504 16.4801 12.0837 15.9788C12.617 15.4768 13.4562 15.5037 13.9571 16.0368L14.871 17.0087L18.7556 12.5688C19.2371 12.0178 20.0746 11.962 20.626 12.4441C21.177 12.9263 21.2326 13.7636 20.7507 14.3146L15.9035 19.8543C15.3871 20.4438 14.4758 20.4593 13.9403 19.8892Z" fill="white"/>
</g>
</g>
</svg>
