<svg width="192" height="173" viewBox="0 0 192 173" fill="none" xmlns="http://www.w3.org/2000/svg">
<g id="Frame 1171276479">
<path id="Vector" d="M135.157 69.2341C135.118 69.2341 135.078 69.2273 135.04 69.2128C134.863 69.1472 134.773 68.9497 134.838 68.7726C135.587 66.7319 136.142 64.6324 135.133 63.0974C134.664 62.3831 133.931 61.9114 133.154 61.4117C132.639 61.0805 132.106 60.7374 131.643 60.3117C130.336 59.1112 129.605 57.2544 129.635 55.2162C129.654 53.9758 130.229 52.7064 130.785 51.4787C131.761 49.3264 132.603 47.4679 130.737 45.9252C129.816 45.1632 128.586 44.9469 127.284 44.7179C125.832 44.4617 124.329 44.1977 123.277 43.102C121.852 41.6172 122.029 39.5365 122.2 37.5238C122.308 36.2519 122.42 34.9365 122.132 33.7769C121.702 32.0444 120.302 30.5076 118.293 29.5618C116.458 28.6976 114.401 28.4005 112.41 28.1144C112.223 28.0872 112.094 27.9135 112.12 27.7262C112.147 27.5389 112.32 27.4086 112.506 27.435C114.546 27.7288 116.655 28.0327 118.582 28.9403C120.778 29.9747 122.313 31.6766 122.794 33.6109C123.11 34.8803 122.993 36.2536 122.879 37.5817C122.714 39.5271 122.557 41.3644 123.768 42.6252C124.665 43.5601 125.994 43.7942 127.402 44.0419C128.734 44.2761 130.11 44.5187 131.171 45.3956C133.442 47.2729 132.36 49.6584 131.406 51.763C130.879 52.9269 130.333 54.1299 130.317 55.2264C130.29 57.0415 130.957 58.7528 132.103 59.8051C132.523 60.1908 133.03 60.5177 133.522 60.8336C134.324 61.3495 135.153 61.8833 135.702 62.7185C136.878 64.5089 136.289 66.8 135.478 69.0093C135.427 69.1481 135.296 69.2341 135.157 69.2341Z" fill="#272727"/>
<path id="Vector_2" d="M93.3372 72.8647C93.3372 74.1231 93.1365 75.332 92.7654 76.4643C92.4478 77.4332 92.0064 78.3442 91.46 79.1794C89.4142 82.3039 85.8928 84.3668 81.8935 84.3668C79.5301 84.3668 77.3335 83.6457 75.5097 82.412C73.6706 81.1682 72.2101 79.399 71.3419 77.3191C70.7684 75.9493 70.4507 74.444 70.4507 72.8656C70.4507 72.4893 70.4693 72.1198 70.5041 71.7537C70.5871 70.8844 70.7675 70.0407 71.0327 69.2396C72.5431 64.6643 76.8337 61.3652 81.8927 61.3652C87.5794 61.3652 92.297 65.5327 93.1864 70.9943C93.2661 71.4821 93.3144 71.9819 93.3305 72.491C93.3355 72.6136 93.3372 72.7387 93.3372 72.8647Z" fill="#EAF0FD" stroke="#0E0F0F" stroke-width="0.596878" stroke-miterlimit="10"/>
<path id="Vector_3" d="M143.079 114.084C142.976 114.927 142.87 115.776 142.767 116.633C141.788 124.78 140.809 132.929 139.831 141.076C139.624 142.801 136.973 166.111 136.291 170.935H125.561L111.28 169.755L104.401 169.187L113.599 135.754L117.851 120.297C116.81 119.456 115.795 118.535 114.841 117.55C113.355 116.019 112.02 114.333 110.977 112.559C110.187 111.217 109.564 109.826 109.169 108.411C108.564 106.248 108.49 104.031 109.165 101.86C109.177 101.821 109.189 101.782 109.202 101.744C109.43 101.034 109.74 100.329 110.138 99.6332C110.714 98.6252 111.473 97.635 112.441 96.6738C112.775 96.3409 113.123 96.0149 113.45 95.6735C113.501 95.6198 113.552 95.5653 113.602 95.5108C113.937 95.1482 114.244 94.7633 114.484 94.3326C115.218 93.0172 115.257 91.4115 115.867 90.0382L115.868 90.0357C115.903 89.9573 115.939 89.8799 115.978 89.8032C116.124 89.5163 116.797 89.3571 117.711 89.2822H117.712C117.808 89.2737 117.908 89.266 118.011 89.2592H118.012C120.372 89.1136 124.003 89.4244 124.699 89.4704C126.292 89.5759 127.877 89.77 129.448 90.0501H129.449C131.341 90.3856 133.209 90.8479 135.039 91.4328C136.407 91.8712 137.787 92.3965 138.964 93.2036C139.124 93.3126 139.28 93.4275 139.433 93.5476C139.671 93.7374 139.901 93.9418 140.117 94.1614C141.273 95.3355 141.982 96.885 142.486 98.4575C144.185 103.762 143.718 108.809 143.079 114.084Z" fill="#EAF0FD" stroke="#0E0F0F" stroke-width="0.596878" stroke-miterlimit="10"/>
<path id="Vector_4" d="M126.794 86.5298C124.345 83.8548 121.397 81.6923 118.47 79.5494C116.969 78.4503 109.444 73.8827 109.952 78.9909C110.079 80.2722 110.983 81.3288 111.843 82.2917C116.025 86.9708 119.39 91.7062 125.069 94.8077C126.1 95.3713 127.222 95.8907 128.393 95.8328C134.151 95.5459 128.372 88.253 126.794 86.5298Z" fill="#EAF0FD" stroke="#0E0F0F" stroke-width="0.596878" stroke-miterlimit="10"/>
<path id="Vector_5" d="M103.947 103.552C103.936 104.726 104.252 105.894 104.565 107.046C104.816 107.968 105.068 108.89 105.319 109.813C105.712 111.261 106.193 112.836 107.445 113.736C107.843 114.022 108.322 114.225 108.799 114.201C113.524 113.96 110.703 103.13 108.698 101.077C106.394 98.7174 103.971 101.051 103.947 103.552Z" fill="#EAF0FD" stroke="#0E0F0F" stroke-width="0.596878" stroke-miterlimit="10"/>
<path id="Vector_6" d="M142.536 77.7579L135.862 111.703L135.799 112.027C135.535 113.368 134.24 114.24 132.907 113.976L114.393 110.299C113.059 110.035 112.19 108.733 112.454 107.393L112.467 107.33L119.191 73.123L142.536 77.7579Z" fill="#EDEBF4"/>
<path id="Vector_7" d="M133.383 114.324C133.207 114.324 133.028 114.307 132.849 114.271L114.335 110.594C113.611 110.451 112.987 110.033 112.576 109.417C112.165 108.802 112.018 108.062 112.161 107.336L112.175 107.271L118.957 72.7715L142.887 77.523L136.092 112.087C135.832 113.406 134.674 114.324 133.383 114.324ZM119.426 73.4747L112.759 107.387L112.746 107.451C112.634 108.019 112.749 108.599 113.071 109.082C113.393 109.564 113.883 109.892 114.449 110.004L132.963 113.681C134.133 113.912 135.273 113.144 135.504 111.969L135.568 111.644L142.184 77.993L119.426 73.4747Z" fill="#101011"/>
<path id="Vector_8" d="M142.594 77.4585L142.535 77.759L119.191 73.1233L119.25 72.8228C119.495 71.5772 120.698 70.7667 121.938 71.0128L140.793 74.7571C142.033 75.0031 142.839 76.2138 142.594 77.4585Z" fill="#EAF0FD" stroke="#0E0F0F" stroke-width="0.596878" stroke-miterlimit="10"/>
<path id="Vector_9" d="M135.862 111.706L135.799 112.03C135.535 113.371 134.24 114.243 132.907 113.979L114.393 110.302C113.059 110.038 112.19 108.735 112.454 107.395L112.467 107.332L135.862 111.706Z" fill="#EAF0FD" stroke="#0E0F0F" stroke-width="0.596878" stroke-miterlimit="10"/>
<path id="Vector_10" d="M148.554 87.3817C148.565 86.5857 148.574 85.8518 148.589 85.1971C148.613 84.0571 148.616 82.8754 148.157 81.8537C147.7 80.8321 146.649 80.0156 145.542 80.2106C144.645 80.3689 143.952 81.1173 143.384 81.8572C140.748 85.2839 139.164 89.5246 138.92 93.8036C138.867 94.7299 138.87 95.68 138.541 96.5544C136.539 101.869 132.895 103.416 133.401 109.803C133.729 113.951 135.718 118.601 140.572 116.079C148.191 112.119 148.438 96.0325 148.554 87.3817Z" fill="#EAF0FD" stroke="#0E0F0F" stroke-width="0.596878" stroke-miterlimit="10"/>
<path id="Vector_11" d="M106.113 96.9331C106.605 98.6197 107.803 100.354 108.908 101.595C110.605 103.501 114.09 104.366 115.17 102.033C115.573 101.164 115.5 100.128 115.243 99.1424C114.634 96.802 113.364 94.4735 110.879 93.0398C108.961 91.9338 107.085 92.2965 106.243 93.8988C105.772 94.7978 105.799 95.8552 106.113 96.9331Z" fill="#EAF0FD" stroke="#0E0F0F" stroke-width="0.596878" stroke-miterlimit="10"/>
<path id="Vector_12" d="M110.55 91.404C111.426 93.8313 113.797 96.6834 116.736 97.785C120.165 99.0706 121.743 96.9643 120.817 94.4655C119.937 92.0902 118.236 89.0831 115.537 87.56C111.601 85.3397 109.513 88.5272 110.55 91.404Z" fill="#EAF0FD" stroke="#0E0F0F" stroke-width="0.596878" stroke-miterlimit="10"/>
<path id="Vector_13" d="M95.7676 72.3759C95.7676 74.8142 93.7989 76.7928 91.3727 76.7928C89.4888 76.7928 87.8809 75.6001 87.2583 73.9254C87.6505 72.7292 87.8623 71.4522 87.8623 70.1232C87.8623 69.9904 87.8606 69.8584 87.8547 69.7273C88.6569 68.6546 89.9352 67.959 91.3719 67.959C93.7989 67.959 95.7676 69.9376 95.7676 72.3759Z" fill="#EAF0FD" stroke="#0E0F0F" stroke-width="0.596878" stroke-miterlimit="10"/>
<path id="Vector_14" d="M70.4657 74.663C69.6779 75.8481 68.3343 76.6288 66.8104 76.6288C64.3842 76.6288 62.4155 74.6502 62.4155 72.2118C62.4155 69.7735 64.3842 67.7949 66.8104 67.7949C67.8599 67.7949 68.8248 68.167 69.5813 68.7851C69.5449 69.1716 69.5245 69.5615 69.5245 69.9591C69.5237 71.6261 69.8591 73.2165 70.4657 74.663Z" fill="#EAF0FD" stroke="#0E0F0F" stroke-width="0.596878" stroke-miterlimit="10"/>
<path id="Vector_15" d="M136.353 169.717C136.334 170.133 136.302 170.539 136.261 170.936H102.377L96.4209 143.413C95.4509 138.931 94.4818 134.449 93.511 129.967C92.1522 123.686 87.8252 114.897 95.5576 110.461C98.2667 108.906 101.6 108.29 104.884 108.216C105.03 108.212 105.176 108.209 105.322 108.208C106.589 108.197 107.878 108.266 109.168 108.413C109.886 108.493 110.603 108.598 111.317 108.728C111.773 108.809 112.227 108.901 112.678 109.003H112.679C113.589 109.204 114.488 109.446 115.373 109.725C116.737 110.154 118.064 110.674 119.323 111.277L119.324 111.278C123.972 113.509 127.715 116.909 129.168 121.315C131.118 127.23 131.364 133.835 132.224 139.926C134.111 153.268 136.378 169.195 136.353 169.717Z" fill="#EAF0FD" stroke="#0E0F0F" stroke-width="0.596878" stroke-miterlimit="10"/>
<path id="Vector_16" d="M57.7976 135.248C57.0793 138.982 56.1712 143.748 55.2037 148.829C53.7882 156.261 52.2482 164.371 50.9927 170.935H15.4985C16.8471 160.249 19.1962 141.647 19.197 141.635C20.4652 131.594 21.2047 121.667 24.5576 112.026C25.9731 107.96 27.8368 103.834 31.2159 101.184C32.6128 100.088 34.2113 99.2966 35.8946 98.7261C37.0297 98.3413 38.203 98.0578 39.3804 97.8492C42.5427 97.2907 45.8812 97.2592 48.8707 98.4324C52.1846 99.7333 54.8251 102.438 56.5795 105.548C59.1411 110.089 59.9781 115.326 60.0552 120.485C60.1348 125.739 58.7794 130.147 57.7976 135.248Z" fill="#EAF0FD" stroke="#0E0F0F" stroke-width="0.596878" stroke-miterlimit="10"/>
<path id="Vector_17" d="M89.1772 73.4004V95.0151L70.6177 91.974V77.1609C72.7397 78.5963 75.2955 79.4358 78.0452 79.4358C82.7001 79.4358 86.7968 77.0358 89.1772 73.4004Z" fill="#EAF0FD" stroke="#0E0F0F" stroke-width="0.596878" stroke-miterlimit="10"/>
<path id="Vector_18" d="M115.923 101.829L115.499 108.14L115.374 109.997L115.321 110.766L114.84 117.939L113.599 136.411L111.281 170.916L111.2 172.113H35.0063C35.2723 150.159 35.7713 109.024 35.8958 98.8361C35.9145 97.3377 35.9238 96.5084 35.9238 96.5084C35.9187 95.8674 47.8724 93.7994 49.0668 93.5814C61.5126 91.3244 74.3634 90.6501 86.8685 92.8322C93.7624 94.036 100.194 96.2053 106.713 98.5305C107.851 98.9366 108.991 99.3461 110.137 99.7573C110.33 99.8271 110.525 99.8961 110.718 99.9659C111.721 100.326 112.726 100.685 113.729 101.045C114.273 101.239 114.816 101.434 115.36 101.628C115.548 101.694 115.735 101.761 115.923 101.829Z" fill="#2563EB"/>
<path id="Vector_19" d="M91.3801 70.8991C91.3801 72.2111 91.17 73.472 90.7837 74.6528C90.4525 75.6634 89.9917 76.6135 89.4224 77.4836C87.2894 80.741 83.6171 82.8924 79.4468 82.8924C76.9825 82.8924 74.6919 82.1406 72.7901 80.8542C70.8723 79.5567 69.35 77.7127 68.4444 75.5434C67.8464 74.1156 67.5151 72.5457 67.5151 70.8991C67.5151 70.5066 67.5346 70.1218 67.571 69.7395C67.6575 68.8328 67.8455 67.9534 68.1225 67.1182C69.3458 63.4215 71.8566 62.1793 74.6462 60.0535C73.5534 59.0948 72.1607 57.9318 72.2412 56.3142C73.4551 56.6548 74.5784 57.3189 75.4645 58.2205C75.412 57.2584 75.5611 56.2853 75.8991 55.3837C76.0702 54.9265 76.3887 54.4208 76.8749 54.4199C77.4552 54.4191 77.7525 55.1095 77.8737 55.68C78.1185 56.8361 78.2566 58.0153 78.2845 59.197C83.8908 58.7985 89.6893 59.9692 93.4801 64.5394C93.6394 64.7309 93.7995 64.9429 93.8173 65.1915C93.863 65.8198 93.0515 66.1178 92.4246 66.1118C91.497 66.1025 90.6169 65.8496 89.7664 65.5048C90.1925 67.3651 91.309 68.4199 91.3733 70.5092C91.3784 70.6377 91.3801 70.768 91.3801 70.8991Z" fill="#0E0F0F"/>
<path id="Vector_20" d="M52.3929 156.929L59.6188 117.747C60.1643 102.389 50.5555 92.7877 36.3866 96.4895C19.0495 101.02 19.6018 124.087 18.3125 134.961C17.7729 139.509 17.0436 145.564 16.2837 151.871C22.7811 152.799 36.3883 154.7 52.3929 156.929Z" fill="#2563EB"/>
<path id="Vector_21" d="M93.5787 157.688C111.612 160.057 127.95 162.201 136.981 163.385C135.756 154.883 134.033 143.231 133.693 140.512C132.3 129.388 132.898 105.793 114.185 101.159C98.8927 97.3707 88.5198 107.192 89.1094 122.904L93.5787 157.688Z" fill="#2563EB"/>
<g id="Group">
<path id="Vector_22" d="M111.338 154.877C111.335 154.877 111.331 154.877 111.327 154.877C111.139 154.871 110.991 154.712 110.998 154.522L111.976 124.368C111.982 124.179 112.139 124.032 112.329 124.037C112.517 124.043 112.665 124.202 112.658 124.391L111.68 154.545C111.673 154.73 111.521 154.877 111.338 154.877Z" fill="#101011"/>
</g>
<g id="Group_2">
<path id="Vector_23" d="M37.9614 144.392C37.958 144.392 37.9537 144.392 37.9504 144.392C37.7623 144.386 37.6141 144.228 37.6208 144.038L38.5993 113.884C38.6052 113.695 38.7636 113.55 38.9517 113.553C39.1397 113.559 39.288 113.717 39.2812 113.907L38.3028 144.061C38.296 144.246 38.1443 144.392 37.9614 144.392Z" fill="#101011"/>
</g>
<g id="Group_3">
<path id="Vector_24" d="M71.2163 23.3072C71.2163 34.673 79.3097 44.1378 90.0206 46.1981C90.3323 46.2577 90.6458 46.3113 90.9609 46.359C91.0643 46.3743 91.1693 46.3888 91.2743 46.4033C92.2993 46.5437 93.3455 46.6161 94.4087 46.6161C97.8776 46.6161 101.169 45.849 104.124 44.4792C104.37 44.3642 104.615 44.2459 104.856 44.1233C105.032 44.0339 105.206 43.9419 105.378 43.8491C112.654 39.9166 117.6 32.1938 117.6 23.3081C117.6 10.4353 107.217 0 94.4087 0C81.6003 0 71.2163 10.4344 71.2163 23.3072Z" fill="#EDEBF4"/>
<path id="Vector_25" d="M90.9595 32.3355V46.3585C91.0628 46.3738 91.1679 46.3883 91.2729 46.4028C92.2979 46.5432 93.3441 46.6156 94.4072 46.6156C97.8762 46.6156 101.167 45.8485 104.123 44.4787V33.9863L90.9595 32.3355Z" fill="#EAF0FD"/>
<path id="Vector_26" d="M90.9595 34.1512V40.8192C94.1972 40.6557 97.384 39.4851 99.9448 37.4818C98.5327 37.0629 97.1494 36.438 95.7372 36.0191C94.2421 35.5764 92.735 35.1278 91.3669 34.3811C91.2306 34.307 91.0959 34.2287 90.9595 34.1512Z" fill="#0E0F0F"/>
<path id="Vector_27" d="M108.823 32.9679C110.958 32.9679 112.688 31.2286 112.688 29.0831C112.688 26.9375 110.958 25.1983 108.823 25.1983C106.688 25.1983 104.958 26.9375 104.958 29.0831C104.958 31.2286 106.688 32.9679 108.823 32.9679Z" fill="#EAF0FD" stroke="#0E0F0F" stroke-width="0.596878" stroke-miterlimit="10"/>
<path id="Vector_28" d="M87.1987 27.4032C87.1987 33.4914 92.1095 38.4276 98.168 38.4276C104.227 38.4276 109.137 33.4922 109.137 27.4032C109.137 26.5178 109.034 25.657 108.837 24.8312C107.685 19.9835 103.346 16.3788 98.1689 16.3788C92.7075 16.3788 88.1797 20.3896 87.3411 25.6409C87.2462 26.2138 87.1987 26.803 87.1987 27.4032Z" fill="#EAF0FD" stroke="#0E0F0F" stroke-width="0.596878" stroke-miterlimit="10"/>
<path id="Vector_29" d="M112.01 37.8068C113.018 39.2311 113.746 41.7478 113.336 43.992C112.858 46.6108 111.184 46.8449 110.155 45.3635C109.176 43.9554 108.136 41.804 108.238 39.5589C108.385 36.2853 110.815 36.1202 112.01 37.8068Z" fill="#EAF0FD" stroke="#0E0F0F" stroke-width="0.596878" stroke-miterlimit="10"/>
<path id="Vector_30" d="M108.563 40.1917C109.655 41.8357 110.429 44.7508 109.954 47.3619C109.401 50.4082 107.56 50.6985 106.444 48.9889C105.382 47.3636 104.263 44.8759 104.397 42.2673C104.595 38.4634 107.266 38.2454 108.563 40.1917Z" fill="#EAF0FD" stroke="#0E0F0F" stroke-width="0.596878" stroke-miterlimit="10"/>
<path id="Vector_31" d="M104.207 41.891C105.032 43.2855 105.591 45.775 105.188 48.02C104.717 50.6397 103.285 50.9138 102.443 49.464C101.643 48.0856 100.808 45.9674 100.949 43.7291C101.154 40.4632 103.228 40.2402 104.207 41.891Z" fill="#EAF0FD" stroke="#0E0F0F" stroke-width="0.596878" stroke-miterlimit="10"/>
<path id="Vector_32" d="M113.275 34.8794C114.656 35.3119 116.473 36.6281 117.468 38.3556C118.629 40.3716 117.77 41.4052 116.345 40.9454C114.99 40.5087 113.19 39.602 112.012 38.0354C110.295 35.7512 111.639 34.3686 113.275 34.8794Z" fill="#EAF0FD" stroke="#0E0F0F" stroke-width="0.596878" stroke-miterlimit="10"/>
<path id="Vector_33" d="M102.001 31.028C101.836 31.028 101.703 30.8935 101.703 30.7284V27.4216C101.703 27.2556 101.836 27.1219 102.001 27.1219C102.166 27.1219 102.299 27.2564 102.299 27.4216V30.7284C102.3 30.8935 102.166 31.028 102.001 31.028Z" fill="#0E0F0F"/>
<path id="Vector_34" d="M100.576 34.042C99.0957 34.042 97.6115 33.1166 97.0202 31.7459C96.955 31.5935 97.0236 31.4172 97.1753 31.3517C97.326 31.2853 97.5022 31.3551 97.5675 31.5075C98.1367 32.8254 99.6836 33.6555 101.09 33.3967C101.252 33.366 101.407 33.475 101.437 33.6376C101.467 33.8002 101.359 33.9569 101.197 33.9867C100.992 34.0233 100.784 34.042 100.576 34.042Z" fill="#0E0F0F"/>
<path id="Vector_35" d="M92.9966 27.3232C92.9966 28.046 93.6184 28.6684 94.518 28.9595C94.8645 29.0711 95.2516 29.1341 95.6608 29.1341C97.1322 29.1341 98.3249 28.3227 98.3249 27.3232C98.3249 26.4999 97.5176 25.8052 96.4113 25.5864C96.1733 25.5379 95.9208 25.5123 95.6608 25.5123C94.1885 25.5123 92.9966 26.3237 92.9966 27.3232Z" fill="#F9F9F9"/>
<path id="Vector_36" d="M103.026 27.3241C103.026 28.1397 103.819 28.8293 104.908 29.0549C105.156 29.1068 105.417 29.1349 105.69 29.1349C107.161 29.1349 108.354 28.3236 108.354 27.3241C108.354 26.551 107.643 25.8912 106.64 25.6324C106.345 25.5549 106.026 25.5123 105.69 25.5123C104.219 25.5132 103.026 26.3245 103.026 27.3241Z" fill="#F9F9F9"/>
<path id="Vector_37" d="M94.3897 28.4075C94.4049 28.5948 94.4447 28.7872 94.5184 28.9601C94.8649 29.0716 95.252 29.1346 95.6612 29.1346C97.1326 29.1346 98.3254 28.3232 98.3254 27.3237C98.3254 26.5004 97.5181 25.8057 96.4117 25.5869C95.2893 26.0058 94.3024 27.3314 94.3897 28.4075Z" fill="#231F20"/>
<path id="Vector_38" d="M104.732 28.4075C104.75 28.6315 104.802 28.8596 104.907 29.0546C105.154 29.1065 105.416 29.1346 105.689 29.1346C107.16 29.1346 108.353 28.3233 108.353 27.3237C108.353 26.5507 107.641 25.8909 106.638 25.6321C105.565 26.0952 104.647 27.3697 104.732 28.4075Z" fill="#231F20"/>
<path id="Vector_39" d="M98.3326 27.0781C97.8684 26.013 96.901 25.2587 95.865 25.1557C94.8298 25.0527 93.7624 25.6035 93.144 26.5604L98.3326 27.0781Z" fill="#231F20"/>
<path id="Vector_40" d="M108.051 26.4262C107.501 25.5824 106.499 25.0623 105.502 25.1023C104.505 25.1423 103.547 25.7408 103.064 26.6254L108.051 26.4262Z" fill="#231F20"/>
<path id="Vector_41" d="M87.3403 25.64C87.4657 26.1789 87.6368 26.7238 87.6961 27.1852C87.7529 27.0848 87.8071 26.9852 87.8622 26.8864C90.3086 26.2453 92.5603 24.8831 94.2697 23.0127C95.4642 21.7041 96.3697 20.1887 96.7349 18.4518C99.787 21.3278 103.176 24.1841 107.293 24.9368C107.806 25.0296 108.395 25.0662 108.837 24.8312C107.685 19.9835 103.346 16.3788 98.169 16.3788C92.7068 16.3779 88.179 20.3896 87.3403 25.64Z" fill="#0E0F0F"/>
<path id="Vector_42" d="M87.4069 32.9679C89.5417 32.9679 91.2723 31.2286 91.2723 29.0831C91.2723 26.9375 89.5417 25.1983 87.4069 25.1983C85.2721 25.1983 83.5415 26.9375 83.5415 29.0831C83.5415 31.2286 85.2721 32.9679 87.4069 32.9679Z" fill="#EAF0FD" stroke="#0E0F0F" stroke-width="0.596878" stroke-miterlimit="10"/>
<path id="Vector_43" d="M96.107 8.58702C94.672 7.36785 92.3721 7.16267 90.9159 8.3563C91.0845 6.53947 89.3479 5.05212 87.5842 4.62217C85.7739 4.18116 83.7908 4.50894 82.2177 5.51101C80.6446 6.51307 79.501 8.1741 79.1249 10.008C78.997 10.6312 78.9555 11.2859 79.1207 11.9006C79.6476 13.8536 81.9145 14.6582 83.8637 15.163C83.1047 16.4622 83.2775 18.1905 84.1153 19.4395C84.9522 20.6884 86.3669 21.4768 87.84 21.7527C93.719 22.8543 101.857 13.4705 96.107 8.58702Z" fill="#0E0F0F"/>
<path id="Vector_44" d="M92.6317 23.6067C92.5114 23.6067 92.3979 23.5327 92.353 23.4135C92.2946 23.2585 92.3717 23.0857 92.5258 23.0269C94.8147 22.1543 96.6742 22.1611 98.2125 23.0474C98.3557 23.13 98.4048 23.313 98.3227 23.4569C98.2405 23.6008 98.0584 23.6501 97.9152 23.5676C96.542 22.7758 94.8486 22.7826 92.7376 23.588C92.7029 23.5999 92.6673 23.6067 92.6317 23.6067Z" fill="#0E0F0F"/>
<path id="Vector_45" d="M102.765 23.6087C102.644 23.6087 102.531 23.5346 102.486 23.4154C102.427 23.2605 102.504 23.0876 102.659 23.0289C104.948 22.1562 106.807 22.163 108.345 23.0493C108.489 23.1319 108.538 23.315 108.455 23.4588C108.373 23.6027 108.191 23.6521 108.048 23.5695C106.675 22.7777 104.981 22.7846 102.87 23.59C102.836 23.6019 102.8 23.6087 102.765 23.6087Z" fill="#0E0F0F"/>
<path id="Vector_46" d="M71.2163 23.3072C71.2163 34.673 79.3097 44.1378 90.0206 46.1981C90.3323 46.2577 90.6458 46.3113 90.9609 46.359C91.0643 46.3743 91.1693 46.3888 91.2743 46.4033C92.2993 46.5437 93.3455 46.6161 94.4087 46.6161C97.8776 46.6161 101.169 45.849 104.124 44.4792C104.37 44.3642 104.615 44.2459 104.856 44.1233C105.032 44.0339 105.206 43.9419 105.378 43.8491C112.654 39.9166 117.6 32.1938 117.6 23.3081C117.6 10.4353 107.217 0 94.4087 0C81.6003 0 71.2163 10.4344 71.2163 23.3072Z" fill="#EDEBF4"/>
<path id="Vector_47" d="M90.9595 32.5554V46.5783C91.0628 46.5937 91.1679 46.6081 91.2729 46.6226C92.2979 46.7631 93.3441 46.8354 94.4072 46.8354C97.8762 46.8354 101.167 46.0684 104.123 44.6985V34.2053L90.9595 32.5554Z" fill="#EAF0FD" stroke="#0E0F0F" stroke-width="0.596878" stroke-miterlimit="10"/>
<path id="Vector_48" d="M90.9595 34.1512V40.8192C94.1972 40.6557 97.384 39.4851 99.9448 37.4818C98.5327 37.0629 97.1494 36.438 95.7372 36.0191C94.2421 35.5764 92.735 35.1278 91.3669 34.3811C91.2306 34.307 91.0959 34.2287 90.9595 34.1512Z" fill="#0E0F0F"/>
<path id="Vector_49" d="M108.823 32.9679C110.958 32.9679 112.688 31.2286 112.688 29.0831C112.688 26.9375 110.958 25.1983 108.823 25.1983C106.688 25.1983 104.958 26.9375 104.958 29.0831C104.958 31.2286 106.688 32.9679 108.823 32.9679Z" fill="#EAF0FD" stroke="#0E0F0F" stroke-width="0.596878" stroke-miterlimit="10"/>
<path id="Vector_50" d="M87.1987 27.4032C87.1987 33.4914 92.1095 38.4276 98.168 38.4276C104.227 38.4276 109.137 33.4922 109.137 27.4032C109.137 26.5178 109.034 25.657 108.837 24.8312C107.685 19.9835 103.346 16.3788 98.1689 16.3788C92.7075 16.3788 88.1797 20.3896 87.3411 25.6409C87.2462 26.2138 87.1987 26.803 87.1987 27.4032Z" fill="#EAF0FD" stroke="#0E0F0F" stroke-width="0.596878" stroke-miterlimit="10"/>
<path id="Vector_51" d="M112.01 37.8068C113.018 39.2311 113.746 41.7478 113.336 43.992C112.858 46.6108 111.184 46.8449 110.155 45.3635C109.176 43.9554 108.136 41.804 108.238 39.5589C108.385 36.2853 110.815 36.1202 112.01 37.8068Z" fill="#EAF0FD" stroke="#0E0F0F" stroke-width="0.596878" stroke-miterlimit="10"/>
<path id="Vector_52" d="M108.563 40.1917C109.655 41.8357 110.429 44.7508 109.954 47.3619C109.401 50.4082 107.56 50.6985 106.444 48.9889C105.382 47.3636 104.263 44.8759 104.397 42.2673C104.595 38.4634 107.266 38.2454 108.563 40.1917Z" fill="#EAF0FD" stroke="#0E0F0F" stroke-width="0.596878" stroke-miterlimit="10"/>
<path id="Vector_53" d="M104.207 41.891C105.032 43.2855 105.591 45.775 105.188 48.02C104.717 50.6397 103.285 50.9138 102.443 49.464C101.643 48.0856 100.808 45.9674 100.949 43.7291C101.154 40.4632 103.228 40.2402 104.207 41.891Z" fill="#EAF0FD" stroke="#0E0F0F" stroke-width="0.596878" stroke-miterlimit="10"/>
<path id="Vector_54" d="M113.275 34.8794C114.656 35.3119 116.473 36.6281 117.468 38.3556C118.629 40.3716 117.77 41.4052 116.345 40.9454C114.99 40.5087 113.19 39.602 112.012 38.0354C110.295 35.7512 111.639 34.3686 113.275 34.8794Z" fill="#EAF0FD" stroke="#0E0F0F" stroke-width="0.596878" stroke-miterlimit="10"/>
<path id="Vector_55" d="M102.001 31.028C101.836 31.028 101.703 30.8935 101.703 30.7284V27.4216C101.703 27.2556 101.836 27.1219 102.001 27.1219C102.166 27.1219 102.299 27.2564 102.299 27.4216V30.7284C102.3 30.8935 102.166 31.028 102.001 31.028Z" fill="#0E0F0F"/>
<path id="Vector_56" d="M100.576 34.042C99.0957 34.042 97.6115 33.1166 97.0202 31.7459C96.955 31.5935 97.0236 31.4172 97.1753 31.3517C97.326 31.2853 97.5022 31.3551 97.5675 31.5075C98.1367 32.8254 99.6836 33.6555 101.09 33.3967C101.252 33.366 101.407 33.475 101.437 33.6376C101.467 33.8002 101.359 33.9569 101.197 33.9867C100.992 34.0233 100.784 34.042 100.576 34.042Z" fill="#0E0F0F"/>
<path id="Vector_57" d="M108.353 26.911C108.353 26.1882 107.732 25.5658 106.832 25.2746C106.485 25.1631 106.098 25.1001 105.69 25.1001C104.219 25.1001 103.026 25.9115 103.026 26.911C103.026 27.7343 103.833 28.429 104.94 28.6478C105.178 28.6963 105.43 28.7219 105.69 28.7219C107.161 28.7219 108.353 27.9113 108.353 26.911Z" fill="#F9F9F9"/>
<path id="Vector_58" d="M98.3249 26.9111C98.3249 26.0955 97.532 25.4059 96.4426 25.1802C96.1953 25.1283 95.9335 25.1002 95.6608 25.1002C94.1893 25.1002 92.9966 25.9116 92.9966 26.9111C92.9966 27.6841 93.7082 28.344 94.7111 28.6028C95.0059 28.6802 95.3253 28.7228 95.6608 28.7228C97.1322 28.722 98.3249 27.9115 98.3249 26.9111Z" fill="#F9F9F9"/>
<path id="Vector_59" d="M103.017 27.1559C103.481 28.221 104.449 28.9753 105.485 29.0783C106.52 29.1814 107.587 28.6305 108.206 27.6736C106.616 26.5991 104.865 26.5642 103.017 27.1559Z" fill="#231F20"/>
<path id="Vector_60" d="M93.2993 27.8089C93.8491 28.6526 94.8512 29.1728 95.8483 29.1328C96.8453 29.0928 97.8034 28.4943 98.2863 27.6097C96.3989 26.7898 94.7259 26.8128 93.2993 27.8089Z" fill="#231F20"/>
<path id="Vector_61" d="M113.615 23.0318C113.824 22.6095 113.929 22.1004 113.743 21.6679C113.556 21.2354 113.004 20.951 112.591 21.1758C112.969 20.8123 113.358 20.4334 113.559 19.9473C113.76 19.4611 113.722 18.8354 113.33 18.4872C112.808 18.0232 112.156 18.2905 111.57 18.4131C110.771 18.5808 110.006 18.637 109.2 18.4497C109.668 17.9159 110.148 17.3591 110.355 16.678C110.562 15.9969 110.419 15.1549 109.835 14.7539C109.361 14.4287 108.726 14.4661 108.171 14.6126C107.25 14.8561 106.419 15.3541 105.527 15.6878C103.216 16.5511 101.201 15.7236 98.8758 15.7389C98.354 15.7423 97.8576 15.6674 97.3468 15.8104C96.6877 15.9943 96.1574 16.4737 95.517 16.7027C94.1252 17.2007 92.8494 17.6417 91.6431 18.5408C90.5021 19.3913 89.527 20.4649 88.7892 21.6858C88.2614 22.5584 87.0924 24.5711 87.3415 25.6404C87.5778 26.6552 87.3601 27.6803 87.5168 28.7207C87.6261 29.4469 87.9048 30.1765 88.4495 30.6652C88.9942 31.1539 89.843 31.3429 90.4775 30.9794C91.1721 30.5809 91.4102 29.6972 91.5042 28.8986C91.622 27.8914 91.6135 26.8698 91.4779 25.8643C91.4627 25.7519 91.4458 25.6353 91.4729 25.5246C91.555 25.19 92.2437 24.8307 92.5191 24.6094C93.1383 24.1113 93.7321 23.5997 94.2692 23.0114C95.4636 21.7028 96.3692 20.1874 96.7343 18.4506C98.6463 20.2512 100.739 22.3558 103.222 23.277C105.881 24.2637 111.811 26.6672 113.615 23.0318Z" fill="#0E0F0F"/>
<path id="Vector_62" d="M87.4069 32.9679C89.5417 32.9679 91.2723 31.2286 91.2723 29.0831C91.2723 26.9375 89.5417 25.1983 87.4069 25.1983C85.2721 25.1983 83.5415 26.9375 83.5415 29.0831C83.5415 31.2286 85.2721 32.9679 87.4069 32.9679Z" fill="#EAF0FD" stroke="#0E0F0F" stroke-width="0.596878" stroke-miterlimit="10"/>
<path id="Vector_63" d="M92.6317 23.6067C92.5114 23.6067 92.3979 23.5327 92.353 23.4135C92.2946 23.2585 92.3717 23.0857 92.5258 23.0269C94.8147 22.1543 96.6742 22.1611 98.2125 23.0474C98.3557 23.13 98.4048 23.313 98.3227 23.4569C98.2405 23.6008 98.0584 23.6501 97.9152 23.5676C96.542 22.7758 94.8486 22.7826 92.7376 23.588C92.7029 23.5999 92.6673 23.6067 92.6317 23.6067Z" fill="#0E0F0F"/>
<path id="Vector_64" d="M102.765 23.6087C102.644 23.6087 102.531 23.5346 102.486 23.4154C102.427 23.2605 102.504 23.0876 102.659 23.0289C104.948 22.1562 106.807 22.163 108.345 23.0493C108.489 23.1319 108.538 23.315 108.455 23.4588C108.373 23.6027 108.191 23.6521 108.048 23.5695C106.675 22.7777 104.981 22.7846 102.87 23.59C102.836 23.6019 102.8 23.6087 102.765 23.6087Z" fill="#0E0F0F"/>
</g>
<g id="Group_4">
<path id="Vector_65" d="M191.712 45.9674C191.712 57.3332 183.618 66.7979 172.907 68.8582C172.595 68.9178 172.282 68.9715 171.967 69.0191C171.864 69.0345 171.759 69.0489 171.653 69.0634C170.628 69.2039 169.582 69.2763 168.519 69.2763C165.05 69.2763 161.759 68.5092 158.804 67.1393C158.558 67.0244 158.313 66.906 158.072 66.7834C157.896 66.694 157.722 66.6021 157.55 66.5093C150.274 62.5768 145.328 54.854 145.328 45.9682C145.328 33.0954 155.711 22.6602 168.519 22.6602C181.328 22.6602 191.712 33.0937 191.712 45.9674Z" fill="#EDEBF4"/>
<path id="Vector_66" d="M171.968 54.9957V69.0186C171.864 69.034 171.759 69.0484 171.654 69.0629C170.629 69.2034 169.583 69.2758 168.52 69.2758C165.051 69.2758 161.76 68.5087 158.804 67.1388V56.6465L171.968 54.9957Z" fill="#EAF0FD"/>
<path id="Vector_67" d="M171.967 56.8112V63.4792C168.73 63.3157 165.543 62.1451 162.982 60.1418C164.394 59.7229 165.777 59.098 167.19 58.6792C168.685 58.2364 170.192 57.7878 171.56 57.0411C171.696 56.967 171.831 56.8887 171.967 56.8112Z" fill="#0E0F0F"/>
<path id="Vector_68" d="M154.103 55.6261C156.238 55.6261 157.969 53.8868 157.969 51.7413C157.969 49.5957 156.238 47.8564 154.103 47.8564C151.968 47.8564 150.238 49.5957 150.238 51.7413C150.238 53.8868 151.968 55.6261 154.103 55.6261Z" fill="#EAF0FD" stroke="#0E0F0F" stroke-width="0.596878" stroke-miterlimit="10"/>
<path id="Vector_69" d="M175.727 50.0614C175.727 56.1496 170.816 61.0858 164.758 61.0858C158.699 61.0858 153.789 56.1504 153.789 50.0614C153.789 49.176 153.892 48.3152 154.089 47.4894C155.241 42.6417 159.58 39.037 164.757 39.037C170.218 39.037 174.746 43.0478 175.585 48.299C175.681 48.872 175.727 49.4612 175.727 50.0614Z" fill="#EAF0FD" stroke="#0E0F0F" stroke-width="0.596878" stroke-miterlimit="10"/>
<path id="Vector_70" d="M150.916 60.4667C149.908 61.891 149.181 64.4077 149.591 66.6519C150.068 69.2707 151.742 69.5048 152.771 68.0235C153.751 66.6153 154.79 64.4639 154.689 62.2188C154.542 58.9461 152.112 58.7801 150.916 60.4667Z" fill="#EAF0FD" stroke="#0E0F0F" stroke-width="0.596878" stroke-miterlimit="10"/>
<path id="Vector_71" d="M154.364 62.8499C153.271 64.4939 152.498 67.409 152.972 70.0201C153.525 73.0663 155.366 73.3567 156.482 71.6471C157.544 70.0218 158.664 67.5341 158.529 64.9255C158.333 61.1216 155.66 60.9036 154.364 62.8499Z" fill="#EAF0FD" stroke="#0E0F0F" stroke-width="0.596878" stroke-miterlimit="10"/>
<path id="Vector_72" d="M158.719 64.5511C157.894 65.9457 157.335 68.4351 157.738 70.6802C158.209 73.2998 159.641 73.574 160.483 72.1241C161.283 70.7457 162.118 68.6275 161.977 66.3892C161.773 63.1242 159.697 62.9003 158.719 64.5511Z" fill="#EAF0FD" stroke="#0E0F0F" stroke-width="0.596878" stroke-miterlimit="10"/>
<path id="Vector_73" d="M149.652 57.5398C148.271 57.9723 146.453 59.2885 145.458 61.016C144.297 63.032 145.157 64.0656 146.582 63.6059C147.936 63.1691 149.736 62.2624 150.915 60.6959C152.633 58.4116 151.288 57.0281 149.652 57.5398Z" fill="#EAF0FD" stroke="#0E0F0F" stroke-width="0.596878" stroke-miterlimit="10"/>
<path id="Vector_74" d="M160.925 53.6882C160.759 53.6882 160.626 53.5537 160.626 53.3885V50.0818C160.626 49.9158 160.76 49.7821 160.925 49.7821C161.089 49.7821 161.223 49.9166 161.223 50.0818V53.3885C161.223 53.5545 161.09 53.6882 160.925 53.6882Z" fill="#0E0F0F"/>
<path id="Vector_75" d="M162.35 56.7007C162.142 56.7007 161.935 56.6828 161.73 56.6445C161.568 56.6147 161.46 56.4581 161.49 56.2955C161.519 56.1329 161.676 56.0247 161.837 56.0545C163.243 56.3133 164.79 55.4833 165.359 54.1653C165.425 54.0138 165.6 53.9431 165.752 54.0095C165.902 54.0751 165.972 54.2522 165.907 54.4037C165.315 55.7753 163.83 56.7007 162.35 56.7007Z" fill="#0E0F0F"/>
<path id="Vector_76" d="M169.93 49.9814C169.93 50.7042 169.308 51.3266 168.408 51.6177C168.062 51.7293 167.675 51.7923 167.266 51.7923C165.795 51.7923 164.602 50.9809 164.602 49.9814C164.602 49.1581 165.409 48.4634 166.516 48.2446C166.754 48.1961 167.006 48.1705 167.266 48.1705C168.737 48.1705 169.93 48.9819 169.93 49.9814Z" fill="#F9F9F9"/>
<path id="Vector_77" d="M159.901 49.9824C159.901 50.7981 159.108 51.4877 158.019 51.7133C157.771 51.7652 157.51 51.7933 157.237 51.7933C155.765 51.7933 154.573 50.9819 154.573 49.9824C154.573 49.2094 155.284 48.5496 156.287 48.2908C156.582 48.2133 156.901 48.1707 157.237 48.1707C158.708 48.1716 159.901 48.9829 159.901 49.9824Z" fill="#F9F9F9"/>
<path id="Vector_78" d="M168.537 51.0657C168.522 51.253 168.482 51.4454 168.408 51.6183C168.062 51.7298 167.675 51.7928 167.266 51.7928C165.795 51.7928 164.602 50.9814 164.602 49.9819C164.602 49.1586 165.409 48.4639 166.516 48.2451C167.638 48.664 168.625 49.9904 168.537 51.0657Z" fill="#231F20"/>
<path id="Vector_79" d="M158.195 51.0657C158.177 51.2896 158.125 51.5178 158.02 51.7128C157.772 51.7647 157.511 51.7928 157.238 51.7928C155.766 51.7928 154.574 50.9814 154.574 49.9819C154.574 49.2089 155.285 48.5491 156.288 48.2903C157.362 48.7543 158.28 50.0279 158.195 51.0657Z" fill="#231F20"/>
<path id="Vector_80" d="M164.594 49.7382C165.058 48.6731 166.026 47.9188 167.062 47.8157C168.097 47.7127 169.164 48.2636 169.783 49.2205L164.594 49.7382Z" fill="#231F20"/>
<path id="Vector_81" d="M154.875 49.0863C155.425 48.2426 156.427 47.7224 157.424 47.7624C158.422 47.8024 159.38 48.401 159.862 49.2855L154.875 49.0863Z" fill="#231F20"/>
<path id="Vector_82" d="M175.587 48.3002C175.461 48.8391 175.29 49.384 175.231 49.8454C175.174 49.7449 175.12 49.6453 175.065 49.5466C172.618 48.9055 170.367 47.5433 168.657 45.6728C167.463 44.3643 166.557 42.8488 166.192 41.112C163.14 43.988 159.751 46.8443 155.634 47.5969C155.121 47.6897 154.533 47.7263 154.09 47.4914C155.242 42.6436 159.581 39.0389 164.758 39.0389C170.219 39.0381 174.748 43.0497 175.587 48.3002Z" fill="#0E0F0F"/>
<path id="Vector_83" d="M175.518 55.6261C177.653 55.6261 179.384 53.8868 179.384 51.7413C179.384 49.5957 177.653 47.8564 175.518 47.8564C173.383 47.8564 171.653 49.5957 171.653 51.7413C171.653 53.8868 173.383 55.6261 175.518 55.6261Z" fill="#EAF0FD" stroke="#0E0F0F" stroke-width="0.596878" stroke-miterlimit="10"/>
<path id="Vector_84" d="M166.819 31.2454C168.254 30.0263 170.554 29.8211 172.01 31.0147C171.842 29.1979 173.578 27.7105 175.342 27.2806C177.152 26.8396 179.136 27.1673 180.709 28.1694C182.282 29.1715 183.425 30.8325 183.801 32.6664C183.929 33.2896 183.971 33.9443 183.806 34.559C183.279 36.512 181.012 37.3166 179.063 37.8214C179.822 39.1206 179.649 40.8489 178.811 42.0979C177.973 43.3468 176.559 44.1352 175.086 44.4111C169.208 45.5136 161.069 36.1289 166.819 31.2454Z" fill="#0E0F0F"/>
<path id="Vector_85" d="M170.294 46.2677C170.259 46.2677 170.222 46.2618 170.188 46.2482C168.077 45.4428 166.383 45.4368 165.01 46.2277C164.867 46.3103 164.685 46.2601 164.603 46.117C164.52 45.9732 164.57 45.7901 164.713 45.7075C166.251 44.8213 168.111 44.8144 170.399 45.6871C170.554 45.7458 170.631 45.9187 170.572 46.0736C170.527 46.1937 170.414 46.2677 170.294 46.2677Z" fill="#0E0F0F"/>
<path id="Vector_86" d="M160.162 46.2677C160.127 46.2677 160.091 46.2618 160.056 46.2482C157.945 45.4428 156.251 45.4368 154.878 46.2277C154.735 46.3103 154.553 46.2601 154.471 46.117C154.389 45.9732 154.439 45.7901 154.581 45.7075C156.118 44.8213 157.979 44.8144 160.268 45.6871C160.422 45.7458 160.499 45.9187 160.44 46.0736C160.396 46.1937 160.282 46.2677 160.162 46.2677Z" fill="#0E0F0F"/>
<path id="Vector_87" d="M191.712 45.9674C191.712 57.3332 183.618 66.7979 172.907 68.8582C172.595 68.9178 172.282 68.9715 171.967 69.0191C171.864 69.0345 171.759 69.0489 171.653 69.0634C170.628 69.2039 169.582 69.2763 168.519 69.2763C165.05 69.2763 161.759 68.5092 158.804 67.1393C158.558 67.0244 158.313 66.906 158.072 66.7834C157.896 66.694 157.722 66.6021 157.55 66.5093C150.274 62.5768 145.328 54.854 145.328 45.9682C145.328 33.0954 155.711 22.6602 168.519 22.6602C181.328 22.6602 191.712 33.0937 191.712 45.9674Z" fill="#EDEBF4"/>
<path id="Vector_88" d="M171.968 55.2135V69.2365C171.864 69.2518 171.759 69.2663 171.654 69.2808C170.629 69.4213 169.583 69.4936 168.52 69.4936C165.051 69.4936 161.76 68.7265 158.804 67.3567V56.8644L171.968 55.2135Z" fill="#EAF0FD" stroke="#0E0F0F" stroke-width="0.596878" stroke-miterlimit="10"/>
<path id="Vector_89" d="M171.967 56.8112V63.4792C168.73 63.3157 165.543 62.1451 162.982 60.1418C164.394 59.7229 165.777 59.098 167.19 58.6792C168.685 58.2364 170.192 57.7878 171.56 57.0411C171.696 56.967 171.831 56.8887 171.967 56.8112Z" fill="#0E0F0F"/>
<path id="Vector_90" d="M154.103 55.6261C156.238 55.6261 157.969 53.8868 157.969 51.7413C157.969 49.5957 156.238 47.8564 154.103 47.8564C151.968 47.8564 150.238 49.5957 150.238 51.7413C150.238 53.8868 151.968 55.6261 154.103 55.6261Z" fill="#EAF0FD" stroke="#0E0F0F" stroke-width="0.596878" stroke-miterlimit="10"/>
<path id="Vector_91" d="M175.727 50.0614C175.727 56.1496 170.816 61.0858 164.758 61.0858C158.699 61.0858 153.789 56.1504 153.789 50.0614C153.789 49.176 153.892 48.3152 154.089 47.4894C155.241 42.6417 159.58 39.037 164.757 39.037C170.218 39.037 174.746 43.0478 175.585 48.299C175.681 48.872 175.727 49.4612 175.727 50.0614Z" fill="#EAF0FD" stroke="#0E0F0F" stroke-width="0.596878" stroke-miterlimit="10"/>
<path id="Vector_92" d="M150.916 60.4667C149.908 61.891 149.181 64.4077 149.591 66.6519C150.068 69.2707 151.742 69.5048 152.771 68.0235C153.751 66.6153 154.79 64.4639 154.689 62.2188C154.542 58.9461 152.112 58.7801 150.916 60.4667Z" fill="#EAF0FD" stroke="#0E0F0F" stroke-width="0.596878" stroke-miterlimit="10"/>
<path id="Vector_93" d="M154.364 62.8499C153.271 64.4939 152.498 67.409 152.972 70.0201C153.525 73.0663 155.366 73.3567 156.482 71.6471C157.544 70.0218 158.664 67.5341 158.529 64.9255C158.333 61.1216 155.66 60.9036 154.364 62.8499Z" fill="#EAF0FD" stroke="#0E0F0F" stroke-width="0.596878" stroke-miterlimit="10"/>
<path id="Vector_94" d="M158.719 64.5511C157.894 65.9457 157.335 68.4351 157.738 70.6802C158.209 73.2998 159.641 73.574 160.483 72.1241C161.283 70.7457 162.118 68.6275 161.977 66.3892C161.773 63.1242 159.697 62.9003 158.719 64.5511Z" fill="#EAF0FD" stroke="#0E0F0F" stroke-width="0.596878" stroke-miterlimit="10"/>
<path id="Vector_95" d="M149.652 57.5398C148.271 57.9723 146.453 59.2885 145.458 61.016C144.297 63.032 145.157 64.0656 146.582 63.6059C147.936 63.1691 149.736 62.2624 150.915 60.6959C152.633 58.4116 151.288 57.0281 149.652 57.5398Z" fill="#EAF0FD" stroke="#0E0F0F" stroke-width="0.596878" stroke-miterlimit="10"/>
<path id="Vector_96" d="M160.925 53.6882C160.759 53.6882 160.626 53.5537 160.626 53.3885V50.0818C160.626 49.9158 160.76 49.7821 160.925 49.7821C161.089 49.7821 161.223 49.9166 161.223 50.0818V53.3885C161.223 53.5545 161.09 53.6882 160.925 53.6882Z" fill="#0E0F0F"/>
<path id="Vector_97" d="M166.102 54.4539C165.445 57.1468 163.445 57.4975 161.667 55.9949C161.868 55.7556 161.803 55.2661 162.023 55.0439C162.243 54.8217 162.545 54.6497 162.854 54.6889C163.131 54.7238 163.452 54.9094 163.656 54.717C163.722 54.6531 163.755 54.562 163.797 54.4794C163.99 54.1031 164.425 53.9005 164.846 53.8741C165.265 53.846 165.698 54.3321 166.102 54.4539Z" fill="#0E0F0F"/>
<path id="Vector_98" d="M169.93 49.9814C169.93 50.7042 169.308 51.3266 168.408 51.6177C168.062 51.7293 167.675 51.7923 167.266 51.7923C165.795 51.7923 164.602 50.9809 164.602 49.9814C164.602 49.1581 165.409 48.4634 166.516 48.2446C166.754 48.1961 167.006 48.1705 167.266 48.1705C168.737 48.1705 169.93 48.9819 169.93 49.9814Z" fill="#F9F9F9"/>
<path id="Vector_99" d="M159.901 49.9824C159.901 50.7981 159.108 51.4877 158.019 51.7133C157.771 51.7652 157.51 51.7933 157.237 51.7933C155.765 51.7933 154.573 50.9819 154.573 49.9824C154.573 49.2094 155.284 48.5496 156.287 48.2908C156.582 48.2133 156.901 48.1707 157.237 48.1707C158.708 48.1716 159.901 48.9829 159.901 49.9824Z" fill="#F9F9F9"/>
<path id="Vector_100" d="M168.537 51.0657C168.522 51.253 168.482 51.4454 168.408 51.6183C168.062 51.7298 167.675 51.7928 167.266 51.7928C165.795 51.7928 164.602 50.9814 164.602 49.9819C164.602 49.1586 165.409 48.4639 166.516 48.2451C167.638 48.664 168.625 49.9904 168.537 51.0657Z" fill="#0E0F0F"/>
<path id="Vector_101" d="M158.195 51.0657C158.177 51.2896 158.125 51.5178 158.02 51.7128C157.772 51.7647 157.511 51.7928 157.238 51.7928C155.766 51.7928 154.574 50.9814 154.574 49.9819C154.574 49.2089 155.285 48.5491 156.288 48.2903C157.362 48.7543 158.28 50.0279 158.195 51.0657Z" fill="#0E0F0F"/>
<path id="Vector_102" d="M175.518 55.6261C177.653 55.6261 179.384 53.8868 179.384 51.7413C179.384 49.5957 177.653 47.8564 175.518 47.8564C173.383 47.8564 171.653 49.5957 171.653 51.7413C171.653 53.8868 173.383 55.6261 175.518 55.6261Z" fill="#EAF0FD" stroke="#0E0F0F" stroke-width="0.596878" stroke-miterlimit="10"/>
<path id="Vector_103" d="M170.294 46.2677C170.259 46.2677 170.222 46.2618 170.188 46.2482C168.077 45.4428 166.383 45.4368 165.01 46.2277C164.867 46.3103 164.685 46.2601 164.603 46.117C164.52 45.9732 164.57 45.7901 164.713 45.7075C166.251 44.8213 168.111 44.8144 170.399 45.6871C170.554 45.7458 170.631 45.9187 170.572 46.0736C170.527 46.1937 170.414 46.2677 170.294 46.2677Z" fill="#0E0F0F"/>
<path id="Vector_104" d="M170.069 49.9657C169.975 49.9657 169.884 49.9214 169.825 49.8388C169.232 48.9951 167.53 48.1761 166.226 48.3855C165.525 48.4979 165.068 48.8853 164.868 49.5375C164.82 49.6958 164.653 49.7843 164.495 49.7358C164.338 49.6873 164.25 49.5196 164.298 49.3612C164.566 48.4852 165.201 47.9428 166.132 47.7938C167.562 47.5648 169.515 48.3591 170.312 49.494C170.407 49.6294 170.376 49.8167 170.241 49.9121C170.189 49.9478 170.129 49.9657 170.069 49.9657Z" fill="#0E0F0F"/>
<path id="Vector_105" d="M160.216 49.9657C160.122 49.9657 160.03 49.9214 159.972 49.8388C159.379 48.9951 157.677 48.1761 156.372 48.3855C155.671 48.4979 155.214 48.8853 155.014 49.5375C154.966 49.6958 154.799 49.7843 154.642 49.7358C154.484 49.6873 154.396 49.5196 154.444 49.3612C154.713 48.4852 155.347 47.9428 156.278 47.7938C157.708 47.5648 159.662 48.3591 160.459 49.494C160.554 49.6294 160.522 49.8167 160.388 49.9121C160.335 49.9478 160.275 49.9657 160.216 49.9657Z" fill="#0E0F0F"/>
<path id="Vector_106" d="M160.162 46.2677C160.127 46.2677 160.091 46.2618 160.056 46.2482C157.945 45.4428 156.251 45.4368 154.878 46.2277C154.735 46.3103 154.553 46.2601 154.471 46.117C154.389 45.9732 154.439 45.7901 154.581 45.7075C156.118 44.8213 157.979 44.8144 160.268 45.6871C160.422 45.7458 160.499 45.9187 160.44 46.0736C160.396 46.1937 160.282 46.2677 160.162 46.2677Z" fill="#0E0F0F"/>
<path id="Vector_107" d="M171.679 41.5085C169.733 39.9156 167.268 39.037 164.758 39.037C162.298 39.037 159.877 39.8807 157.948 41.4182C155.807 43.1244 155.109 45.2137 153.965 47.5652C154.925 47.5652 155.886 47.5652 156.846 47.5652C157.099 46.615 158.096 43.1959 158.096 43.1959L158.915 47.5652C161.804 47.5652 164.692 47.5652 167.581 47.5652L168.202 43.9238L169.567 47.5652C169.573 47.5652 169.578 47.5652 169.584 47.5652C171.5 47.5652 173.428 47.6486 175.334 47.629C175.424 45.3737 173.301 42.8358 171.679 41.5085Z" fill="#0E0F0F"/>
<path id="Vector_108" d="M184.348 32.6001L180.414 33.8737L183.507 30.9382C182.93 29.8076 182.346 28.6744 181.755 27.5301C181.074 27.4382 180.486 28.0137 180.088 28.5952C179.69 29.1767 179.322 29.8493 178.689 30.1209C178.124 30.3635 177.483 30.2256 176.873 30.2733C175.603 30.3737 174.447 31.3886 174.138 32.6758C173.953 33.4489 173.994 34.3896 173.386 34.8732C172.733 35.3917 171.888 35.1201 171.278 35.6965C170.717 36.2278 170.345 37.2656 170.185 38.0148C170.146 38.197 170.12 38.3902 170.107 38.5895C170.023 39.7737 170.366 41.1921 171.044 42.0707C171.577 42.7604 172.311 43.2465 173.04 43.7003C174.274 44.4665 175.789 45.191 177.087 44.5525C177.723 44.2392 178.215 43.627 178.896 43.4397C179.839 43.1801 180.774 43.8118 181.729 44.0187C182.768 44.2434 183.9 43.9318 184.696 43.2022C185.235 42.7076 185.611 42.052 186.078 41.4833C186.546 40.9146 187.177 40.1926 187.895 40.1705C186.785 37.5687 185.591 35.0784 184.348 32.6001Z" fill="#0E0F0F"/>
<g id="Group_5">
<path id="Vector_109" d="M168.856 79.7958C167.063 79.7958 165.21 79.0738 163.537 77.6648C161.11 75.6215 159.082 74.983 157.51 75.768C157.022 76.0114 156.611 76.3852 156.174 76.7811C155.77 77.148 155.353 77.5269 154.857 77.8078C153.434 78.6175 151.511 78.4157 150.285 77.3294C150.144 77.2042 150.13 76.9871 150.255 76.8458C150.379 76.7036 150.595 76.69 150.737 76.8151C151.751 77.715 153.343 77.8819 154.522 77.2119C154.951 76.9675 155.324 76.6295 155.718 76.2728C156.169 75.8633 156.636 75.4402 157.208 75.155C159.044 74.238 161.321 74.9055 163.975 77.1404C166.48 79.2492 169.399 79.6919 171.785 78.3263C174.319 76.8747 175.537 73.7936 174.964 70.2834C174.871 69.7104 174.7 69.1204 174.536 68.5492C174.179 67.3138 173.81 66.0368 174.139 64.7461C174.186 64.563 174.372 64.4523 174.554 64.4992C174.736 64.546 174.846 64.7333 174.8 64.9163C174.517 66.0257 174.844 67.1589 175.19 68.3584C175.361 68.9484 175.537 69.5589 175.638 70.1727C176.258 73.9724 174.911 77.3251 172.122 78.9223C171.098 79.5063 169.989 79.7958 168.856 79.7958Z" fill="#272727"/>
</g>
</g>
<g id="Group_6">
<path id="Vector_110" d="M52.1949 54.139C52.1949 62.9396 47.3418 70.5994 40.1811 74.5651C40.1125 74.6043 40.0413 74.6426 39.9727 74.6801C39.8007 74.7729 39.6262 74.864 39.4509 74.9542C39.2095 75.0768 38.9655 75.1952 38.719 75.3101C35.7634 76.68 32.4732 77.447 29.0034 77.447C27.9411 77.447 26.8941 77.3747 25.8691 77.2342C25.764 77.2197 25.659 77.2061 25.5556 77.1899C25.2405 77.1431 24.9271 77.0895 24.6153 77.029C24.44 76.9958 24.2655 76.96 24.0918 76.9217C13.6418 74.6588 5.81104 65.3184 5.81104 54.1381C5.81104 41.2654 16.1941 30.8301 29.0025 30.8301C41.8118 30.8309 52.1949 41.2654 52.1949 54.139Z" fill="#EDEBF4"/>
<path id="Vector_111" d="M40.3896 63.2835V74.2509C40.321 74.29 40.2498 74.3283 40.1812 74.3658C40.0092 74.4586 39.8347 74.5497 39.6594 74.6399C39.4179 74.7625 39.174 74.8809 38.9275 74.9958C35.9719 76.3657 32.6817 77.1328 29.2119 77.1328C28.1496 77.1328 27.1026 77.0604 26.0775 76.9199C25.9725 76.9054 25.8675 76.8918 25.7641 76.8756C25.449 76.8288 25.1356 76.7752 24.8238 76.7147C24.6485 76.6815 24.474 76.6458 24.3003 76.6075V61.2674L40.3896 63.2835Z" fill="#EAF0FD" stroke="#070707" stroke-width="0.584934" stroke-miterlimit="10"/>
<path id="Vector_112" d="M24.3022 63.4853V71.6347C28.2591 71.4346 32.155 70.0043 35.2843 67.5558C33.5587 67.0441 31.8678 66.2795 30.1423 65.7679C28.315 65.2272 26.4726 64.6781 24.8004 63.7663C24.6335 63.676 24.4683 63.5798 24.3022 63.4853Z" fill="#0E0F0F"/>
<path id="Vector_113" d="M43.6276 63.4819C45.7624 63.4819 47.493 61.7426 47.493 59.5971C47.493 57.4516 45.7624 55.7123 43.6276 55.7123C41.4928 55.7123 39.7622 57.4516 39.7622 59.5971C39.7622 61.7426 41.4928 63.4819 43.6276 63.4819Z" fill="#EAF0FD" stroke="#070707" stroke-width="0.584934" stroke-miterlimit="10"/>
<path id="Vector_114" d="M22.0024 57.9172C22.0024 64.0054 26.9132 68.9417 32.9718 68.9417C39.0303 68.9417 43.9411 64.0063 43.9411 57.9172C43.9411 57.0318 43.8377 56.1711 43.6403 55.3452C42.4883 50.4975 38.1493 46.8928 32.9726 46.8928C27.5112 46.8928 22.9834 50.9036 22.1448 56.1549C22.0499 56.7287 22.0024 57.317 22.0024 57.9172Z" fill="#EAF0FD" stroke="#070707" stroke-width="0.584934" stroke-miterlimit="10"/>
<path id="Vector_115" d="M46.8138 68.3231C47.8218 69.7475 48.5495 72.2641 48.1395 74.5084C47.6617 77.1272 45.9878 77.3613 44.9586 75.8799C43.9793 74.4717 42.9399 72.3203 43.0416 70.0753C43.189 66.8017 45.6185 66.6357 46.8138 68.3231Z" fill="#EAF0FD" stroke="#070707" stroke-width="0.584934" stroke-miterlimit="10"/>
<path id="Vector_116" d="M43.3682 70.7083C44.461 72.3523 45.2344 75.2674 44.76 77.8786C44.2069 80.9248 42.3661 81.2151 41.2496 79.5055C40.1882 77.8803 39.0683 75.3925 39.203 72.7839C39.4003 68.9792 42.0721 68.7612 43.3682 70.7083Z" fill="#EAF0FD" stroke="#070707" stroke-width="0.584934" stroke-miterlimit="10"/>
<path id="Vector_117" d="M39.0104 72.407C39.8355 73.8015 40.3946 76.2909 39.9914 78.536C39.5204 81.1557 38.0888 81.4298 37.2467 79.9799C36.4462 78.6016 35.6118 76.4834 35.7524 74.2451C35.9574 70.9801 38.032 70.7562 39.0104 72.407Z" fill="#EAF0FD" stroke="#070707" stroke-width="0.584934" stroke-miterlimit="10"/>
<path id="Vector_118" d="M48.0785 65.3958C49.4593 65.8283 51.2772 67.1445 52.2717 68.8719C53.4331 70.888 52.5733 71.9216 51.1484 71.4618C49.7939 71.0251 47.9938 70.1183 46.8154 68.5518C45.0983 66.2676 46.4427 64.8841 48.0785 65.3958Z" fill="#EAF0FD" stroke="#070707" stroke-width="0.584934" stroke-miterlimit="10"/>
<path id="Vector_119" d="M35.6825 60.1072C35.5173 60.1072 35.3843 59.9727 35.3843 59.8075V56.5008C35.3843 56.3347 35.5181 56.2011 35.6825 56.2011C35.8468 56.2011 35.9806 56.3356 35.9806 56.5008V59.8075C35.9806 59.9727 35.8468 60.1072 35.6825 60.1072Z" fill="#0E0F0F"/>
<path id="Vector_120" d="M37.4126 57.6559C37.4126 58.2944 38.2055 58.8342 39.2949 59.0104C39.5422 59.0513 39.804 59.0734 40.0768 59.0734C41.5482 59.0734 42.741 58.4383 42.741 57.6559C42.741 57.0506 42.0294 56.5346 41.0264 56.332C40.7316 56.2716 40.4122 56.2384 40.0768 56.2384C38.6053 56.2384 37.4126 56.8735 37.4126 57.6559Z" fill="#F9F9F9"/>
<path id="Vector_121" d="M39.1192 58.5045C39.1378 58.6798 39.1895 58.8578 39.2946 59.011C39.5419 59.0519 39.8037 59.074 40.0764 59.074C41.5479 59.074 42.7406 58.4389 42.7406 57.6565C42.7406 57.0512 42.029 56.5352 41.0261 56.3326C39.9528 56.6953 39.0345 57.6922 39.1192 58.5045Z" fill="#231F20"/>
<path id="Vector_122" d="M28.4282 57.656C28.4282 58.2945 29.2211 58.8343 30.3105 59.0105C30.5579 59.0514 30.8196 59.0735 31.0924 59.0735C32.5638 59.0735 33.7566 58.4384 33.7566 57.656C33.7566 57.0506 33.045 56.5347 32.042 56.3321C31.7472 56.2716 31.4279 56.2384 31.0924 56.2384C29.6201 56.2384 28.4282 56.8736 28.4282 57.656Z" fill="#F9F9F9"/>
<path id="Vector_123" d="M30.1348 58.5045C30.1535 58.6798 30.2051 58.8578 30.3102 59.011C30.5575 59.0519 30.8193 59.074 31.0921 59.074C32.5635 59.074 33.7563 58.4389 33.7563 57.6565C33.7563 57.0512 33.0447 56.5352 32.0417 56.3326C30.9684 56.6953 30.0501 57.6922 30.1348 58.5045Z" fill="#231F20"/>
<path id="Vector_124" d="M35.481 63.4953C34.8016 63.4953 34.1206 63.2211 33.6656 62.6967C33.5572 62.5715 33.5708 62.3825 33.6945 62.2735C33.819 62.1646 34.007 62.1782 34.1155 62.3025C34.7 62.9768 35.8326 63.0934 36.5408 62.5519C36.6721 62.4515 36.8593 62.477 36.9592 62.609C37.0592 62.741 37.0338 62.9291 36.9025 63.0296C36.4925 63.3429 35.9867 63.4953 35.481 63.4953Z" fill="#0E0F0F"/>
<path id="Vector_125" d="M24.3316 57.249C25.0414 58.0007 26.0072 58.5039 27.0279 58.652C27.2999 58.6912 27.5963 58.7014 27.8285 58.5541C28.2461 58.2885 28.2435 57.6798 28.1427 57.1936C27.8725 55.8885 27.2406 54.6608 26.3367 53.6843C27.7565 55.0703 29.5998 56.0111 31.5498 56.3474C31.9861 56.4223 32.4435 56.4666 32.8629 56.3235C33.7252 56.0298 34.164 55.0073 34.0912 54.0955C34.0183 53.1837 33.5524 52.357 33.0984 51.5635C34.8434 53.1828 36.885 54.4803 39.0892 55.37C39.8169 55.6637 40.7114 55.8927 41.3323 55.4109C42.0007 54.8915 41.938 53.835 41.5619 53.0747C41.1858 52.3144 40.5725 51.6818 40.2726 50.8884C41.4577 51.8479 42.8783 52.1944 44.3718 52.4864C45.0461 52.6183 45.8094 52.655 46.3549 52.2344C47.1173 51.6469 47.0622 50.4048 46.4981 49.6232C45.9339 48.8417 45.0215 48.4083 44.1473 48.0073C42.858 47.4148 41.5687 46.8222 40.2794 46.2296C37.3526 44.8845 34.3487 44.1072 31.1322 44.2085C27.9157 44.3106 24.5476 45.8406 23.1312 48.7446C22.5772 48.0286 21.841 47.5271 21.1286 46.9703C20.5492 46.5166 19.68 46.1343 19.1379 46.6315C18.6211 47.1057 18.8651 47.9656 19.2133 48.5752C19.6995 49.4266 20.3205 50.2004 21.0456 50.8594C20.1637 50.9386 19.287 50.6134 18.4026 50.6619C17.5182 50.7096 16.5305 51.4043 16.7041 52.2769C16.8583 53.0483 17.7622 53.365 18.5246 53.5429C18.8363 53.6153 19.1481 53.6885 19.4606 53.7617C19.5801 53.7898 19.7071 53.8222 19.7893 53.9133C19.8952 54.0316 19.8935 54.2079 19.8927 54.3671C19.8893 55.324 20.1621 56.281 20.6703 57.0906C20.9719 57.5708 21.3971 58.0254 21.9529 58.1284C22.7449 58.274 23.7479 57.8015 24.3316 57.249Z" fill="#0E0F0F"/>
<path id="Vector_126" d="M22.2126 63.4819C24.3474 63.4819 26.078 61.7426 26.078 59.5971C26.078 57.4516 24.3474 55.7123 22.2126 55.7123C20.0778 55.7123 18.3472 57.4516 18.3472 59.5971C18.3472 61.7426 20.0778 63.4819 22.2126 63.4819Z" fill="#EAF0FD" stroke="#070707" stroke-width="0.584934" stroke-miterlimit="10"/>
</g>
<path id="Vector_127" d="M7.44031 100.343L8.14681 102.529H10.4332C11.5658 102.529 12.0368 103.986 11.1202 104.655L9.27093 106.005L9.97742 108.191C10.3273 109.274 9.09473 110.174 8.17815 109.504L6.32889 108.154L4.47964 109.504C3.56306 110.173 2.32965 109.273 2.68036 108.191L3.38686 106.005L1.5376 104.655C0.62102 103.986 1.09202 102.529 2.22461 102.529H4.51098L5.21747 100.343C5.56564 99.2605 7.09045 99.2605 7.44031 100.343Z" fill="#EAF0FD" stroke="#0E0F0F" stroke-width="0.596878" stroke-miterlimit="10"/>
<path id="Vector_128" d="M140.478 12.8464L140.966 14.3568H142.546C143.329 14.3568 143.654 15.3631 143.021 15.8262L141.743 16.7593L142.231 18.2697C142.473 19.018 141.621 19.6404 140.987 19.1781L139.709 18.245L138.431 19.1781C137.797 19.6404 136.946 19.018 137.187 18.2697L137.675 16.7593L136.397 15.8262C135.763 15.3639 136.089 14.3568 136.872 14.3568H138.452L138.94 12.8464C139.183 12.0981 140.237 12.0981 140.478 12.8464Z" fill="#EAF0FD" stroke="#0E0F0F" stroke-width="0.596878" stroke-miterlimit="10"/>
<g id="Group_7">
<path id="Vector_129" d="M112.373 68.1109C110.088 68.1109 108.11 67.3447 106.382 65.8003C104.209 63.8558 102.756 61.0122 101.351 58.2614L101.128 57.8238C99.4123 54.4728 95.1641 51.3074 90.6701 52.043C89.7196 52.1988 88.7658 52.5231 87.8433 52.8381C86.2854 53.3694 84.6742 53.9177 82.9834 53.6955C80.8749 53.4179 79.312 52.0515 77.8015 50.7301C76.9892 50.0192 76.1488 49.2845 75.2365 48.7337C70.9831 46.1634 64.9881 47.8414 61.8732 50.8698C61.6691 51.0681 61.4658 51.2699 61.2616 51.4717C59.7834 52.9335 58.2543 54.4447 56.2026 55.1947C53.7892 56.0759 50.4473 55.3582 49.5892 53.0791C49.5223 52.902 49.6112 52.7036 49.7874 52.6372C49.9636 52.57 50.161 52.6593 50.2271 52.8364C50.9488 54.7537 53.8544 55.3233 55.9697 54.5511C57.8824 53.853 59.3573 52.3946 60.7838 50.9838C60.9897 50.7804 61.1938 50.5777 61.3997 50.3785C63.1134 48.7124 65.5497 47.483 68.0834 47.0045C70.8425 46.4835 73.5075 46.8896 75.5889 48.1471C76.5521 48.7286 77.4153 49.4837 78.2505 50.2134C79.7508 51.5253 81.1688 52.7649 83.0732 53.0161C84.6056 53.2178 86.0728 52.7181 87.6247 52.1894C88.5735 51.8659 89.5544 51.5321 90.5608 51.367C92.7498 51.0085 95.0268 51.4734 97.1455 52.7096C99.1057 53.853 100.736 55.5583 101.735 57.5113L101.959 57.9489C103.334 60.6435 104.757 63.4292 106.836 65.2886C109.163 67.3694 112 67.9211 115.508 66.9752C115.691 66.9258 115.878 67.0348 115.926 67.2178C115.975 67.4009 115.867 67.589 115.685 67.6376C114.515 67.9526 113.412 68.1109 112.373 68.1109Z" fill="#272727"/>
</g>
</g>
</svg>
