<svg width="25" height="25" viewBox="0 0 25 25" fill="none" xmlns="http://www.w3.org/2000/svg">
<g id="Frame" clip-path="url(#clip0_1518_13235)">
<g id="Group">
<path id="Vector" d="M12.7501 24.5002C19.3776 24.5002 24.7502 19.1276 24.7502 12.5001C24.7502 5.87263 19.3776 0.5 12.7501 0.5C6.12263 0.5 0.75 5.87263 0.75 12.5001C0.75 19.1276 6.12263 24.5002 12.7501 24.5002Z" fill="#FFCA4F"/>
<path id="Vector_2" fill-rule="evenodd" clip-rule="evenodd" d="M8.74289 14.6564C7.74213 12.1318 5.64016 9.84696 8.2851 5.24471C9.3745 3.34942 11.0386 2.09916 12.7575 2.52247C14.4764 2.09916 16.1405 3.34918 17.2299 5.24471C19.8749 9.84696 17.7729 12.1318 16.7721 14.6564L12.7575 14.6663L8.74289 14.6564Z" fill="#666666"/>
<path id="Vector_3" fill-rule="evenodd" clip-rule="evenodd" d="M5.9959 18.6031C5.87046 18.8056 5.55709 20.529 5.21085 21.8355C7.27139 23.5016 9.89387 24.5001 12.7501 24.5001C15.6064 24.5001 18.2291 23.5016 20.2894 21.8355C19.9429 20.529 19.6298 18.8056 19.5043 18.6031C17.5764 15.4902 14.6049 16.8493 14.4024 13.2871C14.4024 13.2871 13.4465 14.0004 12.7166 14.0071C11.9866 14.0136 11.0971 13.3322 11.0971 13.3322C10.8951 16.8914 7.92267 15.4928 5.99613 18.6031H5.9959Z" fill="#FED298"/>
<path id="Vector_4" fill-rule="evenodd" clip-rule="evenodd" d="M14.454 13.79C14.4302 13.634 14.4123 13.4669 14.4022 13.2871C14.4022 13.2871 13.4463 14.0004 12.7163 14.0071C11.9864 14.0136 11.0969 13.3322 11.0969 13.3322C11.0865 13.5153 11.0684 13.6847 11.0439 13.843C11.0627 13.8578 11.0812 13.8729 11.1002 13.8875L11.0999 13.89C11.1562 13.9389 12.0107 14.6739 12.7163 14.6665C13.422 14.6739 14.2765 13.9391 14.3327 13.89V13.8875C14.3742 13.8558 14.4144 13.8231 14.4542 13.7903L14.454 13.79Z" fill="#F0BA7D"/>
<path id="Vector_5" fill-rule="evenodd" clip-rule="evenodd" d="M11.0999 13.3344C11.1562 13.3767 12.0107 14.0134 12.7163 14.0069C13.422 14.0134 14.2765 13.3767 14.3327 13.3344C15.3995 12.7125 16.2748 10.8787 16.0771 8.89157C15.9153 7.26382 14.1543 9.6507 12.9279 6.29199C11.192 9.9282 9.54347 7.77717 9.3553 9.15518C9.14816 10.6734 10.0006 12.5838 11.0997 13.3341L11.0999 13.3344Z" fill="#FED298"/>
<path id="Vector_6" fill-rule="evenodd" clip-rule="evenodd" d="M9.69923 15.8802C8.64871 16.4415 6.72703 16.4584 5.99567 17.6339C5.86838 17.8387 5.54875 20.3464 5.19696 21.8244C7.25959 23.4971 9.88739 24.4999 12.7499 24.4999C15.6124 24.4999 18.2402 23.4971 20.3028 21.8244C19.951 20.3466 19.593 17.8582 19.5041 17.6339C19.0185 16.4093 16.771 16.3582 15.7193 15.7935C14.0844 21.7254 11.6475 22.1299 9.69946 15.8807L9.69923 15.8802Z" fill="#FF5B62"/>
<g id="Group_2">
<path id="Vector_7" fill-rule="evenodd" clip-rule="evenodd" d="M10.3998 15.291C10.3315 17.1365 10.6451 19.7512 12.7161 20.4193C10.7666 20.5008 9.50133 17.6918 8.06036 16.956L10.3998 15.2912V15.291ZM15.1483 15.291C15.2201 17.1365 14.8905 19.7512 12.7161 20.4193C14.7632 20.5008 16.0917 17.6918 17.6049 16.956L15.1483 15.2912V15.291Z" fill="white"/>
</g>
</g>
</g>
<defs>
<clipPath id="clip0_1518_13235">
<rect width="24" height="24" fill="white" transform="translate(0.75 0.5)"/>
</clipPath>
</defs>
</svg>
