<svg width="16" height="16" viewBox="0 0 16 16" fill="none" xmlns="http://www.w3.org/2000/svg">
<g id="&#216;&#170;&#217;&#129;&#216;&#167;&#216;&#181;&#217;&#138;&#217;&#132; &#216;&#167;&#217;&#132;&#216;&#168;&#216;&#177;&#217;&#134;&#216;&#167;&#217;&#133;&#216;&#172;/vuesax/bold/Property 36">
<g id="vuesax/bold/document-text">
<g id="document-text">
<path id="Vector" d="M10.5333 1.47329C10.26 1.19995 9.78668 1.38662 9.78668 1.76662V4.09329C9.78668 5.06662 10.6133 5.87329 11.62 5.87329C12.2533 5.87996 13.1333 5.87995 13.8867 5.87995C14.2667 5.87995 14.4667 5.43329 14.2 5.16662C13.24 4.19995 11.52 2.45995 10.5333 1.47329Z" fill="#2563EB"/>
<path id="Vector_2" d="M13.6667 6.79337H11.74C10.16 6.79337 8.87335 5.50671 8.87335 3.92671V2.00004C8.87335 1.63337 8.57335 1.33337 8.20669 1.33337H5.38002C3.32669 1.33337 1.66669 2.66671 1.66669 5.04671V10.9534C1.66669 13.3334 3.32669 14.6667 5.38002 14.6667H10.62C12.6734 14.6667 14.3334 13.3334 14.3334 10.9534V7.46004C14.3334 7.09337 14.0334 6.79337 13.6667 6.79337ZM7.66669 11.8334H5.00002C4.72669 11.8334 4.50002 11.6067 4.50002 11.3334C4.50002 11.06 4.72669 10.8334 5.00002 10.8334H7.66669C7.94002 10.8334 8.16669 11.06 8.16669 11.3334C8.16669 11.6067 7.94002 11.8334 7.66669 11.8334ZM9.00002 9.16671H5.00002C4.72669 9.16671 4.50002 8.94004 4.50002 8.66671C4.50002 8.39337 4.72669 8.16671 5.00002 8.16671H9.00002C9.27335 8.16671 9.50002 8.39337 9.50002 8.66671C9.50002 8.94004 9.27335 9.16671 9.00002 9.16671Z" fill="#2563EB"/>
</g>
</g>
</g>
</svg>
