<svg width="33" height="32" viewBox="0 0 33 32" fill="none" xmlns="http://www.w3.org/2000/svg">
<g id="Frame">
<g id="Group">
<path id="Vector" d="M26.2811 0.390625C26.2628 0.281415 26.2063 0.18225 26.1217 0.110736C26.0372 0.039222 25.93 -1.20975e-05 25.8193 2.79808e-09H18.3411C18.2693 2.79808e-09 18.198 0.01625 18.1336 0.048125C18.1124 0.05875 17.8543 0.1875 17.4661 0.46375L20.4568 5.58437C21.0505 4.46625 21.9199 3.46 23.0568 2.57562C24.5455 1.4175 25.9592 0.91625 25.973 0.91125C26.0776 0.874889 26.166 0.802645 26.2224 0.707338C26.2788 0.612031 26.2996 0.499823 26.2811 0.390625Z" fill="#78C2EF"/>
<path id="Vector_2" d="M20.4575 5.58425C20.0237 6.39862 19.7356 7.273 19.5963 8.203L13.4444 8.44675C13.4004 8.39785 13.3672 8.34025 13.347 8.27769C13.3267 8.21513 13.3199 8.14901 13.3269 8.08362C13.6556 5.003 14.9325 2.98987 15.945 1.84362C16.5125 1.20112 17.0606 0.752373 17.4669 0.463623C17.6387 0.631748 17.8144 0.816123 17.9912 1.01612C18.8381 1.97425 19.8488 3.46862 20.4575 5.58425Z" fill="#74A1E2"/>
<path id="Vector_3" d="M19.6753 8.08369C19.3464 5.00344 18.0698 2.99025 17.0568 1.84381C15.9475 0.588437 14.911 0.0696875 14.8674 0.04825C14.803 0.016506 14.7321 -2.41052e-06 14.6603 2.64003e-10L7.18207 2.64003e-10C7.07135 3.05877e-05 6.96421 0.0392626 6.87966 0.110742C6.7951 0.182221 6.73859 0.28133 6.72013 0.3905C6.70166 0.499714 6.72244 0.611941 6.77879 0.7073C6.83514 0.80266 6.92343 0.874997 7.028 0.9115C7.04213 0.916438 8.45569 1.41744 9.94469 2.57544C11.9098 4.10369 13.0744 5.99719 13.4061 8.20319L19.5579 8.44681C19.6018 8.39791 19.635 8.3403 19.6552 8.27774C19.6755 8.21518 19.6823 8.14907 19.6753 8.08369Z" fill="#78C2EF"/>
<g id="Group_2">
<path id="Vector_4" d="M18.323 8.39702L17.9037 8.18746L17.4855 7.97583C17.4647 8.01696 16.9782 8.99777 17.176 10.2745L18.1024 10.131C17.9524 9.16296 18.3194 8.40458 18.323 8.39702ZM14.678 8.39702C14.6818 8.40458 15.0487 9.16296 14.8987 10.131L15.8251 10.2746C16.0229 8.99783 15.5364 8.01702 15.5156 7.97589L14.678 8.39702Z" fill="#F39E09"/>
</g>
<path id="Vector_5" d="M24.3967 12.8937V14.5318L24.3961 27.0806V28.7181C22.3736 30.7443 19.5798 31.9999 16.5004 31.9999C16.2698 31.9999 16.0411 31.9931 15.8142 31.9793C13.0067 31.8074 10.4754 30.5924 8.60419 28.7174V12.8937C10.4754 11.0193 13.0067 9.80432 15.8142 9.63244C16.0411 9.61869 16.2698 9.61182 16.5004 9.61182C19.5804 9.61182 22.3742 10.8674 24.3967 12.8937Z" fill="#FFE0A9"/>
<g id="Group_3">
<path id="Vector_6" d="M24.396 27.0806V28.7181C22.3735 30.7443 19.5798 31.9999 16.5004 31.9999C16.2698 31.9999 16.041 31.9931 15.8141 31.9793C19.3854 31.7624 22.5048 29.8712 24.396 27.0806ZM24.3966 12.8937V14.5318C22.5048 11.7406 19.3854 9.84932 15.8141 9.63244C16.041 9.61869 16.2698 9.61182 16.5004 9.61182C19.5804 9.61182 22.3741 10.8674 24.3966 12.8937Z" fill="#FFCB78"/>
</g>
<g id="Group_4">
<path id="Vector_7" d="M27.6731 20.8057C27.6731 23.8925 26.42 26.6913 24.3962 28.7182L23.6912 28.0119L22.4244 26.7419V14.87L23.6919 13.6L24.3969 12.8938C26.42 14.9213 27.6731 17.7194 27.6731 20.8057ZM10.5769 14.87V26.7419L8.60438 28.7175C6.58125 26.6907 5.32812 23.8919 5.32812 20.8057C5.32812 17.7194 6.58125 14.9213 8.60438 12.8938L10.5769 14.87Z" fill="#FFCB78"/>
</g>
<path id="Vector_8" d="M27.6733 20.8057C27.6733 23.8925 26.4202 26.6913 24.3964 28.7182L23.6914 28.0119C25.332 26.065 26.3195 23.5513 26.3195 20.8063C26.3195 18.0613 25.332 15.5469 23.692 13.6L24.397 12.8938C26.4202 14.9213 27.6733 17.7194 27.6733 20.8057Z" fill="#F39E09"/>
<path id="Vector_9" d="M25.1658 20.8057C25.1658 25.6013 21.2858 29.4894 16.4996 29.4894C16.2683 29.4894 16.0389 29.4801 15.8121 29.4619C11.3471 29.1113 7.83331 25.3694 7.83331 20.8057C7.83331 16.2419 11.3471 12.5007 15.8121 12.1501C16.0389 12.1319 16.2683 12.1226 16.4996 12.1226C21.2858 12.1226 25.1658 16.0101 25.1658 20.8057Z" fill="#F39E09"/>
<path id="Vector_10" d="M25.1663 20.8057C25.1663 25.6013 21.2863 29.4894 16.5 29.4894C16.2688 29.4894 16.0394 29.4801 15.8125 29.4619C20.2775 29.1113 23.7913 25.3694 23.7913 20.8057C23.7913 16.2419 20.2775 12.5007 15.8125 12.1501C16.0394 12.1319 16.2688 12.1226 16.5 12.1226C21.2863 12.1226 25.1663 16.0101 25.1663 20.8057Z" fill="#FF895A"/>
<path id="Vector_11" d="M19.3891 24.1662C19.3517 24.1611 18.6774 24.0711 17.774 24.0258C17.9421 19.8946 17.73 16.0027 17.7276 15.9609C17.7044 15.5442 17.4096 15.1929 17.0039 15.0983C16.8063 15.0524 16.5992 15.0718 16.4135 15.1537C16.2279 15.2356 16.0739 15.3755 15.9747 15.5524C15.0759 17.1521 13.6649 17.7763 13.6273 17.7926C13.1513 17.9908 12.9241 18.5374 13.1197 19.0159C13.3159 19.4961 13.8635 19.7259 14.3425 19.5293C14.3917 19.5091 15.1077 19.2083 15.9403 18.498C15.9724 19.9781 15.9832 21.9735 15.8976 24.0214C14.95 24.0651 14.2327 24.1609 14.194 24.1661C13.681 24.2356 13.3215 24.7084 13.3906 25.2224C13.4597 25.7365 13.9314 26.0968 14.4447 26.0281C14.4557 26.0266 15.5654 25.8791 16.7884 25.8789H16.7965C18.0189 25.8793 19.1274 26.0266 19.1381 26.028C19.1807 26.0338 19.2229 26.0366 19.2648 26.0366C19.7268 26.0366 20.1291 25.6943 20.1927 25.2228C20.262 24.7087 19.9022 24.2356 19.3891 24.1662Z" fill="#FFE0A9"/>
<g id="Group_5">
<path id="Vector_12" d="M22.2484 18.7498C22.5072 18.7498 22.7171 18.5399 22.7171 18.281C22.7171 18.0221 22.5072 17.8123 22.2484 17.8123C21.9895 17.8123 21.7796 18.0221 21.7796 18.281C21.7796 18.5399 21.9895 18.7498 22.2484 18.7498Z" fill="#FFCB78"/>
<path id="Vector_13" d="M10.3187 21.2808C10.5775 21.2808 10.7874 21.0709 10.7874 20.812C10.7874 20.5531 10.5775 20.3433 10.3187 20.3433C10.0598 20.3433 9.84991 20.5531 9.84991 20.812C9.84991 21.0709 10.0598 21.2808 10.3187 21.2808Z" fill="#FFCB78"/>
<path id="Vector_14" d="M10.7562 23.8123C11.015 23.8123 11.2249 23.6024 11.2249 23.3435C11.2249 23.0846 11.015 22.8748 10.7562 22.8748C10.4973 22.8748 10.2874 23.0846 10.2874 23.3435C10.2874 23.6024 10.4973 23.8123 10.7562 23.8123Z" fill="#FFCB78"/>
<path id="Vector_15" d="M10.7562 18.7498C11.015 18.7498 11.2249 18.5399 11.2249 18.281C11.2249 18.0221 11.015 17.8123 10.7562 17.8123C10.4973 17.8123 10.2874 18.0221 10.2874 18.281C10.2874 18.5399 10.4973 18.7498 10.7562 18.7498Z" fill="#FFCB78"/>
<path id="Vector_16" d="M22.2484 23.8123C22.5072 23.8123 22.7171 23.6024 22.7171 23.3435C22.7171 23.0846 22.5072 22.8748 22.2484 22.8748C21.9895 22.8748 21.7796 23.0846 21.7796 23.3435C21.7796 23.6024 21.9895 23.8123 22.2484 23.8123Z" fill="#FFCB78"/>
<path id="Vector_17" d="M22.6859 21.2808C22.9447 21.2808 23.1546 21.0709 23.1546 20.812C23.1546 20.5531 22.9447 20.3433 22.6859 20.3433C22.427 20.3433 22.2171 20.5531 22.2171 20.812C22.2171 21.0709 22.427 21.2808 22.6859 21.2808Z" fill="#FFCB78"/>
<path id="Vector_18" d="M10.3187 21.2808C10.5775 21.2808 10.7874 21.0709 10.7874 20.812C10.7874 20.5531 10.5775 20.3433 10.3187 20.3433C10.0598 20.3433 9.84991 20.5531 9.84991 20.812C9.84991 21.0709 10.0598 21.2808 10.3187 21.2808Z" fill="#FFCB78"/>
<path id="Vector_19" d="M10.7562 18.7498C11.015 18.7498 11.2249 18.5399 11.2249 18.281C11.2249 18.0221 11.015 17.8123 10.7562 17.8123C10.4973 17.8123 10.2874 18.0221 10.2874 18.281C10.2874 18.5399 10.4973 18.7498 10.7562 18.7498Z" fill="#FFCB78"/>
<path id="Vector_20" d="M10.7562 23.8123C11.015 23.8123 11.2249 23.6024 11.2249 23.3435C11.2249 23.0846 11.015 22.8748 10.7562 22.8748C10.4973 22.8748 10.2874 23.0846 10.2874 23.3435C10.2874 23.6024 10.4973 23.8123 10.7562 23.8123Z" fill="#FFCB78"/>
<path id="Vector_21" d="M22.6859 21.2808C22.9447 21.2808 23.1546 21.0709 23.1546 20.812C23.1546 20.5531 22.9447 20.3433 22.6859 20.3433C22.427 20.3433 22.2171 20.5531 22.2171 20.812C22.2171 21.0709 22.427 21.2808 22.6859 21.2808Z" fill="#FFCB78"/>
<path id="Vector_22" d="M22.2484 18.7498C22.5072 18.7498 22.7171 18.5399 22.7171 18.281C22.7171 18.0221 22.5072 17.8123 22.2484 17.8123C21.9895 17.8123 21.7796 18.0221 21.7796 18.281C21.7796 18.5399 21.9895 18.7498 22.2484 18.7498Z" fill="#FFCB78"/>
<path id="Vector_23" d="M22.2484 23.8123C22.5072 23.8123 22.7171 23.6024 22.7171 23.3435C22.7171 23.0846 22.5072 22.8748 22.2484 22.8748C21.9895 22.8748 21.7796 23.0846 21.7796 23.3435C21.7796 23.6024 21.9895 23.8123 22.2484 23.8123Z" fill="#FFCB78"/>
</g>
<path id="Vector_24" d="M21.8153 8.04867C21.713 8.03304 19.2779 7.66479 16.4997 7.66479C13.7215 7.66479 11.2865 8.03304 11.1842 8.04867C11.0613 8.06751 10.9509 8.13438 10.8774 8.23458C10.8038 8.33478 10.773 8.46011 10.7918 8.58298C10.8011 8.64383 10.8224 8.70225 10.8542 8.7549C10.8861 8.80755 10.9281 8.85341 10.9777 8.88985C11.0273 8.92628 11.0836 8.95259 11.1434 8.96726C11.2032 8.98193 11.2653 8.98468 11.3261 8.97536C11.3505 8.97161 13.7958 8.60229 16.4997 8.60229C19.2036 8.60229 21.649 8.97167 21.6733 8.97536C21.7962 8.99414 21.9216 8.96336 22.0218 8.88976C22.122 8.81617 22.1888 8.7058 22.2077 8.58292C22.2264 8.46005 22.1957 8.33474 22.1221 8.23456C22.0485 8.13437 21.9381 8.06751 21.8153 8.04867Z" fill="#FFE0A9"/>
</g>
</g>
</svg>
