<svg width="50" height="50" viewBox="0 0 50 50" fill="none" xmlns="http://www.w3.org/2000/svg">
<g id="Frame" clip-path="url(#clip0_1759_15547)">
<g id="Group">
<path id="Vector" fill-rule="evenodd" clip-rule="evenodd" d="M18.8034 5.51079C9.3104 8.21704 2.35815 16.9575 2.35815 27.3205C2.35815 39.8451 12.5099 49.9999 25.0341 49.9999C35.3285 49.9999 44.0202 43.1416 46.789 33.7454C47.097 32.7016 46.4953 31.598 45.4516 31.2901C44.408 30.9821 43.3043 31.581 42.9993 32.6218C40.7151 40.3813 33.5376 46.0476 25.0341 46.0476C14.6942 46.0476 6.3105 37.6636 6.3105 27.3206C6.3105 16.9775 14.6942 8.59633 25.0341 8.59633C25.9524 8.59633 26.728 7.99174 26.9504 7.10209C27.1757 6.21235 26.7793 5.31411 25.9723 4.87778L17.3491 0.2352C16.391 -0.280913 15.1875 0.0811962 14.6714 1.0394C14.1553 1.9976 14.5174 3.20102 15.4756 3.71713L18.8034 5.51079ZM32.4083 10.1048C33.1553 10.4263 33.8811 10.7949 34.5813 11.2084C35.5167 11.7645 36.7342 11.4508 37.2874 10.5155C37.8435 9.58012 37.5298 8.36245 36.5945 7.80639C35.7463 7.30537 34.8672 6.85867 33.9625 6.46899C32.9616 6.04125 31.7953 6.50893 31.3675 7.50981C30.9398 8.51079 31.4075 9.67709 32.4083 10.1048ZM39.7827 12.6542C38.9415 13.3444 38.8216 14.5962 39.5118 15.4374C40.0194 16.0591 40.4956 16.7178 40.9319 17.4194C41.505 18.3433 42.7284 18.6256 43.6523 18.0496C44.5762 17.4735 44.8614 16.253 44.2853 15.329C43.7656 14.4917 43.1912 13.6896 42.5658 12.928C41.8757 12.0868 40.6239 11.9641 39.7827 12.6542ZM44.8728 21.1067C43.8091 21.332 43.1248 22.3842 43.35 23.4507C43.5151 24.2469 43.6303 25.0527 43.6951 25.8632C43.7778 26.9498 44.7331 27.7653 45.8167 27.6797C46.9031 27.5942 47.7187 26.6417 47.636 25.5552C47.5561 24.56 47.4165 23.5847 47.2168 22.6323C46.9916 21.5658 45.9393 20.8814 44.8728 21.1067Z" fill="#95D6A4"/>
<path id="Vector_2" fill-rule="evenodd" clip-rule="evenodd" d="M25.0341 12.7826C17.0068 12.7826 10.4966 19.2901 10.4966 27.3205C10.4966 35.3509 17.0068 41.8584 25.0341 41.8584C33.0643 41.8584 39.5716 35.3509 39.5716 27.3205C39.5716 19.2901 33.0643 12.7826 25.0341 12.7826Z" fill="#EFF6FF"/>
<path id="Vector_3" fill-rule="evenodd" clip-rule="evenodd" d="M25.0341 13.5183C30.6832 15.5117 34.7325 20.8985 34.7325 27.2321C34.7325 33.5629 30.6832 38.9497 25.0341 40.943C24.1624 41.2519 23.2628 41.4753 22.3479 41.6103C23.2176 41.7758 24.1159 41.8585 25.0341 41.8585C33.0643 41.8585 39.5716 35.351 39.5716 27.3206C39.5716 19.2902 33.0643 12.7826 25.0341 12.7826C24.3042 12.7826 23.5855 12.8368 22.8812 12.9394C23.6126 13.0772 24.3323 13.2707 25.0341 13.5183Z" fill="#D9EEFF"/>
<g id="Group_2">
<path id="Vector_4" d="M25.0342 12.0281C16.6021 12.0281 9.74207 18.8882 9.74207 27.3206C9.74207 35.7529 16.602 42.613 25.0342 42.613C33.4663 42.613 40.3262 35.7528 40.3262 27.3206C40.3262 18.8883 33.4662 12.0281 25.0342 12.0281ZM37.0651 28.0493H38.7978C38.6284 31.2855 37.3372 34.2292 35.3071 36.499L34.0735 35.2673C33.9314 35.1284 33.7402 35.0512 33.5415 35.0524C33.3427 35.0537 33.1525 35.1332 33.0121 35.2739C32.8717 35.4145 32.7924 35.6049 32.7915 35.8036C32.7906 36.0023 32.8682 36.1934 33.0073 36.3353L34.2417 37.5677C31.974 39.6075 29.0285 40.9073 25.7886 41.083V39.3232C25.7886 39.1231 25.7091 38.9312 25.5676 38.7897C25.4261 38.6482 25.2342 38.5687 25.0341 38.5687C24.834 38.5687 24.642 38.6482 24.5006 38.7897C24.3591 38.9312 24.2796 39.1231 24.2796 39.3232V41.083C21.0402 40.9073 18.0951 39.6079 15.8276 37.5687L17.0614 36.3349C17.2029 36.1934 17.2824 36.0014 17.2824 35.8013C17.2824 35.6012 17.2029 35.4093 17.0614 35.2677C16.9198 35.1263 16.7279 35.0468 16.5278 35.0468C16.3277 35.0468 16.1358 35.1263 15.9942 35.2677L14.762 36.5C12.7314 34.23 11.4398 31.2859 11.2704 28.0493H13.0059C13.206 28.0493 13.3979 27.9698 13.5394 27.8283C13.6809 27.6868 13.7604 27.4949 13.7604 27.2948C13.7604 27.0947 13.6809 26.9028 13.5394 26.7613C13.3979 26.6198 13.206 26.5403 13.0059 26.5403H11.2736C11.4548 23.3105 12.7528 20.3745 14.7871 18.1127L15.9938 19.3214C16.0638 19.3918 16.147 19.4475 16.2387 19.4855C16.3303 19.5236 16.4286 19.5431 16.5278 19.5429C16.677 19.543 16.8229 19.4988 16.947 19.4159C17.071 19.333 17.1678 19.2153 17.2249 19.0774C17.2821 18.9396 17.2971 18.7879 17.268 18.6416C17.239 18.4952 17.1672 18.3608 17.0618 18.2552L15.8558 17.0473C18.1196 15.0226 21.0536 13.733 24.2796 13.5581V15.2636C24.2796 15.4637 24.3591 15.6556 24.5006 15.7971C24.642 15.9386 24.834 16.0181 25.0341 16.0181C25.2342 16.0181 25.4261 15.9386 25.5676 15.7971C25.7091 15.6556 25.7886 15.4637 25.7886 15.2636V13.5581C29.015 13.733 31.9495 15.0229 34.2134 17.0481L33.0068 18.2546C32.8702 18.3972 32.7949 18.5875 32.797 18.7849C32.7991 18.9823 32.8784 19.171 33.018 19.3106C33.1576 19.4502 33.3463 19.5296 33.5437 19.5317C33.7411 19.5338 33.9315 19.4584 34.074 19.3218L35.282 18.1138C37.3157 20.3753 38.6134 23.311 38.7945 26.5403H37.065C36.867 26.5435 36.6782 26.6244 36.5393 26.7655C36.4004 26.9067 36.3226 27.0968 36.3226 27.2948C36.3226 27.4928 36.4005 27.6829 36.5394 27.8241C36.6783 27.9652 36.8671 28.0461 37.0651 28.0493Z" fill="#2B4D66"/>
<path id="Vector_5" d="M22.0235 18.2698C21.9456 18.0863 21.7983 17.9411 21.6138 17.8658C21.4293 17.7906 21.2224 17.7913 21.0385 17.868C20.8545 17.9447 20.7084 18.0911 20.6319 18.2751C20.5555 18.4592 20.555 18.666 20.6305 18.8505L23.5828 25.9118C23.6402 26.0493 23.7369 26.1668 23.8609 26.2495C23.9849 26.3321 24.1306 26.3762 24.2796 26.3762C24.4038 26.3762 24.5262 26.3455 24.6357 26.2868C24.7452 26.2282 24.8385 26.1434 24.9074 26.04C24.9763 25.9366 25.0186 25.8178 25.0305 25.6941C25.0424 25.5705 25.0236 25.4458 24.9758 25.3311L22.0235 18.2698ZM31.0253 26.5403H27.4351C27.235 26.5403 27.0431 26.6198 26.9016 26.7613C26.7601 26.9028 26.6806 27.0947 26.6806 27.2948C26.6806 27.4949 26.7601 27.6868 26.9016 27.8283C27.0431 27.9698 27.235 28.0493 27.4351 28.0493H31.0253C31.4421 28.0493 31.7798 27.7115 31.7798 27.2948C31.7798 26.8781 31.4421 26.5403 31.0253 26.5403Z" fill="#2B4D66"/>
</g>
<path id="Vector_6" fill-rule="evenodd" clip-rule="evenodd" d="M27.4352 27.2947C27.4352 25.9687 26.3601 24.8937 25.0341 24.8937C23.7082 24.8937 22.6331 25.9688 22.6331 27.2947C22.6331 28.6208 23.7082 29.6958 25.0341 29.6958C26.3601 29.6959 27.4352 28.6208 27.4352 27.2947Z" fill="#FFE07D"/>
</g>
</g>
<defs>
<clipPath id="clip0_1759_15547">
<rect width="50" height="50" fill="white"/>
</clipPath>
</defs>
</svg>
