<svg width="24" height="24" viewBox="0 0 24 24" fill="none" xmlns="http://www.w3.org/2000/svg">
<g id="Icon">
<g id="Vector">
<path d="M7.78369 3.72525C7.47881 3.42036 6.98449 3.42036 6.67961 3.72525C6.37472 4.03013 6.37472 4.52445 6.67961 4.82933L7.68898 5.83871H5.67025C5.04908 5.83871 4.45335 6.08547 4.01412 6.5247C3.57488 6.96393 3.32812 7.55966 3.32812 8.18083V15.9879C3.32812 16.6091 3.57488 17.2048 4.01412 17.644C4.45335 18.0833 5.04908 18.33 5.67025 18.33H11.1352C11.5664 18.33 11.9159 17.9805 11.9159 17.5493C11.9159 17.1182 11.5664 16.7686 11.1352 16.7686H5.67025C5.46319 16.7686 5.26462 16.6864 5.1182 16.54C4.97179 16.3935 4.88954 16.195 4.88954 15.9879V8.18083C4.88954 7.97377 4.97179 7.7752 5.1182 7.62879C5.26462 7.48238 5.46319 7.40012 5.67025 7.40012H7.68897L6.67961 8.40949C6.37472 8.71438 6.37472 9.2087 6.67961 9.51358C6.98449 9.81847 7.47881 9.81847 7.78369 9.51358L10.1227 7.17454C10.1335 7.16387 10.144 7.15288 10.1542 7.1416C10.2106 7.07895 10.2552 7.00935 10.2878 6.93574C10.3307 6.83905 10.3545 6.73202 10.3545 6.61942C10.3545 6.50766 10.331 6.40138 10.2887 6.30526C10.2551 6.22876 10.2087 6.15655 10.1493 6.09191C10.1409 6.08268 10.1322 6.07366 10.1233 6.06485L7.78369 3.72525Z" fill="#272727"/>
<path d="M11.9159 6.61942C11.9159 6.18824 12.2654 5.83871 12.6966 5.83871H18.1616C18.7827 5.83871 19.3785 6.08547 19.8177 6.5247C20.2569 6.96393 20.5037 7.55966 20.5037 8.18083V15.9879C20.5037 16.6091 20.2569 17.2048 19.8177 17.644C19.3785 18.0833 18.7827 18.33 18.1616 18.33H16.1428L17.1522 19.3394C17.4571 19.6443 17.4571 20.1386 17.1522 20.4435C16.8473 20.7484 16.353 20.7484 16.0481 20.4435L13.706 18.1014C13.5615 17.9569 13.4855 17.77 13.478 17.5808C13.4771 17.5598 13.4771 17.5388 13.478 17.5179C13.4816 17.4265 13.5009 17.3392 13.5333 17.2586C13.5714 17.1635 13.6289 17.0743 13.706 16.9973L16.0481 14.6552C16.353 14.3503 16.8473 14.3503 17.1522 14.6552C17.4571 14.96 17.4571 15.4544 17.1522 15.7592L16.1428 16.7686H18.1616C18.3686 16.7686 18.5672 16.6864 18.7136 16.54C18.86 16.3935 18.9423 16.195 18.9423 15.9879V8.18083C18.9423 7.97378 18.86 7.7752 18.7136 7.62879C18.5672 7.48238 18.3686 7.40012 18.1616 7.40012H12.6966C12.2654 7.40012 11.9159 7.05059 11.9159 6.61942Z" fill="#272727"/>
<path fill-rule="evenodd" clip-rule="evenodd" d="M11.9159 8.96153C10.1912 8.96153 8.7931 10.3597 8.7931 12.0844C8.7931 13.8091 10.1912 15.2072 11.9159 15.2072C13.6406 15.2072 15.0388 13.8091 15.0388 12.0844C15.0388 10.3597 13.6406 8.96153 11.9159 8.96153ZM10.3545 12.0844C10.3545 11.222 11.0536 10.5229 11.9159 10.5229C12.7783 10.5229 13.4773 11.222 13.4773 12.0844C13.4773 12.9467 12.7783 13.6458 11.9159 13.6458C11.0536 13.6458 10.3545 12.9467 10.3545 12.0844Z" fill="#272727"/>
</g>
</g>
</svg>
