<svg width="20" height="20" viewBox="0 0 20 20" fill="none" xmlns="http://www.w3.org/2000/svg">
<g id="Frame">
<g id="Group">
<path id="Vector" d="M15.0001 10.8333H5.00008C4.50008 10.8333 4.16675 10.5 4.16675 9.99999C4.16675 9.49999 4.50008 9.16666 5.00008 9.16666H15.0001C15.5001 9.16666 15.8334 9.49999 15.8334 9.99999C15.8334 10.5 15.5001 10.8333 15.0001 10.8333ZM12.5001 15.8333H7.50008C7.00008 15.8333 6.66675 15.5 6.66675 15C6.66675 14.5 7.00008 14.1667 7.50008 14.1667H12.5001C13.0001 14.1667 13.3334 14.5 13.3334 15C13.3334 15.5 13.0001 15.8333 12.5001 15.8333ZM17.5001 5.83332H2.50008C2.00008 5.83332 1.66675 5.49999 1.66675 4.99999C1.66675 4.49999 2.00008 4.16666 2.50008 4.16666H17.5001C18.0001 4.16666 18.3334 4.49999 18.3334 4.99999C18.3334 5.49999 18.0001 5.83332 17.5001 5.83332Z" fill="#272727"/>
</g>
</g>
</svg>
