<svg width="16" height="17" viewBox="0 0 16 17" fill="none" xmlns="http://www.w3.org/2000/svg">
<g id="ellipsis-vertical">
<g id="Vector">
<path d="M7.33334 8.49992C7.33334 8.86811 7.63182 9.16659 8.00001 9.16659C8.3682 9.16659 8.66668 8.86811 8.66668 8.49992C8.66668 8.13173 8.3682 7.83325 8.00001 7.83325C7.63182 7.83325 7.33334 8.13173 7.33334 8.49992Z" stroke="#272727" stroke-width="1.33" stroke-linecap="round" stroke-linejoin="round"/>
<path d="M12 8.49992C12 8.86811 12.2985 9.16659 12.6667 9.16659C13.0349 9.16659 13.3333 8.86811 13.3333 8.49992C13.3333 8.13173 13.0349 7.83325 12.6667 7.83325C12.2985 7.83325 12 8.13173 12 8.49992Z" stroke="#272727" stroke-width="1.33" stroke-linecap="round" stroke-linejoin="round"/>
<path d="M2.66668 8.49992C2.66668 8.86811 2.96515 9.16658 3.33334 9.16659C3.70153 9.16659 4.00001 8.86811 4.00001 8.49992C4.00001 8.13173 3.70153 7.83325 3.33334 7.83325C2.96515 7.83325 2.66668 8.13173 2.66668 8.49992Z" stroke="#272727" stroke-width="1.33" stroke-linecap="round" stroke-linejoin="round"/>
</g>
</g>
</svg>
