<svg width="25" height="25" viewBox="0 0 25 25" fill="none" xmlns="http://www.w3.org/2000/svg">
<g id="Transaction/vuesax/bold/Property 35">
<g id="vuesax/bold/clipboard">
<path id="Vector" d="M14.4961 3.3799L9.80607 2.6399C5.89607 2.0299 4.08607 3.3499 3.46607 7.2599L2.72607 11.9499C2.32607 14.5099 2.74607 16.1699 4.19607 17.1799C4.95607 17.7199 5.99607 18.0799 7.34607 18.2899L12.0361 19.0299C15.9461 19.6399 17.7561 18.3199 18.3761 14.4099L19.1061 9.7199C19.2261 8.9499 19.2761 8.2599 19.2361 7.6499C19.1061 5.1499 17.6361 3.8699 14.4961 3.3799ZM8.84607 9.8499C7.67607 9.8499 6.72607 8.8999 6.72607 7.7399C6.72607 6.5699 7.67607 5.6199 8.84607 5.6199C10.0061 5.6199 10.9561 6.5699 10.9561 7.7399C10.9561 8.8999 10.0061 9.8499 8.84607 9.8499Z" fill="#2563EB"/>
<path id="Vector_2" d="M21.1061 13.9701L19.6061 18.4801C18.3561 22.2401 16.3561 23.2401 12.5961 21.9901L8.08609 20.4901C6.67609 20.0201 5.65609 19.4401 4.99609 18.7101C5.62609 18.9601 6.35609 19.1501 7.18609 19.2801L11.8861 20.0201C12.5261 20.1201 13.1261 20.1701 13.6861 20.1701C16.9861 20.1701 18.7561 18.3901 19.3661 14.5601L20.0961 9.87006C20.1961 9.29006 20.2361 8.78006 20.2361 8.31006C21.7561 9.56006 21.9761 11.3401 21.1061 13.9701Z" fill="#2563EB"/>
</g>
</g>
</svg>
