<svg width="25" height="25" viewBox="0 0 25 25" fill="none" xmlns="http://www.w3.org/2000/svg">
<g id="vuesax/bold/award">
<path id="Vector" d="M18.416 5.99V6.73L14.876 4.68C13.536 3.91 11.666 3.91 10.336 4.68L6.79602 6.74V5.99C6.79602 3.74 8.02602 2.5 10.276 2.5H14.936C17.186 2.5 18.416 3.74 18.416 5.99Z" fill="#2563EB"/>
<path id="Vector_2" d="M18.4461 8.46999L18.3061 8.39999L16.9461 7.61999L14.1261 5.98999C13.2661 5.48999 11.9461 5.48999 11.0861 5.98999L8.26608 7.60999L6.90608 8.40999L6.72608 8.49999C4.97608 9.67999 4.85608 9.89999 4.85608 11.79V16.31C4.85608 18.2 4.97608 18.42 6.76608 19.63L11.0861 22.12C11.5161 22.38 12.0561 22.49 12.6061 22.49C13.1461 22.49 13.6961 22.37 14.1261 22.12L18.4861 19.6C20.2461 18.42 20.3561 18.21 20.3561 16.31V11.79C20.3561 9.89999 20.2361 9.67999 18.4461 8.46999ZM15.3961 14L14.7861 14.75C14.6861 14.86 14.6161 15.07 14.6261 15.22L14.6861 16.18C14.7261 16.77 14.3061 17.07 13.7561 16.86L12.8661 16.5C12.7261 16.45 12.4961 16.45 12.3561 16.5L11.4661 16.85C10.9161 17.07 10.4961 16.76 10.5361 16.17L10.5961 15.21C10.6061 15.06 10.5361 14.85 10.4361 14.74L9.81608 14C9.43608 13.55 9.60608 13.05 10.1761 12.9L11.1061 12.66C11.2561 12.62 11.4261 12.48 11.5061 12.36L12.0261 11.56C12.3461 11.06 12.8561 11.06 13.1861 11.56L13.7061 12.36C13.7861 12.49 13.9661 12.62 14.1061 12.66L15.0361 12.9C15.6061 13.05 15.7761 13.55 15.3961 14Z" fill="#2563EB"/>
</g>
</svg>
