<svg width="17" height="16" viewBox="0 0 17 16" fill="none" xmlns="http://www.w3.org/2000/svg">
<g id="vuesax/bold/book">
<g id="vuesax/bold/book_2">
<path id="Vector" d="M14.8794 3.23335V11.16C14.8794 11.8067 14.3528 12.4 13.7061 12.48L13.4994 12.5067C12.4061 12.6533 10.8661 13.1067 9.6261 13.6267C9.19277 13.8067 8.71277 13.48 8.71277 13.0067V3.73335C8.71277 3.48668 8.85277 3.26002 9.07277 3.14002C10.2928 2.48002 12.1394 1.89335 13.3928 1.78668H13.4328C14.2328 1.78668 14.8794 2.43335 14.8794 3.23335Z" fill="#3D5066"/>
<path id="Vector_2" d="M7.35276 3.14002C6.13276 2.48002 4.2861 1.89335 3.03276 1.78668H2.9861C2.1861 1.78668 1.53943 2.43335 1.53943 3.23335V11.16C1.53943 11.8067 2.0661 12.4 2.71276 12.48L2.91943 12.5067C4.01276 12.6533 5.55276 13.1067 6.79276 13.6267C7.2261 13.8067 7.7061 13.48 7.7061 13.0067V3.73335C7.7061 3.48002 7.57276 3.26002 7.35276 3.14002ZM3.5461 5.16002H5.0461C5.31943 5.16002 5.5461 5.38668 5.5461 5.66002C5.5461 5.94002 5.31943 6.16002 5.0461 6.16002H3.5461C3.27276 6.16002 3.0461 5.94002 3.0461 5.66002C3.0461 5.38668 3.27276 5.16002 3.5461 5.16002ZM5.5461 8.16002H3.5461C3.27276 8.16002 3.0461 7.94002 3.0461 7.66002C3.0461 7.38668 3.27276 7.16002 3.5461 7.16002H5.5461C5.81943 7.16002 6.0461 7.38668 6.0461 7.66002C6.0461 7.94002 5.81943 8.16002 5.5461 8.16002Z" fill="#3D5066"/>
</g>
</g>
</svg>
