<svg width="25" height="25" viewBox="0 0 25 25" fill="none" xmlns="http://www.w3.org/2000/svg">
<g id="Frame">
<g id="Group">
<g id="Group_2">
<path id="Vector" fill-rule="evenodd" clip-rule="evenodd" d="M16.5 12.6499C16.502 11.5519 16.1405 10.4841 15.472 9.61295C15.3135 9.40229 15.2446 9.13757 15.2803 8.87638C15.316 8.6152 15.4534 8.37867 15.6626 8.21825C15.8718 8.05783 16.1359 7.98651 16.3974 8.01978C16.6589 8.05306 16.8967 8.18825 17.059 8.39595C17.9955 9.61652 18.5021 11.1125 18.5 12.6509C18.5 14.3169 17.916 15.8499 16.943 17.0509C16.773 17.2465 16.5338 17.3684 16.2757 17.391C16.0176 17.4137 15.7608 17.3353 15.5594 17.1724C15.358 17.0094 15.2277 16.7747 15.1959 16.5176C15.1641 16.2604 15.2333 16.001 15.389 15.7939C16.11 14.905 16.5024 13.7945 16.5 12.6499ZM8.50001 12.6499C8.50001 11.5049 8.88401 10.4519 9.53001 9.60995C9.61255 9.50604 9.67359 9.38674 9.70957 9.25901C9.74554 9.13127 9.75573 8.99765 9.73955 8.86594C9.72336 8.73423 9.68112 8.60705 9.61529 8.49183C9.54945 8.3766 9.46134 8.27564 9.3561 8.19481C9.25085 8.11398 9.13056 8.05491 9.00225 8.02104C8.87394 7.98717 8.74018 7.97917 8.60875 7.99752C8.47732 8.01587 8.35085 8.06019 8.23673 8.12791C8.1226 8.19563 8.02309 8.28538 7.94401 8.39195C7.0058 9.61295 6.49807 11.1101 6.50001 12.6499C6.50001 14.3159 7.08301 15.8469 8.05401 17.0499C8.22083 17.2563 8.46278 17.3879 8.72665 17.4158C8.99051 17.4438 9.25467 17.3658 9.46101 17.1989C9.66734 17.0321 9.79896 16.7902 9.82691 16.5263C9.85485 16.2624 9.77683 15.9983 9.61001 15.7919C8.88982 14.9034 8.49782 13.7937 8.50001 12.6499Z" fill="#FF0B0B"/>
<g id="Group_3">
<path id="Vector_2" fill-rule="evenodd" clip-rule="evenodd" d="M10.5 12.65C10.5 13.1804 10.7107 13.6891 11.0858 14.0642C11.4609 14.4392 11.9696 14.65 12.5 14.65C13.0304 14.65 13.5392 14.4392 13.9142 14.0642C14.2893 13.6891 14.5 13.1804 14.5 12.65C14.5 12.1195 14.2893 11.6108 13.9142 11.2357C13.5392 10.8607 13.0304 10.65 12.5 10.65C11.9696 10.65 11.4609 10.8607 11.0858 11.2357C10.7107 11.6108 10.5 12.1195 10.5 12.65ZM20.5 12.65C20.5036 10.5065 19.7387 8.43268 18.344 6.80496C18.1716 6.60339 18.0864 6.3416 18.107 6.07718C18.1276 5.81275 18.2524 5.56735 18.454 5.39496C18.6556 5.22257 18.9174 5.13731 19.1818 5.15794C19.4462 5.17857 19.6916 5.3034 19.864 5.50496C21.5685 7.49497 22.5037 10.0298 22.5 12.65C22.5 15.44 21.46 17.988 19.75 19.927C19.6631 20.0255 19.5576 20.1059 19.4396 20.1636C19.3216 20.2213 19.1934 20.2552 19.0622 20.2634C18.9311 20.2716 18.7997 20.2538 18.6754 20.2112C18.5512 20.1686 18.4365 20.1019 18.338 20.015C18.2395 19.928 18.1591 19.8225 18.1014 19.7045C18.0437 19.5865 18.0097 19.4583 18.0016 19.3272C17.9934 19.1961 18.0111 19.0646 18.0538 18.9404C18.0964 18.8161 18.1631 18.7015 18.25 18.603C19.703 16.9607 20.5035 14.8427 20.5 12.65ZM4.50001 12.65C4.49639 10.5065 5.26133 8.43268 6.65601 6.80496C6.8284 6.60339 6.91366 6.3416 6.89303 6.07718C6.8724 5.81275 6.74757 5.56735 6.54601 5.39496C6.34445 5.22257 6.08266 5.13731 5.81823 5.15794C5.5538 5.17857 5.3084 5.3034 5.13601 5.50496C3.43152 7.49497 2.49636 10.0298 2.50001 12.65C2.50001 15.436 3.53601 17.981 5.24301 19.919C5.41832 20.118 5.66552 20.2393 5.93022 20.256C6.19493 20.2728 6.45547 20.1838 6.65451 20.0085C6.85356 19.8332 6.97481 19.586 6.99159 19.3212C7.00838 19.0565 6.91932 18.796 6.74401 18.597C5.29454 16.9554 4.49629 14.8399 4.50001 12.65Z" fill="#FF8B8B"/>
</g>
</g>
</g>
</g>
</svg>
