<svg width="20" height="20" viewBox="0 0 20 20" fill="none" xmlns="http://www.w3.org/2000/svg">
<g id="vuesax/bold/timer">
<g id="vuesax/bold/timer_2">
<g id="timer">
<path id="Vector" d="M14.4917 13.0583L11.125 10H8.86666L5.49999 13.0583C4.55833 13.9083 4.24999 15.2167 4.70833 16.4C5.16666 17.575 6.28333 18.3333 7.54166 18.3333H12.45C13.7167 18.3333 14.825 17.575 15.2833 16.4C15.7417 15.2167 15.4333 13.9083 14.4917 13.0583ZM11.5167 15.1167H8.48333C8.16666 15.1167 7.91666 14.8583 7.91666 14.55C7.91666 14.2417 8.17499 13.9833 8.48333 13.9833H11.5167C11.8333 13.9833 12.0833 14.2417 12.0833 14.55C12.0833 14.8583 11.825 15.1167 11.5167 15.1167Z" fill="#272727"/>
<path id="Vector_2" d="M15.2917 3.60008C14.8333 2.42508 13.7167 1.66675 12.4583 1.66675H7.54167C6.28333 1.66675 5.16667 2.42508 4.70833 3.60008C4.25833 4.78341 4.56667 6.09175 5.50833 6.94175L8.875 10.0001H11.1333L14.5 6.94175C15.4333 6.09175 15.7417 4.78341 15.2917 3.60008ZM11.5167 6.02508H8.48333C8.16667 6.02508 7.91667 5.76675 7.91667 5.45841C7.91667 5.15008 8.175 4.89175 8.48333 4.89175H11.5167C11.8333 4.89175 12.0833 5.15008 12.0833 5.45841C12.0833 5.76675 11.825 6.02508 11.5167 6.02508Z" fill="#272727"/>
</g>
</g>
</g>
</svg>
