<svg width="25" height="24" viewBox="0 0 25 24" fill="none" xmlns="http://www.w3.org/2000/svg">
<path d="M12.5 0C8.91195 0.00440625 6.00435 2.91197 5.99994 6.50002V10.5C5.99994 10.7761 6.22381 11 6.49995 11H8.49997C8.77611 11 8.99999 10.7761 8.99999 10.5V6.50002C8.99994 4.56698 10.567 3 12.5 3C14.4329 3 16 4.56698 16 6.50002V10.5C16 10.7761 16.2238 11 16.5 11H18.5C18.7761 11 19 10.7761 19 10.5V6.50002C18.9956 2.91197 16.088 0.00440625 12.5 0Z" fill="#455A64"/>
<path d="M6.49998 9.99997H18.5C19.8807 9.99997 21 11.1193 21 12.5V21.5C21 22.8807 19.8807 24 18.5 24H6.49998C5.11928 24 4 22.8807 4 21.5V12.5C4 11.1193 5.11928 9.99997 6.49998 9.99997Z" fill="#FFC107"/>
<path d="M15 15.5C15.0058 14.1193 13.8913 12.9953 12.5106 12.9895C11.1299 12.9837 10.0058 14.0982 10 15.4789C9.99804 15.9467 10.1273 16.4057 10.3732 16.8036C10.6191 17.2015 10.9717 17.5225 11.391 17.73L11.005 20.43C10.9663 20.7034 11.1566 20.9564 11.43 20.9951C11.4532 20.9984 11.4766 21 11.5 21H13.5C13.7761 21.0028 14.0023 20.7812 14.005 20.5051C14.0053 20.4796 14.0036 20.4542 14 20.429L13.6139 17.729C14.0283 17.5217 14.3771 17.2037 14.6217 16.8102C14.8664 16.4168 14.9973 15.9633 15 15.5Z" fill="#455A64"/>
</svg>
