<svg width="25" height="25" viewBox="0 0 25 25" fill="none" xmlns="http://www.w3.org/2000/svg">
<g id="Frame" clip-path="url(#clip0_1518_13203)">
<g id="Group">
<path id="Vector" d="M22.5604 18.0781C23.3117 16.5508 23.7344 14.8327 23.7344 13.0156C23.7344 6.67297 18.5927 1.53125 12.25 1.53125C5.90734 1.53125 0.765625 6.67297 0.765625 13.0156C0.765625 14.8327 1.1883 16.5508 1.93961 18.0781H22.5604Z" fill="#64C0F4"/>
<path id="Vector_2" d="M8.74089 12.2217H9.715V12.9362H8.74089V12.2217ZM14.7858 12.2217H15.76V12.9362H14.7858V12.2217Z" fill="#0F3E4C"/>
<path id="Vector_3" d="M8.89643 12.8639C8.38333 13.6384 8.58241 14.5855 8.84327 15.2483C9.75471 17.5639 12.2104 18.433 12.2351 18.4415L12.2504 18.4467L12.2657 18.4415C12.2904 18.433 14.7462 17.5639 15.6576 15.2483C15.9184 14.5857 16.1175 13.6389 15.6048 12.8644L15.5971 12.8611C15.2611 12.7141 14.8983 12.6382 14.5315 12.6382H9.9686C9.60184 12.6382 9.23905 12.7141 8.90304 12.8611L8.89643 12.8639Z" fill="#EBF0F2"/>
<path id="Vector_4" d="M8.90298 12.8611L8.89642 12.864C8.38328 13.6385 8.58241 14.5855 8.84322 15.2483C9.75466 17.5639 12.2104 18.433 12.2351 18.4415L12.2504 18.4468L12.2657 18.4415C12.2669 18.4411 12.274 18.4386 12.2861 18.4341C12.2742 18.4218 12.2628 18.4095 12.2504 18.3972C10.5767 16.7234 11.7067 15.1846 11.7067 15.1846L10.5544 12.6382H9.96855C9.60178 12.6382 9.239 12.7141 8.90298 12.8611Z" fill="#C2D4E6"/>
<path id="Vector_5" d="M21.4427 15.6948C21.1926 15.248 20.7954 14.9016 20.3186 14.7148L18.9954 14.1962C19.138 14.7594 18.8463 15.4525 18.1274 16.2568C17.0823 17.426 15.541 18.0157 14.432 18.3046C13.2276 18.6184 12.2585 18.6549 12.2521 18.6553C12.2424 18.6549 11.2751 18.6186 10.071 18.3051C8.96129 18.0163 7.41906 17.4265 6.37356 16.2568C5.65449 15.4523 5.36279 14.7591 5.50562 14.1958L4.18145 14.7148C3.70469 14.9016 3.30745 15.2479 3.05738 15.6948C2.68852 16.3536 2.29332 17.1823 1.91631 18.0314C3.06427 20.3922 4.99749 22.3004 7.37607 23.417V22.2447C7.37607 21.9633 7.60627 21.7331 7.88766 21.7331H16.6439C16.9253 21.7331 17.1555 21.9633 17.1555 22.2447V23.4021C19.5196 22.2835 21.4407 20.3817 22.5836 18.0313C22.2067 17.1823 21.8115 16.3536 21.4427 15.6948Z" fill="#2C2C42"/>
<path id="Vector_6" d="M6.37398 16.5422C6.4332 16.5128 6.48391 16.4688 6.52126 16.4142C6.47088 16.3628 6.42162 16.3103 6.37351 16.2568C5.65445 15.4523 5.36274 14.7591 5.50557 14.1958L4.1814 14.7148C3.70464 14.9016 3.3074 15.2479 3.05734 15.6948C2.68852 16.3536 2.29332 17.1823 1.91631 18.0313C2.50445 19.2409 3.29916 20.3311 4.25382 21.2575C4.44741 20.4117 4.74516 19.1212 4.95085 18.2789C5.21016 17.217 6.03807 16.7087 6.37398 16.5422Z" fill="#212135"/>
<path id="Vector_7" d="M12.25 24.4999C14.0235 24.4999 15.703 24.0979 17.2024 23.38V22.1508C17.2024 21.8694 16.9722 21.6392 16.6908 21.6392H7.8408C7.55941 21.6392 7.32921 21.8694 7.32921 22.1508V23.3948C8.82068 24.1033 10.489 24.4999 12.25 24.4999Z" fill="#FBCC68"/>
<path id="Vector_8" d="M11.4398 22.7876C11.4398 22.2444 11.8071 21.7832 12.3056 21.6392H7.84085C7.55946 21.6392 7.32925 21.8694 7.32925 22.1508V23.3948C8.58996 23.9936 9.97727 24.3686 11.4399 24.4706L11.4398 22.7876Z" fill="#EFAA42"/>
<path id="Vector_9" d="M16.2101 13.1045L15.6652 12.8909L15.597 12.8611C15.261 12.7141 14.8982 12.6382 14.5314 12.6382H9.96854C9.60178 12.6382 9.23899 12.7141 8.90298 12.8611L8.83478 12.8909L8.28986 13.1045C8.7332 14.8792 10.338 16.1939 12.25 16.1939C14.162 16.1939 15.7668 14.8792 16.2101 13.1045Z" fill="#C2D4E6"/>
<path id="Vector_10" d="M9.18807 12.7984C9.21845 12.791 9.24883 12.7835 9.27943 12.7764C9.29879 12.757 9.31801 12.7366 9.337 12.7153C9.18839 12.7514 9.04318 12.8002 8.90298 12.8613L8.83478 12.8912L8.28986 13.1047C8.66232 14.5958 9.85473 15.7617 11.3603 16.0965C11.4454 15.5409 11.7067 15.1848 11.7067 15.1848L11.6602 15.0822C10.4635 14.8571 9.50415 13.9606 9.18807 12.7984Z" fill="#99B8DA"/>
<path id="Vector_11" d="M15.3437 12.7654C15.0811 12.6811 14.8071 12.6382 14.5315 12.6382H9.96854C9.69231 12.6382 9.41833 12.6813 9.15634 12.7654C9.47828 14.1772 10.7406 15.2311 12.25 15.2311C13.7594 15.2311 15.0217 14.1772 15.3437 12.7654Z" fill="#E0D3CD"/>
<path id="Vector_12" d="M14.5018 11.4605C14.107 12.0193 13.5776 12.5414 12.8716 12.883C12.6795 12.9759 12.4686 13.0272 12.2552 13.0276H12.247C12.0326 13.0273 11.821 12.9753 11.6281 12.8819C10.9223 12.54 10.3932 12.0175 9.99869 11.4585C9.8568 11.9839 9.59355 12.5561 9.27939 12.8702C9.24878 12.8773 9.21846 12.8848 9.18803 12.8923C9.55464 14.24 10.7861 15.2314 12.25 15.2314C13.7138 15.2314 14.9453 14.24 15.3118 12.8923C15.2815 12.8849 15.2511 12.8773 15.2205 12.8702C14.9068 12.5565 14.6438 11.9853 14.5018 11.4605Z" fill="#FFAA7B"/>
<path id="Vector_13" d="M12.3514 13.0231C12.3194 13.0256 12.2873 13.0269 12.2552 13.0271H12.247C12.0326 13.0268 11.821 12.9748 11.6281 12.8814C10.9223 12.5395 10.3932 12.017 9.99869 11.458C9.85685 11.9834 9.59355 12.5556 9.27939 12.8697C9.24878 12.8768 9.21841 12.8843 9.18803 12.8918C9.50824 14.0689 10.4883 14.9741 11.7066 15.1844C12.1023 14.4912 12.277 13.6821 12.3514 13.0231Z" fill="#F7996B"/>
<path id="Vector_14" d="M16.4287 6.94956C16.256 6.79126 15.912 6.87151 15.7632 6.96845C15.7958 7.17137 15.7976 7.37903 15.7695 7.58401L15.5472 8.86253C15.5472 8.96561 15.535 9.06672 15.529 9.16604C15.9571 9.29514 16.2254 8.91086 16.2612 8.64714C16.2766 8.53361 16.3019 8.42166 16.3368 8.31254C16.4507 7.95695 16.8615 7.34617 16.4287 6.94956Z" fill="#FFAA7B"/>
<path id="Vector_15" d="M8.07217 6.94956C8.24491 6.79126 8.58897 6.87151 8.7377 6.96845C8.70524 7.1722 8.70312 7.37964 8.73142 7.58401L8.9537 8.86253C8.9537 8.96561 8.97737 9.06672 8.98333 9.16604C8.55527 9.29514 8.27551 8.91086 8.23966 8.64714C8.22427 8.53361 8.19897 8.42166 8.16405 8.31254C8.05019 7.95695 7.63942 7.34617 8.07217 6.94956Z" fill="#F7996B"/>
<path id="Vector_16" d="M15.6575 6.57356C15.618 6.47048 15.5682 6.36609 15.5055 6.2676C15.3992 6.10082 15.3524 5.90357 15.3667 5.70688C15.4076 5.1412 15.3857 4.03481 14.6431 3.70063C14.0121 3.41671 13.2382 3.5811 12.7446 3.74526C12.4238 3.85185 12.0771 3.85185 11.7563 3.74526C11.2628 3.58115 10.4888 3.41676 9.85787 3.70063C9.11312 4.03574 9.09315 5.14752 9.13459 5.71171C9.14928 5.90718 9.10047 6.10216 8.99542 6.26765C8.93729 6.35887 8.89028 6.45515 8.85226 6.55077C8.72082 6.88143 8.6845 7.24232 8.73287 7.59487L8.90697 8.8627C8.90697 8.8627 9.34046 11.8673 11.6282 12.9756C11.821 13.069 12.0327 13.121 12.247 13.1213H12.2552C12.4686 13.1209 12.6795 13.0696 12.8716 12.9767C15.0995 11.8991 15.5702 9.0239 15.5939 8.86973L15.594 8.86274L15.7696 7.58423C15.8163 7.24331 15.7808 6.89517 15.6575 6.57356Z" fill="#FFBB99"/>
<path id="Vector_17" d="M11.403 8.86266L11.292 7.59484C11.2612 7.24229 11.2843 6.88144 11.3681 6.55074C11.3923 6.45512 11.4223 6.35884 11.4593 6.26762C11.5265 6.1021 11.5571 5.90687 11.548 5.71168C11.5235 5.18898 11.533 4.19682 11.9118 3.78713C11.8593 3.77585 11.8073 3.76186 11.7562 3.74523C11.2627 3.58112 10.4888 3.41673 9.85783 3.7006C9.11308 4.03571 9.09312 5.14749 9.13455 5.71168C9.14924 5.90714 9.10043 6.10213 8.99538 6.26762C8.93726 6.35884 8.89024 6.45512 8.85222 6.55074C8.72074 6.8814 8.68446 7.24229 8.73283 7.59484L8.90693 8.86266C8.90693 8.86266 9.34043 11.8673 11.6281 12.9756C11.821 13.069 12.0326 13.1209 12.247 13.1213H12.2552C12.4685 13.1208 12.6794 13.0696 12.8715 12.9766C12.9266 12.9499 12.981 12.9218 13.0347 12.8924C11.6664 11.7247 11.403 8.86266 11.403 8.86266Z" fill="#FFAA7B"/>
<g id="Group_2">
<path id="Vector_18" d="M16.9891 4.44003C17.2065 4.40694 17.4458 4.23584 17.5774 4.12902C17.6247 4.09058 17.6149 4.01689 17.5602 3.99008C16.5316 3.48678 15.9137 1.85525 15.0775 1.33738C14.3619 0.894126 13.7448 1.14941 13.5505 1.25244C13.533 1.26171 13.5127 1.26432 13.4934 1.25981C13.4741 1.2553 13.4571 1.24395 13.4455 1.22788C13.1692 0.842798 12.7106 0.614282 12.4412 0.506282C12.3693 0.477454 12.3007 0.553344 12.3366 0.622016C12.4556 0.849641 12.5057 1.03503 12.5267 1.15733C12.538 1.2237 12.4687 1.27499 12.4083 1.24513C11.5063 0.799298 9.90236 1.11669 8.92319 2.31392C8.1085 3.31006 7.48075 3.45941 7.25444 3.47839C7.24241 3.47939 7.23074 3.48302 7.22026 3.48902C7.20977 3.49501 7.20073 3.50323 7.19377 3.5131C7.1868 3.52296 7.18208 3.53424 7.17994 3.54612C7.1778 3.558 7.17828 3.57021 7.18136 3.58189C7.26907 3.91311 7.60736 4.12766 7.75057 4.20542C7.79036 4.22703 7.80696 4.27752 7.78422 4.31666C7.71625 4.4337 7.57099 4.50467 7.48572 4.53791C7.46737 4.54507 7.45221 4.5586 7.44299 4.57601C7.43378 4.59343 7.43112 4.61358 7.43552 4.63278C7.51779 4.99902 7.90591 6.65952 8.31682 7.30325C8.60327 7.75203 8.75988 8.35827 8.83774 8.75548C8.8488 8.81192 8.93097 8.80686 8.935 8.74949C8.96557 8.31613 9.00991 7.60967 9.02721 6.94775C9.04844 6.13569 9.75785 5.65845 10.0811 5.48272C10.1435 5.44878 10.2168 5.50452 10.2015 5.57384L10.1573 5.77386C10.1447 5.83123 10.1941 5.8835 10.252 5.87384C12.6751 5.46842 13.5648 4.63123 13.8897 4.10942C13.9007 4.09173 13.9173 4.07821 13.9368 4.07104C13.9564 4.06387 13.9778 4.06346 13.9976 4.06986C14.035 4.08186 14.0604 4.11617 14.0623 4.15541C14.1381 5.71452 15.3435 5.9045 15.5174 6.59614C15.6601 7.16361 15.6238 8.24028 15.5963 8.74831C15.5926 8.81778 15.6878 8.84263 15.7175 8.77972C16.0955 7.98022 16.0412 6.87481 16.6418 6.14422C17.1298 5.55059 17.3569 5.16116 17.4433 4.99569C17.4671 4.95003 17.4428 4.89542 17.3938 4.87953C17.1745 4.80856 17.0261 4.67684 16.9384 4.57559C16.896 4.52652 16.9248 4.44983 16.9891 4.44003ZM17.7988 13.0751C17.6633 13.0293 17.5472 12.939 17.4694 12.8189C17.201 12.4025 16.4014 11.5074 14.7859 12.2218C14.7859 12.2218 16.5281 12.9089 15.614 15.2312C14.7 17.5535 12.2505 18.3973 12.2505 18.3973V18.702C12.2505 18.702 16.1233 18.5692 18.1623 16.2879C20.1121 14.1065 18.4378 13.292 17.7988 13.0751ZM6.70202 13.0751C6.83757 13.0293 6.95366 12.939 7.03141 12.8189C7.29991 12.4025 8.09946 11.5074 9.715 12.2218C9.715 12.2218 7.9728 12.9089 8.88686 15.2312C9.80093 17.5535 12.2504 18.3973 12.2504 18.3973V18.702C12.2504 18.702 8.37761 18.5692 6.33855 16.2879C4.38874 14.1065 6.06302 13.292 6.70202 13.0751Z" fill="#404051"/>
</g>
<path id="Vector_19" d="M6.49221 16.4517C6.52262 16.4177 6.54649 16.3783 6.56261 16.3356C6.84893 15.5686 7.51793 15.9617 7.87277 15.3281C8.24777 14.6585 8.76855 14.8922 8.76855 14.8922C8.1446 12.8415 9.71505 12.2219 9.71505 12.2219C8.0995 11.5075 7.29996 12.4026 7.03146 12.819C6.9537 12.9391 6.83762 13.0293 6.70207 13.0751C6.06307 13.292 4.38879 14.1066 6.3386 16.288C6.38858 16.3437 6.43979 16.3983 6.49221 16.4517Z" fill="#2C2C42"/>
<path id="Vector_20" d="M17.9056 20.0298V23.0128C18.1451 22.8769 18.3796 22.7325 18.6087 22.5798V20.0298C18.6087 19.9365 18.5717 19.8471 18.5057 19.7812C18.4398 19.7153 18.3504 19.6782 18.2571 19.6782C18.1639 19.6782 18.0745 19.7153 18.0085 19.7812C17.9426 19.8471 17.9056 19.9365 17.9056 20.0298ZM6.62608 20.0298C6.62608 19.8356 6.46868 19.6782 6.27452 19.6782C6.08036 19.6782 5.92296 19.8356 5.92296 20.0298V22.6009C6.15213 22.7524 6.38665 22.8957 6.62608 23.0304V20.0298Z" fill="#212135"/>
<path id="Vector_21" d="M15.7315 17.8407C16.0877 17.8407 16.3764 17.5519 16.3764 17.1957C16.3764 16.8395 16.0877 16.5508 15.7315 16.5508C15.3753 16.5508 15.0865 16.8395 15.0865 17.1957C15.0865 17.5519 15.3753 17.8407 15.7315 17.8407Z" fill="#2C2C42"/>
<path id="Vector_22" d="M8.7685 17.8407C9.1247 17.8407 9.41346 17.5519 9.41346 17.1957C9.41346 16.8395 9.1247 16.5508 8.7685 16.5508C8.41231 16.5508 8.12355 16.8395 8.12355 17.1957C8.12355 17.5519 8.41231 17.8407 8.7685 17.8407Z" fill="#2C2C42"/>
<path id="Vector_23" d="M15.7315 16.9897C15.6382 16.9897 15.5488 17.0268 15.4829 17.0927C15.4169 17.1586 15.3799 17.2481 15.3799 17.3413V22.4831C15.3799 22.6773 15.5373 22.8347 15.7315 22.8347C15.9256 22.8347 16.083 22.6773 16.083 22.4831V17.3413C16.083 17.2481 16.046 17.1586 15.98 17.0927C15.9141 17.0268 15.8247 16.9897 15.7315 16.9897Z" fill="#545460"/>
<path id="Vector_24" d="M15.7315 21.4268C15.4648 21.4268 15.2486 21.6429 15.2486 21.9096V22.6705C15.2486 22.9372 15.4648 23.1534 15.7315 23.1534C15.9981 23.1534 16.2143 22.9372 16.2143 22.6705V21.9096C16.2143 21.6429 15.9981 21.4268 15.7315 21.4268Z" fill="#EBF0F2"/>
<path id="Vector_25" d="M8.76849 16.9897C8.67525 16.9897 8.58583 17.0268 8.5199 17.0927C8.45397 17.1586 8.41693 17.2481 8.41693 17.3413V22.4831C8.41693 22.6773 8.57434 22.8347 8.76849 22.8347C8.96265 22.8347 9.12006 22.6773 9.12006 22.4831V17.3413C9.12006 17.2481 9.08302 17.1586 9.01709 17.0927C8.95116 17.0268 8.86173 16.9897 8.76849 16.9897Z" fill="#545460"/>
<path id="Vector_26" d="M8.7685 21.4268C8.50188 21.4268 8.28569 21.6429 8.28569 21.9096V22.6705C8.28569 22.9372 8.50183 23.1534 8.7685 23.1534C9.03517 23.1534 9.25132 22.9372 9.25132 22.6705V21.9096C9.25132 21.6429 9.03517 21.4268 8.7685 21.4268Z" fill="#EBF0F2"/>
<path id="Vector_27" d="M15.7315 22.4032C15.4648 22.4032 15.2486 22.1871 15.2486 21.9204V22.6704C15.2486 22.9371 15.4648 23.1532 15.7315 23.1532C15.9981 23.1532 16.2143 22.9371 16.2143 22.6704V21.9204C16.2143 22.1871 15.9981 22.4032 15.7315 22.4032ZM8.7685 22.4032C8.50188 22.4032 8.28569 22.1871 8.28569 21.9204V22.6704C8.28569 22.9371 8.50183 23.1532 8.7685 23.1532C9.03517 23.1532 9.25132 22.9371 9.25132 22.6704V21.9204C9.25132 22.1871 9.03517 22.4032 8.7685 22.4032Z" fill="#C2D4E6"/>
<path id="Vector_28" d="M11.5524 2.79451C10.3602 1.84379 12.4083 1.24524 12.4083 1.24524C11.5063 0.799414 9.90236 1.1168 8.92318 2.31404C8.1085 3.31018 7.48075 3.45952 7.25443 3.47851C7.2424 3.47951 7.23073 3.48314 7.22025 3.48914C7.20977 3.49513 7.20073 3.50335 7.19376 3.51322C7.18679 3.52308 7.18207 3.53435 7.17993 3.54624C7.17779 3.55812 7.17827 3.57033 7.18136 3.58201C7.26906 3.91323 7.60736 4.12777 7.75056 4.20554C7.79036 4.22715 7.80695 4.27763 7.78422 4.31677C7.71625 4.43382 7.57098 4.50479 7.48572 4.53802C7.46736 4.54519 7.4522 4.55872 7.44298 4.57613C7.43377 4.59355 7.43112 4.61369 7.43551 4.6329C7.51778 4.99913 7.9059 6.65963 8.31681 7.30337C8.60326 7.75215 8.75987 8.35838 8.83773 8.7556C8.84879 8.81204 8.93097 8.80698 8.935 8.7496C8.96556 8.31624 9.0099 7.60979 9.02715 6.94787C9.04839 6.1358 9.75779 5.65857 10.081 5.48284C10.1434 5.4489 10.2167 5.50463 10.2014 5.57396L10.1573 5.77398C10.1543 5.78725 10.1547 5.80103 10.1584 5.81412C10.162 5.82722 10.1688 5.83922 10.1781 5.84908C10.1875 5.85895 10.1991 5.86637 10.212 5.87071C10.2248 5.87504 10.2386 5.87616 10.252 5.87396C10.7429 5.79184 11.1699 5.69176 11.5429 5.58043C11.0265 4.28124 12.7445 3.74513 11.5524 2.79451Z" fill="#2C2C42"/>
</g>
</g>
<defs>
<clipPath id="clip0_1518_13203">
<rect width="24" height="24" fill="white" transform="translate(0.25 0.5)"/>
</clipPath>
</defs>
</svg>
