<svg width="21" height="21" viewBox="0 0 21 21" fill="none" xmlns="http://www.w3.org/2000/svg">
<g id="Frame" clip-path="url(#clip0_2275_17855)">
<g id="Group">
<path id="Vector" d="M4.625 5.70833V1.95833C4.625 1.74167 4.65 1.53333 4.70833 1.33333H2.33333C1.53333 1.33333 0.875 1.99167 0.875 2.79167V6.54167C0.875 7.34167 1.53333 8 2.33333 8H2.64167L3.70833 9.41667C3.825 9.56667 4 9.65833 4.18333 9.66667H4.20833C4.39167 9.66667 4.55833 9.59167 4.675 9.45L5.925 8.025C5.52953 7.7809 5.20269 7.44016 4.97526 7.03487C4.74783 6.62958 4.62729 6.17307 4.625 5.70833ZM19.4167 1.33333H17.0417C17.1 1.53333 17.125 1.74167 17.125 1.95833V5.70833C17.125 6.68333 16.6 7.54167 15.825 8.025L17.075 9.45C17.1917 9.59167 17.3583 9.66667 17.5417 9.66667H17.5667C17.75 9.65833 17.925 9.56667 18.0417 9.41667L19.1 8H19.4167C20.2167 8 20.875 7.34167 20.875 6.54167V2.79167C20.875 1.99167 20.2167 1.33333 19.4167 1.33333ZM10.875 8.83333H10.8517C10.7586 8.82963 10.6676 8.80528 10.5852 8.76204C10.5027 8.7188 10.4309 8.65775 10.375 8.58333L9.3125 7.16667H7.33333C6.52917 7.16667 5.875 6.5125 5.875 5.70833V1.95833C5.875 1.15417 6.52917 0.5 7.33333 0.5H14.4167C15.2208 0.5 15.875 1.15417 15.875 1.95833V5.70833C15.875 6.5125 15.2208 7.16667 14.4167 7.16667H12.6167L11.345 8.62C11.2864 8.68706 11.2142 8.7408 11.1331 8.7776C11.052 8.8144 10.964 8.8334 10.875 8.83333Z" fill="#2563EB"/>
<path id="Vector_2" d="M4.20829 14.6667C5.12877 14.6667 5.87496 13.9205 5.87496 13C5.87496 12.0795 5.12877 11.3333 4.20829 11.3333C3.28782 11.3333 2.54163 12.0795 2.54163 13C2.54163 13.9205 3.28782 14.6667 4.20829 14.6667Z" fill="#2563EB"/>
<path id="Vector_3" d="M6.43333 15.8333C6.00083 16.1589 5.64995 16.5806 5.40843 17.0651C5.1669 17.5496 5.04134 18.0836 5.04167 18.625V18.8333H1.5C1.15833 18.8333 0.875 18.55 0.875 18.2083V17.7917C0.875 16.525 1.9 15.5 3.16667 15.5H5.25C5.68333 15.5 6.09167 15.625 6.43333 15.8333Z" fill="#2563EB"/>
<path id="Vector_4" d="M17.5417 14.6667C18.4621 14.6667 19.2083 13.9205 19.2083 13C19.2083 12.0795 18.4621 11.3333 17.5417 11.3333C16.6212 11.3333 15.875 12.0795 15.875 13C15.875 13.9205 16.6212 14.6667 17.5417 14.6667Z" fill="#2563EB"/>
<path id="Vector_5" d="M20.875 17.7917V18.2083C20.875 18.55 20.5917 18.8333 20.25 18.8333H16.7083V18.625C16.7083 17.4833 16.1583 16.4667 15.3167 15.8333C15.6583 15.625 16.0667 15.5 16.5 15.5H18.5833C19.85 15.5 20.875 16.525 20.875 17.7917Z" fill="#2563EB"/>
<path id="Vector_6" d="M10.875 15.0833C12.2557 15.0833 13.375 13.9641 13.375 12.5833C13.375 11.2026 12.2557 10.0833 10.875 10.0833C9.49429 10.0833 8.375 11.2026 8.375 12.5833C8.375 13.9641 9.49429 15.0833 10.875 15.0833Z" fill="#2563EB"/>
<path id="Vector_7" d="M13.1666 16.3333H8.58329C7.97564 16.3338 7.393 16.5754 6.96333 17.005C6.53365 17.4347 6.29207 18.0174 6.29163 18.625V19.875C6.29163 20.22 6.57163 20.5 6.91663 20.5H14.8333C14.9991 20.5 15.158 20.4342 15.2752 20.317C15.3924 20.1997 15.4583 20.0408 15.4583 19.875V18.625C15.4579 18.0174 15.2163 17.4347 14.7866 17.005C14.3569 16.5754 13.7743 16.3338 13.1666 16.3333Z" fill="#2563EB"/>
</g>
</g>
<defs>
<clipPath id="clip0_2275_17855">
<rect width="20" height="20" fill="white" transform="translate(0.875 0.5)"/>
</clipPath>
</defs>
</svg>
