<svg width="25" height="25" viewBox="0 0 25 25" fill="none" xmlns="http://www.w3.org/2000/svg">
<g id="vuesax/linear/microphone">
<g id="vuesax/linear/microphone_2">
<g id="microphone">
<path id="Vector" d="M12.5 19.5C15.81 19.5 18.5 16.81 18.5 13.5V8.5C18.5 5.19 15.81 2.5 12.5 2.5C9.19 2.5 6.5 5.19 6.5 8.5V13.5C6.5 16.81 9.19 19.5 12.5 19.5Z" stroke="#272727" stroke-width="1.5" stroke-linecap="round" stroke-linejoin="round"/>
<path id="Vector_2" d="M3.5 11.5V13.5C3.5 18.47 7.53 22.5 12.5 22.5C17.47 22.5 21.5 18.47 21.5 13.5V11.5" stroke="#272727" stroke-width="1.5" stroke-linecap="round" stroke-linejoin="round"/>
<path id="Vector_3" d="M9.60999 7.97999C11.39 7.32999 13.33 7.32999 15.11 7.97999" stroke="#272727" stroke-width="1.5" stroke-linecap="round" stroke-linejoin="round"/>
<path id="Vector_4" d="M10.53 10.98C11.73 10.65 13 10.65 14.2 10.98" stroke="#272727" stroke-width="1.5" stroke-linecap="round" stroke-linejoin="round"/>
</g>
</g>
</g>
</svg>
