<svg width="81" height="81" viewBox="0 0 81 81" fill="none" xmlns="http://www.w3.org/2000/svg">
<g clip-path="url(#clip0_4006_8386)">
<path d="M26.6294 13.4461V56.0307C24.1515 53.8202 20.8862 52.4744 17.3119 52.4744C9.5854 52.4744 3.29932 58.7605 3.29932 66.4872C3.29932 74.2139 9.5854 80.5 17.3119 80.5C25.029 80.5 31.3085 74.2297 31.3244 66.5164H31.3247V32.2929L73.0054 21.7271V44.7263C70.5275 42.5159 67.2622 41.1701 63.6881 41.1701C55.9614 41.1701 49.6753 47.4562 49.6753 55.1827C49.6753 62.9094 55.9614 69.1955 63.6881 69.1955C71.4146 69.1955 77.7007 62.9093 77.7007 55.1827V0.5L26.6294 13.4461Z" fill="#B1B9C5"/>
</g>
<defs>
<clipPath id="clip0_4006_8386">
<rect width="80" height="80" fill="white" transform="translate(0.5 0.5)"/>
</clipPath>
</defs>
</svg>
