<svg width="33" height="33" viewBox="0 0 33 33" fill="none" xmlns="http://www.w3.org/2000/svg">
<g id="vuesax/linear/music-filter">
<g id="music-filter">
<path id="Vector" d="M3.16675 4.75H29.8334" stroke="white" stroke-width="1.5" stroke-miterlimit="10" stroke-linecap="round" stroke-linejoin="round"/>
<path id="Vector_2" d="M3.16675 12.75H15.1667" stroke="white" stroke-width="1.5" stroke-miterlimit="10" stroke-linecap="round" stroke-linejoin="round"/>
<path id="Vector_3" d="M3.16675 20.75H11.1667" stroke="white" stroke-width="1.5" stroke-miterlimit="10" stroke-linecap="round" stroke-linejoin="round"/>
<path id="Vector_4" d="M3.16675 28.75H8.50008" stroke="white" stroke-width="1.5" stroke-miterlimit="10" stroke-linecap="round" stroke-linejoin="round"/>
<g id="Group">
<path id="Vector_5" d="M16.2865 30.0833C17.8919 30.0833 19.1932 28.782 19.1932 27.1767C19.1932 25.5714 17.8919 24.27 16.2865 24.27C14.6812 24.27 13.3799 25.5714 13.3799 27.1767C13.3799 28.782 14.6812 30.0833 16.2865 30.0833Z" stroke="white" stroke-width="1.5" stroke-linecap="round" stroke-linejoin="round"/>
<path id="Vector_6" d="M29.8334 25.2435V13.8968C29.8334 11.4834 28.3134 11.1501 26.78 11.5634L20.98 13.1501C19.9267 13.4434 19.1934 14.2701 19.1934 15.4834V17.5101V18.8702V27.1768" stroke="white" stroke-width="1.5" stroke-linecap="round" stroke-linejoin="round"/>
<path id="Vector_7" d="M26.9264 28.1501C28.5317 28.1501 29.8331 26.8488 29.8331 25.2434C29.8331 23.6381 28.5317 22.3368 26.9264 22.3368C25.3211 22.3368 24.0198 23.6381 24.0198 25.2434C24.0198 26.8488 25.3211 28.1501 26.9264 28.1501Z" stroke="white" stroke-width="1.5" stroke-linecap="round" stroke-linejoin="round"/>
<path id="Vector_8" d="M19.1934 18.8833L29.8334 15.9767" stroke="white" stroke-width="1.5" stroke-linecap="round" stroke-linejoin="round"/>
</g>
</g>
</g>
</svg>
