<svg width="27" height="26" viewBox="0 0 27 26" fill="none" xmlns="http://www.w3.org/2000/svg">
<g id="vuesax/linear/notification">
<g id="vuesax/linear/notification_2">
<g id="notification">
<path id="Vector" d="M12.52 4.91093C9.20997 4.91093 6.51997 7.60093 6.51997 10.9109V13.8009C6.51997 14.4109 6.25997 15.3409 5.94997 15.8609L4.79997 17.7709C4.08997 18.9509 4.57997 20.2609 5.87997 20.7009C10.19 22.1409 14.84 22.1409 19.15 20.7009C20.36 20.3009 20.89 18.8709 20.23 17.7709L19.08 15.8609C18.78 15.3409 18.52 14.4109 18.52 13.8009V10.9109C18.52 7.61093 15.82 4.91093 12.52 4.91093Z" stroke="#272727" stroke-width="1.5" stroke-miterlimit="10" stroke-linecap="round"/>
<path id="Vector_2" d="M14.37 5.20063C14.06 5.11063 13.74 5.04063 13.41 5.00063C12.45 4.88063 11.53 4.95063 10.67 5.20063C10.96 4.46063 11.68 3.94063 12.52 3.94063C13.36 3.94063 14.08 4.46063 14.37 5.20063Z" stroke="#272727" stroke-width="1.5" stroke-miterlimit="10" stroke-linecap="round" stroke-linejoin="round"/>
<path id="Vector_3" d="M15.52 21.0594C15.52 22.7094 14.17 24.0594 12.52 24.0594C11.7 24.0594 10.94 23.7194 10.4 23.1794C9.86002 22.6394 9.52002 21.8794 9.52002 21.0594" stroke="#272727" stroke-width="1.5" stroke-miterlimit="10"/>
</g>
</g>
<circle id="Ellipse 18" cx="23.5" cy="3" r="3" fill="#FF3B30"/>
</g>
</svg>
