<svg width="25" height="24" viewBox="0 0 25 24" fill="none" xmlns="http://www.w3.org/2000/svg">
<path d="M12.2325 2.91095C8.92249 2.91095 6.23249 5.60095 6.23249 8.91095V11.801C6.23249 12.411 5.97249 13.3409 5.66249 13.8609L4.51249 15.771C3.80249 16.951 4.29249 18.261 5.59249 18.701C9.90249 20.141 14.5525 20.141 18.8625 18.701C20.0725 18.301 20.6025 16.871 19.9425 15.771L18.7925 13.8609C18.4925 13.3409 18.2325 12.411 18.2325 11.801V8.91095C18.2325 5.61095 15.5325 2.91095 12.2325 2.91095Z" stroke="#272727" stroke-width="1.5" stroke-miterlimit="10" stroke-linecap="round"/>
<path d="M14.0828 3.20061C13.7728 3.11061 13.4528 3.04061 13.1228 3.00061C12.1628 2.88061 11.2428 2.95061 10.3828 3.20061C10.6728 2.46061 11.3928 1.94061 12.2328 1.94061C13.0728 1.94061 13.7928 2.46061 14.0828 3.20061Z" stroke="#272727" stroke-width="1.5" stroke-miterlimit="10" stroke-linecap="round" stroke-linejoin="round"/>
<path d="M15.2324 19.0594C15.2324 20.7094 13.8824 22.0594 12.2324 22.0594C11.4124 22.0594 10.6524 21.7194 10.1124 21.1794C9.57242 20.6394 9.23242 19.8794 9.23242 19.0594" stroke="#272727" stroke-width="1.5" stroke-miterlimit="10"/>
</svg>
