<svg width="182" height="132" viewBox="0 0 182 132" fill="none" xmlns="http://www.w3.org/2000/svg">
<g id="Frame" clip-path="url(#clip0_1385_12563)">
<path id="Vector" d="M32.8858 107.092C15.203 107.092 0.868177 93.6712 0.868177 77.116L0.868178 64.9168C0.868179 48.3612 15.203 34.9404 32.8858 34.9404L149.012 34.9404C166.695 34.9404 181.03 48.3612 181.03 64.9164L181.03 77.116C181.03 93.6716 166.695 107.092 149.012 107.092L32.8858 107.092Z" fill="#EFE19A"/>
<path id="Vector_2" d="M85.8857 35.5931L85.6526 0.34195C85.6526 0.34195 51.0857 -4.04206 49.0085 27.3339L85.8857 35.5931Z" fill="#EFC27B"/>
<path id="Vector_3" d="M85.8855 35.5933L85.8855 72.1253C85.8855 72.3493 85.8767 72.5721 85.8603 72.7925C86.0538 73.3439 86.1525 73.9241 86.1523 74.5085L86.1523 95.0609C86.1523 96.4365 85.6059 97.7558 84.6332 98.7285C83.6604 99.7012 82.3412 100.248 80.9655 100.248C79.5899 100.248 78.2706 99.7012 77.2979 98.7285C76.3252 97.7558 75.7787 96.4365 75.7787 95.0609L75.7787 81.5749L75.7387 81.5757L73.1927 81.5757L73.1927 102.21C73.1927 105.539 70.8703 108.238 68.0059 108.238C65.1415 108.238 62.8191 105.539 62.8191 102.21L62.8191 81.5757L61.5623 81.5757L61.5623 98.5577C61.5623 101.887 59.3943 104.586 56.7207 104.586C54.0467 104.586 51.8791 101.887 51.8791 98.5577L51.8791 81.3337C51.3391 81.2173 50.809 81.0589 50.2935 80.8601L50.2935 90.6809C50.2935 93.2209 48.4055 95.2801 46.0767 95.2801C43.7479 95.2801 41.8599 93.2213 41.8599 90.6809L41.8599 72.4561L42.2419 41.8969C42.2419 41.8969 42.2483 37.0485 44.5227 32.6609C45.8475 28.8769 49.6663 26.1421 54.1715 26.1421L75.7387 26.1421C81.3427 26.1421 85.8855 30.3737 85.8855 35.5929L85.8855 35.5933Z" fill="#EFC27B"/>
<path id="Vector_4" opacity="0.5" d="M86.833 92.1678L75.8822 63.8294C78.0586 65.4902 81.0942 66.5554 85.3254 66.4042C85.3254 66.4042 74.6134 65.8206 74.7062 53.567L74.7062 45.3982C74.7062 45.3982 58.325 47.6326 59.2686 26.043C59.2686 26.043 50.9498 42.4806 70.4602 49.483C70.4602 49.483 69.871 56.5966 73.671 61.603L66.5878 67.1902L86.833 92.1678Z" fill="#82683F"/>
<path id="Vector_5" d="M150.908 96.4875L150.908 54.1783C150.908 53.9183 150.897 53.6603 150.878 53.4051C151.102 52.7663 151.217 52.0941 151.216 51.4171L151.216 27.6147C151.216 26.0215 150.583 24.4935 149.457 23.367C148.33 22.2404 146.802 21.6075 145.209 21.6075C143.616 21.6075 142.088 22.2404 140.961 23.367C139.835 24.4935 139.202 26.0215 139.202 27.6147L139.202 43.2335L139.156 43.2331L136.207 43.2331L136.207 19.3355C136.207 15.4795 133.518 12.3535 130.2 12.3535C126.882 12.3535 124.193 15.4791 124.193 19.3355L124.193 43.2331L122.738 43.2331L122.738 23.5651C122.738 19.7091 120.227 16.5831 117.13 16.5831C114.032 16.5831 111.523 19.7091 111.523 23.5651L111.523 43.5131C110.897 43.6477 110.283 43.8309 109.686 44.0611L109.686 32.6879C109.686 29.7459 107.5 27.3611 104.802 27.3611C102.106 27.3611 99.9187 29.7459 99.9187 32.6879L99.9187 53.7947L100.362 89.1867C100.362 89.1867 100.368 94.8023 103.003 99.8831C104.537 104.266 108.96 107.433 114.178 107.433L139.156 107.433C145.646 107.433 150.908 102.532 150.908 96.4875Z" fill="#D8A955"/>
<g id="Clip path group">
<mask id="mask0_1385_12563" style="mask-type:luminance" maskUnits="userSpaceOnUse" x="99" y="12" width="53" height="96">
<g id="a">
<path id="Vector_6" d="M150.908 96.4875L150.908 54.1783C150.908 53.9183 150.897 53.6603 150.878 53.4051C151.102 52.7663 151.217 52.0941 151.216 51.4171L151.216 27.6147C151.216 26.0215 150.583 24.4935 149.457 23.367C148.33 22.2404 146.802 21.6075 145.209 21.6075C143.616 21.6075 142.088 22.2404 140.961 23.367C139.835 24.4935 139.202 26.0215 139.202 27.6147L139.202 43.2335L139.156 43.2331L136.207 43.2331L136.207 19.3355C136.207 15.4795 133.518 12.3535 130.2 12.3535C126.882 12.3535 124.193 15.4791 124.193 19.3355L124.193 43.2331L122.738 43.2331L122.738 23.5651C122.738 19.7091 120.227 16.5831 117.13 16.5831C114.032 16.5831 111.523 19.7091 111.523 23.5651L111.523 43.5131C110.897 43.6477 110.283 43.8309 109.686 44.0611L109.686 32.6879C109.686 29.7459 107.5 27.3611 104.802 27.3611C102.106 27.3611 99.9187 29.7459 99.9187 32.6879L99.9187 53.7947L100.362 89.1867C100.362 89.1867 100.368 94.8023 103.003 99.8831C104.537 104.266 108.96 107.433 114.178 107.433L139.156 107.433C145.646 107.433 150.908 102.532 150.908 96.4875Z" fill="white"/>
</g>
</mask>
<g mask="url(#mask0_1385_12563)">
<g id="Group">
<path id="Vector_7" opacity="0.6" d="M129.352 34.4311L127.41 29.7627C127.41 29.7627 107.672 40.5775 100.361 44.1827L75.9575 95.5523L129.352 34.4311Z" fill="#82683F"/>
</g>
</g>
</g>
<path id="Vector_8" d="M148.892 63.1213L133.042 33.1685C133.042 33.1685 89.8383 46.7141 70.7647 67.6557L92.3367 100.564C92.3367 100.564 136.894 69.5793 154.694 71.4425L148.892 63.1213Z" fill="#1CA557"/>
<path id="Vector_9" d="M120.61 37.6621C120.61 37.6621 121.225 45.0837 131.922 45.5341L139.577 59.8933C139.577 59.8933 130.232 67.9517 135.749 75.8941C135.749 75.8941 150.098 70.3141 154.694 71.4425L133.042 33.1685L120.61 37.6621Z" fill="#147255"/>
<path id="Vector_10" opacity="0.5" d="M150.258 60.8036C150.258 60.8036 137.852 61.4792 137.96 75.6708L137.96 85.1316C137.96 85.1316 118.988 82.4288 120.081 107.433C120.081 107.433 110.446 88.5108 133.042 80.4012C133.042 80.4012 131.362 60.128 150.258 60.8036Z" fill="#82683F"/>
<path id="Vector_11" d="M158.459 60.7866L145.55 62.1074L150.907 84.1098C150.907 84.1098 147.088 68.2038 158.459 60.7866L158.459 60.7866Z" fill="#D8A955"/>
<path id="Vector_12" d="M81.5508 58.1582C81.5508 58.1582 86.3347 62.4574 79.8099 68.889L91.4196 90.5954C91.4196 90.5954 96.916 87.9802 102.644 93.7942L92.3371 100.564L70.7647 67.6554L81.5508 58.1582Z" fill="#147255"/>
<path id="Vector_13" d="M98.9799 65.0233C98.9799 72.0384 105.169 77.7253 112.804 77.7253C120.439 77.7253 126.628 72.0384 126.628 65.0233C126.628 58.0082 120.439 52.3213 112.804 52.3213C105.169 52.3213 98.9799 58.0082 98.9799 65.0233Z" fill="#68D878"/>
<path id="Vector_14" d="M110.846 60.8173C111.566 60.5235 112.346 60.4066 113.121 60.4761C113.898 60.5564 114.625 60.896 115.185 61.4401L113.855 62.8917C113.58 62.6205 113.238 62.4252 112.865 62.3249C112.471 62.2137 112.055 62.2081 111.658 62.3089L112.892 64.5761L113.046 64.5541C113.443 64.4763 113.845 64.4281 114.249 64.4101C114.616 64.3915 114.985 64.4196 115.345 64.4937C115.672 64.5605 115.985 64.6866 116.267 64.8657C116.547 65.0481 116.775 65.2991 116.931 65.5949C117.085 65.8752 117.173 66.1872 117.188 66.5069C117.202 66.8382 117.146 67.1687 117.025 67.4773C116.887 67.8258 116.693 68.1488 116.449 68.4333C116.163 68.7674 115.832 69.0596 115.465 69.3013L116.023 70.3273L114.758 71.0165L114.186 69.9665C113.826 70.1137 113.448 70.2104 113.061 70.2537C112.746 70.2872 112.427 70.2816 112.112 70.2369C111.849 70.2002 111.592 70.1233 111.352 70.0089C111.151 69.9118 110.962 69.7916 110.788 69.6505L112.056 68.1869C112.223 68.3166 112.413 68.4128 112.616 68.4701C112.868 68.5373 113.131 68.5471 113.387 68.4989L112.224 66.3629C111.739 66.4416 111.289 66.4957 110.875 66.5253C110.497 66.5563 110.116 66.5399 109.742 66.4765C109.422 66.4229 109.117 66.3015 108.848 66.1205C108.578 65.9281 108.358 65.6743 108.205 65.3801C108.018 65.0519 107.915 64.6828 107.905 64.3053C107.9 63.9495 107.969 63.5964 108.106 63.2681C108.253 62.9219 108.456 62.6024 108.707 62.3225C108.97 62.0237 109.265 61.7541 109.587 61.5185L109.015 60.4681L110.281 59.7793L110.846 60.8173ZM110.019 64.3773C110.067 64.4734 110.134 64.5588 110.217 64.6282C110.299 64.6977 110.394 64.7499 110.497 64.7817C110.788 64.8496 111.09 64.8637 111.386 64.8233L110.392 62.9981C110.191 63.1846 110.04 63.4185 109.952 63.6785C109.913 63.7931 109.899 63.9145 109.911 64.0348C109.923 64.1551 109.959 64.2717 110.019 64.3769L110.019 64.3773ZM115.182 66.5469C115.132 66.4532 115.062 66.3712 114.977 66.3065C114.893 66.2418 114.795 66.1959 114.692 66.1717C114.38 66.1082 114.059 66.0973 113.743 66.1393L114.692 67.8813C114.915 67.6983 115.091 67.4644 115.205 67.1993C115.251 67.0961 115.273 66.9836 115.269 66.8706C115.265 66.7576 115.235 66.647 115.182 66.5473L115.182 66.5469Z" fill="#147255"/>
<path id="Vector_15" d="M92.4062 66.4187L81.2606 65.2787L85.8858 46.2803C85.8858 46.2803 82.5886 60.0143 92.4062 66.4187Z" fill="#EFC27B"/>
<path id="Vector_16" d="M92.4062 66.419C92.4062 66.419 85.0966 68.7654 81.2606 65.279C79.2535 64.055 77.5958 62.3342 76.4477 60.2827C75.2997 58.2312 74.7 55.9183 74.7066 53.5674L83.2266 53.8594L85.3258 62.7494L92.4062 66.419Z" fill="#EFC27B"/>
<path id="Vector_17" d="M158.459 60.7867C158.459 60.7867 150.736 57.9519 145.55 62.1075C143.226 63.525 141.306 65.5179 139.976 67.8937C138.647 70.2696 137.952 72.9481 137.96 75.6707L147.828 75.3327L150.258 65.0367L158.459 60.7867Z" fill="#D8A955"/>
<path id="Vector_18" opacity="0.4" d="M86.0459 26.1425C86.0459 26.1425 70.4147 14.4209 59.2687 26.1425C59.2687 26.1425 60.4455 12.3537 85.6527 16.5857L86.0459 26.1425Z" fill="#82683F"/>
<path id="Vector_19" d="M150.854 99.5854L150.819 131.542C150.819 131.542 113.725 136.717 113.78 105.603L150.854 99.5854Z" fill="#D8A955"/>
<path id="Vector_20" d="M92.4059 116.208L92.4067 116.209L92.4539 116.293C92.8447 116.972 95.6167 121.477 100.006 120.861L102.221 120.144L92.2127 107.455L89.2611 110.62L92.4059 116.208ZM86.8331 120.919C88.2191 124.26 93.6851 122.911 93.6851 122.911L87.9091 111.058L84.1779 112.268L86.4219 121.656C86.4487 120.652 86.5711 120.288 86.8331 120.919L86.8331 120.919ZM78.1103 120.489C77.5767 123.779 83.6359 126.169 83.6359 126.169L82.0467 112.959L79.1811 113.888L78.1107 120.488L78.1103 120.489Z" fill="#EFC27B"/>
</g>
<defs>
<clipPath id="clip0_1385_12563">
<rect width="132" height="181" fill="white" transform="translate(181.5) rotate(90)"/>
</clipPath>
</defs>
</svg>
