<svg width="17" height="16" viewBox="0 0 17 16" fill="none" xmlns="http://www.w3.org/2000/svg">
<g id="vuesax/bold/people">
<g id="vuesax/bold/people_2">
<g id="people">
<path id="Vector" d="M12.1866 5.18001C12.14 5.17334 12.0933 5.17334 12.0466 5.18001C11.0133 5.14668 10.1933 4.30001 10.1933 3.26001C10.1933 2.20001 11.0533 1.33334 12.12 1.33334C13.18 1.33334 14.0466 2.19334 14.0466 3.26001C14.04 4.30001 13.22 5.14668 12.1866 5.18001Z" fill="#64748B"/>
<path id="Vector_2" d="M14.36 9.79999C13.6133 10.3 12.5666 10.4867 11.6 10.36C11.8533 9.81333 11.9866 9.20666 11.9933 8.56666C11.9933 7.89999 11.8467 7.26666 11.5667 6.71333C12.5533 6.57999 13.6 6.76666 14.3533 7.26666C15.4067 7.95999 15.4067 9.09999 14.36 9.79999Z" fill="#64748B"/>
<path id="Vector_3" d="M4.79334 5.18001C4.84 5.17334 4.88667 5.17334 4.93334 5.18001C5.96667 5.14668 6.78667 4.30001 6.78667 3.26001C6.78667 2.19334 5.92667 1.33334 4.86 1.33334C3.8 1.33334 2.94 2.19334 2.94 3.26001C2.94 4.30001 3.76 5.14668 4.79334 5.18001Z" fill="#64748B"/>
<path id="Vector_4" d="M4.86668 8.56666C4.86668 9.21333 5.00668 9.82666 5.26002 10.38C4.32002 10.48 3.34002 10.28 2.62002 9.80666C1.56668 9.10666 1.56668 7.96666 2.62002 7.26666C3.33335 6.78666 4.34002 6.59333 5.28668 6.7C5.01335 7.26 4.86668 7.89333 4.86668 8.56666Z" fill="#64748B"/>
<path id="Vector_5" d="M8.58001 10.58C8.52668 10.5733 8.46668 10.5733 8.40668 10.58C7.18001 10.54 6.20001 9.53333 6.20001 8.29333C6.20668 7.02667 7.22668 6 8.50001 6C9.76668 6 10.7933 7.02667 10.7933 8.29333C10.7867 9.53333 9.81335 10.54 8.58001 10.58Z" fill="#64748B"/>
<path id="Vector_6" d="M6.41333 11.96C5.40666 12.6333 5.40666 13.74 6.41333 14.4067C7.55999 15.1733 9.43999 15.1733 10.5867 14.4067C11.5933 13.7333 11.5933 12.6267 10.5867 11.96C9.44666 11.1933 7.56666 11.1933 6.41333 11.96Z" fill="#64748B"/>
</g>
</g>
</g>
</svg>
