<svg width="25" height="24" viewBox="0 0 25 24" fill="none" xmlns="http://www.w3.org/2000/svg">
<g id="vuesax/bold/arrow-right">
<g id="vuesax/bold/arrow-right_2">
<g id="arrow-right">
<path id="Vector" d="M21.3198 17C18.5598 21.7804 12.44 23.4202 7.65957 20.6602C2.87911 17.9002 1.23931 11.7804 3.99931 6.99996C6.75931 2.2195 12.8791 0.579708 17.6596 3.33971C22.44 6.09971 24.0798 12.2195 21.3198 17ZM14.2156 8.24488L10.1175 9.34296C9.91259 9.39786 9.75697 9.52741 9.66197 9.69195C9.56697 9.8565 9.53259 10.056 9.5875 10.2609C9.69365 10.6571 10.1093 10.8971 10.5055 10.7909L12.855 10.1614L10.26 14.6561C10.055 15.0111 10.1795 15.4756 10.5346 15.6806C10.8896 15.8856 11.3541 15.7611 11.5591 15.4061L14.1541 10.9114L14.7837 13.2609C14.8898 13.6571 15.3055 13.8971 15.7016 13.7909C16.0978 13.6848 16.3378 13.2691 16.2316 12.873L15.1336 8.77488C15.0274 8.37873 14.6117 8.13873 14.2156 8.24488Z" fill="#2563EB"/>
</g>
</g>
</g>
</svg>
