<svg width="25" height="24" viewBox="0 0 25 24" fill="none" xmlns="http://www.w3.org/2000/svg">
<g id="vuesax/bold/arrow-right">
<g id="vuesax/bold/arrow-right_2">
<g id="arrow-right">
<path id="Vector" d="M5.5886 4.92892C9.49183 1.02569 15.8275 1.02569 19.7307 4.92892C23.634 8.83215 23.634 15.1678 19.7307 19.0711C15.8275 22.9743 9.49183 22.9743 5.5886 19.0711C1.68537 15.1678 1.68537 8.83215 5.5886 4.92892ZM10.1848 15.2244L14.4274 15.2244C14.6396 15.2244 14.8234 15.1395 14.9578 15.0052C15.0921 14.8708 15.177 14.687 15.177 14.4749C15.177 14.0647 14.8376 13.7253 14.4274 13.7253L11.995 13.7253L15.6649 10.0554C15.9548 9.76553 15.9548 9.2847 15.6649 8.99478C15.375 8.70487 14.8941 8.70487 14.6042 8.99478L10.9343 12.6647L10.9343 10.2322C10.9343 9.8221 10.5949 9.48269 10.1848 9.48269C9.77467 9.48269 9.43526 9.8221 9.43526 10.2322L9.43526 14.4749C9.43526 14.885 9.77467 15.2244 10.1848 15.2244Z" fill="#0A9C71"/>
</g>
</g>
</g>
</svg>
