<svg width="201" height="200" viewBox="0 0 201 200" fill="none" xmlns="http://www.w3.org/2000/svg">
<g id="Frame">
<path id="Vector" d="M163.947 11.4607C163.893 9.50934 162.289 7.96067 160.337 7.96934C139.269 8.06134 118.2 8.15334 97.1319 8.246C95.1512 8.25467 93.5506 9.864 93.5532 11.8447L93.7086 132.901C93.7112 134.864 95.2892 136.463 97.2526 136.49C118.321 136.786 139.389 137.081 160.457 137.377C162.426 137.405 164.053 135.847 164.102 133.878C165.105 93.7293 165.089 52.9073 163.948 11.462L163.947 11.4607Z" fill="white"/>
<path id="Vector_2" d="M164.937 60.4607C165.347 49.4133 164.483 15.8667 164.343 12.226C164.206 8.65 162.101 7.58867 158.757 7.6C147.96 7.636 104.769 7.77267 102.267 7.78067C100.224 7.78734 97.4327 7.28667 95.5014 8.15067C91.9174 9.75334 93.108 16.2687 93.1134 19.3833C93.1267 27.2927 93.164 130.859 93.1907 132.46C93.286 138.117 99.5467 137.054 103.573 137.113C103.613 137.113 157.151 137.927 159.666 137.928C161.34 137.929 162.837 137.651 163.878 136.203C164.848 134.853 164.679 133.196 164.717 131.615C165.761 87.818 165.227 64.1967 165.203 60.4613C165.199 59.9187 164.355 59.9173 164.359 60.4613C164.494 81.878 164.169 106.423 163.685 127.835C163.637 129.964 164.292 134.1 162.776 135.801C161.242 137.521 157.778 136.793 155.717 136.709C153.083 136.603 150.453 136.554 147.816 136.578C137.897 136.667 134.351 136.455 101.993 136.023C99.134 135.985 94.4747 136.769 94.2267 132.775C94.1547 131.618 93.9 13.3833 94.006 11.8467C94.2234 8.7 97.06 8.69534 99.502 8.68134C139.492 8.45956 159.77 8.34734 160.337 8.34467C164.046 8.62934 163.603 12.5327 163.675 15.2907C164.445 45.0527 164.247 53.0007 164.624 60.4607C164.634 60.6613 164.929 60.6627 164.937 60.4607Z" fill="#010101"/>
<path id="Vector_3" d="M145.266 11.5687C144.827 11.8313 144.49 12.44 144.707 13.01C144.93 13.5947 145.613 13.816 146.133 13.7047C146.829 13.5553 147.351 12.7847 147.149 12.1587C146.929 11.476 145.918 11.1787 145.266 11.5687Z" fill="white"/>
<path id="Vector_4" d="M144.427 11.888C143.839 12.9847 144.599 14.11 145.812 14.1693C147.355 14.2453 148.287 12.2633 147.132 11.354C146.465 10.8287 145.527 10.832 145.041 11.1847C144.555 11.5367 144.949 12.198 145.49 11.954C145.354 12.0153 145.529 11.9393 145.574 11.9173C145.664 11.874 145.501 11.9347 145.563 11.9213C145.625 11.908 145.601 11.904 145.782 11.8607C145.885 11.836 145.675 11.866 145.781 11.8607C146.243 11.8347 146.031 11.896 146.025 11.856C146.025 11.8613 146.157 11.8827 146.174 11.8867C146.227 11.9007 146.279 11.9247 146.333 11.9373C146.395 11.952 146.231 11.886 146.319 11.932C146.471 12.0107 146.529 12.07 146.546 12.068C146.514 12.072 146.475 12.006 146.519 12.05C146.623 12.15 146.62 12.1533 146.63 12.1613C146.677 12.198 146.567 12.066 146.618 12.1447C146.635 12.1713 146.677 12.2753 146.703 12.2913C146.655 12.2613 146.672 12.1767 146.715 12.344C146.718 12.3547 146.727 12.4293 146.734 12.4333C146.7 12.4133 146.731 12.3273 146.727 12.416C146.724 12.5153 146.745 12.5053 146.669 12.734C146.635 12.836 146.717 12.6473 146.664 12.742C146.641 12.782 146.564 12.93 146.528 12.9633C146.537 12.9553 146.593 12.888 146.537 12.9487C146.357 13.1433 146.302 13.1627 146.387 13.1033C146.323 13.148 146.289 13.174 146.159 13.2393C146.082 13.278 146.168 13.2393 146.174 13.2333C146.134 13.272 145.791 13.3187 145.989 13.2893C145.983 13.2693 145.72 13.3213 145.691 13.2887L145.747 13.296C145.481 13.2553 145.402 13.1867 145.309 13.132C145.221 13.0807 145.371 13.1933 145.297 13.124C145.259 13.0887 145.223 13.052 145.186 13.0153C145.115 12.944 145.227 13.0893 145.175 13.0013C145.083 12.846 145.085 12.832 145.111 12.9007C145.083 12.8273 145.063 12.76 145.051 12.682C145.07 12.8053 145.011 12.5773 145.127 12.3013C145.091 12.3867 145.141 12.28 145.146 12.27C145.173 12.22 145.348 11.9033 145.373 11.8527C145.341 11.9173 145.395 11.8193 145.401 11.8073C145.743 11.17 144.799 11.194 144.426 11.89L144.427 11.888Z" fill="#010101"/>
<path id="Vector_5" d="M151.726 11.5687C151.287 11.8313 150.951 12.44 151.168 13.01C151.391 13.5947 152.073 13.816 152.593 13.7047C153.289 13.5553 153.811 12.7847 153.609 12.1587C153.389 11.476 152.378 11.1787 151.726 11.5687Z" fill="white"/>
<path id="Vector_6" d="M150.888 11.888C150.3 12.9847 151.06 14.11 152.273 14.1693C153.816 14.2453 154.748 12.2633 153.593 11.354C152.926 10.8287 151.988 10.832 151.502 11.1847C151.016 11.5367 151.41 12.198 151.951 11.954C151.815 12.0153 151.99 11.9393 152.035 11.9173C152.125 11.874 151.962 11.9347 152.024 11.9213C152.086 11.908 152.062 11.904 152.243 11.8607C152.346 11.836 152.136 11.866 152.242 11.8607C152.704 11.8347 152.492 11.896 152.486 11.856C152.486 11.8613 152.618 11.8827 152.635 11.8867C152.688 11.9007 152.74 11.9247 152.794 11.9373C152.856 11.952 152.692 11.886 152.78 11.932C152.932 12.0107 152.99 12.07 153.007 12.068C152.975 12.072 152.936 12.006 152.98 12.05C153.084 12.15 153.081 12.1533 153.091 12.1613C153.138 12.198 153.028 12.066 153.079 12.1447C153.096 12.1713 153.138 12.2753 153.164 12.2913C153.116 12.2613 153.133 12.1767 153.176 12.344C153.179 12.3547 153.188 12.4293 153.195 12.4333C153.161 12.4133 153.192 12.3273 153.188 12.416C153.185 12.5153 153.206 12.5053 153.13 12.734C153.096 12.836 153.178 12.6473 153.125 12.742C153.102 12.782 153.025 12.93 152.989 12.9633C152.998 12.9553 153.054 12.888 152.998 12.9487C152.818 13.1433 152.763 13.1627 152.848 13.1033C152.784 13.148 152.75 13.174 152.62 13.2393C152.543 13.278 152.629 13.2393 152.635 13.2333C152.595 13.272 152.252 13.3187 152.45 13.2893C152.444 13.2693 152.181 13.3213 152.152 13.2887L152.208 13.296C151.942 13.2553 151.863 13.1867 151.77 13.132C151.682 13.0807 151.832 13.1933 151.758 13.124C151.72 13.0887 151.684 13.052 151.647 13.0153C151.576 12.944 151.688 13.0893 151.636 13.0013C151.544 12.846 151.546 12.832 151.572 12.9007C151.544 12.8273 151.524 12.76 151.512 12.682C151.531 12.8053 151.472 12.5773 151.588 12.3013C151.552 12.3867 151.602 12.28 151.607 12.27C151.634 12.22 151.809 11.9033 151.834 11.8527C151.802 11.9173 151.856 11.8193 151.862 11.8073C152.204 11.17 151.26 11.194 150.887 11.89L150.888 11.888Z" fill="#010101"/>
<path id="Vector_7" d="M158.187 11.5687C157.748 11.8313 157.412 12.44 157.629 13.01C157.852 13.5947 158.534 13.816 159.054 13.7047C159.75 13.5553 160.272 12.7847 160.07 12.1587C159.85 11.476 158.839 11.1787 158.187 11.5687Z" fill="white"/>
<path id="Vector_8" d="M157.348 11.888C156.761 12.9847 157.52 14.11 158.733 14.1693C160.277 14.2453 161.209 12.2633 160.053 11.354C159.386 10.8287 158.449 10.832 157.962 11.1847C157.477 11.5367 157.87 12.198 158.411 11.954C158.275 12.0153 158.45 11.9393 158.495 11.9173C158.585 11.874 158.422 11.9347 158.485 11.9213C158.547 11.908 158.522 11.904 158.703 11.8607C158.807 11.836 158.597 11.866 158.703 11.8607C159.164 11.8347 158.953 11.896 158.946 11.856C158.947 11.8613 159.078 11.8827 159.095 11.8867C159.149 11.9007 159.201 11.9247 159.254 11.9373C159.316 11.952 159.152 11.886 159.24 11.932C159.392 12.0107 159.45 12.07 159.467 12.068C159.435 12.072 159.396 12.006 159.441 12.05C159.544 12.15 159.541 12.1533 159.551 12.1613C159.599 12.198 159.489 12.066 159.539 12.1447C159.556 12.1713 159.599 12.2753 159.624 12.2913C159.576 12.2613 159.593 12.1767 159.637 12.344C159.639 12.3547 159.648 12.4293 159.655 12.4333C159.621 12.4133 159.652 12.3273 159.649 12.416C159.645 12.5153 159.667 12.5053 159.59 12.734C159.556 12.836 159.639 12.6473 159.585 12.742C159.563 12.782 159.485 12.93 159.449 12.9633C159.458 12.9553 159.515 12.888 159.459 12.9487C159.278 13.1433 159.223 13.1627 159.308 13.1033C159.245 13.148 159.21 13.174 159.081 13.2393C159.003 13.278 159.089 13.2393 159.095 13.2333C159.055 13.272 158.712 13.3187 158.911 13.2893C158.904 13.2693 158.641 13.3213 158.613 13.2887L158.668 13.296C158.403 13.2553 158.323 13.1867 158.23 13.132C158.143 13.0807 158.293 13.1933 158.218 13.124C158.18 13.0887 158.144 13.052 158.107 13.0153C158.036 12.944 158.149 13.0893 158.097 13.0013C158.004 12.846 158.007 12.832 158.033 12.9007C158.005 12.8273 157.985 12.76 157.973 12.682C157.991 12.8053 157.932 12.5773 158.048 12.3013C158.012 12.3867 158.062 12.28 158.067 12.27C158.094 12.22 158.269 11.9033 158.295 11.8527C158.263 11.9173 158.316 11.8193 158.323 11.8073C158.665 11.17 157.721 11.194 157.347 11.89L157.348 11.888Z" fill="#010101"/>
<path id="Vector_9" d="M105.999 29.03C111.783 57.6187 105.247 67.488 105.465 98.7673C105.501 103.882 105.3 110.955 110.003 114.984C112.16 116.831 116.067 118.681 118.807 117.311C122.733 115.349 120.985 108.417 124.946 106.723C127.175 105.77 130.097 106.951 131.619 108.502C133.524 110.443 133.577 113.311 133.639 116.575C133.705 120.115 133.055 120.781 133.552 122.263C134.741 125.809 139.349 126.543 143.087 126.668C170.267 127.577 170.963 127.935 173.213 126.699C175.038 125.697 176.111 123.666 176.463 121.615C176.814 119.563 176.545 117.462 176.276 115.398C174.391 115.522 172.505 115.645 170.62 115.769C173.147 108.857 170.653 99.39 163.381 98.26C160.806 97.86 157.675 98.26 153.742 98.872C151.343 90.3413 156.221 61.3787 155.617 45.8133C155.466 41.9293 154.851 35.808 152.334 28.254C136.947 29.9547 121.448 30.214 106 29.0293L105.999 29.03Z" fill="white"/>
<path id="Vector_10" d="M105.809 29.0827C110.107 53.2753 106.435 68.0507 105.438 84.602C105.032 91.344 104.595 98.3467 105.268 105.085C105.814 110.548 108.127 115.472 113.519 117.553C115.604 118.359 118.181 118.615 119.971 117.019C122.595 114.677 122.027 109.917 124.123 107.862C125.759 106.259 128.376 106.85 130.121 107.931C133.419 109.973 133.269 114.508 133.141 117.928C133.069 119.858 132.514 121.632 133.537 123.409C136.135 127.92 144.713 127.211 151.047 127.423C155.955 127.587 160.864 127.765 165.772 127.939C169.002 128.053 172.725 128.517 175.097 125.834C177.639 122.958 177.273 118.926 176.825 115.399C176.79 115.119 176.602 114.828 176.275 114.849C174.389 114.969 172.505 115.111 170.619 115.251C170.786 115.47 170.953 115.689 171.12 115.908C172.719 111.327 172.403 105.749 169.582 101.693C165.867 96.3507 159.187 97.5547 153.613 98.4093C153.81 98.5213 154.007 98.6327 154.204 98.7447C153.046 94.104 153.513 88.8253 153.811 84.108C155.489 57.44 158.649 45.9927 152.803 28.1247C152.743 27.938 152.549 27.7427 152.332 27.766C136.913 29.452 121.467 29.5833 105.998 28.5893C105.429 28.5527 105.439 29.422 105.998 29.4707C120.133 30.692 135.54 30.4213 149.545 29.0347C150.597 28.9307 151.648 28.4947 152.223 29.506C153.233 31.2833 153.522 34.084 153.931 36.0773C158.349 57.5827 149.892 85.484 153.277 99.0007C153.345 99.2733 153.616 99.3747 153.868 99.336C159.258 98.504 165.815 97.2993 169.155 102.769C171.495 106.603 171.644 111.479 170.118 115.632C170.005 115.94 170.301 116.307 170.619 116.289C172.504 116.181 174.39 116.076 176.275 115.949L175.725 115.399C176.195 118.999 176.757 124.149 172.947 126.246C171.098 127.264 169.561 127.035 161.393 126.778C142.216 126.174 141.74 126.395 138.742 125.651C136.084 124.992 133.653 123.352 133.903 120.354C134.121 117.73 134.271 115.092 133.879 112.471C133.527 110.117 132.47 108.16 130.367 106.947C128.527 105.885 126.046 105.399 124.15 106.597C120.249 109.065 122.582 116.609 117.199 117.313C113.733 117.766 109.934 115.039 108.196 112.22C106.587 109.609 106.123 106.443 105.959 103.435C104.423 75.2433 112.509 57.634 106.187 28.9767C106.132 28.7267 105.764 28.8353 105.807 29.0813L105.809 29.0827Z" fill="#010101"/>
<path id="Vector_11" d="M118.139 117.801C123.202 118.546 128.29 118.941 133.388 118.991C134.154 111.233 130.684 106.741 128.414 106.156C126.888 105.76 124.846 106.575 123.745 107.702C122.119 109.365 123.182 111.017 121.982 113.686C121.317 115.167 120.124 116.585 118.139 117.801Z" fill="black"/>
<path id="Vector_12" d="M118.105 117.928C123.107 118.981 128.287 119.254 133.389 119.341C133.591 119.345 133.721 119.177 133.738 118.992C133.997 116.276 133.859 113.46 132.891 110.883C132.137 108.878 130.665 106.267 128.39 105.736C126.287 105.245 123.543 106.553 122.638 108.514C121.618 110.725 123.208 113.93 117.899 117.389C117.385 117.723 117.861 118.549 118.381 118.215C120.919 116.579 122.734 114.392 123.107 111.319C123.394 108.96 124.107 107.153 126.722 106.572C129.007 106.065 130.567 107.932 131.546 109.771C132.527 111.613 132.986 113.656 133.109 115.729C133.15 116.419 133.216 117.177 133.119 117.861C132.97 118.916 132.836 118.643 131.622 118.617C127.107 118.52 122.637 118.025 118.141 117.671C117.994 117.659 117.961 117.898 118.106 117.929L118.105 117.928ZM173.866 115.379C171.532 115.043 169.043 115.249 166.689 115.337C164.183 115.433 161.671 115.493 159.167 115.634C142.948 116.543 143.309 116.079 143.381 116.667C143.64 118.803 144.001 121.377 142.948 123.378C141.844 125.475 139.686 125.729 137.591 125.551C137.257 125.523 137.235 126.003 137.517 126.103C139.367 126.763 141.618 126.042 142.864 124.569C144.765 122.323 144.424 119.277 144.059 116.575L143.726 117.013C156.135 116.472 170.336 116.522 173.865 115.742C174.037 115.704 174.051 115.407 173.865 115.381L173.866 115.379ZM112.539 36.2893C116.56 39.2987 121.976 39.1907 123.889 37.8627C124.665 37.324 125.27 36.2327 124.763 35.314C124.007 33.9447 121.985 34.6227 122.312 34.992C126.102 39.276 133.237 39.7313 133.664 36.3833C133.819 35.1647 132.517 34.234 131.391 34.584C131.317 34.6067 131.256 34.708 131.311 34.78C132.84 36.7833 135.698 38.2673 138.261 37.746C141.335 37.1207 139.993 34.0087 138.321 34.3773C138.209 34.402 138.17 34.558 138.253 34.634C141.003 37.178 146.185 37.2973 148.878 34.5893C149.019 34.4467 148.811 34.2493 148.661 34.3727C145.82 36.722 141.303 36.8713 138.47 34.4167L138.402 34.6733C139.413 34.416 140.257 35.6067 139.735 36.51C138.751 38.2127 134.087 37.932 131.52 34.6173C131.501 34.692 131.481 34.766 131.461 34.8407C132.794 34.4153 134.216 35.9667 132.869 37.398C131.875 38.4553 130.198 38.4193 128.875 38.2187C126.435 37.8487 124.135 36.66 122.492 34.81V34.9907C123.495 34.1787 125.467 35.3427 124.388 37.0087C123.579 38.2573 121.759 38.4413 120.408 38.4873C117.643 38.582 114.86 37.7813 112.623 36.142C112.535 36.0773 112.453 36.2233 112.538 36.288L112.539 36.2893ZM113.486 43.646C117.507 46.6553 122.923 46.5473 124.837 45.2193C125.612 44.6807 126.217 43.5893 125.711 42.6707C124.955 41.3013 122.933 41.9793 123.259 42.3487C127.049 46.6327 134.185 47.088 134.611 43.74C134.767 42.5213 133.464 41.5907 132.338 41.9407C132.265 41.9633 132.203 42.0647 132.258 42.1367C133.787 44.14 136.645 45.624 139.208 45.1027C142.282 44.4773 140.941 41.3653 139.268 41.734C139.157 41.7587 139.117 41.9147 139.2 41.9907C141.951 44.5347 147.133 44.654 149.825 41.946C149.967 41.8033 149.758 41.606 149.609 41.7293C146.767 44.0787 142.25 44.228 139.417 41.7733L139.349 42.03C140.36 41.7727 141.204 42.9633 140.682 43.8667C139.698 45.5693 135.035 45.2887 132.467 41.974C132.448 42.0487 132.428 42.1227 132.409 42.1973C133.741 41.772 135.163 43.3233 133.817 44.7547C132.822 45.812 131.145 45.776 129.823 45.5753C127.383 45.2053 125.082 44.0167 123.439 42.1667V42.3473C124.442 41.5353 126.414 42.6993 125.335 44.3653C124.527 45.614 122.706 45.798 121.355 45.844C118.59 45.9387 115.807 45.138 113.571 43.4987C113.483 43.434 113.4 43.58 113.485 43.6447L113.486 43.646ZM113.486 51.002C117.507 54.0113 122.923 53.9033 124.837 52.5753C125.612 52.0367 126.217 50.9453 125.711 50.0267C124.955 48.6573 122.933 49.3353 123.259 49.7047C127.049 53.9887 134.185 54.444 134.611 51.096C134.767 49.8773 133.464 48.9467 132.338 49.2967C132.265 49.3193 132.203 49.4207 132.258 49.4927C133.787 51.496 136.645 52.98 139.208 52.4587C142.282 51.8333 140.941 48.7213 139.268 49.09C139.157 49.1147 139.117 49.2707 139.2 49.3467C141.951 51.8907 147.133 52.01 149.825 49.302C149.967 49.1593 149.758 48.962 149.609 49.0853C146.767 51.4347 142.25 51.584 139.417 49.1293L139.349 49.386C140.36 49.1287 141.204 50.3193 140.682 51.2227C139.698 52.9253 135.035 52.6447 132.467 49.33C132.448 49.4047 132.428 49.4787 132.409 49.5533C133.741 49.128 135.163 50.6793 133.817 52.1107C132.822 53.168 131.145 53.132 129.823 52.9313C127.383 52.5613 125.082 51.3727 123.439 49.5227V49.7033C124.442 48.8913 126.414 50.0553 125.335 51.7213C124.527 52.97 122.706 53.154 121.355 53.2C118.59 53.2947 115.807 52.494 113.571 50.8547C113.483 50.79 113.4 50.936 113.485 51.0007L113.486 51.002ZM113.486 59.5647C117.507 62.574 122.923 62.466 124.837 61.138C125.612 60.5993 126.217 59.508 125.711 58.5893C124.955 57.22 122.933 57.898 123.259 58.2673C127.049 62.5513 134.185 63.0067 134.611 59.6587C134.767 58.44 133.464 57.5093 132.338 57.8593C132.265 57.882 132.203 57.9833 132.258 58.0553C133.787 60.0587 136.645 61.5427 139.208 61.0213C142.282 60.396 140.941 57.284 139.268 57.6527C139.157 57.6773 139.117 57.8333 139.2 57.9093C141.951 60.4533 147.133 60.5727 149.825 57.8647C149.967 57.722 149.758 57.5247 149.609 57.648C146.767 59.9973 142.25 60.1467 139.417 57.692L139.349 57.9487C140.36 57.6913 141.204 58.882 140.682 59.7853C139.698 61.488 135.035 61.2073 132.467 57.8927C132.448 57.9673 132.428 58.0413 132.409 58.116C133.741 57.6907 135.163 59.242 133.817 60.6733C132.822 61.7307 131.145 61.6947 129.823 61.494C127.383 61.124 125.082 59.9353 123.439 58.0853V58.266C124.442 57.454 126.414 58.618 125.335 60.284C124.527 61.5327 122.706 61.7167 121.355 61.7627C118.59 61.8573 115.807 61.0567 113.571 59.4173C113.483 59.3527 113.4 59.4987 113.485 59.5633L113.486 59.5647ZM112.539 67.076C116.56 70.0853 121.976 69.9773 123.889 68.6493C124.665 68.1107 125.27 67.0193 124.763 66.1007C124.007 64.7313 121.985 65.4093 122.312 65.7787C126.102 70.0627 133.237 70.518 133.664 67.17C133.819 65.9513 132.517 65.0207 131.391 65.3707C131.317 65.3933 131.256 65.4947 131.311 65.5667C132.84 67.57 135.698 69.054 138.261 68.5327C141.335 67.9073 139.993 64.7953 138.321 65.164C138.209 65.1887 138.17 65.3447 138.253 65.4207C141.003 67.9647 146.185 68.084 148.878 65.376C149.019 65.2333 148.811 65.036 148.661 65.1593C145.82 67.5087 141.303 67.658 138.47 65.2033L138.402 65.46C139.413 65.2027 140.257 66.3933 139.735 67.2967C138.751 68.9993 134.087 68.7187 131.52 65.404C131.501 65.4787 131.481 65.5527 131.461 65.6273C132.794 65.202 134.216 66.7533 132.869 68.1847C131.875 69.242 130.198 69.206 128.875 69.0053C126.435 68.6353 124.135 67.4467 122.492 65.5967V65.7773C123.495 64.9653 125.467 66.1293 124.388 67.7953C123.579 69.044 121.759 69.228 120.408 69.274C117.643 69.3687 114.86 68.568 112.623 66.9287C112.535 66.864 112.453 67.01 112.538 67.0747L112.539 67.076ZM112.539 75.7547C116.56 78.764 121.976 78.656 123.889 77.328C124.665 76.7893 125.27 75.698 124.763 74.7793C124.007 73.41 121.985 74.088 122.312 74.4573C126.102 78.7413 133.237 79.1967 133.664 75.8487C133.819 74.63 132.517 73.6993 131.391 74.0493C131.317 74.072 131.256 74.1733 131.311 74.2453C132.84 76.2487 135.698 77.7327 138.261 77.2113C141.335 76.586 139.993 73.474 138.321 73.8427C138.209 73.8673 138.17 74.0233 138.253 74.0993C141.003 76.6433 146.185 76.7627 148.878 74.0547C149.019 73.912 148.811 73.7147 148.661 73.838C145.82 76.1873 141.303 76.3367 138.47 73.882L138.402 74.1387C139.413 73.8813 140.257 75.072 139.735 75.9753C138.751 77.678 134.087 77.3973 131.52 74.0827C131.501 74.1573 131.481 74.2313 131.461 74.306C132.794 73.8807 134.216 75.432 132.869 76.8633C131.875 77.9207 130.198 77.8847 128.875 77.684C126.435 77.314 124.135 76.1253 122.492 74.2753V74.456C123.495 73.644 125.467 74.808 124.388 76.474C123.579 77.7227 121.759 77.9067 120.408 77.9527C117.643 78.0473 114.86 77.2467 112.623 75.6073C112.535 75.5427 112.453 75.6887 112.538 75.7533L112.539 75.7547ZM111.054 83.714C115.075 86.7233 120.491 86.6153 122.405 85.2873C123.18 84.7487 123.785 83.6573 123.279 82.7387C122.523 81.3693 120.501 82.0473 120.827 82.4167C124.617 86.7007 131.753 87.156 132.179 83.808C132.335 82.5893 131.032 81.6587 129.906 82.0087C129.833 82.0313 129.771 82.1327 129.826 82.2047C131.355 84.208 134.213 85.692 136.776 85.1707C139.85 84.5453 138.509 81.4333 136.836 81.802C136.725 81.8267 136.685 81.9827 136.768 82.0587C139.519 84.6027 144.701 84.722 147.393 82.014C147.535 81.8713 147.326 81.674 147.177 81.7973C144.335 84.1467 139.818 84.296 136.985 81.8413L136.917 82.098C137.928 81.8407 138.772 83.0313 138.25 83.9347C137.266 85.6373 132.603 85.3567 130.035 82.042C130.016 82.1167 129.996 82.1907 129.977 82.2653C131.309 81.84 132.731 83.3913 131.385 84.8227C130.39 85.88 128.713 85.844 127.391 85.6433C124.951 85.2733 122.65 84.0847 121.007 82.2347V82.4153C122.01 81.6033 123.982 82.7673 122.903 84.4333C122.095 85.682 120.274 85.866 118.923 85.912C116.158 86.0067 113.375 85.206 111.139 83.5667C111.051 83.502 110.968 83.648 111.053 83.7127L111.054 83.714ZM111.054 91.8087C115.075 94.818 120.491 94.71 122.405 93.382C123.18 92.8433 123.785 91.752 123.279 90.8333C122.523 89.464 120.501 90.142 120.827 90.5113C124.617 94.7953 131.753 95.2507 132.179 91.9027C132.335 90.684 131.032 89.7533 129.906 90.1033C129.833 90.126 129.771 90.2273 129.826 90.2993C131.355 92.3027 134.213 93.7867 136.776 93.2653C139.85 92.64 138.509 89.528 136.836 89.8967C136.725 89.9213 136.685 90.0773 136.768 90.1533C139.519 92.6973 144.701 92.8167 147.393 90.1087C147.535 89.966 147.326 89.7687 147.177 89.892C144.335 92.2413 139.818 92.3907 136.985 89.936L136.917 90.1927C137.928 89.9353 138.772 91.126 138.25 92.0293C137.266 93.732 132.603 93.4513 130.035 90.1367C130.016 90.2113 129.996 90.2853 129.977 90.36C131.309 89.9347 132.731 91.486 131.385 92.9173C130.39 93.9747 128.713 93.9387 127.391 93.738C124.951 93.368 122.65 92.1793 121.007 90.3293V90.51C122.01 89.698 123.982 90.862 122.903 92.528C122.095 93.7767 120.274 93.9607 118.923 94.0067C116.158 94.1013 113.375 93.3007 111.139 91.6613C111.051 91.5967 110.968 91.7427 111.053 91.8073L111.054 91.8087ZM111.054 100.07C115.075 103.079 120.491 102.971 122.405 101.643C123.18 101.105 123.785 100.013 123.279 99.0947C122.523 97.7253 120.501 98.4033 120.827 98.7727C124.617 103.057 131.753 103.512 132.179 100.164C132.335 98.9453 131.032 98.0147 129.906 98.3647C129.833 98.3873 129.771 98.4887 129.826 98.5607C131.355 100.564 134.213 102.048 136.776 101.527C139.85 100.901 138.509 97.7893 136.836 98.158C136.725 98.1827 136.685 98.3387 136.768 98.4147C139.519 100.959 144.701 101.078 147.393 98.37C147.535 98.2273 147.326 98.03 147.177 98.1533C144.335 100.503 139.818 100.652 136.985 98.1973L136.917 98.454C137.928 98.1967 138.772 99.3873 138.25 100.291C137.266 101.993 132.603 101.713 130.035 98.398C130.016 98.4727 129.996 98.5467 129.977 98.6213C131.309 98.196 132.731 99.7473 131.385 101.179C130.39 102.236 128.713 102.2 127.391 101.999C124.951 101.629 122.65 100.441 121.007 98.5907V98.7713C122.01 97.9593 123.982 99.1233 122.903 100.789C122.095 102.038 120.274 102.222 118.923 102.268C116.158 102.363 113.375 101.562 111.139 99.9227C111.051 99.858 110.968 100.004 111.053 100.069L111.054 100.07ZM131.581 105.795C135.602 108.804 141.018 108.696 142.931 107.368C143.707 106.829 144.312 105.738 143.805 104.819C143.049 103.45 141.027 104.128 141.354 104.497C145.144 108.781 152.279 109.237 152.706 105.889C152.861 104.67 151.559 103.739 150.433 104.089C150.359 104.112 150.298 104.213 150.353 104.285C151.882 106.289 154.74 107.773 157.303 107.251C160.377 106.626 159.035 103.514 157.363 103.883C157.251 103.907 157.212 104.063 157.295 104.139C160.045 106.683 165.227 106.803 167.92 104.095C168.061 103.952 167.853 103.755 167.703 103.878C164.862 106.227 160.345 106.377 157.512 103.922L157.444 104.179C158.455 103.921 159.299 105.112 158.777 106.015C157.793 107.718 153.129 107.437 150.562 104.123C150.543 104.197 150.523 104.271 150.503 104.346C151.836 103.921 153.258 105.472 151.911 106.903C150.917 107.961 149.24 107.925 147.917 107.724C145.477 107.354 143.177 106.165 141.534 104.315V104.496C142.537 103.684 144.509 104.848 143.43 106.514C142.621 107.763 140.801 107.947 139.45 107.993C136.685 108.087 133.902 107.287 131.665 105.647C131.577 105.583 131.495 105.729 131.58 105.793L131.581 105.795Z" fill="#010101"/>
<path id="Vector_13" d="M70.5701 120.421C75.2642 151.313 77.6302 173.985 77.6082 178.225C77.6008 179.58 77.3388 181.297 77.4208 184.923C77.4895 187.951 77.7222 188.929 77.0742 189.881C75.6782 191.932 71.7942 191.513 69.6722 191.325C54.2802 189.965 50.8162 193.729 47.4435 190.414C42.3515 185.41 49.3268 174.771 45.2615 146.121C43.5642 152.031 43.0108 156.908 42.8168 160.25C42.3008 169.129 41.5562 177.993 40.9528 186.867C40.8495 188.385 40.4288 189.929 39.1468 190.748C38.3315 191.269 36.4742 191.665 28.4335 191.25C14.2195 190.515 12.0342 188.861 11.2028 186.789C10.4202 184.837 10.9302 182.747 11.2028 181.555C14.3175 167.945 10.2288 167.856 16.1588 134.367C18.7375 119.807 19.9988 117.063 22.2728 115.148C24.7062 113.099 26.4368 113.567 38.0768 113.721C52.2562 113.907 54.2782 113.273 59.5615 114.947C64.4388 116.493 68.1962 118.771 70.5701 120.42V120.421Z" fill="black"/>
<path id="Vector_14" d="M70.3169 120.421C72.2569 137.588 76.8815 167.506 77.0402 177.798C77.0915 181.139 76.7009 179.46 76.9275 187.092C76.9649 188.353 77.0435 189.489 75.8369 190.255C73.7695 191.569 70.4542 190.787 68.1729 190.623C56.7049 189.797 54.4035 191.878 50.1235 191.179C47.0409 190.677 46.0769 187.406 46.0362 184.699C45.9489 178.967 48.6535 166.402 45.7742 145.981C45.6975 145.438 44.8815 145.517 44.7515 145.981C41.8335 156.391 42.0855 166.319 40.7242 182.953C40.5575 184.991 40.9349 189.105 38.7982 190.341C37.1789 191.277 34.4695 190.932 32.7202 190.908C28.6815 190.853 15.7535 190.547 12.6282 187.989C10.4969 186.245 11.3482 183.068 11.8462 180.74C14.2235 169.637 11.7022 167.31 14.8095 145.572C16.0015 137.235 17.0562 128.477 19.6715 120.437C20.7075 117.252 22.4415 114.488 26.0335 114.117C29.7435 113.733 33.5989 114.113 37.3162 114.168C41.9215 114.236 46.5275 114.158 51.1329 114.217C58.2102 114.307 64.5215 116.752 70.3629 120.776C70.8009 121.078 71.2149 120.363 70.7795 120.063C59.1975 112.115 52.4742 113.334 42.3755 113.298C23.8195 113.231 20.9002 110.775 17.7695 123.945C15.7555 132.417 12.7609 150.508 12.2709 162.118C11.9829 168.951 12.5569 173.108 10.9755 180.499C10.4629 182.896 9.71754 185.745 11.3075 187.908C13.5669 190.98 22.8889 191.383 26.9042 191.642C30.5089 191.874 34.7875 192.553 38.3602 191.622C41.7549 190.737 41.5315 186.508 41.6889 183.735C42.0742 176.946 42.7042 170.17 43.1415 163.383C43.5182 157.545 44.1782 151.917 45.7742 146.263H44.7515C47.5829 166.611 44.8769 174.45 44.9102 184.506C44.9195 187.292 45.6369 190.301 48.2709 191.751C50.5455 193.003 53.5589 192.22 55.9809 191.974C64.7435 191.084 67.6949 192.068 72.3922 192.069C79.9382 192.071 77.9709 187.103 77.9709 183.481C77.9709 176.727 78.6182 179.121 76.9482 163.911C75.3502 149.355 73.5615 134.74 70.8155 120.353C70.7629 120.077 70.2862 120.136 70.3182 120.421H70.3169Z" fill="#010101"/>
<path id="Vector_15" d="M67.6332 63.7267C64.7226 64.1287 60.9999 87.6653 72.1046 105.903C74.9806 110.625 77.3959 114.592 81.6812 115.613C90.1332 117.625 101.732 107.194 110.611 88.8187C109.543 87.306 108.475 85.7933 107.407 84.2807C100.126 89.3447 92.8446 94.4093 85.5626 99.4733C77.7732 83.938 78.4386 75.23 70.1246 66.04C68.6999 64.4653 67.9872 63.6773 67.6332 63.7267Z" fill="white"/>
<path id="Vector_16" d="M67.609 63.636C65.5583 63.9693 64.7097 70.9033 64.517 72.9713C63.4623 84.294 65.9497 96.5247 72.5137 107.243C74.4083 110.337 76.5183 113.867 79.965 115.427C84.8717 117.646 90.091 114.935 93.957 111.927C101.392 106.14 106.943 97.4207 111.064 89.0833C111.144 88.9227 111.175 88.712 111.064 88.554C110.005 87.036 108.946 85.5187 107.887 84.0007C107.726 83.7693 107.391 83.6213 107.128 83.802C99.837 88.8147 92.3703 93.7047 85.303 99.0267C85.539 99.0887 85.7743 99.15 86.0103 99.212C80.0663 88.3487 78.2517 76.2587 72.6977 68.642C71.8277 67.4493 70.8497 66.344 69.857 65.2527C69.339 64.6833 68.573 63.5173 67.7237 63.4007C67.299 63.342 67.115 63.992 67.5443 64.0513C68.575 64.1933 69.8557 66.214 70.505 66.948C77.5543 74.9267 77.707 83.3533 85.1177 99.7333C85.2297 99.9813 85.6083 100.057 85.825 99.9187C93.273 95.148 100.454 89.8487 107.688 84.7587C107.436 84.6927 107.182 84.626 106.93 84.56C107.676 85.6053 108.61 86.67 109.236 87.7907C109.88 88.942 109.771 89.3667 109.184 90.5447C106.717 95.4993 103.641 101.291 98.7763 106.673C91.2803 114.967 82.339 119.569 75.5843 110.597C68.4477 101.119 64.9537 89.6813 64.8997 77.626C64.8863 74.5713 65.0577 71.4613 65.6577 68.4607C65.8783 67.356 66.3043 64.1907 67.6603 63.8167C67.779 63.784 67.727 63.6167 67.6103 63.636H67.609Z" fill="#010101"/>
<path id="Vector_17" d="M19.6732 67.9973C15.5466 77.264 12.3839 83.9407 9.88122 89.036C8.43922 91.9707 5.74722 97.3713 7.30722 102.611C7.99055 104.907 9.11255 105.901 9.73055 106.341C12.7446 108.488 16.7879 106.715 16.9452 106.619C19.1566 105.276 20.6319 103.013 21.8846 100.75C24.3539 96.2893 26.2619 91.518 27.5486 86.584C28.6392 82.402 28.2092 80.0533 28.1519 79.4693C27.9586 77.5093 27.6886 74.7833 25.7239 72.1787C23.7092 69.5087 21.0112 68.4227 19.6732 67.9967V67.9973Z" fill="white"/>
<path id="Vector_18" d="M19.566 67.9347C16.8647 71.9593 16.9254 73.57 9.96403 87.7973C7.43203 92.972 3.90136 100.691 8.46269 105.845C10.1074 107.703 12.6367 108.159 14.996 107.727C17.5694 107.257 19.3007 105.609 20.7847 103.499C23.0954 100.215 24.7774 96.3707 26.1774 92.622C27.4954 89.0927 28.788 85.2847 28.8047 81.4747C28.8314 75.1913 26.0474 69.5473 19.8174 67.48C19.1594 67.2613 18.876 68.3007 19.5314 68.5167C33.5014 73.122 26.37 91.4787 21.6254 100.178C20.3254 102.561 18.6454 105.627 15.8887 106.491C13.1847 107.339 10.1174 106.895 8.56803 104.323C5.09403 98.5547 9.16469 91.6387 11.7014 86.3727C12.9767 83.7253 14.232 81.0687 15.4607 78.3993C16.996 75.0647 18.8934 71.5987 19.7947 68.032C19.83 67.8913 19.6447 67.8193 19.566 67.936V67.9347Z" fill="#010101"/>
<path id="Vector_19" d="M48.9512 58.2753C41.1586 55.5087 37.6686 49.02 30.8959 50.38C30.1446 50.5307 28.3286 50.8953 26.5579 52.2487C22.6832 55.21 24.2179 58.9407 20.3519 62.9593C17.8819 65.5273 15.8052 65.5113 15.3466 67.764C14.9159 69.8813 16.5566 70.8413 15.9806 72.8693C15.2372 75.488 12.1452 75.512 11.8432 77.4073C11.5352 79.3393 15.1359 81.4387 17.4406 82.782C20.3092 84.4547 22.9186 85.31 24.6526 85.7667C19.5399 110.509 20.0979 108.743 19.1099 110.515C18.1486 112.237 17.1392 112.875 16.9639 114.624C16.8219 116.039 17.3466 116.507 17.0832 117.861C16.6706 119.983 14.9966 120.429 14.9372 121.597C14.8466 123.378 18.5392 125.175 21.4946 126.107C31.8032 129.359 55.6592 129.201 64.0579 129.068C64.0579 129.068 74.6046 128.184 74.9072 125.333C74.9412 125.014 74.8359 124.101 74.2232 123.437C73.4719 122.623 72.6592 122.958 72.2346 122.404C71.4566 121.389 73.6472 119.569 73.8359 116.798C73.9499 115.128 73.2379 114.553 72.0566 111.504C71.5446 110.183 70.5972 106.97 70.1659 104.719C69.6906 102.238 69.6092 97.396 70.5699 91.31C74.1632 91.3593 76.7012 90.4087 78.1272 89.7213C79.3226 89.1453 81.8226 87.934 81.8226 86.3587C81.8226 85.466 81.0092 85.3353 80.5112 83.868C80.0072 82.3833 80.3112 81.2733 80.3919 80.1327C80.5692 77.642 79.3966 75.8633 78.3652 73.8073C74.5266 66.154 76.2072 61.758 72.8806 58.666C67.5446 53.706 60.3332 62.3173 48.9512 58.2753Z" fill="white"/>
<path id="Vector_20" d="M49.0273 58.146C44.4133 56.0073 40.708 51.9953 35.9373 50.266C31.782 48.76 26.3826 50.3 24.0853 54.208C22.454 56.9827 22.2926 60.1193 19.962 62.5693C18.4873 64.12 15.7013 65.0167 14.948 67.1707C14.0753 69.6653 16.8053 72.0333 14.534 74.1847C13.4253 75.2347 11.3626 75.7627 11.3153 77.5893C11.2573 79.8113 14.1853 81.4147 15.784 82.3947C18.5293 84.078 21.4086 85.406 24.5213 86.2467C24.4053 86.0427 24.29 85.8393 24.174 85.6353C22.9506 91.5467 21.696 97.452 20.5106 103.371C19.9986 105.929 19.7426 108.615 18.3146 110.861C17.6193 111.955 16.774 112.878 16.5293 114.187C16.2746 115.551 16.9146 116.939 16.454 118.267C15.9273 119.787 13.8326 120.698 14.634 122.521C18.0253 130.233 54.3173 129.719 62.8633 129.613C65.6693 129.579 68.5593 129.136 71.25 128.352C72.5206 127.982 74.172 127.498 75.0086 126.384C75.8453 125.27 75.304 123.465 74.15 122.691C73.6513 122.356 73.1446 122.425 72.8733 121.866C72.554 121.209 73.1626 120.523 73.4566 119.904C73.9726 118.816 74.41 117.655 74.3933 116.432C74.3646 114.262 72.838 112.201 72.1773 110.177C70.134 103.919 70.1253 97.944 71.1153 91.4613L70.57 91.8767C73.1073 91.864 75.5806 91.4667 77.9146 90.444C79.4133 89.7873 81.494 88.8767 82.1853 87.2687C82.83 85.77 81.6913 84.89 81.486 84.5587C80.8606 83.548 80.766 82.428 80.8526 81.28C81.074 78.35 80.318 76.3793 79.01 73.7927C75.7153 67.2773 76.384 62.7533 74.498 59.7127C72.6546 56.7407 69.5186 56.1427 66.2933 56.754C61.7073 57.6227 56.5786 60.2113 49.114 57.69C48.3693 57.4387 48.0493 58.616 48.79 58.8653C58.3593 62.0833 66.2106 56.5053 70.5486 57.9393C75.2213 59.4847 74.354 65.4307 76.6306 71.322C77.8486 74.4733 80.0186 77.182 79.76 80.7047C79.6573 82.0993 79.572 83.426 80.244 84.714C80.6666 85.5247 82.6113 86.4667 79.328 88.4527C76.6666 90.0627 73.6593 90.7273 70.57 90.7473C70.346 90.7487 70.0613 90.92 70.0246 91.1627C68.8546 98.89 68.7286 104.262 71.512 111.615C72.338 113.796 73.7493 115.631 73.0433 118.047C72.6993 119.224 71.0573 121.123 71.6453 122.45C71.966 123.173 72.564 123.094 73.1786 123.405C74.6033 124.125 74.666 125.53 73.4453 126.326C70.9786 127.935 67.1033 128.333 64.22 128.529C56.2113 129.075 47.9306 128.63 39.9306 128.17C33.9773 127.827 24.8986 127.162 19.4113 124.791C18.2013 124.269 15.758 123.293 15.622 121.809C15.5293 120.797 16.59 120.195 17.074 119.328C18.3866 116.975 16.8666 115.295 17.9026 113.267C18.2486 112.591 18.778 112.012 19.1846 111.372C20.5666 109.195 20.8746 106.685 21.366 104.203C25.088 85.4093 25.566 85.5033 24.786 85.2907C21.576 84.4167 18.6086 82.9973 15.81 81.2073C14.6813 80.4853 11.6753 78.788 12.53 77.042C12.964 76.1553 14.396 75.714 15.1273 75.0767C17.014 73.432 16.5953 71.7033 16.0113 69.582C15.0406 66.054 18.61 66.0847 21.486 62.4973C23.3593 60.1607 23.5706 57.2733 25.0453 54.7713C26.7973 51.798 30.774 50.2547 34.132 50.846C38.9086 51.6867 42.1053 56.4787 48.9126 58.4233C49.0713 58.4687 49.186 58.222 49.028 58.1493L49.0273 58.146Z" fill="#010101"/>
<path id="Vector_21" d="M57.7219 27.586C59.8873 27.9647 61.1586 29.418 61.6746 30.026C62.8506 31.412 63.5846 33.2527 63.7633 37.6387C63.9679 42.664 64.2866 50.496 60.4326 52.3313C59.0379 52.9953 58.0646 52.1973 57.1506 53.1227C56.0246 54.2627 56.3093 56.5733 56.7453 60.1147C57.0093 62.2567 57.2386 62.712 56.8546 63.4053C55.5506 65.762 49.4713 65.7727 47.3946 62.63C46.0999 60.67 47.0453 58.4353 48.0206 53.96C49.0339 49.312 49.7833 45.6433 50.2039 43.5567C46.5633 43.4267 45.5753 40.468 46.4986 39.354C47.1193 38.6047 48.7086 38.5533 50.2713 39.5753C50.1246 36.9153 50.4926 34.8033 50.8359 33.4207C51.3993 31.1507 51.7606 29.6767 53.1539 28.606C55.0366 27.1587 57.3286 27.5187 57.7213 27.5867L57.7219 27.586Z" fill="white"/>
<path id="Vector_22" d="M57.6575 27.8213C62.7681 29.2567 63.1461 34.3587 63.3035 38.8273C63.4248 42.2767 64.2241 50.2587 60.1188 51.8747C58.5088 52.5087 56.9581 51.7967 56.1655 53.7587C55.0395 56.546 56.8001 61.372 56.5388 62.7207C55.9935 65.536 47.8381 65.3173 47.3161 60.8147C47.1075 59.0133 47.5688 59.268 50.7155 43.6973C50.7881 43.3393 50.5628 43.058 50.2048 43.0273C49.0468 42.9273 47.5775 42.5853 46.9995 41.426C46.5195 40.612 46.8641 39.914 48.0328 39.3327C48.7508 39.388 49.4075 39.6227 50.0028 40.0353C50.3428 40.2293 50.8215 39.9867 50.8055 39.5747C50.7035 36.9167 51.0088 34.26 51.8341 31.7227C52.7241 28.9867 54.9201 27.784 57.7221 28.046C58.2388 28.094 58.3448 27.258 57.8441 27.1433C50.7488 25.5267 49.5428 34.5933 49.7388 39.5747C50.0061 39.4213 50.2741 39.2673 50.5415 39.114C48.9428 38.2033 45.8241 37.584 45.6601 40.2733C45.5075 42.7693 48.1461 43.9087 50.2055 44.0853C50.0355 43.862 49.8655 43.6387 49.6948 43.4153C49.0721 46.5087 48.4275 49.5973 47.7621 52.6813C47.2041 55.268 45.9401 58.336 46.2841 61.03C46.8228 65.2493 53.1308 66.9153 56.3408 64.6813C58.2135 63.378 57.4061 61.2887 57.1721 59.3747C56.9981 57.9533 56.5121 55.9313 56.9988 54.5247C57.5981 52.7913 59.3495 53.4047 60.6928 52.774C64.9868 50.7593 64.4581 43.3933 64.3435 39.574C64.1961 34.6727 63.6921 28.4273 57.7875 27.3507C57.4835 27.2953 57.3508 27.7347 57.6581 27.8207L57.6575 27.8213Z" fill="#010101"/>
<path id="Vector_23" d="M49.686 38.9747C50.3673 39.33 50.4293 40.7113 52.1207 39.784C54.0427 38.73 55.298 34.7 55.7293 32.5593C56.1833 30.3053 57.354 31.4647 57.8807 31.686C58.7347 32.0447 59.8353 31.2733 59.7887 30.348C60.2147 30.28 60.602 30.6433 60.7633 31.0433C61.0333 31.7127 60.91 33.0393 61.8413 33.2387C62.136 33.302 62.4453 33.186 62.7413 33.24C63.158 33.316 63.452 33.718 63.5413 34.132C63.73 35.0067 63.1927 36.044 63.5507 37.1773C63.7313 37.7487 64.194 38.268 64.788 38.3467C65.5607 38.4487 66.2173 37.8213 66.7427 37.246C67.22 36.7227 67.704 36.1893 68.008 35.55C68.884 33.7073 67.5627 32.994 67.362 32.1853C67.188 31.484 67.646 30.8033 67.8933 30.1247C68.4827 28.5093 67.7387 26.518 66.234 25.6853C65.704 25.392 65.1107 25.2353 64.524 25.082C60.4093 24.004 59.254 23.564 57.994 23.9607C57.3473 24.1647 56.7933 24.598 56.15 24.8127C54.2253 25.4533 51.9533 24.022 50.16 24.9687C48.8533 25.6587 48.2793 27.4133 46.872 27.8627C46.0367 28.13 44.9674 27.9153 44.4027 28.5867C43.872 29.218 44.0593 29.674 44.75 35.6133C44.812 36.1487 45.092 36.9133 45.52 37.8333C45.9287 38.7133 46.1327 39.1527 46.4993 39.3547C47.5147 39.9133 48.6473 38.4347 49.686 38.976V38.9747Z" fill="black"/>
<path id="Vector_24" d="M49.6249 39.08C50.1682 39.4973 50.1949 40.228 50.9835 40.3427C51.6055 40.4333 52.2482 40.0727 52.7242 39.7093C54.4862 38.366 55.5242 34.7887 55.9915 32.6313C56.0635 32.3007 56.1342 31.8773 56.3829 31.626C56.7575 31.2467 57.1842 31.62 57.5455 31.816C58.6409 32.4107 60.0469 31.614 60.0515 30.3473C59.9642 30.4347 59.8762 30.5227 59.7889 30.61C60.9762 30.5487 60.3242 32.5453 61.3656 33.3127C61.9542 33.7467 62.4242 33.3467 62.8589 33.5773C63.5835 33.962 63.2309 35.1313 63.1682 35.7533C62.9115 38.296 64.7702 39.698 66.7455 37.6953C67.5035 36.9267 68.3302 36.0253 68.5509 34.9327C68.9142 33.1347 67.6555 32.842 67.6395 31.862C67.6235 30.892 68.5262 30.3273 68.3869 28.6633C68.3102 27.7507 67.9435 26.8753 67.3302 26.194C66.5615 25.34 65.4855 25.0353 64.4069 24.762C63.4869 24.5287 63.7182 24.8073 62.3502 24.3647C61.2422 24.006 59.6782 23.4953 58.5269 23.5893C57.1809 23.6993 56.6389 24.6673 55.1395 24.7113C53.5915 24.7567 51.8702 24.0087 50.3589 24.598C48.9889 25.1327 48.3895 26.6873 47.3249 27.3793C46.2482 28.0793 44.1809 27.4173 43.8715 29.216C43.7722 29.794 43.8295 29.9147 44.2602 33.6493C44.4075 34.9253 44.4995 36.114 44.9995 37.3067C45.3282 38.0913 45.7076 39.4393 46.6489 39.7027C47.6576 39.9847 48.6069 38.782 49.5502 39.2087C49.8669 39.352 50.1435 38.8827 49.8249 38.7393C48.5589 38.1687 47.3802 39.6487 46.5655 39.0773C46.2395 38.8487 46.0689 38.368 45.9062 38.0253C45.4009 36.962 45.0622 35.9933 44.9255 34.8267C44.3202 29.6553 44.3122 29.9607 44.3469 29.4733C44.4682 27.79 46.4736 28.6787 47.8195 27.6073C49.2409 26.476 49.5196 24.6547 52.2822 24.9307C53.7015 25.0727 55.0789 25.5713 56.5382 24.9453C57.0569 24.7227 57.5262 24.3847 58.0662 24.214C59.3795 23.798 60.6929 24.3293 61.9822 24.5793C63.3316 24.8413 62.8662 24.7773 63.8109 25.166C64.6875 25.526 66.8562 25.554 67.6089 27.818C68.2589 29.774 66.9602 30.7213 67.0142 31.9433C67.0375 32.4647 67.3235 32.8487 67.6009 33.2673C68.3202 34.3553 67.8202 35.4913 67.0662 36.4107C66.4129 37.2067 65.0142 38.902 64.0535 37.528C63.2529 36.3833 64.2295 34.984 63.7282 33.786C63.5642 33.394 63.2435 33.0613 62.8175 32.97C62.5489 32.9127 62.2862 33.01 62.0209 32.9807C60.7502 32.842 61.6102 29.9927 59.7902 30.086C59.6475 30.0933 59.5282 30.2007 59.5275 30.3487C59.5229 31.0547 58.7769 31.6827 58.0709 31.4713C57.5195 31.306 57.1242 30.778 56.4915 30.9447C55.9995 31.0747 55.7415 31.5553 55.5929 32.0027C55.3509 32.7327 54.7589 36.3767 53.0802 38.5833C52.6609 39.134 51.9495 39.798 51.2129 39.83C50.5382 39.8593 50.3062 39.1227 49.7495 38.87C49.6049 38.804 49.5029 38.9853 49.6262 39.0807L49.6249 39.08ZM31.2576 64.8087C27.8056 70.228 24.3056 82.8013 24.6416 86.566C24.6669 86.8527 25.0469 86.9153 25.1449 86.634C25.4676 85.7067 25.5955 84.7507 25.7569 83.7847C27.3189 74.448 30.4435 68.122 31.6342 64.9673C31.7195 64.7407 31.3776 64.6193 31.2576 64.8087ZM69.5649 75.3507C69.1649 75.812 69.1775 76.5833 69.1029 77.1653C68.2802 83.5967 69.5476 91.51 70.5569 92.478C70.6729 92.5893 70.8669 92.5393 70.9122 92.384C71.2662 91.1713 69.1675 86.7607 69.8529 77.3533C69.8975 76.7413 70.1142 75.9613 69.8495 75.3873C69.8022 75.2853 69.6369 75.268 69.5649 75.3507Z" fill="#010101"/>
<path id="Vector_25" d="M104.393 86.5347C104.392 85.1567 104.879 84.8667 105.858 82.2113C107.068 78.9267 107.134 77.17 107.868 77.1187C108.382 77.0827 108.891 77.9047 109.1 78.476C109.692 80.0973 108.526 81.524 108.958 81.8593C109.365 82.1747 110.76 81.1967 111.767 80.216C113.6 78.4307 113.503 77.2367 114.491 77.0387C116.387 76.6587 119.855 80.64 118.958 84.8353C117.696 90.7293 108.772 93.1193 105.816 90.3347C104.398 88.9987 104.394 86.994 104.394 86.536L104.393 86.5347Z" fill="white"/>
<path id="Vector_26" d="M104.091 87.1293C104.117 87.1293 104.117 87.0893 104.091 87.0893C104.065 87.0893 104.065 87.1293 104.091 87.1293Z" fill="#010101"/>
<path id="Vector_27" d="M104.166 87.1727C104.519 86.6907 104.408 86.852 107.082 79.1907C107.2 78.8527 107.447 77.5687 107.988 77.7587C108.651 77.9907 109.373 80.4153 107.755 82.42C107.459 82.7873 107.949 83.31 108.285 82.95C109.224 81.9487 109.654 80.494 109.477 79.14C109.213 77.1233 107.975 76.5973 107.221 77.188C106.739 77.5653 106.768 77.786 105.421 81.7413C104.943 83.1433 103.768 86.384 103.747 87.0587C103.74 87.3007 104.045 87.3387 104.167 87.172L104.166 87.1727Z" fill="#010101"/>
<path id="Vector_28" d="M108.395 82.4773C111.884 82.068 114.819 77.7107 114.507 76.86C114.429 76.6467 114.225 76.566 114.02 76.662C113.702 76.8113 113.597 77.226 113.447 77.516C112.589 79.1773 111.026 80.7867 109.21 81.696C108.9 81.8513 108.624 82.0493 108.325 82.2213C108.215 82.2847 108.254 82.494 108.394 82.4773H108.395ZM108.936 91.5953C112.122 92.264 116.906 89.8633 118.868 85.2967C119.08 84.8053 119.374 84.2567 119.197 83.716C119.15 83.5733 118.994 83.5427 118.884 83.6333C118.335 84.084 118.516 84.6327 117.452 86.294C115.675 89.0667 112.996 90.5933 109.814 91.136C109.494 91.1907 109.242 91.31 108.936 91.39C108.838 91.416 108.832 91.5727 108.936 91.5947V91.5953Z" fill="#010101"/>
<path id="Vector_29" d="M113.933 86.9553C115.083 86.7467 116.395 85.5247 117.142 84.6347C118.164 83.4167 119.022 81.6067 119.024 81.062C119.026 80.7227 118.597 80.646 118.422 80.8987C118.228 81.1767 117.722 83.4987 115.272 85.5487C114.792 85.9507 114.258 86.3153 113.824 86.7667C113.742 86.852 113.826 86.974 113.933 86.9547V86.9553ZM112.903 85.1773C115.324 84.3867 117.865 80.284 117.81 78.9267C117.8 78.66 117.432 78.4473 117.234 78.688C116.683 79.3567 116.63 80.2967 115.328 82.0393C114.243 83.492 113.511 83.9487 112.732 84.8853C112.63 85.0087 112.722 85.2367 112.902 85.178L112.903 85.1773ZM112.556 83.4047C113.916 82.5953 115.22 80.342 115.895 78.9107C116.426 77.7833 116.52 77.5007 116.387 77.1407C116.349 77.038 116.24 76.9833 116.139 77.04C115.866 77.1927 115.764 77.394 115.649 77.674C114.485 80.5253 112.864 82.2333 112.376 83.2253C112.32 83.338 112.436 83.476 112.555 83.4047H112.556ZM82.195 110.645C82.739 110.006 82.0416 106.852 84.473 102.414C85.347 100.818 85.783 100.558 86.0976 99.9067C86.2743 99.5413 85.8696 98.9647 85.4663 99.2753C83.829 100.533 81.5276 105.475 81.5843 109.303C81.591 109.741 81.5196 110.307 81.8416 110.645C81.9296 110.737 82.109 110.746 82.195 110.645ZM45.7203 101.007C46.225 102.404 47.0136 103.443 48.0436 104.246C48.3896 104.516 48.8103 104.876 49.2496 104.961C49.5276 105.014 49.773 104.68 49.5416 104.459C49.2556 104.186 47.241 103.328 46.143 100.829C46.0383 100.591 45.6316 100.761 45.7203 101.007ZM40.8103 103.307C41.715 107.187 44.577 110.559 48.019 112.566C49.1436 113.222 50.4403 113.893 51.7663 113.92C52.055 113.926 52.153 113.527 51.9116 113.384C50.1203 112.323 44.4856 111.023 41.1956 103.201C41.0983 102.97 40.7496 103.048 40.8096 103.307L40.8103 103.307Z" fill="#010101"/>
<path id="Vector_30" d="M47.8 53.2087C47.2387 53.0207 46.366 54.9287 44.9974 54.7433C44.4627 54.6707 44.232 54.328 43.8607 54.4507C43.1667 54.6793 43.1447 56.1373 43.018 56.714C42.1634 60.6153 42.194 64.708 43.1074 68.596C43.5587 67.7107 44.4014 66.4067 45.8667 65.8313C48.1614 64.93 50.5554 66.3767 50.9027 65.7613C51.184 65.2627 49.5647 64.4027 48.5567 62.6853C46.304 58.848 48.7387 53.5233 47.8 53.2093V53.2087Z" fill="white"/>
<path id="Vector_31" d="M47.9229 52.998C47.1949 52.6453 46.5382 53.7333 46.0322 54.086C44.7856 54.9547 44.1782 53.414 43.2889 54.424C42.9629 54.794 42.8589 55.332 42.7816 55.8033C42.5522 57.194 41.9736 59.456 42.0269 62.8493C42.0576 64.8167 42.3069 66.7767 42.7522 68.6927C42.8222 68.994 43.2809 69.06 43.4249 68.7807C45.6342 64.4973 48.8942 66.25 50.4569 66.2787C50.9209 66.2873 51.3929 66.014 51.2782 65.4833C51.1562 64.9193 50.4956 64.458 50.1176 64.0713C49.3876 63.3253 48.7602 62.4987 48.4009 61.5093C46.9602 57.5433 49.3449 53.4553 47.8956 52.8587C47.4642 52.6813 47.2769 53.382 47.7029 53.558C47.5589 53.4987 47.6456 53.532 47.6609 53.7127C47.7556 54.8107 46.6249 58.3147 47.6076 61.4247C48.4256 64.0127 50.2502 64.9147 50.5656 65.6267C50.5509 65.5933 50.6576 65.5513 50.5822 65.552C49.3482 65.5707 45.2802 63.6053 42.7882 68.4093L43.4609 68.4973C42.7849 65.5593 42.5849 62.4907 42.9562 59.338C43.0642 58.4207 43.2722 57.526 43.4156 56.6153C43.4962 56.1007 43.4836 55.4313 43.7809 54.9827C44.1069 54.4907 44.4109 55.2327 45.4222 55.0887C46.6096 54.92 47.5409 53.452 47.7989 53.452C48.0289 53.452 48.1462 53.1067 47.9222 52.998H47.9229Z" fill="#010101"/>
<path id="Vector_32" d="M57.3072 55.0473C57.8985 55.018 58.2232 57.0907 59.5912 57.2827C60.1258 57.3573 60.4405 57.0893 60.7652 57.308C61.3718 57.716 60.9992 59.1253 60.9645 59.7147C60.7338 63.702 59.5978 67.634 57.6678 71.13C57.4718 70.156 57.0132 68.6727 55.7585 67.7227C53.7932 66.2347 51.0972 66.9807 50.9292 66.294C50.7932 65.738 52.5845 65.3473 54.0192 63.9667C57.2252 60.8813 56.3198 55.0967 57.3078 55.0473H57.3072Z" fill="white"/>
<path id="Vector_33" d="M57.2427 55.2827C57.416 55.3307 57.6307 55.856 57.7153 56.004C57.9213 56.362 58.1353 56.7233 58.4227 57.0233C59.2433 57.8813 59.99 57.5927 60.3627 57.59C60.9787 57.586 60.6907 58.8093 60.6087 59.5053C60.5033 60.3953 60.478 62.7 59.4127 66.1067C58.8873 67.7853 58.1933 69.402 57.3507 70.9447L58.0233 71.0327C57.6573 69.2707 56.736 67.63 55.026 66.882C53.6773 66.292 52.244 66.3553 51.5947 66.252C51.5147 66.2393 51.372 66.1707 51.2933 66.182C51.8387 66.1027 50.9173 66.1967 51.2633 66.1753C51.2913 66.2053 51.294 66.2427 51.2707 66.286C51.282 66.258 51.3007 66.236 51.3267 66.218C51.5567 66.1447 51.8507 65.874 52.068 65.7527C53.3213 65.0513 54.3507 64.3967 55.2487 63.0447C56.6853 60.8807 56.848 58.2413 57.1407 56.3487C57.3227 55.1747 57.4993 55.3887 57.3073 55.41C57.766 55.36 57.7713 54.634 57.3073 54.6847C55.846 54.8447 56.822 58.3287 55.1287 61.79C53.818 64.4707 52.1687 64.594 50.9267 65.6093C50.5407 65.9253 50.3947 66.4727 50.8807 66.7813C52.0027 67.4947 56.2493 66.0507 57.312 71.2267C57.376 71.538 57.8373 71.5827 57.9847 71.3147C59.61 68.3553 60.6893 65.1187 61.1433 61.772C61.246 61.0173 61.28 60.26 61.3613 59.504C61.43 58.864 61.8007 57.104 60.6427 56.876C60.346 56.8173 60.0573 56.9467 59.7607 56.9387C58.3813 56.9007 58.3113 54.6147 57.242 54.8113C56.9973 54.8567 57.0227 55.2207 57.242 55.2813L57.2427 55.2827Z" fill="#010101"/>
<path id="Vector_34" d="M56.3894 96.944L41.5794 91.8253C40.8628 91.578 40.5034 90.7773 40.7948 90.0773L52.1081 62.862C52.3748 62.22 53.0954 61.8967 53.7521 62.1233L68.4828 67.2147C69.1981 67.462 69.5574 68.26 69.2694 68.9593L58.0354 96.202C57.7701 96.846 57.0481 97.1713 56.3894 96.944Z" fill="#2563EB"/>
<path id="Vector_35" d="M55.0599 62.3527C53.0146 63.704 52.3859 66.1313 51.5006 68.2973C50.1479 71.6047 44.7612 84.84 43.4192 88.15C42.9492 89.31 41.5386 91.786 43.4639 92.3513C43.5486 92.376 43.6306 92.2547 43.5552 92.1947C42.1426 91.0653 43.6392 88.66 44.1086 87.522C44.6132 86.298 50.5506 71.8513 51.5019 69.524C52.4712 67.154 53.2512 64.2633 55.0979 62.4013C55.1226 62.3767 55.0906 62.332 55.0599 62.352V62.3527ZM49.9519 69.3527C49.6326 69.916 49.3166 70.462 49.0772 71.0647C48.8759 71.572 48.4866 72.154 48.6172 72.704C48.6412 72.8053 48.7799 72.87 48.8699 72.8067C49.3039 72.4993 49.3772 71.9387 49.5519 71.4533C49.7946 70.7807 49.9466 70.112 50.0946 69.4127C50.1126 69.3287 49.9972 69.272 49.9519 69.3527ZM47.9586 73.6833C47.0486 75.554 46.8112 75.8553 47.0286 76.3473C47.0726 76.4467 47.2019 76.452 47.2852 76.4147C47.7272 76.2153 47.7446 75.894 48.3299 73.84C48.3912 73.624 48.0612 73.472 47.9586 73.6833Z" fill="#010101"/>
<path id="Vector_36" d="M64.859 69.4673L63.7163 72.2627C63.4123 73.0067 63.8023 73.8527 64.5663 74.104C65.415 74.3833 66.1196 73.9393 66.3623 73.3033L67.4376 70.486C67.7216 69.7427 67.3223 68.9133 66.565 68.6707C65.8756 68.45 65.133 68.7967 64.859 69.4667V69.4673Z" fill="white"/>
<path id="Vector_37" d="M64.8456 69.4593C64.2836 70.382 63.3536 71.6947 63.3516 72.8287C63.3489 74.6087 65.7756 75.054 66.6129 73.6073C66.9156 73.084 67.0836 72.4547 67.2956 71.8927C67.4969 71.3607 67.8096 70.7767 67.8776 70.2047C68.1089 68.2627 65.3049 67.47 64.5209 69.27C64.3236 69.7233 64.9122 70.0933 65.1956 69.664C66.0042 68.4387 67.4016 69.1547 67.0556 70.46C66.9802 70.7453 66.8369 71.0267 66.7309 71.3027C66.4842 71.9427 66.3156 72.794 65.9316 73.3667C65.1449 74.54 63.6816 73.4913 63.9616 72.31C64.0882 71.7753 64.4022 71.49 64.8729 69.4713C64.8769 69.454 64.8536 69.444 64.8442 69.4593H64.8456Z" fill="#010101"/>
<path id="Vector_38" d="M7.8246 93.8127C2.82527 102.355 5.65327 109.591 11.3099 111.709C14.7619 113.001 19.6306 112.355 30.7519 104.479C36.3239 100.533 43.7713 94.506 51.5013 85.658C50.0833 84.534 48.6659 83.4107 47.2479 82.2867C35.2946 86.15 23.9353 91.6147 13.4453 98.5627" fill="white"/>
<path id="Vector_39" d="M7.77144 93.7593C2.87878 100.053 4.22144 112.181 13.7361 112.708C16.9181 112.885 20.0674 111.481 22.8208 110.043C30.4361 106.065 42.0248 97.3273 51.8221 85.978C51.9668 85.81 52.0268 85.4947 51.8221 85.3353C51.0054 84.7 50.1888 84.064 49.3721 83.4287C48.8688 83.0367 48.0594 82.1013 47.4528 81.9353C46.5808 81.6967 44.9568 82.6267 44.1114 82.9187C33.3794 86.6293 23.0301 91.6727 13.2041 98.1487C12.6921 98.486 13.1708 99.314 13.6868 98.9747C23.0774 92.786 32.3348 88.142 41.8141 84.5993C43.1934 84.084 44.7041 83.3213 46.1561 83.0587C48.0628 82.7133 49.7408 84.8167 51.1801 85.9787V85.336C43.2188 94.2293 31.3701 104.927 21.0014 109.853C18.0861 111.238 14.6241 112.446 11.4401 111.237C8.63744 110.173 6.58411 107.713 5.93611 104.799C5.07811 100.939 6.55011 97.3667 7.89744 93.8327C7.92344 93.7647 7.81744 93.7013 7.77211 93.76L7.77144 93.7593Z" fill="#010101"/>
<path id="Vector_40" d="M43.2391 83.7667C43.4031 80.5567 46.5764 78.904 47.3778 76.4853C47.4371 76.3053 47.6464 75.6307 48.2331 75.3353C48.5531 75.174 49.0444 75.0953 49.3344 75.3313C50.0544 75.9167 48.9071 79.2687 48.5351 80.178C55.4444 78.27 55.9584 75.1593 57.9271 75.6673C59.9424 76.1873 61.3311 81.9173 57.4978 85.9607C55.7451 87.8093 53.7018 88.2867 50.7358 88.9793C48.5871 89.4807 47.4398 89.7313 46.2118 89.1627C44.2984 88.2773 43.1331 85.842 43.2391 83.7673V83.7667Z" fill="white"/>
<path id="Vector_41" d="M42.9426 84.0547C43.5506 83.6167 44.4372 81.3207 47.2586 77.3187C47.7832 76.5747 48.0646 76.0347 48.3046 76.478C48.7059 77.2193 48.3872 79.0773 48.0606 79.9327C47.8392 80.512 47.4306 80.9887 47.2032 81.5527C47.0419 81.9527 47.5872 82.134 47.8466 81.9273C49.0286 80.9853 49.8626 77.088 48.8606 75.866C48.5812 75.5253 48.1232 75.3893 47.7186 75.5967C47.2526 75.8353 46.9672 76.3947 46.6832 76.81C46.0806 77.6907 42.7199 82.8647 42.7266 83.9313C42.7266 84.032 42.8512 84.1213 42.9426 84.0553V84.0547ZM47.2679 89.75C47.7092 90.09 48.5239 89.9553 49.0399 89.9087C55.3039 89.348 59.6552 83.9153 59.2459 82.6433C59.2286 82.59 59.1719 82.552 59.1152 82.5693C58.6506 82.7113 58.3266 83.306 58.0699 83.682C56.1072 86.5587 52.7466 88.718 49.0232 89.2347C48.4999 89.3073 47.7132 89.2207 47.2679 89.534C47.1852 89.592 47.1912 89.6907 47.2679 89.75Z" fill="#010101"/>
<path id="Vector_42" d="M48.3284 80.3067C50.9011 80.2607 53.4931 79.1413 55.4237 77.4413C55.8904 77.03 56.9144 76.02 57.1597 75.444C57.3017 75.11 56.9357 74.7747 56.6397 75.0427C56.1857 75.4533 53.9851 79.14 48.3291 79.882C48.0671 79.9167 48.0471 80.312 48.3291 80.3073L48.3284 80.3067ZM52.3651 81.5553C54.4464 81.0233 56.2837 79.5747 57.5724 77.81C57.9871 77.242 58.4717 76.5613 58.6664 75.878C58.7824 75.4707 58.2104 75.2413 57.9924 75.594C57.3931 76.5633 56.6904 79.0933 52.2211 81.2133C52.0244 81.3067 52.1651 81.6073 52.3657 81.556L52.3651 81.5553ZM53.2124 83.0973C53.5617 83.1887 53.9811 82.9333 54.2924 82.7907C56.5831 81.744 58.4364 79.9113 59.5904 77.826C59.7584 77.522 60.1151 77.0453 59.9011 76.7053C59.8271 76.588 59.7071 76.5513 59.5764 76.5733C59.2224 76.6327 59.0877 77.166 58.9384 77.4447C58.3791 78.4893 57.6837 79.4067 56.8344 80.234C54.6517 82.3593 53.4404 82.3307 53.1104 82.8493C53.0524 82.9407 53.1084 83.0707 53.2111 83.0973H53.2124ZM54.2271 84.6913C57.4364 84.358 60.5864 79.7513 59.2511 79.762C58.9497 79.7647 58.8351 80.0873 58.7231 80.31C57.6024 82.538 56.0677 83.3447 54.1357 84.3533C53.9957 84.4267 54.0264 84.6913 54.2271 84.6913ZM53.5004 49.6287C53.5657 50.5487 54.8951 51.6913 55.7004 52.148C57.8717 53.3787 60.3577 52.9867 61.1817 52.288C61.6371 51.902 61.3644 51.4707 60.8111 51.568C60.1624 51.6813 59.5484 51.8853 58.8864 51.928C55.6777 52.136 54.3224 49.852 53.7331 49.496C53.6377 49.438 53.4917 49.5113 53.5004 49.6293V49.6287ZM48.8437 41.2353C48.8837 41.246 49.3177 41.384 49.4057 41.4193C49.3237 41.3847 49.7724 41.5087 50.1444 41.9473C50.1164 41.914 50.1331 41.932 50.1504 41.956C50.2657 42.1147 50.1751 42.0193 50.3377 42.226C50.2984 42.176 50.3497 42.2413 50.3597 42.2553C50.4877 42.4213 50.7404 42.442 50.8464 42.2687C51.1457 41.7787 49.8664 40.5347 48.8437 40.9147C48.6984 40.9687 48.6737 41.1907 48.8437 41.2353ZM59.4537 37.2593C58.4744 38.5873 58.3384 40.5773 58.6937 42.1887C58.7591 42.484 58.8651 42.768 58.9331 43.0627C58.9824 43.2767 59.0244 43.9087 58.6197 43.7593C58.2211 43.612 58.0324 44.27 58.4431 44.4013C58.9884 44.5753 59.5017 44.136 59.5804 43.6027C59.7364 42.5413 58.4117 41.454 59.4937 37.888C59.5497 37.7027 59.5591 37.512 59.6084 37.324C59.6344 37.226 59.5084 37.1853 59.4544 37.2587L59.4537 37.2593ZM60.6777 38.6693C60.9804 38.8913 61.7664 38.2713 62.9571 38.7613C63.2951 38.9007 63.4937 39.0867 63.6704 39.1413C64.0044 39.2447 64.6611 38.632 63.1451 38.0807C61.5171 37.488 60.2491 38.3553 60.6784 38.67L60.6777 38.6693ZM57.4011 37.9493C57.3057 37.742 56.8411 37.5093 56.6451 37.426C55.9957 37.15 55.3324 37.0327 54.7384 37.0487C54.4304 37.0573 53.9431 37.0287 53.8124 37.366C53.7804 37.4487 53.8211 37.5433 53.8757 37.6047C54.1464 37.9107 54.8904 37.3727 56.4317 37.9327C57.0504 38.1573 57.0791 38.2213 57.2484 38.2153C57.3911 38.2107 57.4571 38.0707 57.4011 37.9487V37.9493Z" fill="#010101"/>
<path id="Vector_43" d="M62.9068 39.6067C63.0648 39.5553 63.2094 39.41 63.2608 39.2527C63.3488 39.0847 63.3134 38.9573 63.2948 38.816C63.2628 38.7027 63.2054 38.604 63.1221 38.52C63.0768 38.4853 63.0314 38.45 62.9868 38.4153C62.8088 38.312 62.5688 38.2873 62.3901 38.3813C62.2321 38.4327 62.0874 38.578 62.0361 38.7353C61.9481 38.9033 61.9834 39.0307 62.0021 39.172C62.0341 39.2853 62.0914 39.384 62.1748 39.468C62.2201 39.5027 62.2654 39.538 62.3101 39.5727C62.4841 39.6733 62.7248 39.702 62.9068 39.6067ZM56.0748 38.9347C56.2328 38.8833 56.3774 38.738 56.4288 38.5807C56.5168 38.4127 56.4814 38.2853 56.4628 38.1447C56.4308 38.0313 56.3734 37.9327 56.2908 37.8493C56.2454 37.8147 56.2001 37.7793 56.1554 37.7447C55.9774 37.6413 55.7381 37.6167 55.5594 37.7107C55.4014 37.762 55.2568 37.9073 55.2054 38.0647C55.1174 38.2327 55.1528 38.36 55.1714 38.5007C55.2034 38.614 55.2608 38.7127 55.3434 38.796C55.3888 38.8307 55.4341 38.866 55.4788 38.9007C55.6528 39.0013 55.8928 39.03 56.0748 38.9347Z" fill="#010101"/>
<path id="Vector_44" d="M62.3223 29.5147C62.2903 29.7693 62.1723 29.9713 62.3969 30.5127C62.8263 31.5493 64.0036 31.9333 65.0009 31.4467C64.9303 31.3927 64.8596 31.338 64.7889 31.284C64.6456 32.2073 64.5103 33.2293 64.9409 34.1C65.3916 35.012 66.2909 35.3713 66.6303 35.1953C66.7043 35.1573 66.6963 35.0493 66.6303 35.0093C66.4756 34.9153 65.6043 34.952 65.1396 33.8233C64.8143 33.0327 64.9636 32.1413 65.0723 31.3227C65.0876 31.2073 64.9403 31.152 64.8549 31.198C64.0149 31.6493 62.9589 31.3447 62.5476 30.4247C62.4356 30.1747 62.3289 29.786 62.3623 29.5147C62.3656 29.4893 62.3256 29.4893 62.3223 29.5147ZM52.2136 138.301C51.6623 138.957 50.5416 141.955 46.9043 144.265C45.3336 145.262 44.9449 145.175 44.5643 145.653C44.4116 145.845 44.5156 146.079 44.7529 146.109C45.2243 146.171 45.6616 145.909 46.0703 145.702C49.8203 143.8 52.3976 139.997 52.5976 138.525C52.6243 138.328 52.3809 138.103 52.2136 138.302V138.301ZM30.1489 129.869C29.7383 134.121 24.6629 134.484 21.9096 136.584C19.0183 138.79 18.7843 142.802 18.4276 146.122C15.0936 177.178 15.4249 171.839 14.6389 188.901C14.6269 189.167 15.0383 189.166 15.0516 188.901C15.8716 172.799 15.3289 179.26 18.7123 147.809C19.1449 143.789 19.2449 139.495 21.9676 137.133C23.5789 135.735 25.7216 135.244 27.4969 134.114C30.8869 131.956 30.1883 129.459 30.1483 129.869H30.1489ZM47.8943 149.241C50.5963 153.234 50.2376 158.246 50.4509 165.443C50.8189 177.869 50.8749 180.62 50.4476 183.937C50.1456 186.282 49.6556 189.289 51.4429 191.197C51.5423 191.303 51.7396 191.159 51.6489 191.037C50.0789 188.943 50.4163 186.377 50.7249 183.937C51.1029 180.945 51.0356 177.965 50.9569 174.957C50.5396 158.964 51.2243 153.24 48.0336 149.133C47.9716 149.053 47.8369 149.157 47.8936 149.241H47.8943ZM67.2409 165.743C67.9616 166.021 68.7796 165.262 68.6589 164.599C68.6436 164.514 68.5636 164.419 68.4709 164.471C68.3863 164.517 68.4029 164.609 68.4063 164.689C68.4276 165.194 67.8396 165.701 67.3083 165.499C67.1749 165.448 67.0609 165.673 67.2409 165.743ZM67.4896 173.872C67.5669 173.752 67.6756 173.686 67.7636 173.58C67.8409 173.487 71.1129 168.163 71.3716 167.337C71.4289 167.155 71.1809 167.012 71.0503 167.151C70.4603 167.779 67.4303 173.231 67.3823 173.358C67.3336 173.487 67.3289 173.614 67.2623 173.741C67.1836 173.891 67.3969 174.015 67.4889 173.873L67.4896 173.872Z" fill="white"/>
<path id="Vector_45" d="M25.1815 25.1327C25.2155 25.178 36.6062 40.3013 37.6015 40.9707C37.8389 41.13 38.2089 40.862 38.1042 40.584C37.6669 39.424 25.5755 24.8947 25.5422 24.854C25.3775 24.656 25.0242 24.9233 25.1815 25.1327ZM28.9629 40.6893C35.4909 43.6913 35.2555 43.6313 35.5969 43.616C35.7449 43.6093 35.7942 43.4507 35.7095 43.344C35.5035 43.0833 35.7222 43.2313 29.2182 40.252C28.9242 40.1173 28.6669 40.5527 28.9629 40.6893ZM36.2289 30.1173C38.8982 33.9887 38.6955 33.716 39.0135 33.912C39.1842 34.0173 39.3782 33.844 39.3369 33.6633C39.2622 33.334 39.3182 33.4167 36.6815 29.852C36.4849 29.5853 36.0335 29.8347 36.2282 30.1167L36.2289 30.1173ZM58.8549 46.476C58.4935 46.0847 57.7922 46.0533 57.4282 46.5247C57.0955 46.9553 57.1595 47.6453 57.6955 47.9493C58.2222 48.2487 58.7542 47.9973 58.6435 47.7467C58.6049 47.6593 58.5242 47.63 58.4335 47.6433C58.4829 47.636 58.2995 47.6487 58.2595 47.6527C58.3309 47.6447 58.2489 47.6587 58.1122 47.6487C58.1649 47.6527 58.1002 47.6453 58.0849 47.642C57.9762 47.618 57.9255 47.584 57.9735 47.6093C57.9142 47.578 57.8795 47.5627 57.8262 47.522C57.8695 47.5547 57.8215 47.5247 57.7462 47.438C57.7715 47.4667 57.7575 47.4633 57.7115 47.382C57.7049 47.37 57.6775 47.31 57.6955 47.3547C57.6489 47.2393 57.6422 47.1593 57.6555 47.036C57.6529 47.0627 57.6435 47.0687 57.6955 46.898C57.7049 46.868 57.6802 46.928 57.6942 46.9007C57.7755 46.7387 57.7895 46.748 57.7662 46.774C57.8115 46.7227 57.8089 46.724 57.8649 46.676C57.8309 46.7053 57.8709 46.6673 57.9375 46.6307C57.9475 46.6253 58.0069 46.598 57.9669 46.614C58.0782 46.5693 58.1795 46.5653 58.1155 46.5707C58.2589 46.5587 58.3242 46.576 58.2909 46.57C58.5009 46.6087 58.5995 46.708 58.5722 46.6847C58.5855 46.696 58.5982 46.7073 58.6109 46.7193C58.7742 46.8727 59.0075 46.638 58.8562 46.474L58.8549 46.476Z" fill="#010101"/>
<path id="Vector_46" d="M130.676 104.762C133.444 103.425 153.043 100.165 155.573 98.5513C155.761 98.432 155.644 98.0907 155.415 98.1747C152.21 99.3407 133.113 103.063 130.463 104.398C130.22 104.521 130.433 104.879 130.676 104.762Z" fill="#010101"/>
</g>
</svg>
