<svg width="25" height="24" viewBox="0 0 25 24" fill="none" xmlns="http://www.w3.org/2000/svg">
<g id="vuesax/linear/profile">
<g id="vuesax/linear/profile_2">
<g id="profile">
<path id="Vector" d="M12.26 10.87C12.16 10.86 12.04 10.86 11.93 10.87C9.55 10.79 7.66 8.84 7.66 6.44C7.66 3.99 9.64 2 12.1 2C14.55 2 16.54 3.99 16.54 6.44C16.53 8.84 14.64 10.79 12.26 10.87Z" stroke="#5E5E5E" stroke-width="1.5" stroke-linecap="round" stroke-linejoin="round"/>
<path id="Vector_2" d="M7.26001 14.56C4.84001 16.18 4.84001 18.82 7.26001 20.43C10.01 22.27 14.52 22.27 17.27 20.43C19.69 18.81 19.69 16.17 17.27 14.56C14.53 12.73 10.02 12.73 7.26001 14.56Z" stroke="#5E5E5E" stroke-width="1.5" stroke-linecap="round" stroke-linejoin="round"/>
</g>
</g>
</g>
</svg>
