<svg width="25" height="25" viewBox="0 0 25 25" fill="none" xmlns="http://www.w3.org/2000/svg">
<g id="vuesax/bold/book">
<g id="vuesax/bold/book_2">
<path id="Vector" d="M21.125 16.5V19C21.125 20.93 19.555 22.5 17.625 22.5H7.625C5.695 22.5 4.125 20.93 4.125 19V18.35C4.125 16.78 5.405 15.5 6.975 15.5H20.125C20.675 15.5 21.125 15.95 21.125 16.5Z" fill="#2563EB"/>
<path id="Vector_2" d="M16.125 2.5H9.125C5.125 2.5 4.125 3.5 4.125 7.5V15.08C4.885 14.41 5.885 14 6.975 14H20.125C20.675 14 21.125 13.55 21.125 13V7.5C21.125 3.5 20.125 2.5 16.125 2.5ZM13.625 11.25H8.625C8.215 11.25 7.875 10.91 7.875 10.5C7.875 10.09 8.215 9.75 8.625 9.75H13.625C14.035 9.75 14.375 10.09 14.375 10.5C14.375 10.91 14.035 11.25 13.625 11.25ZM16.625 7.75H8.625C8.215 7.75 7.875 7.41 7.875 7C7.875 6.59 8.215 6.25 8.625 6.25H16.625C17.035 6.25 17.375 6.59 17.375 7C17.375 7.41 17.035 7.75 16.625 7.75Z" fill="#2563EB"/>
</g>
</g>
</svg>
