<svg width="24" height="24" viewBox="0 0 24 24" fill="none" xmlns="http://www.w3.org/2000/svg">
<g id="Icon">
<path id="Vector" d="M12.4152 20.2807C16.9062 20.2807 20.613 16.5738 20.613 12.0908C20.613 7.60772 16.8983 3.90088 12.4073 3.90088C7.92426 3.90088 4.22534 7.60772 4.22534 12.0908C4.22534 16.5738 7.93218 20.2807 12.4152 20.2807ZM12.4152 18.649C8.77968 18.649 5.87283 15.7263 5.87283 12.0908C5.87283 8.45522 8.77968 5.54044 12.4073 5.54044C16.0429 5.54044 18.9656 8.45522 18.9735 12.0908C18.9814 15.7263 16.0508 18.649 12.4152 18.649ZM12.4232 15.1956C14.1419 15.1956 15.528 13.8095 15.528 12.0829C15.528 10.372 14.1419 8.97798 12.4232 8.97798C10.6965 8.97798 9.31036 10.372 9.31036 12.0829C9.31036 13.8095 10.6965 15.1956 12.4232 15.1956Z" fill="#DC2626"/>
</g>
</svg>
