<svg width="29" height="25" viewBox="0 0 29 25" fill="none" xmlns="http://www.w3.org/2000/svg">
<g id="Group">
<path id="Vector" d="M12.4262 1.21836L0.781873 21.3855C0.571534 21.7497 0.460778 22.1629 0.460739 22.5835C0.4607 23.004 0.57138 23.4172 0.781651 23.7814C0.991922 24.1456 1.29437 24.4481 1.6586 24.6584C2.02283 24.8687 2.43599 24.9793 2.85656 24.9793H26.1434C26.564 24.9793 26.9772 24.8687 27.3414 24.6584C27.7056 24.4481 28.0081 24.1456 28.2183 23.7814C28.4286 23.4172 28.5393 23.004 28.5393 22.5835C28.5392 22.1629 28.4285 21.7497 28.2181 21.3855L16.575 1.21836C16.3648 0.854241 16.0624 0.551874 15.6983 0.34165C15.3341 0.131426 14.9211 0.020752 14.5006 0.020752C14.0802 0.020752 13.6671 0.131426 13.303 0.34165C12.9389 0.551874 12.6365 0.854241 12.4262 1.21836Z" fill="#EE404C"/>
<g id="Group_2">
<path id="Vector_2" d="M14.6525 7.43848H14.3488C13.6009 7.43848 12.9947 8.04471 12.9947 8.79254V15.2647C12.9947 16.0126 13.6009 16.6188 14.3488 16.6188H14.6525C15.4003 16.6188 16.0066 16.0126 16.0066 15.2647V8.79254C16.0066 8.04471 15.4003 7.43848 14.6525 7.43848Z" fill="#FFF7ED"/>
<path id="Vector_3" d="M14.5006 21.7519C15.3323 21.7519 16.0066 21.0776 16.0066 20.2459C16.0066 19.4142 15.3323 18.74 14.5006 18.74C13.6689 18.74 12.9947 19.4142 12.9947 20.2459C12.9947 21.0776 13.6689 21.7519 14.5006 21.7519Z" fill="#FFF7ED"/>
</g>
</g>
</svg>
