<svg width="20" height="20" viewBox="0 0 20 20" fill="none" xmlns="http://www.w3.org/2000/svg">
<g id="vuesax/bold/security-time">
<g id="vuesax/bold/security-time_2">
<g id="security-time">
<path id="Vector" d="M9.99999 6.875C8.50832 6.875 7.29166 8.09167 7.29166 9.58333C7.29166 11.075 8.50832 12.2917 9.99999 12.2917C11.4917 12.2917 12.7083 11.075 12.7083 9.58333C12.7083 8.09167 11.4917 6.875 9.99999 6.875ZM10.8333 9.31667C10.8333 9.825 10.5583 10.3083 10.125 10.5667L9.48332 10.95C9.38332 11.0083 9.27499 11.0417 9.15832 11.0417C8.94999 11.0417 8.74166 10.9333 8.62499 10.7417C8.44999 10.4417 8.54166 10.0583 8.84166 9.88333L9.47499 9.5C9.54166 9.45833 9.57499 9.39167 9.57499 9.325V8.55C9.57499 8.20833 9.85832 7.925 10.2 7.925C10.5417 7.925 10.8333 8.2 10.8333 8.54167V9.31667Z" fill="#272727"/>
<path id="Vector_2" d="M15.45 3.47511L10.8667 1.75845C10.3917 1.58345 9.61668 1.58345 9.14168 1.75845L4.55834 3.47511C3.67501 3.80845 2.95834 4.84178 2.95834 5.78345V12.5334C2.95834 13.2084 3.40001 14.1001 3.94168 14.5001L8.52501 17.9251C9.33334 18.5335 10.6583 18.5335 11.4667 17.9251L16.05 14.5001C16.5917 14.0918 17.0333 13.2084 17.0333 12.5334V5.78345C17.0417 4.84178 16.325 3.80845 15.45 3.47511ZM10 13.5418C7.81668 13.5418 6.04168 11.7668 6.04168 9.58345C6.04168 7.40012 7.81668 5.62511 10 5.62511C12.1833 5.62511 13.9583 7.40012 13.9583 9.58345C13.9583 11.7668 12.1833 13.5418 10 13.5418Z" fill="#272727"/>
</g>
</g>
</g>
</svg>
