<svg width="25" height="24" viewBox="0 0 25 24" fill="none" xmlns="http://www.w3.org/2000/svg">
<g id="vuesax/bold/send-2">
<g id="send-2">
<path id="Vector" d="M8.51955 2.96001L17.5496 5.96001C23.6196 7.99001 23.6196 11.3 17.5496 13.32L14.8696 14.21L13.9796 16.89C11.9596 22.96 8.63955 22.96 6.61955 16.89L3.60955 7.87001C2.26955 3.82001 4.46955 1.61001 8.51955 2.96001ZM8.19955 8.34001L11.9996 12.16C12.1496 12.31 12.3396 12.38 12.5296 12.38C12.7196 12.38 12.9096 12.31 13.0596 12.16C13.3496 11.87 13.3496 11.39 13.0596 11.1L9.25955 7.28001C8.96955 6.99001 8.48955 6.99001 8.19955 7.28001C7.90955 7.57001 7.90955 8.05001 8.19955 8.34001Z" fill="#2563EB"/>
</g>
</g>
</svg>
