<svg width="25" height="25" viewBox="0 0 25 25" fill="none" xmlns="http://www.w3.org/2000/svg">
<g id="vuesax/linear/wallet-minus">
<g id="vuesax/linear/wallet-minus_2">
<g id="wallet-minus">
<path id="Vector" d="M14.6785 16.498H9.67847" stroke="#272727" stroke-width="1.5" stroke-miterlimit="10" stroke-linecap="round" stroke-linejoin="round"/>
<path id="Vector_2" d="M13.0767 3.01814L13.0467 3.08814L10.1467 9.81814H7.29671C6.61671 9.81814 5.96671 9.95814 5.37671 10.2081L7.12671 6.02814L7.16671 5.92814L7.23671 5.76814C7.25671 5.70814 7.27671 5.64814 7.30671 5.59814C8.61671 2.56814 10.0967 1.87814 13.0767 3.01814Z" stroke="#272727" stroke-width="1.5" stroke-linecap="round" stroke-linejoin="round"/>
<path id="Vector_3" d="M18.4667 10.0186C18.0167 9.87856 17.5367 9.81855 17.0567 9.81855H10.1467L13.0467 3.08855L13.0767 3.01855C13.2267 3.06855 13.3667 3.13855 13.5167 3.19855L15.7267 4.12855C16.9567 4.63855 17.8167 5.16855 18.3367 5.80855C18.4367 5.92855 18.5167 6.03855 18.5867 6.16855C18.6767 6.30855 18.7467 6.44855 18.7867 6.59855C18.8267 6.68855 18.8567 6.77855 18.8767 6.85855C19.1467 7.69855 18.9867 8.72856 18.4667 10.0186Z" stroke="#272727" stroke-width="1.5" stroke-linecap="round" stroke-linejoin="round"/>
<path id="Vector_4" d="M21.9385 14.6984V16.6484C21.9385 16.8484 21.9285 17.0484 21.9185 17.2484C21.7285 20.7384 19.7785 22.4984 16.0785 22.4984H8.27847C8.03847 22.4984 7.79847 22.4784 7.56847 22.4484C4.38847 22.2384 2.68847 20.5384 2.47847 17.3584C2.44847 17.1284 2.42847 16.8884 2.42847 16.6484V14.6984C2.42847 12.6884 3.64847 10.9584 5.38847 10.2084C5.98847 9.95836 6.62847 9.81836 7.30847 9.81836H17.0685C17.5585 9.81836 18.0385 9.88836 18.4785 10.0184C20.4685 10.6284 21.9385 12.4884 21.9385 14.6984Z" stroke="#272727" stroke-width="1.5" stroke-linecap="round" stroke-linejoin="round"/>
<path id="Vector_5" d="M7.12675 6.02832L5.37675 10.2083C3.63675 10.9583 2.41675 12.6883 2.41675 14.6983V11.7683C2.41675 8.92832 4.43675 6.55832 7.12675 6.02832Z" stroke="#272727" stroke-width="1.5" stroke-linecap="round" stroke-linejoin="round"/>
<path id="Vector_6" d="M21.9353 11.7677V14.6977C21.9353 12.4977 20.4753 10.6277 18.4753 10.0277C18.9953 8.72766 19.1453 7.70766 18.8953 6.85766C18.8753 6.76766 18.8453 6.67766 18.8053 6.59766C20.6653 7.55766 21.9353 9.52766 21.9353 11.7677Z" stroke="#272727" stroke-width="1.5" stroke-linecap="round" stroke-linejoin="round"/>
</g>
</g>
</g>
</svg>
