<svg width="25" height="24" viewBox="0 0 25 24" fill="none" xmlns="http://www.w3.org/2000/svg">
<path d="M14.4746 15.998H9.47461" stroke="#272727" stroke-width="1.5" stroke-miterlimit="10" stroke-linecap="round" stroke-linejoin="round"/>
<path d="M12.8729 2.51814L12.8429 2.58814L9.94285 9.31814H7.09285C6.41285 9.31814 5.76285 9.45814 5.17285 9.70814L6.92285 5.52814L6.96285 5.42814L7.03285 5.26814C7.05285 5.20814 7.07285 5.14814 7.10285 5.09814C8.41285 2.06814 9.89285 1.37814 12.8729 2.51814Z" stroke="#272727" stroke-width="1.5" stroke-linecap="round" stroke-linejoin="round"/>
<path d="M18.2629 9.51813C17.8129 9.37813 17.3329 9.31813 16.8529 9.31813H9.94287L12.8429 2.58813L12.8729 2.51813C13.0229 2.56813 13.1629 2.63813 13.3129 2.69813L15.5229 3.62813C16.7529 4.13813 17.6129 4.66813 18.1329 5.30813C18.2329 5.42813 18.3129 5.53813 18.3829 5.66813C18.4729 5.80813 18.5429 5.94813 18.5829 6.09813C18.6229 6.18813 18.6529 6.27813 18.6729 6.35813C18.9429 7.19813 18.7829 8.22813 18.2629 9.51813Z" stroke="#272727" stroke-width="1.5" stroke-linecap="round" stroke-linejoin="round"/>
<path d="M21.7346 14.1984V16.1484C21.7346 16.3484 21.7246 16.5484 21.7146 16.7484C21.5246 20.2384 19.5746 21.9984 15.8746 21.9984H8.07461C7.83461 21.9984 7.59461 21.9784 7.36461 21.9484C4.18461 21.7384 2.48461 20.0384 2.27461 16.8584C2.24461 16.6284 2.22461 16.3884 2.22461 16.1484V14.1984C2.22461 12.1884 3.44461 10.4584 5.18461 9.70836C5.78461 9.45836 6.42461 9.31836 7.10461 9.31836H16.8646C17.3546 9.31836 17.8346 9.38836 18.2746 9.51836C20.2646 10.1284 21.7346 11.9884 21.7346 14.1984Z" stroke="#272727" stroke-width="1.5" stroke-linecap="round" stroke-linejoin="round"/>
<path d="M6.92289 5.52814L5.17289 9.70814C3.43289 10.4581 2.21289 12.1881 2.21289 14.1981V11.2681C2.21289 8.42814 4.23289 6.05814 6.92289 5.52814Z" stroke="#272727" stroke-width="1.5" stroke-linecap="round" stroke-linejoin="round"/>
<path d="M21.7315 11.2677V14.1977C21.7315 11.9977 20.2715 10.1277 18.2715 9.52766C18.7915 8.22766 18.9415 7.20766 18.6915 6.35766C18.6715 6.26766 18.6415 6.17766 18.6015 6.09766C20.4615 7.05766 21.7315 9.02766 21.7315 11.2677Z" stroke="#272727" stroke-width="1.5" stroke-linecap="round" stroke-linejoin="round"/>
</svg>
