<svg width="25" height="24" viewBox="0 0 25 24" fill="none" xmlns="http://www.w3.org/2000/svg">
<g id="vuesax/bold/setting">
<g id="setting">
<path id="Vector" d="M19.7702 5.42L14.6002 2.43C13.6102 1.86 12.0602 1.86 11.0702 2.43L5.85016 5.44C3.78016 6.84 3.66016 7.05 3.66016 9.28V14.71C3.66016 16.94 3.78016 17.16 5.89016 18.58L11.0602 21.57C11.5602 21.86 12.2002 22 12.8302 22C13.4602 22 14.1002 21.86 14.5902 21.57L19.8102 18.56C21.8802 17.16 22.0002 16.95 22.0002 14.72V9.28C22.0002 7.05 21.8802 6.84 19.7702 5.42ZM12.8302 15.25C11.0402 15.25 9.58016 13.79 9.58016 12C9.58016 10.21 11.0402 8.75 12.8302 8.75C14.6202 8.75 16.0802 10.21 16.0802 12C16.0802 13.79 14.6202 15.25 12.8302 15.25Z" fill="#2563EB"/>
</g>
</g>
</svg>
