<svg width="25" height="24" viewBox="0 0 25 24" fill="none" xmlns="http://www.w3.org/2000/svg">
<g id="vuesax/bold/share">
<g id="share">
<path id="Vector" d="M21.2698 12.73C20.8998 12.73 20.5898 12.45 20.5498 12.08C20.3098 9.88001 19.1298 7.90001 17.3098 6.64001C16.9798 6.41001 16.8998 5.96001 17.1298 5.63001C17.3598 5.30001 17.8098 5.22001 18.1398 5.45001C20.3098 6.96001 21.7098 9.32001 21.9998 11.93C22.0398 12.33 21.7498 12.69 21.3498 12.73C21.3198 12.73 21.2998 12.73 21.2698 12.73Z" fill="#2563EB"/>
<path id="Vector_2" d="M4.64947 12.78C4.62947 12.78 4.59947 12.78 4.57947 12.78C4.17947 12.74 3.88947 12.38 3.92947 11.98C4.19947 9.36999 5.57947 7.00999 7.72947 5.48999C8.04947 5.25999 8.50947 5.33999 8.73947 5.65999C8.96947 5.98999 8.88947 6.43999 8.56947 6.66999C6.76947 7.94999 5.59947 9.92999 5.37947 12.12C5.33947 12.5 5.01947 12.78 4.64947 12.78Z" fill="#2563EB"/>
<path id="Vector_3" d="M16.8998 21.1C15.6698 21.69 14.3498 21.99 12.9698 21.99C11.5298 21.99 10.1598 21.67 8.87977 21.02C8.51977 20.85 8.37977 20.41 8.55977 20.05C8.72977 19.69 9.16977 19.55 9.52977 19.72C10.1598 20.04 10.8298 20.26 11.5098 20.39C12.4298 20.57 13.3698 20.58 14.2898 20.42C14.9698 20.3 15.6398 20.09 16.2598 19.79C16.6298 19.62 17.0698 19.76 17.2298 20.13C17.4098 20.49 17.2698 20.93 16.8998 21.1Z" fill="#2563EB"/>
<path id="Vector_4" d="M12.9596 2.01001C11.4096 2.01001 10.1396 3.27001 10.1396 4.83001C10.1396 6.39001 11.3996 7.65001 12.9596 7.65001C14.5196 7.65001 15.7796 6.39001 15.7796 4.83001C15.7796 3.27001 14.5196 2.01001 12.9596 2.01001Z" fill="#2563EB"/>
<path id="Vector_5" d="M5.95965 13.87C4.40965 13.87 3.13965 15.13 3.13965 16.69C3.13965 18.25 4.39965 19.51 5.95965 19.51C7.51965 19.51 8.77965 18.25 8.77965 16.69C8.77965 15.13 7.50965 13.87 5.95965 13.87Z" fill="#2563EB"/>
<path id="Vector_6" d="M19.8596 13.87C18.3096 13.87 17.0396 15.13 17.0396 16.69C17.0396 18.25 18.2996 19.51 19.8596 19.51C21.4196 19.51 22.6796 18.25 22.6796 16.69C22.6796 15.13 21.4196 13.87 19.8596 13.87Z" fill="#2563EB"/>
</g>
</g>
</svg>
