<svg width="17" height="16" viewBox="0 0 17 16" fill="none" xmlns="http://www.w3.org/2000/svg">
<path d="M11.0792 1.97336L5.05917 3.97336C1.0125 5.3267 1.0125 7.53336 5.05917 8.88003L6.84584 9.47336L7.43917 11.26C8.78584 15.3067 10.9992 15.3067 12.3458 11.26L14.3525 5.2467C15.2458 2.5467 13.7792 1.07336 11.0792 1.97336ZM11.2925 5.56003L8.75917 8.1067C8.65917 8.2067 8.5325 8.25336 8.40584 8.25336C8.27917 8.25336 8.1525 8.2067 8.0525 8.1067C7.85917 7.91336 7.85917 7.59336 8.0525 7.40003L10.5858 4.85336C10.7792 4.66003 11.0992 4.66003 11.2925 4.85336C11.4858 5.0467 11.4858 5.3667 11.2925 5.56003Z" fill="#272727"/>
</svg>
