<svg width="33" height="32" viewBox="0 0 33 32" fill="none" xmlns="http://www.w3.org/2000/svg">
<g id="Frame" clip-path="url(#clip0_2000_18238)">
<g id="Group">
<path id="Vector" d="M26.2814 0.390625C26.2631 0.281415 26.2066 0.18225 26.122 0.110736C26.0375 0.039222 25.9303 -1.20975e-05 25.8196 2.79808e-09H18.3414C18.2696 2.79808e-09 18.1983 0.01625 18.1339 0.048125C18.1127 0.05875 17.8546 0.1875 17.4664 0.46375L20.4571 5.58437C21.0508 4.46625 21.9202 3.46 23.0571 2.57562C24.5458 1.4175 25.9596 0.91625 25.9733 0.91125C26.0779 0.874889 26.1663 0.802645 26.2227 0.707338C26.2791 0.612031 26.2999 0.499823 26.2814 0.390625Z" fill="#3CAF91"/>
<path id="Vector_2" d="M20.4575 5.58449C20.0237 6.39887 19.7356 7.27324 19.5962 8.20324L13.4444 8.44699C13.4004 8.3981 13.3672 8.3405 13.347 8.27794C13.3267 8.21537 13.3199 8.14925 13.3269 8.08387C13.6556 5.00324 14.9325 2.99012 15.945 1.84387C16.5125 1.20137 17.0606 0.752617 17.4669 0.463867C17.6387 0.631992 17.8144 0.816367 17.9912 1.01637C18.8381 1.97449 19.8487 3.46887 20.4575 5.58449Z" fill="#218780"/>
<path id="Vector_3" d="M19.675 8.08369C19.3461 5.00344 18.0694 2.99025 17.0564 1.84381C15.9472 0.588437 14.9107 0.0696875 14.8671 0.04825C14.8027 0.016506 14.7318 -2.41052e-06 14.66 2.64003e-10L7.18176 2.64003e-10C7.07104 3.05877e-05 6.96391 0.0392626 6.87935 0.110742C6.7948 0.182221 6.73828 0.28133 6.71982 0.3905C6.70135 0.499714 6.72214 0.611941 6.77849 0.7073C6.83484 0.80266 6.92312 0.874997 7.0277 0.9115C7.04182 0.916438 8.45539 1.41744 9.94439 2.57544C11.9095 4.10369 13.0741 5.99719 13.4058 8.20319L19.5576 8.44681C19.6015 8.39791 19.6347 8.3403 19.6549 8.27774C19.6752 8.21518 19.682 8.14907 19.675 8.08369Z" fill="#3CAF91"/>
<g id="Group_2">
<path id="Vector_4" d="M18.3219 8.39702L17.9026 8.18746L17.4844 7.97583C17.4636 8.01696 16.9771 8.99777 17.1749 10.2745L18.1013 10.131C17.9513 9.16296 18.3183 8.40458 18.3219 8.39702ZM14.6769 8.39702C14.6807 8.40458 15.0476 9.16296 14.8976 10.131L15.824 10.2746C16.0218 8.99783 15.5353 8.01702 15.5145 7.97589L14.6769 8.39702Z" fill="#A9BBE0"/>
</g>
<path id="Vector_5" d="M24.3964 12.8937V14.5318L24.3958 27.0806V28.7181C22.3733 30.7443 19.5795 31.9999 16.5001 31.9999C16.2695 31.9999 16.0408 31.9931 15.8139 31.9793C13.0064 31.8074 10.4751 30.5924 8.60388 28.7174V12.8937C10.4751 11.0193 13.0064 9.80432 15.8139 9.63244C16.0408 9.61869 16.2695 9.61182 16.5001 9.61182C19.5801 9.61182 22.3739 10.8674 24.3964 12.8937Z" fill="#E5EAF9"/>
<g id="Group_3">
<path id="Vector_6" d="M24.3971 27.0806V28.7181C22.3746 30.7443 19.5809 31.9999 16.5015 31.9999C16.2709 31.9999 16.0421 31.9931 15.8152 31.9793C19.3865 31.7624 22.5059 29.8712 24.3971 27.0806ZM24.3977 12.8937V14.5318C22.5059 11.7406 19.3865 9.84932 15.8152 9.63244C16.0421 9.61869 16.2709 9.61182 16.5015 9.61182C19.5815 9.61182 22.3752 10.8674 24.3977 12.8937Z" fill="#CBD6EF"/>
</g>
<g id="Group_4">
<path id="Vector_7" d="M27.6731 20.8057C27.6731 23.8925 26.42 26.6913 24.3962 28.7182L23.6912 28.0119L22.4244 26.7419V14.87L23.6919 13.6L24.3969 12.8938C26.42 14.9213 27.6731 17.7194 27.6731 20.8057ZM10.5769 14.87V26.7419L8.60438 28.7175C6.58125 26.6907 5.32812 23.8919 5.32812 20.8057C5.32812 17.7194 6.58125 14.9213 8.60438 12.8938L10.5769 14.87Z" fill="#CBD6EF"/>
</g>
<path id="Vector_8" d="M27.6733 20.8057C27.6733 23.8925 26.4202 26.6913 24.3964 28.7182L23.6914 28.0119C25.332 26.065 26.3195 23.5513 26.3195 20.8063C26.3195 18.0613 25.332 15.5469 23.692 13.6L24.397 12.8938C26.4202 14.9213 27.6733 17.7194 27.6733 20.8057Z" fill="#A9BBE0"/>
<path id="Vector_9" d="M25.1661 20.8057C25.1661 25.6013 21.2861 29.4894 16.4999 29.4894C16.2686 29.4894 16.0392 29.4801 15.8124 29.4619C11.3474 29.1113 7.83362 25.3694 7.83362 20.8057C7.83362 16.2419 11.3474 12.5007 15.8124 12.1501C16.0392 12.1319 16.2686 12.1226 16.4999 12.1226C21.2861 12.1226 25.1661 16.0101 25.1661 20.8057Z" fill="#A9BBE0"/>
<path id="Vector_10" d="M25.1663 20.8057C25.1663 25.6013 21.2863 29.4894 16.5 29.4894C16.2688 29.4894 16.0394 29.4801 15.8125 29.4619C20.2775 29.1113 23.7913 25.3694 23.7913 20.8057C23.7913 16.2419 20.2775 12.5007 15.8125 12.1501C16.0394 12.1319 16.2688 12.1226 16.5 12.1226C21.2863 12.1226 25.1663 16.0101 25.1663 20.8057Z" fill="#8794C6"/>
<g id="Group_5">
<path id="Vector_11" d="M22.2473 18.7498C22.5061 18.7498 22.716 18.5399 22.716 18.281C22.716 18.0221 22.5061 17.8123 22.2473 17.8123C21.9884 17.8123 21.7785 18.0221 21.7785 18.281C21.7785 18.5399 21.9884 18.7498 22.2473 18.7498Z" fill="#CBD6EF"/>
<path id="Vector_12" d="M10.3176 21.2808C10.5764 21.2808 10.7863 21.0709 10.7863 20.812C10.7863 20.5531 10.5764 20.3433 10.3176 20.3433C10.0587 20.3433 9.84882 20.5531 9.84882 20.812C9.84882 21.0709 10.0587 21.2808 10.3176 21.2808Z" fill="#CBD6EF"/>
<path id="Vector_13" d="M10.7551 23.8123C11.0139 23.8123 11.2238 23.6024 11.2238 23.3435C11.2238 23.0846 11.0139 22.8748 10.7551 22.8748C10.4962 22.8748 10.2863 23.0846 10.2863 23.3435C10.2863 23.6024 10.4962 23.8123 10.7551 23.8123Z" fill="#CBD6EF"/>
</g>
<path id="Vector_14" d="M10.7555 18.7498C11.0144 18.7498 11.2242 18.5399 11.2242 18.281C11.2242 18.0221 11.0144 17.8123 10.7555 17.8123C10.4966 17.8123 10.2867 18.0221 10.2867 18.281C10.2867 18.5399 10.4966 18.7498 10.7555 18.7498Z" fill="#FFCB78"/>
<path id="Vector_15" d="M22.2461 23.8123C22.505 23.8123 22.7148 23.6024 22.7148 23.3435C22.7148 23.0846 22.505 22.8748 22.2461 22.8748C21.9872 22.8748 21.7773 23.0846 21.7773 23.3435C21.7773 23.6024 21.9872 23.8123 22.2461 23.8123Z" fill="#CBD6EF"/>
<path id="Vector_16" d="M22.6836 21.2808C22.9425 21.2808 23.1523 21.0709 23.1523 20.812C23.1523 20.5531 22.9425 20.3433 22.6836 20.3433C22.4247 20.3433 22.2148 20.5531 22.2148 20.812C22.2148 21.0709 22.4247 21.2808 22.6836 21.2808Z" fill="#CBD6EF"/>
<path id="Vector_17" d="M10.7555 18.7498C11.0144 18.7498 11.2242 18.5399 11.2242 18.281C11.2242 18.0221 11.0144 17.8123 10.7555 17.8123C10.4966 17.8123 10.2867 18.0221 10.2867 18.281C10.2867 18.5399 10.4966 18.7498 10.7555 18.7498Z" fill="#CBD6EF"/>
<g id="Group_6">
<path id="Vector_18" d="M21.8152 8.04867C21.7128 8.03304 19.2778 7.66479 16.4996 7.66479C13.7214 7.66479 11.2863 8.03304 11.184 8.04867C11.0612 8.06751 10.9508 8.13438 10.8772 8.23458C10.8037 8.33478 10.7729 8.46011 10.7917 8.58298C10.801 8.64383 10.8222 8.70225 10.8541 8.7549C10.886 8.80755 10.928 8.85341 10.9776 8.88985C11.0272 8.92628 11.0835 8.95259 11.1433 8.96726C11.203 8.98193 11.2651 8.98468 11.326 8.97536C11.3503 8.97161 13.7957 8.60229 16.4996 8.60229C19.2035 8.60229 21.6488 8.97167 21.6732 8.97536C21.7961 8.99414 21.9214 8.96336 22.0216 8.88976C22.1218 8.81617 22.1887 8.7058 22.2075 8.58292C22.2263 8.46005 22.1955 8.33474 22.122 8.23456C22.0484 8.13437 21.938 8.06751 21.8152 8.04867ZM18.6315 23.5427C18.2589 23.6187 17.8832 23.6652 17.518 23.6903C17.9742 23.308 18.3718 22.8791 18.704 22.4084C19.537 21.2279 19.9068 19.8229 19.7187 18.5535C19.592 17.6987 19.227 16.9612 18.663 16.4207C18.0487 15.8319 17.2438 15.5207 16.3353 15.5207C15.098 15.5207 14.3842 16.0529 14.0033 16.4994C13.0118 17.6616 13.2487 19.3594 13.2789 19.5491C13.3605 20.0604 13.8412 20.4112 14.3528 20.3297C14.8641 20.2481 15.2128 19.7699 15.1313 19.2586C15.092 18.9939 15.063 18.1415 15.4327 17.7129C15.5004 17.6345 15.7062 17.3958 16.3354 17.3958C17.5234 17.3958 17.8002 18.3977 17.864 18.8285C18.0621 20.1652 17.1782 22.511 13.9311 23.4949C13.7334 23.5548 13.5611 23.6784 13.4408 23.8463C13.3206 24.0142 13.2591 24.2172 13.2661 24.4236C13.273 24.6301 13.3479 24.8284 13.4792 24.9879C13.6105 25.1474 13.7907 25.259 13.992 25.3055C14.063 25.322 15.2492 25.5902 16.7871 25.5901C17.4788 25.5901 18.242 25.5358 19.0063 25.3799C19.5137 25.2765 19.841 24.7813 19.7376 24.274C19.6342 23.7667 19.139 23.439 18.6315 23.5427Z" fill="#E5EAF9"/>
</g>
</g>
</g>
<defs>
<clipPath id="clip0_2000_18238">
<rect width="32" height="32" fill="white" transform="translate(0.5)"/>
</clipPath>
</defs>
</svg>
