<svg width="25" height="24" viewBox="0 0 25 24" fill="none" xmlns="http://www.w3.org/2000/svg">
<path d="M9.37295 10.87C9.27295 10.86 9.15295 10.86 9.04295 10.87C6.66295 10.79 4.77295 8.84 4.77295 6.44C4.77295 3.99 6.75295 2 9.21295 2C11.6629 2 13.6529 3.99 13.6529 6.44C13.6429 8.84 11.7529 10.79 9.37295 10.87Z" stroke="#272727" stroke-width="1.5" stroke-linecap="round" stroke-linejoin="round"/>
<path d="M16.6227 4C18.5627 4 20.1227 5.57 20.1227 7.5C20.1227 9.39 18.6227 10.93 16.7527 11C16.6727 10.99 16.5827 10.99 16.4927 11" stroke="#272727" stroke-width="1.5" stroke-linecap="round" stroke-linejoin="round"/>
<path d="M4.37311 14.56C1.95311 16.18 1.95311 18.82 4.37311 20.43C7.12311 22.27 11.6331 22.27 14.3831 20.43C16.8031 18.81 16.8031 16.17 14.3831 14.56C11.6431 12.73 7.13311 12.73 4.37311 14.56Z" stroke="#272727" stroke-width="1.5" stroke-linecap="round" stroke-linejoin="round"/>
<path d="M18.5527 20C19.2727 19.85 19.9527 19.56 20.5127 19.13C22.0727 17.96 22.0727 16.03 20.5127 14.86C19.9627 14.44 19.2927 14.16 18.5827 14" stroke="#272727" stroke-width="1.5" stroke-linecap="round" stroke-linejoin="round"/>
</svg>
