<svg width="25" height="24" viewBox="0 0 25 24" fill="none" xmlns="http://www.w3.org/2000/svg">
<path d="M18.2129 7V17C18.2129 17.62 18.1929 18.17 18.1229 18.66C17.8329 21.29 16.5929 22 13.2129 22H11.2129C7.83289 22 6.59289 21.29 6.30289 18.66C6.23289 18.17 6.21289 17.62 6.21289 17V7C6.21289 6.38 6.23289 5.83 6.30289 5.34C6.59289 2.71 7.83289 2 11.2129 2H13.2129C16.5929 2 17.8329 2.71 18.1229 5.34C18.1929 5.83 18.2129 6.38 18.2129 7Z" stroke="#272727" stroke-width="1.5" stroke-linecap="round" stroke-linejoin="round"/>
<path d="M6.21289 17C6.21289 17.62 6.23289 18.17 6.30289 18.66C6.16289 18.67 6.03289 18.67 5.88289 18.67H5.54289C2.88289 18.67 2.21289 18 2.21289 15.33V8.66999C2.21289 5.99999 2.88289 5.32999 5.54289 5.32999H5.88289C6.03289 5.32999 6.16289 5.32999 6.30289 5.33999C6.23289 5.82999 6.21289 6.37999 6.21289 6.99999V17Z" stroke="#272727" stroke-width="1.5" stroke-linecap="round" stroke-linejoin="round"/>
<path d="M22.213 8.66999V15.33C22.213 18 21.543 18.67 18.883 18.67H18.543C18.393 18.67 18.263 18.67 18.123 18.66C18.193 18.17 18.213 17.62 18.213 17V6.99999C18.213 6.37999 18.193 5.82999 18.123 5.33999C18.263 5.32999 18.393 5.32999 18.543 5.32999H18.883C21.543 5.32999 22.213 5.99999 22.213 8.66999Z" stroke="#272727" stroke-width="1.5" stroke-linecap="round" stroke-linejoin="round"/>
</svg>
