<svg width="25" height="24" viewBox="0 0 25 24" fill="none" xmlns="http://www.w3.org/2000/svg">
<g id="vuesax/bold/ticket-expired">
<g id="ticket-expired">
<path id="Vector" d="M20.2598 12.94C20.2598 13.74 20.9098 14.4 21.7098 14.4C22.0898 14.4 22.4098 14.71 22.4098 15.09C22.4098 18.93 21.2498 20.09 17.4098 20.09H12.1598V18.5C12.1598 18.11 11.8598 17.79 11.4798 17.76C11.4598 17.75 11.4298 17.75 11.4098 17.75C10.9998 17.75 10.6598 18.09 10.6598 18.5V20.09H8.89976C7.01976 20.09 6.04976 18.68 5.16976 16.55L4.99976 16.13C4.85976 15.77 5.02976 15.36 5.38976 15.22C5.75976 15.08 6.04976 14.79 6.19976 14.41C6.35976 14.04 6.35976 13.63 6.20976 13.26C5.88976 12.49 5.00976 12.12 4.22976 12.43C4.05976 12.51 3.85976 12.51 3.68976 12.43C3.51976 12.36 3.38976 12.22 3.30976 12.04L3.15976 11.64C1.66976 8.02 2.31976 6.47 5.93976 4.97L8.38976 3.96C8.74976 3.81 9.15976 3.98 9.29976 4.34L11.4798 9.09C11.0698 9.09 10.6598 9.42 10.6598 9.83V14.17C10.6598 14.58 10.9998 14.92 11.4098 14.92C11.4298 14.92 11.4598 14.92 11.4798 14.91C11.8598 14.88 12.1598 14.56 12.1598 14.17V9.83C12.1598 9.44 11.8598 9.12 11.4798 9.09V4.93H17.4098C21.2498 4.93 22.4098 6.09 22.4098 9.93V10.78C22.4098 11.17 22.0898 11.48 21.7098 11.48C20.9098 11.48 20.2598 12.13 20.2598 12.94Z" fill="#2563EB"/>
</g>
</g>
</svg>
