<svg width="41" height="41" viewBox="0 0 41 41" fill="none" xmlns="http://www.w3.org/2000/svg">
<g id="Frame">
<g id="Group">
<path id="Vector" d="M22.8752 3.8752C22.8752 2.4496 21.9252 1.5 20.5 1.5C19.0748 1.5 18.1248 2.45 18.1248 3.8752V8.6248C18.1248 10.05 19.0748 11 20.5 11C21.9252 11 22.8752 10.05 22.8752 8.6248V3.8752ZM20.5 30C19.0748 30 18.1248 30.95 18.1248 32.3752V37.1248C18.1248 38.55 19.0748 39.5 20.5 39.5C21.9252 39.5 22.8752 38.55 22.8752 37.1248V32.3756C22.8752 30.9504 21.9252 30 20.5 30ZM13.85 10.5252L10.5252 6.9624C9.5752 6.25 7.9124 6.25 6.9624 6.9624C6.25 7.9124 6.25 9.5752 6.9624 10.5252L10.2876 13.85C11.2376 14.8 12.6624 14.8 13.6124 13.85C14.8 12.9 14.8 11.2376 13.85 10.5252ZM30.4752 34.0376C31.4248 34.9876 32.85 34.9876 33.8 34.0376C34.75 33.0876 34.75 31.6624 33.8 30.7124L30.4748 27.3876C29.5252 26.4376 28.1 26.4376 27.15 27.3876C26.2 28.3376 26.2 29.7624 27.15 30.7124L30.4752 34.0376ZM1.5 20.5C1.5 21.9252 2.45 22.8752 3.8752 22.8752H8.6252C10.05 22.8752 11 21.9252 11 20.5C11 19.0748 10.05 18.1248 8.6252 18.1248H3.8752C2.45 18.1252 1.5 19.0752 1.5 20.5ZM39.5 20.5C39.5 19.0748 38.55 18.1248 37.1248 18.1248H32.3756C30.9504 18.1248 30.0004 19.0748 30.0004 20.5C30.0004 21.9252 30.9504 22.8752 32.3756 22.8752H37.1252C38.5504 22.8752 39.5 21.9252 39.5 20.5ZM10.5252 34.0376L13.85 30.7124C14.8 29.7624 14.8 28.3376 13.85 27.3876C12.9 26.4376 11.4752 26.4376 10.5252 27.3876L7.2 30.712C6.25 31.662 6.25 33.0872 7.2 34.0372C7.9124 34.7496 9.5752 34.75 10.5252 34.0376ZM30.4752 6.9624L27.15 10.2876C26.2 11.2376 26.2 12.6624 27.15 13.6124C28.1 14.5624 29.5252 14.5624 30.4752 13.6124L33.8 10.2876C34.75 9.3376 34.75 7.9124 33.8 6.9624C33.0876 6.25 31.4248 6.25 30.4748 6.9624H30.4752Z" fill="#F8F9FA"/>
</g>
</g>
</svg>
