<svg width="25" height="24" viewBox="0 0 25 24" fill="none" xmlns="http://www.w3.org/2000/svg">
<g id="home">
<path id="Vector" d="M4.09801 15.4643L4.79438 15.2429L4.09801 15.4643ZM3.03936 9.45481L3.74324 9.65099L3.03936 9.45481ZM7.46007 4.8893L7.02445 4.30263H7.02445L7.46007 4.8893ZM3.14735 9.11512L3.83529 9.36146L3.14735 9.11512ZM6.98053 21.172L6.56687 21.7743H6.56687L6.98053 21.172ZM6.69779 20.962L6.24083 21.5322L6.69779 20.962ZM21.702 15.4643L21.0056 15.2429L21.702 15.4643ZM19.1022 20.962L19.5591 21.5322L19.1022 20.962ZM18.8194 21.172L19.2331 21.7743L18.8194 21.172ZM18.3399 4.8893L18.7755 4.30263L18.3399 4.8893ZM22.6526 9.11512L21.9647 9.36146L22.6526 9.11512ZM22.7606 9.45481L22.0567 9.65099L22.7606 9.45481ZM13.0747 2.00327L13.0474 2.73348L13.0747 2.00327ZM12.7252 2.00327L12.7526 2.73348L12.7252 2.00327ZM10.9934 16.6822C10.5898 16.6822 10.2626 17.0093 10.2626 17.4129C10.2626 17.8164 10.5898 18.1436 10.9934 18.1436V16.6822ZM14.8066 18.1436C15.2102 18.1436 15.5373 17.8164 15.5373 17.4129C15.5373 17.0093 15.2102 16.6822 14.8066 16.6822V18.1436ZM4.79438 15.2429C4.30413 13.7009 3.95459 12.5983 3.77114 11.7029C3.59104 10.8239 3.5868 10.2123 3.74324 9.65099L2.33547 9.25863C2.09396 10.1252 2.13351 10.9911 2.33946 11.9963C2.54205 12.9851 2.92082 14.1733 3.40165 15.6857L4.79438 15.2429ZM7.02445 4.30263C5.76605 5.23703 4.77494 5.97171 4.04114 6.65108C3.29431 7.34252 2.76284 8.02142 2.45942 8.86878L3.83529 9.36146C4.03112 8.8146 4.38486 8.32446 5.03399 7.72347C5.69616 7.11042 6.61178 6.42931 7.89569 5.47597L7.02445 4.30263ZM3.74324 9.65099C3.77046 9.55334 3.80117 9.45677 3.83529 9.36146L2.45942 8.86878C2.41344 8.99716 2.3721 9.1272 2.33547 9.25863L3.74324 9.65099ZM12.9 21.2693C11.3125 21.2693 10.1812 21.2683 9.29428 21.1702C8.42523 21.0741 7.862 20.8909 7.39418 20.5696L6.56687 21.7743C7.30482 22.2811 8.13008 22.5118 9.13371 22.6228C10.1194 22.7317 11.345 22.7307 12.9 22.7307V21.2693ZM3.40165 15.6857C3.88244 17.198 4.25943 18.3869 4.66434 19.3089C5.07576 20.2456 5.54294 20.973 6.24083 21.5322L7.15474 20.3918C6.70947 20.035 6.36231 19.5407 6.0024 18.7212C5.63597 17.8869 5.28466 16.785 4.79438 15.2429L3.40165 15.6857ZM7.39418 20.5696C7.3123 20.5134 7.23243 20.4541 7.15474 20.3918L6.24083 21.5322C6.34655 21.6169 6.4553 21.6977 6.56687 21.7743L7.39418 20.5696ZM21.0056 15.2429C20.5153 16.785 20.164 17.8869 19.7976 18.7212C19.4377 19.5407 19.0905 20.035 18.6452 20.3918L19.5591 21.5322C20.257 20.973 20.7242 20.2456 21.1356 19.3089C21.5405 18.3869 21.9175 17.198 22.3983 15.6857L21.0056 15.2429ZM12.9 22.7307C14.455 22.7307 15.6806 22.7317 16.6663 22.6228C17.6699 22.5118 18.4952 22.2811 19.2331 21.7743L18.4058 20.5696C17.938 20.8909 17.3747 21.0741 16.5057 21.1702C15.6187 21.2683 14.4874 21.2693 12.9 21.2693V22.7307ZM18.6452 20.3918C18.5675 20.4541 18.4877 20.5134 18.4058 20.5696L19.2331 21.7743C19.3447 21.6977 19.4534 21.6169 19.5591 21.5322L18.6452 20.3918ZM17.9043 5.47597C19.1882 6.42931 20.1038 7.11042 20.766 7.72347C21.4151 8.32446 21.7689 8.8146 21.9647 9.36146L23.3406 8.86878C23.0371 8.02142 22.5057 7.34252 21.7588 6.65108C21.025 5.97171 20.0339 5.23703 18.7755 4.30263L17.9043 5.47597ZM22.3983 15.6857C22.8792 14.1733 23.2579 12.9851 23.4605 11.9963C23.6665 10.9911 23.706 10.1252 23.4645 9.25863L22.0567 9.65099C22.2132 10.2123 22.2089 10.8239 22.0288 11.7029C21.8454 12.5983 21.4958 13.7009 21.0056 15.2429L22.3983 15.6857ZM21.9647 9.36146C21.9988 9.45676 22.0295 9.55334 22.0567 9.65099L23.4645 9.25863C23.4279 9.1272 23.3865 8.99716 23.3406 8.86878L21.9647 9.36146ZM18.7755 4.30263C17.5173 3.36835 16.5271 2.63187 15.6678 2.12834C14.7937 1.6162 13.9932 1.30648 13.1021 1.27307L13.0474 2.73348C13.608 2.7545 14.1689 2.94392 14.9289 3.38926C15.7037 3.8432 16.6202 4.52252 17.9043 5.47597L18.7755 4.30263ZM7.89569 5.47597C9.17975 4.52252 10.0963 3.8432 10.871 3.38926C11.6311 2.94392 12.192 2.7545 12.7526 2.73348L12.6979 1.27307C11.8068 1.30648 11.0063 1.6162 10.1322 2.12834C9.27285 2.63187 8.28269 3.36835 7.02445 4.30263L7.89569 5.47597ZM13.1021 1.27307C12.9674 1.26802 12.8326 1.26802 12.6979 1.27307L12.7526 2.73348C12.8508 2.72979 12.9491 2.72979 13.0474 2.73348L13.1021 1.27307ZM10.9934 18.1436H14.8066V16.6822H10.9934V18.1436Z" fill="#5E5E5E"/>
</g>
</svg>
