<svg width="23" height="20" viewBox="0 0 23 20" fill="none" xmlns="http://www.w3.org/2000/svg">
<g id="Group">
<path id="Vector" d="M11.5427 10.9973V18.9973M3.54267 12.8963C2.79971 12.1373 2.23923 11.219 1.9037 10.2113C1.56817 9.2035 1.46637 8.13258 1.60603 7.07964C1.74568 6.02669 2.12312 5.01934 2.70976 4.13387C3.2964 3.2484 4.07685 2.50805 4.992 1.96889C5.90715 1.42972 6.93299 1.10589 7.99183 1.02191C9.05067 0.937937 10.1147 1.09602 11.1034 1.48419C12.0921 1.87237 12.9795 2.48045 13.6984 3.26237C14.4173 4.0443 14.9488 4.97957 15.2527 5.99733H17.0427C18.0082 5.99722 18.9481 6.30766 19.7237 6.88277C20.4992 7.45789 21.0692 8.2672 21.3494 9.19114C21.6297 10.1151 21.6053 11.1047 21.28 12.0137C20.9546 12.9228 20.3455 13.703 19.5427 14.2393" stroke="#2563EB" stroke-width="1.5" stroke-linecap="round" stroke-linejoin="round"/>
<path id="Vector_2" d="M7.54266 14.9976L11.5427 10.9976L15.5427 14.9976" stroke="#2563EB" stroke-width="1.5" stroke-linecap="round" stroke-linejoin="round"/>
</g>
</svg>
