<svg width="81" height="81" viewBox="0 0 81 81" fill="none" xmlns="http://www.w3.org/2000/svg">
<g id="Frame">
<g id="Group">
<path id="Vector" d="M40.5 79.25C61.901 79.25 79.25 61.901 79.25 40.5C79.25 19.099 61.901 1.75 40.5 1.75C19.099 1.75 1.75 19.099 1.75 40.5C1.75 61.901 19.099 79.25 40.5 79.25Z" fill="#E6ECFF"/>
<g id="Group_2">
<path id="Vector_2" d="M71.5963 63.5939C67.9823 58.7555 63.2896 54.8268 57.8911 52.1198C52.4927 49.4129 46.5373 48.0024 40.4981 48.0005C34.459 47.9985 28.5027 49.4052 23.1025 52.1087C17.7023 54.8121 13.0071 58.7379 9.39001 63.5739C12.9886 68.4346 17.6761 72.3844 23.0766 75.1068C28.477 77.8291 34.4403 79.2481 40.4881 79.25C46.5359 79.252 52.5001 77.8368 57.9023 75.118C63.3045 72.3991 67.9945 68.4523 71.5963 63.5939Z" fill="#4294FF"/>
<path id="Vector_3" d="M40.5 43C48.7843 43 55.5 36.2843 55.5 28C55.5 19.7157 48.7843 13 40.5 13C32.2157 13 25.5 19.7157 25.5 28C25.5 36.2843 32.2157 43 40.5 43Z" fill="#4294FF"/>
</g>
</g>
</g>
</svg>
