<svg width="16" height="16" viewBox="0 0 16 16" fill="none" xmlns="http://www.w3.org/2000/svg">
<g id="vuesax/outline/arrow-up">
<g id="arrow-up">
<path id="Vector" d="M6.87996 3.95332C6.87996 4.07998 6.83329 4.20665 6.73329 4.30665L3.03996 7.99998L6.73329 11.6933C6.92663 11.8866 6.92663 12.2066 6.73329 12.4C6.53996 12.5933 6.21996 12.5933 6.02663 12.4L1.97996 8.35332C1.78663 8.15998 1.78663 7.83998 1.97996 7.64665L6.02663 3.59998C6.21996 3.40665 6.53996 3.40665 6.73329 3.59998C6.83329 3.69332 6.87996 3.82665 6.87996 3.95332Z" fill="#2563EB"/>
<path id="Vector_2" d="M14.1667 8C14.1667 8.27333 13.94 8.5 13.6667 8.5L2.44666 8.5C2.17332 8.5 1.94666 8.27333 1.94666 8C1.94666 7.72667 2.17332 7.5 2.44666 7.5L13.6667 7.5C13.94 7.5 14.1667 7.72667 14.1667 8Z" fill="#2563EB"/>
</g>
</g>
</svg>
