<svg width="21" height="21" viewBox="0 0 21 21" fill="none" xmlns="http://www.w3.org/2000/svg">
<g id="zoom">
<g id="camera">
<path d="M4.48519 5.8335C3.94108 5.8335 3.5 6.33096 3.5 6.94461V12.3335C3.5 13.8983 4.62476 15.1668 6.01222 15.1668L11.8481 15.1113C12.3923 15.1113 12.8333 14.6138 12.8333 14.0002V8.55574C12.8333 6.99093 11.4986 5.83352 10.1111 5.83352L4.48519 5.8335Z" fill="#2563EB"/>
<path d="M14.165 7.95496C13.813 8.30307 13.6111 8.80547 13.6111 9.33352V11.5885C13.6111 12.1166 13.813 12.619 14.165 12.9671L16.3557 14.8965C16.8015 15.3373 17.5 14.9803 17.5 14.3117V6.7164C17.5 6.04781 16.8015 5.6908 16.3557 6.13156L14.165 7.95496Z" fill="#2563EB"/>
</g>
</g>
</svg>
